<svg id="Layer_1" data-name="Layer 1" xmlns="http://www.w3.org/2000/svg" viewBox="0 0 933 60"><defs><style>.cls-1{fill:#6abe84;}</style></defs><title>border_ch</title><rect class="cls-1" x="-0.5" y="5.37" width="935" height="2"/><rect class="cls-1" x="-0.5" y="5.87" width="935" height="1"/><rect class="cls-1" x="-1.5" y="4.87" width="937" height="3"/><rect class="cls-1" x="-1.5" y="52.37" width="936" height="2"/><rect class="cls-1" x="-1.5" y="52.87" width="936" height="1"/><rect class="cls-1" x="-2.5" y="51.87" width="938" height="3"/><path class="cls-1" d="M882.74,53A6.23,6.23,0,0,1,879,52a3,3,0,0,1-1.37-2.14c0-1.23,1.17-2.09,1.68-2.46.84-.61,1.68-1.27,2.49-1.91a45.2,45.2,0,0,1,4.4-3.18,42.59,42.59,0,0,0,6.5-4.73,10.29,10.29,0,0,0,1.71-1.9c.65-.85,1.73-2.27,4.2-5.2,2-2.85,4.1-6.31,4-7l-.13-.28a1.91,1.91,0,0,0-1.14-.22c-.66,0-1.49,0-1.86-.71-.5-.92.3-2.09,1.22-3.45a11.07,11.07,0,0,1,2.48-2.79,9.79,9.79,0,0,1,5.94-2.18h0a9.07,9.07,0,0,1,3.05.57c.81.27,1.13.35,1.42.12.11-.09.13-.13.26-1,.08-.59.2-1.49.47-2.88.12-.68.32-1.67.55-2.79l.18-.41.33-.15c3.65.19,5.88.57,6.29,1.05,1.49,1.8.28,5.8-1.17,8-.17.26-.35.5-.5.7-.46.62-.68.94-.62,1.38s.42.78,1.12,1.24a6.78,6.78,0,0,1,1.77,1.53c1.61,2.06,1.23,4.79,1,6.6-.31,2.24-1.61,6.36-3.39,6.36h-.07c-.67,0-1-.61-1.23-1.07s-.38-.68-.62-.72c-.58-.12-1.4,1.2-2.35,2.72A34.81,34.81,0,0,1,912.13,40c-2.4,2.71-4.82,4.11-8.17,6.06a50,50,0,0,1-9.63,4.21C890.28,51.7,886,53,882.74,53Zm26.4-38.19h0a8.82,8.82,0,0,0-5.4,2,10.17,10.17,0,0,0-2.29,2.58c-.66,1-1.41,2.08-1.17,2.53.11.21.5.23,1.09.24a2.22,2.22,0,0,1,1.85.59l.06.09s.16.37.17.37c.48,1.07-2.36,5.37-4.09,7.83l0,0c-2.46,2.93-3.54,4.34-4.19,5.19a11.84,11.84,0,0,1-1.82,2,43.89,43.89,0,0,1-6.63,4.82,44.38,44.38,0,0,0-4.32,3.13c-.81.64-1.66,1.31-2.52,1.93-.39.28-1.32,1-1.3,1.72s.76,1.25,1,1.43c2.91,2.18,11.34-.75,14.51-1.85a49.76,49.76,0,0,0,9.47-4.14c3.28-1.91,5.65-3.29,8-5.88a34.6,34.6,0,0,0,3.4-4.77c1.26-2,2.1-3.37,3.29-3.13a1.94,1.94,0,0,1,1.23,1.17c.19.36.33.6.49.61h0c.76,0,2.1-2.68,2.5-5.58.24-1.76.57-4.17-.81-5.93A6.1,6.1,0,0,0,920,20.46c-.72-.48-1.4-.93-1.51-1.87a2.7,2.7,0,0,1,.79-2c.15-.21.31-.42.47-.67C921.21,13.71,922,10.33,921,9c-.15-.09-1.13-.51-5.3-.76-.21,1.05-.39,2-.51,2.6-.26,1.38-.39,2.26-.47,2.84-.13,1-.18,1.28-.59,1.61-.7.54-1.42.3-2.26,0A8.2,8.2,0,0,0,909.14,14.81ZM921.05,9Z"/><path class="cls-1" d="M882.74,54a7.07,7.07,0,0,1-4.35-1.18,3.78,3.78,0,0,1-1.77-2.93c0-1.75,1.51-2.86,2.09-3.28.82-.59,1.63-1.23,2.42-1.85a48.2,48.2,0,0,1,4.54-3.29A41.63,41.63,0,0,0,892,36.86a9.4,9.4,0,0,0,1.57-1.74c.66-.87,1.74-2.29,4.25-5.27A45,45,0,0,0,901.41,24h-.1a2.87,2.87,0,0,1-2.73-1.23c-.79-1.46.26-3,1.27-4.49a12.16,12.16,0,0,1,2.7-3,10.79,10.79,0,0,1,6.55-2.39,10.29,10.29,0,0,1,3.4.62l.35.11a2,2,0,0,1,0-.2c.07-.56.2-1.49.47-2.93.13-.68.33-1.67.56-2.8l.07-.2.33-.76.89-.42.25,0c6.1.33,6.69,1,7,1.41,1.91,2.29.51,6.75-1.09,9.18-.19.29-.37.54-.54.76a3.59,3.59,0,0,0-.43.66,3.29,3.29,0,0,0,.68.52,8,8,0,0,1,2,1.75c1.87,2.4,1.44,5.5,1.19,7.35-.28,2-1.6,7.23-4.38,7.23h-.11a2.47,2.47,0,0,1-2-1.49,21.28,21.28,0,0,0-1.3,1.95,35.18,35.18,0,0,1-3.6,5c-2.5,2.82-5,4.26-8.41,6.25a50.81,50.81,0,0,1-9.79,4.3C890.73,52.6,886.25,54,882.74,54Zm18.73-32.85a3,3,0,0,1,2.51,1l.18.29.17.39c.28.6.79,1.74-4.19,8.81l-.07.1c-2.46,2.91-3.53,4.31-4.17,5.14A12.1,12.1,0,0,1,894,39,45.66,45.66,0,0,1,887.18,44a43.87,43.87,0,0,0-4.2,3c-.85.67-1.7,1.34-2.57,2s-.89.83-.89.89,0,.23.61.65c1.65,1.24,6.21.57,13.57-2A48.62,48.62,0,0,0,903,44.44c3.2-1.86,5.51-3.2,7.7-5.67a33.11,33.11,0,0,0,3.3-4.64c1.38-2.21,2.45-4,4.34-3.58A2.54,2.54,0,0,1,920,31.83a12,12,0,0,0,1.37-4.24c.23-1.67.51-3.75-.6-5.18a5.14,5.14,0,0,0-1.33-1.11,3.56,3.56,0,0,1-2-2.59,3.63,3.63,0,0,1,1-2.74c.14-.19.29-.39.44-.62,1.29-2,1.81-4.55,1.41-5.52a20.54,20.54,0,0,0-3.81-.51c-.14.68-.26,1.27-.34,1.73-.26,1.36-.38,2.22-.46,2.79-.14,1.05-.23,1.68-1,2.26a3.11,3.11,0,0,1-3.18.18,7.3,7.3,0,0,0-2.45-.47h0a7.86,7.86,0,0,0-4.79,1.78A9.09,9.09,0,0,0,902.25,20C902,20.26,901.7,20.75,901.47,21.15Zm.45,2.93Z"/><path class="cls-1" d="M903.21,23.26l-.75-.49a2,2,0,0,1,.46-.5,2.4,2.4,0,0,1,1.52-.46l.49,0a1.14,1.14,0,0,0,.24-.05,7.5,7.5,0,0,1,2-.2v.9a6.84,6.84,0,0,0-1.79.17,2.05,2.05,0,0,1-.34.07c-.2,0-.38,0-.55.05a1.53,1.53,0,0,0-1,.26A1.08,1.08,0,0,0,903.21,23.26Z"/><path class="cls-1" d="M903.54,24.58l-.88-.48-1.58-1.05.55-.83a3.31,3.31,0,0,1,.66-.73,3.38,3.38,0,0,1,2.09-.68c.17,0,.3,0,.43,0l.12,0a8.82,8.82,0,0,1,2.24-.23h1v2.9h-1a5.68,5.68,0,0,0-1.55.15l-.46.09-.62,0a4.09,4.09,0,0,0-.45.05Z"/><path class="cls-1" d="M918.15,32.49l-.48-.75a.23.23,0,0,0-.09.08s.06-.14.09-.21a2,2,0,0,1,.16-.33c.08-.14.06-.33,0-.7,0-.16-.05-.32-.07-.51a2.84,2.84,0,0,1,0-.9.41.41,0,0,0,0-.22,1.2,1.2,0,0,0-.46-.6,5.46,5.46,0,0,1-1-1.05,3.92,3.92,0,0,1-.41-.69l0-.08c-.59-.34-2.08.48-3,1.43l-.14.14-.18.18c-1,.83-2.63,1.28-3.54.62-.65-.48-.69-1.33-.78-3,0-.5,0-.88,0-1.19a2.19,2.19,0,0,0-.21-1.29c0-.08-.06-.15-.1-.25-.14-.47-.3-.72-.7-.72v-.9a1.66,1.66,0,0,1,1.56,1.35.46.46,0,0,0,0,.09,3,3,0,0,1,.32,1.71c0,.31,0,.68,0,1.16.07,1.32.11,2.12.42,2.34.48.35,1.68.07,2.43-.57l.1-.1.17-.18c1-1,3-2.24,4.12-1.56a1,1,0,0,1,.41.46,2.34,2.34,0,0,0,.33.56,4.73,4.73,0,0,0,.83.9,2,2,0,0,1,.73,1,1.1,1.1,0,0,1,0,.62,2,2,0,0,0,0,.65c0,.17,0,.32.07.46a1.81,1.81,0,0,1-.13,1.31s-.06.14-.09.2A1.08,1.08,0,0,1,918.15,32.49Z"/><path class="cls-1" d="M917.85,33.88l-1-1.6.68-.44-.83-.46a.56.56,0,0,1,.05-.08v-.06c0-.11.09-.21.14-.3s0-.13,0-.21-.05-.35-.07-.55a4,4,0,0,1,0-1l-.11-.09a7,7,0,0,1-1.12-1.21c-.1-.14-.18-.27-.25-.38a5.62,5.62,0,0,0-1.74,1.16l-.09.09a1.85,1.85,0,0,1-.28.28c-1.28,1.1-3.42,1.66-4.78.66-1-.75-1.09-1.89-1.19-3.78,0-.51,0-.91,0-1.23,0-.67,0-.69-.08-.81a2.35,2.35,0,0,1-.18-.43,0,0,0,0,0,0,0h-.74v-2.9h1a2.57,2.57,0,0,1,2.51,2,4,4,0,0,1,.4,2.11c0,.3,0,.65,0,1.11s.07,1.22.12,1.57a2.63,2.63,0,0,0,1.08-.51l.23-.24c1.14-1.11,3.55-2.73,5.31-1.71a1.9,1.9,0,0,1,.81.91,2.46,2.46,0,0,0,.24.4,4.12,4.12,0,0,0,.68.73,3,3,0,0,1,1,1.52,2.07,2.07,0,0,1,0,1.06.82.82,0,0,0,0,.37,4,4,0,0,0,.05.4,2.69,2.69,0,0,1-.26,2v0a2,2,0,0,1-.74,1Zm.11-1.69.25.39a.72.72,0,0,0,.25-.29h0l0,.05,0,0-.25.16Zm-1-1.43h0Z"/><path class="cls-1" d="M812.74,53A6.23,6.23,0,0,1,809,52a3,3,0,0,1-1.37-2.14c0-1.23,1.17-2.09,1.68-2.46.84-.61,1.68-1.27,2.49-1.91a45.2,45.2,0,0,1,4.4-3.18,42.59,42.59,0,0,0,6.5-4.73,10.29,10.29,0,0,0,1.71-1.9c.65-.85,1.73-2.27,4.2-5.2,2-2.85,4.1-6.31,4-7l-.13-.28a1.91,1.91,0,0,0-1.14-.22c-.66,0-1.49,0-1.86-.71-.5-.92.3-2.09,1.22-3.45a11.07,11.07,0,0,1,2.48-2.79,9.79,9.79,0,0,1,5.94-2.18h0a9.07,9.07,0,0,1,3.05.57c.81.27,1.13.35,1.42.12.11-.09.13-.13.26-1,.08-.59.2-1.49.47-2.88.12-.68.32-1.67.55-2.79l.18-.41.33-.15c3.65.19,5.88.57,6.29,1.05,1.49,1.8.28,5.8-1.17,8-.17.26-.35.5-.5.7-.46.62-.68.94-.62,1.38s.42.78,1.12,1.24a6.78,6.78,0,0,1,1.77,1.53c1.61,2.06,1.23,4.79,1,6.6-.31,2.24-1.61,6.36-3.39,6.36h-.07c-.67,0-1-.61-1.23-1.07s-.38-.68-.62-.72c-.58-.12-1.4,1.2-2.35,2.72A34.81,34.81,0,0,1,842.13,40c-2.4,2.71-4.82,4.11-8.17,6.06a50,50,0,0,1-9.63,4.21C820.28,51.7,816,53,812.74,53Zm26.4-38.19h0a8.82,8.82,0,0,0-5.4,2,10.17,10.17,0,0,0-2.29,2.58c-.66,1-1.41,2.08-1.17,2.53.11.21.5.23,1.09.24a2.22,2.22,0,0,1,1.85.59l.06.09s.16.37.17.37c.48,1.07-2.36,5.37-4.09,7.83l0,0c-2.46,2.93-3.54,4.34-4.19,5.19a11.84,11.84,0,0,1-1.82,2,43.89,43.89,0,0,1-6.63,4.82,44.38,44.38,0,0,0-4.32,3.13c-.81.64-1.66,1.31-2.52,1.93-.39.28-1.32,1-1.3,1.72s.76,1.25,1,1.43c2.91,2.18,11.34-.75,14.51-1.85a49.76,49.76,0,0,0,9.47-4.14c3.28-1.91,5.65-3.29,8-5.88a34.6,34.6,0,0,0,3.4-4.77c1.26-2,2.1-3.37,3.29-3.13a1.94,1.94,0,0,1,1.23,1.17c.19.36.33.6.49.61h0c.76,0,2.1-2.68,2.5-5.58.24-1.76.57-4.17-.81-5.93A6.1,6.1,0,0,0,850,20.46c-.72-.48-1.4-.93-1.51-1.87a2.7,2.7,0,0,1,.79-2c.15-.21.31-.42.47-.67C851.21,13.71,852,10.33,851,9c-.15-.09-1.13-.51-5.3-.76-.21,1.05-.39,2-.51,2.6-.26,1.38-.39,2.26-.47,2.84-.13,1-.18,1.28-.59,1.61-.7.54-1.42.3-2.26,0A8.2,8.2,0,0,0,839.14,14.81ZM851.05,9Z"/><path class="cls-1" d="M812.74,54a7.07,7.07,0,0,1-4.35-1.18,3.78,3.78,0,0,1-1.77-2.93c0-1.75,1.51-2.86,2.09-3.28.82-.59,1.63-1.23,2.42-1.85a48.2,48.2,0,0,1,4.54-3.29A41.63,41.63,0,0,0,822,36.86a9.4,9.4,0,0,0,1.57-1.74c.66-.87,1.74-2.29,4.25-5.27A45,45,0,0,0,831.41,24h-.1a2.87,2.87,0,0,1-2.73-1.23c-.79-1.46.26-3,1.27-4.49a12.16,12.16,0,0,1,2.7-3,10.79,10.79,0,0,1,6.55-2.39,10.29,10.29,0,0,1,3.4.62l.35.11a2,2,0,0,1,0-.2c.07-.56.2-1.49.47-2.93.13-.68.33-1.67.56-2.8l.07-.2.33-.76.89-.42.25,0c6.1.33,6.69,1,7,1.41,1.91,2.29.51,6.75-1.09,9.18-.19.29-.37.54-.54.76a3.59,3.59,0,0,0-.43.66,3.29,3.29,0,0,0,.68.52,8,8,0,0,1,2,1.75c1.87,2.4,1.44,5.5,1.19,7.35-.28,2-1.6,7.23-4.38,7.23h-.11a2.47,2.47,0,0,1-2-1.49,21.28,21.28,0,0,0-1.3,1.95,35.18,35.18,0,0,1-3.6,5c-2.5,2.82-5,4.26-8.41,6.25a50.81,50.81,0,0,1-9.79,4.3C820.73,52.6,816.25,54,812.74,54Zm18.73-32.85a3,3,0,0,1,2.51,1l.18.29.17.39c.28.6.79,1.74-4.19,8.81l-.07.1c-2.46,2.91-3.53,4.31-4.17,5.14A12.1,12.1,0,0,1,824,39,45.66,45.66,0,0,1,817.18,44a43.87,43.87,0,0,0-4.2,3c-.85.67-1.7,1.34-2.57,2s-.89.83-.89.89,0,.23.61.65c1.64,1.24,6.21.57,13.57-2A48.62,48.62,0,0,0,833,44.44c3.2-1.86,5.51-3.2,7.7-5.67a33.11,33.11,0,0,0,3.3-4.64c1.38-2.21,2.45-4,4.34-3.58A2.54,2.54,0,0,1,850,31.83a12,12,0,0,0,1.37-4.24c.23-1.67.51-3.75-.6-5.18a5.14,5.14,0,0,0-1.33-1.11,3.56,3.56,0,0,1-2-2.59,3.63,3.63,0,0,1,1-2.74c.14-.19.29-.39.44-.62,1.29-2,1.81-4.55,1.41-5.52a20.54,20.54,0,0,0-3.81-.51c-.14.68-.26,1.27-.34,1.73-.26,1.36-.38,2.22-.46,2.79-.14,1.05-.23,1.68-1,2.26a3.11,3.11,0,0,1-3.18.18,7.3,7.3,0,0,0-2.45-.47h0a7.86,7.86,0,0,0-4.79,1.78A9.09,9.09,0,0,0,832.25,20C832,20.26,831.7,20.75,831.47,21.15Zm.45,2.93Z"/><path class="cls-1" d="M833.21,23.26l-.75-.49a2,2,0,0,1,.46-.5,2.4,2.4,0,0,1,1.52-.46l.49,0a1.14,1.14,0,0,0,.24-.05,7.5,7.5,0,0,1,2-.2v.9a6.84,6.84,0,0,0-1.79.17,2.05,2.05,0,0,1-.34.07c-.2,0-.38,0-.55.05a1.53,1.53,0,0,0-1,.26A1.08,1.08,0,0,0,833.21,23.26Z"/><path class="cls-1" d="M833.54,24.58l-.88-.48-1.58-1.05.55-.83a3.31,3.31,0,0,1,.66-.73,3.38,3.38,0,0,1,2.09-.68c.17,0,.3,0,.43,0l.12,0a8.82,8.82,0,0,1,2.24-.23h1v2.9h-1a5.68,5.68,0,0,0-1.55.15l-.46.09-.62,0a4.09,4.09,0,0,0-.45.05Z"/><path class="cls-1" d="M848.15,32.49l-.48-.75a.23.23,0,0,0-.09.08s.06-.14.09-.21a2,2,0,0,1,.16-.33c.08-.14.06-.33,0-.7,0-.16-.05-.32-.07-.51a2.84,2.84,0,0,1,0-.9.41.41,0,0,0,0-.22,1.2,1.2,0,0,0-.46-.6,5.46,5.46,0,0,1-1-1.05,3.92,3.92,0,0,1-.41-.69l0-.08c-.59-.34-2.08.48-3,1.43l-.14.14-.18.18c-1,.83-2.63,1.28-3.54.62-.65-.48-.69-1.33-.78-3,0-.5,0-.88,0-1.19a2.19,2.19,0,0,0-.21-1.29c0-.08-.06-.15-.1-.25-.14-.47-.3-.72-.7-.72v-.9a1.66,1.66,0,0,1,1.56,1.35.46.46,0,0,0,0,.09,3,3,0,0,1,.32,1.71c0,.31,0,.68,0,1.16.07,1.32.11,2.12.42,2.34.48.35,1.68.07,2.43-.57l.1-.1.17-.18c1-1,3-2.24,4.12-1.56a1,1,0,0,1,.41.46,2.34,2.34,0,0,0,.33.56,4.73,4.73,0,0,0,.83.9,2,2,0,0,1,.73,1,1.1,1.1,0,0,1,0,.62,2,2,0,0,0,0,.65c0,.17,0,.32.07.46a1.81,1.81,0,0,1-.13,1.31s-.06.14-.09.2A1.08,1.08,0,0,1,848.15,32.49Z"/><path class="cls-1" d="M847.85,33.88l-1-1.6.68-.44-.83-.46a.56.56,0,0,1,.05-.08v-.06c0-.11.09-.21.14-.3s0-.13,0-.21-.05-.35-.07-.55a4,4,0,0,1,0-1l-.11-.09a7,7,0,0,1-1.12-1.21c-.1-.14-.18-.27-.25-.38a5.62,5.62,0,0,0-1.74,1.16l-.09.09a1.85,1.85,0,0,1-.28.28c-1.28,1.1-3.42,1.66-4.78.66-1-.75-1.09-1.89-1.19-3.78,0-.51,0-.91,0-1.23,0-.67,0-.69-.08-.81a2.35,2.35,0,0,1-.18-.43,0,0,0,0,0,0,0h-.74v-2.9h1a2.57,2.57,0,0,1,2.51,2,4,4,0,0,1,.4,2.11c0,.3,0,.65,0,1.11s.07,1.22.12,1.57a2.63,2.63,0,0,0,1.08-.51l.23-.24c1.14-1.11,3.55-2.73,5.31-1.71a1.9,1.9,0,0,1,.81.91,2.46,2.46,0,0,0,.24.4,4.12,4.12,0,0,0,.68.73,3,3,0,0,1,1,1.52,2.07,2.07,0,0,1,0,1.06.82.82,0,0,0,0,.37,4,4,0,0,0,.05.4,2.69,2.69,0,0,1-.26,2v0a2,2,0,0,1-.74,1Zm.11-1.69.25.39a.72.72,0,0,0,.25-.29h0l0,.05,0,0-.25.16Zm-1-1.43h0Z"/><path class="cls-1" d="M742.74,53A6.23,6.23,0,0,1,739,52a3,3,0,0,1-1.37-2.14c0-1.23,1.17-2.09,1.68-2.46.84-.61,1.68-1.27,2.49-1.91a45.2,45.2,0,0,1,4.4-3.18,42.59,42.59,0,0,0,6.5-4.73,10.29,10.29,0,0,0,1.71-1.9c.65-.85,1.73-2.27,4.2-5.2,2-2.85,4.1-6.31,4-7l-.13-.28a1.91,1.91,0,0,0-1.14-.22c-.66,0-1.49,0-1.86-.71-.5-.92.3-2.09,1.22-3.45a11.07,11.07,0,0,1,2.48-2.79,9.79,9.79,0,0,1,5.94-2.18h0a9.07,9.07,0,0,1,3.05.57c.81.27,1.13.35,1.42.12.11-.09.13-.13.26-1,.08-.59.2-1.49.47-2.88.12-.68.32-1.67.55-2.79l.18-.41.33-.15c3.65.19,5.88.57,6.29,1.05,1.49,1.8.28,5.8-1.17,8-.17.26-.35.5-.5.7-.46.62-.68.94-.62,1.38s.42.78,1.12,1.24a6.78,6.78,0,0,1,1.77,1.53c1.61,2.06,1.23,4.79,1,6.6-.31,2.24-1.61,6.36-3.39,6.36h-.07c-.67,0-1-.61-1.23-1.07s-.38-.68-.62-.72c-.58-.12-1.4,1.2-2.35,2.72A34.81,34.81,0,0,1,772.13,40c-2.4,2.71-4.82,4.11-8.17,6.06a50,50,0,0,1-9.63,4.21C750.28,51.7,746,53,742.74,53Zm26.4-38.19h0a8.82,8.82,0,0,0-5.4,2,10.17,10.17,0,0,0-2.29,2.58c-.66,1-1.41,2.08-1.17,2.53.11.21.5.23,1.09.24a2.22,2.22,0,0,1,1.85.59l.06.09s.16.37.17.37c.48,1.07-2.36,5.37-4.09,7.83l0,0c-2.46,2.93-3.54,4.34-4.19,5.19a11.84,11.84,0,0,1-1.82,2,43.89,43.89,0,0,1-6.63,4.82,44.38,44.38,0,0,0-4.32,3.13c-.81.64-1.66,1.31-2.52,1.93-.39.28-1.32,1-1.3,1.72s.76,1.25,1,1.43c2.91,2.18,11.34-.75,14.51-1.85a49.76,49.76,0,0,0,9.47-4.14c3.28-1.91,5.65-3.29,8-5.88a34.6,34.6,0,0,0,3.4-4.77c1.26-2,2.1-3.37,3.29-3.13a1.94,1.94,0,0,1,1.23,1.17c.19.36.33.6.49.61h0c.76,0,2.1-2.68,2.5-5.58.24-1.76.57-4.17-.81-5.93A6.1,6.1,0,0,0,780,20.46c-.72-.48-1.4-.93-1.51-1.87a2.7,2.7,0,0,1,.79-2c.15-.21.31-.42.47-.67C781.21,13.71,782,10.33,781,9c-.15-.09-1.13-.51-5.3-.76-.21,1.05-.39,2-.51,2.6-.26,1.38-.39,2.26-.47,2.84-.13,1-.18,1.28-.59,1.61-.7.54-1.42.3-2.26,0A8.2,8.2,0,0,0,769.14,14.81ZM781.05,9Z"/><path class="cls-1" d="M742.74,54a7.07,7.07,0,0,1-4.35-1.18,3.78,3.78,0,0,1-1.77-2.93c0-1.75,1.51-2.86,2.09-3.28.82-.59,1.63-1.23,2.42-1.85a48.2,48.2,0,0,1,4.54-3.29A41.63,41.63,0,0,0,752,36.86a9.4,9.4,0,0,0,1.57-1.74c.66-.87,1.74-2.29,4.25-5.27A45,45,0,0,0,761.41,24h-.1a2.87,2.87,0,0,1-2.73-1.23c-.79-1.46.26-3,1.27-4.49a12.16,12.16,0,0,1,2.7-3,10.79,10.79,0,0,1,6.55-2.39,10.29,10.29,0,0,1,3.4.62l.35.11a2,2,0,0,1,0-.2c.07-.56.2-1.49.47-2.93.13-.68.33-1.67.56-2.8l.07-.2.33-.76.89-.42.25,0c6.1.33,6.69,1,7,1.41,1.91,2.29.51,6.75-1.09,9.18-.19.29-.37.54-.54.76a3.59,3.59,0,0,0-.43.66,3.29,3.29,0,0,0,.68.52,8,8,0,0,1,2,1.75c1.87,2.4,1.44,5.5,1.19,7.35-.28,2-1.6,7.23-4.38,7.23h-.11a2.47,2.47,0,0,1-2-1.49,21.28,21.28,0,0,0-1.3,1.95,35.18,35.18,0,0,1-3.6,5c-2.5,2.82-5,4.26-8.41,6.25a50.81,50.81,0,0,1-9.79,4.3C750.73,52.6,746.25,54,742.74,54Zm18.73-32.85a3,3,0,0,1,2.51,1l.18.29.17.39c.28.6.79,1.74-4.19,8.81l-.07.1c-2.46,2.91-3.53,4.31-4.17,5.14A12.1,12.1,0,0,1,754,39,45.66,45.66,0,0,1,747.18,44a43.87,43.87,0,0,0-4.2,3c-.85.67-1.7,1.34-2.57,2s-.89.83-.89.89,0,.23.61.65c1.65,1.24,6.21.57,13.57-2A48.62,48.62,0,0,0,763,44.44c3.2-1.86,5.51-3.2,7.7-5.67a33.11,33.11,0,0,0,3.3-4.64c1.38-2.21,2.45-4,4.34-3.58A2.54,2.54,0,0,1,780,31.83a12,12,0,0,0,1.37-4.24c.23-1.67.51-3.75-.6-5.18a5.14,5.14,0,0,0-1.33-1.11,3.56,3.56,0,0,1-2-2.59,3.63,3.63,0,0,1,1-2.74c.14-.19.29-.39.44-.62,1.29-2,1.81-4.55,1.41-5.52a20.54,20.54,0,0,0-3.81-.51c-.14.68-.26,1.27-.34,1.73-.26,1.36-.38,2.22-.46,2.79-.14,1.05-.23,1.68-1,2.26a3.11,3.11,0,0,1-3.18.18,7.3,7.3,0,0,0-2.45-.47h0a7.86,7.86,0,0,0-4.79,1.78A9.09,9.09,0,0,0,762.25,20C762,20.26,761.7,20.75,761.47,21.15Zm.45,2.93Z"/><path class="cls-1" d="M763.21,23.26l-.75-.49a2,2,0,0,1,.46-.5,2.4,2.4,0,0,1,1.52-.46l.49,0a1.14,1.14,0,0,0,.24-.05,7.5,7.5,0,0,1,2-.2v.9a6.84,6.84,0,0,0-1.79.17,2.05,2.05,0,0,1-.34.07c-.2,0-.38,0-.55.05a1.53,1.53,0,0,0-1,.26A1.08,1.08,0,0,0,763.21,23.26Z"/><path class="cls-1" d="M763.54,24.58l-.88-.48-1.58-1.05.55-.83a3.31,3.31,0,0,1,.66-.73,3.38,3.38,0,0,1,2.09-.68c.17,0,.3,0,.43,0l.12,0a8.82,8.82,0,0,1,2.24-.23h1v2.9h-1a5.68,5.68,0,0,0-1.55.15l-.46.09-.62,0a4.09,4.09,0,0,0-.45.05Z"/><path class="cls-1" d="M778.15,32.49l-.48-.75a.23.23,0,0,0-.09.08s.06-.14.09-.21a2,2,0,0,1,.16-.33c.08-.14.06-.33,0-.7,0-.16-.05-.32-.07-.51a2.84,2.84,0,0,1,0-.9.41.41,0,0,0,0-.22,1.2,1.2,0,0,0-.46-.6,5.46,5.46,0,0,1-1-1.05,3.92,3.92,0,0,1-.41-.69l0-.08c-.59-.34-2.08.48-3,1.43l-.14.14-.18.18c-1,.83-2.63,1.28-3.54.62-.65-.48-.69-1.33-.78-3,0-.5,0-.88,0-1.19a2.19,2.19,0,0,0-.21-1.29c0-.08-.06-.15-.1-.25-.14-.47-.3-.72-.7-.72v-.9a1.66,1.66,0,0,1,1.56,1.35.46.46,0,0,0,0,.09,3,3,0,0,1,.32,1.71c0,.31,0,.68,0,1.16.07,1.32.11,2.12.42,2.34.48.35,1.68.07,2.43-.57l.1-.1.17-.18c1-1,3-2.24,4.12-1.56a1,1,0,0,1,.41.46,2.34,2.34,0,0,0,.33.56,4.73,4.73,0,0,0,.83.9,2,2,0,0,1,.73,1,1.1,1.1,0,0,1,0,.62,2,2,0,0,0,0,.65c0,.17,0,.32.07.46a1.81,1.81,0,0,1-.13,1.31s-.06.14-.09.2A1.08,1.08,0,0,1,778.15,32.49Z"/><path class="cls-1" d="M777.85,33.88l-1-1.6.68-.44-.83-.46a.56.56,0,0,1,.05-.08v-.06c0-.11.09-.21.14-.3s0-.13,0-.21-.05-.35-.07-.55a4,4,0,0,1,0-1l-.11-.09a7,7,0,0,1-1.12-1.21c-.1-.14-.18-.27-.25-.38a5.62,5.62,0,0,0-1.74,1.16l-.09.09a1.85,1.85,0,0,1-.28.28c-1.28,1.1-3.42,1.66-4.78.66-1-.75-1.09-1.89-1.19-3.78,0-.51,0-.91,0-1.23,0-.67,0-.69-.08-.81a2.35,2.35,0,0,1-.18-.43,0,0,0,0,0,0,0h-.74v-2.9h1a2.57,2.57,0,0,1,2.51,2,4,4,0,0,1,.4,2.11c0,.3,0,.65,0,1.11s.07,1.22.12,1.57a2.63,2.63,0,0,0,1.08-.51l.23-.24c1.14-1.11,3.55-2.73,5.31-1.71a1.9,1.9,0,0,1,.81.91,2.46,2.46,0,0,0,.24.4,4.12,4.12,0,0,0,.68.73,3,3,0,0,1,1,1.52,2.07,2.07,0,0,1,0,1.06.82.82,0,0,0,0,.37,4,4,0,0,0,.05.4,2.69,2.69,0,0,1-.26,2v0a2,2,0,0,1-.74,1Zm.11-1.69.25.39a.72.72,0,0,0,.25-.29h0l0,.05,0,0-.25.16Zm-1-1.43h0Z"/><path class="cls-1" d="M676.74,54A6.23,6.23,0,0,1,673,53a3,3,0,0,1-1.37-2.14c0-1.23,1.17-2.09,1.68-2.46.84-.61,1.68-1.27,2.49-1.91a45.2,45.2,0,0,1,4.4-3.18,42.59,42.59,0,0,0,6.5-4.73,10.29,10.29,0,0,0,1.71-1.9c.65-.85,1.73-2.27,4.2-5.2,2-2.85,4.1-6.31,4-7l-.13-.28a1.91,1.91,0,0,0-1.14-.22c-.66,0-1.49,0-1.86-.71-.5-.92.3-2.09,1.22-3.45a11.07,11.07,0,0,1,2.48-2.79,9.79,9.79,0,0,1,5.94-2.18h0a9.07,9.07,0,0,1,3.05.57c.81.27,1.13.35,1.42.12.11-.09.13-.13.26-1,.08-.59.2-1.49.47-2.88.12-.68.32-1.67.55-2.79l.18-.41.33-.15c3.65.19,5.88.57,6.29,1.05,1.49,1.8.28,5.8-1.17,8-.17.26-.35.5-.5.7-.46.62-.68.94-.62,1.38s.42.78,1.12,1.24a6.78,6.78,0,0,1,1.77,1.53c1.61,2.06,1.23,4.79,1,6.6-.31,2.24-1.61,6.36-3.39,6.36h-.07c-.67,0-1-.61-1.23-1.07s-.38-.68-.62-.72c-.58-.12-1.4,1.2-2.35,2.72A34.81,34.81,0,0,1,706.13,41c-2.4,2.71-4.82,4.11-8.17,6.06a50,50,0,0,1-9.63,4.21C684.28,52.7,680,54,676.74,54Zm26.4-38.19h0a8.82,8.82,0,0,0-5.4,2,10.17,10.17,0,0,0-2.29,2.58c-.66,1-1.41,2.08-1.17,2.53.11.21.5.23,1.09.24a2.22,2.22,0,0,1,1.85.59l.06.09s.16.37.17.37c.48,1.07-2.36,5.37-4.09,7.83l0,0c-2.46,2.93-3.54,4.34-4.19,5.19a11.84,11.84,0,0,1-1.82,2,43.89,43.89,0,0,1-6.63,4.82,44.38,44.38,0,0,0-4.32,3.13c-.81.64-1.66,1.31-2.52,1.93-.39.28-1.32,1-1.3,1.72s.76,1.25,1,1.43c2.91,2.18,11.34-.75,14.51-1.85a49.76,49.76,0,0,0,9.47-4.14c3.28-1.91,5.65-3.29,8-5.88a34.6,34.6,0,0,0,3.4-4.77c1.26-2,2.1-3.37,3.29-3.13a1.94,1.94,0,0,1,1.23,1.17c.19.36.33.6.49.61h0c.76,0,2.1-2.68,2.5-5.58.24-1.76.57-4.17-.81-5.93A6.1,6.1,0,0,0,714,21.46c-.72-.48-1.4-.93-1.51-1.87a2.7,2.7,0,0,1,.79-2c.15-.21.31-.42.47-.67C715.21,14.71,716,11.33,715,10c-.15-.09-1.13-.51-5.3-.76-.21,1.05-.39,2-.51,2.6-.26,1.38-.39,2.26-.47,2.84-.13,1-.18,1.28-.59,1.61-.7.54-1.42.3-2.26,0A8.2,8.2,0,0,0,703.14,15.81ZM715.05,10Z"/><path class="cls-1" d="M676.74,55a7.07,7.07,0,0,1-4.35-1.18,3.78,3.78,0,0,1-1.77-2.93c0-1.75,1.51-2.86,2.09-3.28.82-.59,1.63-1.23,2.42-1.85a48.2,48.2,0,0,1,4.54-3.29A41.63,41.63,0,0,0,686,37.86a9.4,9.4,0,0,0,1.57-1.74c.66-.87,1.74-2.29,4.25-5.27A45,45,0,0,0,695.41,25h-.1a2.87,2.87,0,0,1-2.73-1.23c-.79-1.46.26-3,1.27-4.49a12.16,12.16,0,0,1,2.7-3,10.79,10.79,0,0,1,6.55-2.39,10.29,10.29,0,0,1,3.4.62l.35.11a2,2,0,0,1,0-.2c.07-.56.2-1.49.47-2.93.13-.68.33-1.67.56-2.8l.07-.2.33-.76.89-.42.25,0c6.1.33,6.69,1,7,1.41,1.91,2.29.51,6.75-1.09,9.18-.19.29-.37.54-.54.76a3.59,3.59,0,0,0-.43.66,3.29,3.29,0,0,0,.68.52,8,8,0,0,1,2,1.75c1.87,2.4,1.44,5.5,1.19,7.35-.28,2-1.6,7.23-4.38,7.23h-.11a2.47,2.47,0,0,1-2-1.49,21.28,21.28,0,0,0-1.3,1.95,35.18,35.18,0,0,1-3.6,5c-2.5,2.82-5,4.26-8.41,6.25a50.81,50.81,0,0,1-9.79,4.3C684.73,53.6,680.25,55,676.74,55Zm18.73-32.85a3,3,0,0,1,2.51,1l.18.29.17.39c.28.6.79,1.74-4.19,8.81l-.07.1c-2.46,2.91-3.53,4.31-4.17,5.14A12.1,12.1,0,0,1,688,40,45.66,45.66,0,0,1,681.18,45a43.87,43.87,0,0,0-4.2,3c-.85.67-1.7,1.34-2.57,2s-.89.83-.89.89,0,.23.61.65c1.65,1.24,6.21.57,13.57-2A48.62,48.62,0,0,0,697,45.44c3.2-1.86,5.51-3.2,7.7-5.67a33.11,33.11,0,0,0,3.3-4.64c1.38-2.21,2.45-4,4.34-3.58A2.54,2.54,0,0,1,714,32.83a12,12,0,0,0,1.37-4.24c.23-1.67.51-3.75-.6-5.18a5.14,5.14,0,0,0-1.33-1.11,3.56,3.56,0,0,1-2-2.59,3.63,3.63,0,0,1,1-2.74c.14-.19.29-.39.44-.62,1.29-2,1.81-4.55,1.41-5.52a20.54,20.54,0,0,0-3.81-.51c-.14.68-.26,1.27-.34,1.73-.26,1.36-.38,2.22-.46,2.79-.14,1.05-.23,1.68-1,2.26a3.11,3.11,0,0,1-3.18.18,7.3,7.3,0,0,0-2.45-.47h0a7.86,7.86,0,0,0-4.79,1.78A9.09,9.09,0,0,0,696.25,21C696,21.26,695.7,21.75,695.47,22.15Zm.45,2.93Z"/><path class="cls-1" d="M697.21,24.26l-.75-.49a2,2,0,0,1,.46-.5,2.4,2.4,0,0,1,1.52-.46l.49,0a1.14,1.14,0,0,0,.24-.05,7.5,7.5,0,0,1,2-.2v.9a6.84,6.84,0,0,0-1.79.17,2.05,2.05,0,0,1-.34.07c-.2,0-.38,0-.55.05a1.53,1.53,0,0,0-1,.26A1.08,1.08,0,0,0,697.21,24.26Z"/><path class="cls-1" d="M697.54,25.58l-.88-.48-1.58-1.05.55-.83a3.31,3.31,0,0,1,.66-.73,3.38,3.38,0,0,1,2.09-.68c.17,0,.3,0,.43,0l.12,0a8.82,8.82,0,0,1,2.24-.23h1v2.9h-1a5.68,5.68,0,0,0-1.55.15l-.46.09-.62,0a4.09,4.09,0,0,0-.45.05Z"/><path class="cls-1" d="M712.15,33.49l-.48-.75a.23.23,0,0,0-.09.08s.06-.14.09-.21a2,2,0,0,1,.16-.33c.08-.14.06-.33,0-.7,0-.16-.05-.32-.07-.51a2.84,2.84,0,0,1,0-.9.41.41,0,0,0,0-.22,1.2,1.2,0,0,0-.46-.6,5.46,5.46,0,0,1-1-1.05,3.92,3.92,0,0,1-.41-.69l0-.08c-.59-.34-2.08.48-3,1.43l-.14.14-.18.18c-1,.83-2.63,1.28-3.54.62-.65-.48-.69-1.33-.78-3,0-.5,0-.88,0-1.19a2.19,2.19,0,0,0-.21-1.29c0-.08-.06-.15-.1-.25-.14-.47-.3-.72-.7-.72v-.9a1.66,1.66,0,0,1,1.56,1.35.46.46,0,0,0,0,.09,3,3,0,0,1,.32,1.71c0,.31,0,.68,0,1.16.07,1.32.11,2.12.42,2.34.48.35,1.68.07,2.43-.57l.1-.1.17-.18c1-1,3-2.24,4.12-1.56a1,1,0,0,1,.41.46,2.34,2.34,0,0,0,.33.56,4.73,4.73,0,0,0,.83.9,2,2,0,0,1,.73,1,1.1,1.1,0,0,1,0,.62,2,2,0,0,0,0,.65c0,.17,0,.32.07.46a1.81,1.81,0,0,1-.13,1.31s-.06.14-.09.2A1.08,1.08,0,0,1,712.15,33.49Z"/><path class="cls-1" d="M711.85,34.88l-1-1.6.68-.44-.83-.46a.56.56,0,0,1,.05-.08v-.06c0-.11.09-.21.14-.3s0-.13,0-.21-.05-.35-.07-.55a4,4,0,0,1,0-1l-.11-.09a7,7,0,0,1-1.12-1.21c-.1-.14-.18-.27-.25-.38a5.62,5.62,0,0,0-1.74,1.16l-.09.09a1.85,1.85,0,0,1-.28.28c-1.28,1.1-3.42,1.66-4.78.66-1-.75-1.09-1.89-1.19-3.78,0-.51,0-.91,0-1.23,0-.67,0-.69-.08-.81a2.35,2.35,0,0,1-.18-.43,0,0,0,0,0,0,0h-.74v-2.9h1a2.57,2.57,0,0,1,2.51,2,4,4,0,0,1,.4,2.11c0,.3,0,.65,0,1.11s.07,1.22.12,1.57a2.63,2.63,0,0,0,1.08-.51l.23-.24c1.14-1.11,3.55-2.73,5.31-1.71a1.9,1.9,0,0,1,.81.91,2.46,2.46,0,0,0,.24.4,4.12,4.12,0,0,0,.68.73,3,3,0,0,1,1,1.52,2.07,2.07,0,0,1,0,1.06.82.82,0,0,0,0,.37,4,4,0,0,0,.05.4,2.69,2.69,0,0,1-.26,2v0a2,2,0,0,1-.74,1Zm.11-1.69.25.39a.72.72,0,0,0,.25-.29h0l0,.05,0,0-.25.16Zm-1-1.43h0Z"/><path class="cls-1" d="M612.74,53A6.23,6.23,0,0,1,609,52a3,3,0,0,1-1.37-2.14c0-1.23,1.17-2.09,1.68-2.46.84-.61,1.68-1.27,2.49-1.91a45.2,45.2,0,0,1,4.4-3.18,42.59,42.59,0,0,0,6.5-4.73,10.29,10.29,0,0,0,1.71-1.9c.65-.85,1.73-2.27,4.2-5.2,2-2.85,4.1-6.31,4-7l-.13-.28a1.91,1.91,0,0,0-1.14-.22c-.66,0-1.49,0-1.86-.71-.5-.92.3-2.09,1.22-3.45a11.07,11.07,0,0,1,2.48-2.79,9.79,9.79,0,0,1,5.94-2.18h0a9.07,9.07,0,0,1,3.05.57c.81.27,1.13.35,1.42.12.11-.09.13-.13.26-1,.08-.59.2-1.49.47-2.88.12-.68.32-1.67.55-2.79l.18-.41.33-.15c3.65.19,5.88.57,6.29,1.05,1.49,1.8.28,5.8-1.17,8-.17.26-.35.5-.5.7-.46.62-.68.94-.62,1.38s.42.78,1.12,1.24a6.78,6.78,0,0,1,1.77,1.53c1.61,2.06,1.23,4.79,1,6.6-.31,2.24-1.61,6.36-3.39,6.36h-.07c-.67,0-1-.61-1.23-1.07s-.38-.68-.62-.72c-.58-.12-1.4,1.2-2.35,2.72A34.81,34.81,0,0,1,642.13,40c-2.4,2.71-4.82,4.11-8.17,6.06a50,50,0,0,1-9.63,4.21C620.28,51.7,616,53,612.74,53Zm26.4-38.19h0a8.82,8.82,0,0,0-5.4,2,10.17,10.17,0,0,0-2.29,2.58c-.66,1-1.41,2.08-1.17,2.53.11.21.5.23,1.09.24a2.22,2.22,0,0,1,1.85.59l.06.09s.16.37.17.37c.48,1.07-2.36,5.37-4.09,7.83l0,0c-2.46,2.93-3.54,4.34-4.19,5.19a11.84,11.84,0,0,1-1.82,2,43.89,43.89,0,0,1-6.63,4.82,44.38,44.38,0,0,0-4.32,3.13c-.81.64-1.66,1.31-2.52,1.93-.39.28-1.32,1-1.3,1.72s.76,1.25,1,1.43c2.91,2.18,11.34-.75,14.51-1.85a49.76,49.76,0,0,0,9.47-4.14c3.28-1.91,5.65-3.29,8-5.88a34.6,34.6,0,0,0,3.4-4.77c1.26-2,2.1-3.37,3.29-3.13a1.94,1.94,0,0,1,1.23,1.17c.19.36.33.6.49.61h0c.76,0,2.1-2.68,2.5-5.58.24-1.76.57-4.17-.81-5.93A6.1,6.1,0,0,0,650,20.46c-.72-.48-1.4-.93-1.51-1.87a2.7,2.7,0,0,1,.79-2c.15-.21.31-.42.47-.67C651.21,13.71,652,10.33,651,9c-.15-.09-1.13-.51-5.3-.76-.21,1.05-.39,2-.51,2.6-.26,1.38-.39,2.26-.47,2.84-.13,1-.18,1.28-.59,1.61-.7.54-1.42.3-2.26,0A8.2,8.2,0,0,0,639.14,14.81ZM651.05,9Z"/><path class="cls-1" d="M612.74,54a7.07,7.07,0,0,1-4.35-1.18,3.78,3.78,0,0,1-1.77-2.93c0-1.75,1.51-2.86,2.09-3.28.82-.59,1.63-1.23,2.42-1.85a48.2,48.2,0,0,1,4.54-3.29A41.14,41.14,0,0,0,622,36.86a9.4,9.4,0,0,0,1.57-1.74c.66-.87,1.74-2.29,4.25-5.27A45,45,0,0,0,631.41,24h-.1a2.87,2.87,0,0,1-2.73-1.23c-.79-1.46.26-3,1.27-4.49a12.16,12.16,0,0,1,2.7-3,10.79,10.79,0,0,1,6.55-2.39,10.29,10.29,0,0,1,3.4.62l.35.11a2,2,0,0,1,0-.2c.07-.56.2-1.49.47-2.93.13-.68.33-1.67.56-2.8l.07-.2.33-.76.89-.42.25,0c6.1.33,6.69,1,7,1.41,1.91,2.29.51,6.75-1.09,9.18-.19.29-.37.54-.54.76a3.59,3.59,0,0,0-.43.66,3.29,3.29,0,0,0,.68.52,8,8,0,0,1,2,1.75c1.87,2.4,1.44,5.5,1.19,7.35-.28,2-1.6,7.23-4.38,7.23h-.11a2.47,2.47,0,0,1-2-1.49,21.28,21.28,0,0,0-1.3,1.95,35.18,35.18,0,0,1-3.6,5c-2.5,2.82-5,4.26-8.41,6.25a50.81,50.81,0,0,1-9.79,4.3C620.73,52.6,616.25,54,612.74,54Zm18.73-32.85a3,3,0,0,1,2.51,1l.18.29.17.39c.28.6.79,1.74-4.19,8.81l-.07.1c-2.46,2.91-3.53,4.31-4.17,5.14A12.1,12.1,0,0,1,624,39,45.14,45.14,0,0,1,617.18,44a43.87,43.87,0,0,0-4.2,3c-.86.68-1.71,1.34-2.57,2s-.89.83-.89.89,0,.23.61.65c1.65,1.24,6.21.56,13.57-2A48.62,48.62,0,0,0,633,44.44c3.2-1.86,5.51-3.2,7.7-5.67a33.11,33.11,0,0,0,3.3-4.64c1.38-2.21,2.46-4,4.34-3.58A2.54,2.54,0,0,1,650,31.83a12,12,0,0,0,1.37-4.24c.23-1.67.51-3.75-.6-5.18a5.14,5.14,0,0,0-1.33-1.11,3.56,3.56,0,0,1-2-2.59,3.63,3.63,0,0,1,1-2.74c.14-.19.29-.39.44-.62,1.29-2,1.81-4.55,1.41-5.52a20.54,20.54,0,0,0-3.81-.51c-.14.68-.26,1.27-.34,1.73-.26,1.36-.38,2.22-.46,2.79-.14,1.05-.23,1.68-1,2.26a3.11,3.11,0,0,1-3.18.18,7.3,7.3,0,0,0-2.45-.47h0a7.86,7.86,0,0,0-4.79,1.78A9.09,9.09,0,0,0,632.25,20C632,20.26,631.7,20.75,631.47,21.15Zm.45,2.93Z"/><path class="cls-1" d="M633.21,23.26l-.75-.49a2,2,0,0,1,.46-.5,2.4,2.4,0,0,1,1.52-.46l.49,0a1.14,1.14,0,0,0,.24-.05,7.5,7.5,0,0,1,2-.2v.9a6.84,6.84,0,0,0-1.79.17,2.05,2.05,0,0,1-.34.07c-.2,0-.38,0-.55.05a1.53,1.53,0,0,0-1,.26A1.08,1.08,0,0,0,633.21,23.26Z"/><path class="cls-1" d="M633.54,24.58l-.88-.48-1.58-1.05.55-.83a3.31,3.31,0,0,1,.66-.73,3.38,3.38,0,0,1,2.09-.68c.17,0,.3,0,.43,0l.12,0a8.82,8.82,0,0,1,2.24-.23h1v2.9h-1a5.68,5.68,0,0,0-1.55.15l-.46.09-.62,0a4.09,4.09,0,0,0-.45.05Z"/><path class="cls-1" d="M648.15,32.49l-.48-.75a.23.23,0,0,0-.09.08s.06-.14.09-.21a2,2,0,0,1,.16-.33c.08-.14.06-.33,0-.7,0-.16-.05-.32-.07-.51a2.84,2.84,0,0,1,0-.9.41.41,0,0,0,0-.22,1.2,1.2,0,0,0-.46-.6,5.46,5.46,0,0,1-1-1.05,3.92,3.92,0,0,1-.41-.69l0-.08c-.59-.34-2.08.48-3,1.43l-.14.14-.18.18c-1,.83-2.63,1.28-3.54.62-.65-.48-.69-1.33-.78-3,0-.5,0-.88,0-1.19a2.19,2.19,0,0,0-.21-1.29c0-.08-.06-.15-.1-.25-.14-.47-.3-.72-.7-.72v-.9a1.66,1.66,0,0,1,1.56,1.35.46.46,0,0,0,0,.09,3,3,0,0,1,.32,1.71c0,.31,0,.68,0,1.16.07,1.32.11,2.12.42,2.34.48.35,1.68.07,2.43-.57l.1-.1.17-.18c1-1,3-2.24,4.12-1.56a1,1,0,0,1,.41.46,2.34,2.34,0,0,0,.33.56,4.73,4.73,0,0,0,.83.9,2,2,0,0,1,.73,1,1.1,1.1,0,0,1,0,.62,2,2,0,0,0,0,.65c0,.17,0,.32.07.46a1.81,1.81,0,0,1-.13,1.31s-.06.14-.09.2A1.08,1.08,0,0,1,648.15,32.49Z"/><path class="cls-1" d="M647.85,33.88l-1-1.6.68-.44-.83-.46a.56.56,0,0,1,.05-.08v-.06c0-.11.09-.21.14-.3s0-.13,0-.21-.05-.35-.07-.55a4,4,0,0,1,0-1l-.11-.09a7,7,0,0,1-1.12-1.21c-.1-.14-.18-.27-.25-.38a5.62,5.62,0,0,0-1.74,1.16l-.09.09a1.85,1.85,0,0,1-.28.28c-1.28,1.1-3.42,1.66-4.78.66-1-.75-1.09-1.89-1.19-3.78,0-.51,0-.91,0-1.23,0-.67,0-.69-.08-.81a2.35,2.35,0,0,1-.18-.43,0,0,0,0,0,0,0h-.74v-2.9h1a2.57,2.57,0,0,1,2.51,2,4,4,0,0,1,.4,2.11c0,.3,0,.65,0,1.11s.07,1.22.12,1.57a2.63,2.63,0,0,0,1.08-.51l.23-.24c1.14-1.11,3.55-2.73,5.31-1.71a1.9,1.9,0,0,1,.81.91,2.46,2.46,0,0,0,.24.4,4.12,4.12,0,0,0,.68.73,3,3,0,0,1,1,1.52,2.07,2.07,0,0,1,0,1.06.82.82,0,0,0,0,.37,4,4,0,0,0,.05.4,2.69,2.69,0,0,1-.26,2v0a2,2,0,0,1-.74,1Zm.11-1.69.25.39a.72.72,0,0,0,.25-.29h0l0,.05,0,0-.25.16Zm-1-1.43h0Z"/><path class="cls-1" d="M544.72,53.59a6.18,6.18,0,0,1-3.74-1,3,3,0,0,1-1.38-2.14c0-1.23,1.17-2.09,1.68-2.46.84-.61,1.68-1.27,2.49-1.91a45.2,45.2,0,0,1,4.4-3.18,42.59,42.59,0,0,0,6.5-4.73,10.62,10.62,0,0,0,1.71-1.9c.65-.85,1.73-2.27,4.21-5.2,2-2.85,4.09-6.31,4-7l-.13-.28c-.2-.21-.68-.21-1.14-.22-.66,0-1.48,0-1.86-.71-.5-.92.3-2.09,1.22-3.45a11.27,11.27,0,0,1,2.48-2.79,9.79,9.79,0,0,1,6-2.18h0a9.07,9.07,0,0,1,3,.57c.81.27,1.13.35,1.42.12.11-.09.13-.13.26-1,.08-.59.2-1.49.47-2.89.13-.68.32-1.66.55-2.78l.19-.42.32-.14c3.65.19,5.88.57,6.29,1,1.49,1.79.28,5.8-1.17,8-.17.27-.35.5-.5.71-.46.62-.67.94-.62,1.38s.43.77,1.12,1.24a6.78,6.78,0,0,1,1.77,1.53c1.61,2.06,1.24,4.79,1,6.6-.31,2.24-1.61,6.35-3.39,6.35h-.07c-.66,0-1-.61-1.23-1.07S580.19,33,580,33c-.58-.12-1.4,1.21-2.35,2.73a34.81,34.81,0,0,1-3.49,4.89c-2.4,2.7-4.82,4.11-8.17,6.06a50.62,50.62,0,0,1-9.63,4.21C552.26,52.29,548,53.59,544.72,53.59Zm26.4-38.19h0a8.82,8.82,0,0,0-5.4,2A10.2,10.2,0,0,0,563.4,20c-.66,1-1.41,2.08-1.17,2.52.11.22.5.24,1.09.25a2.21,2.21,0,0,1,1.85.59l.06.09.17.37c.48,1.07-2.36,5.36-4.09,7.83l0,0c-2.46,2.93-3.54,4.34-4.19,5.19a11.43,11.43,0,0,1-1.82,2,43.89,43.89,0,0,1-6.63,4.82,43.07,43.07,0,0,0-4.31,3.13c-.82.64-1.67,1.3-2.53,1.92-.39.29-1.31,1-1.3,1.72s.76,1.26,1,1.44c2.91,2.18,11.34-.75,14.51-1.85a49.76,49.76,0,0,0,9.47-4.14c3.28-1.91,5.65-3.29,8-5.88a33.76,33.76,0,0,0,3.4-4.77c1.26-2,2.1-3.38,3.29-3.13a1.94,1.94,0,0,1,1.23,1.17c.2.36.34.6.5.61h0c.77,0,2.1-2.68,2.5-5.58.24-1.76.57-4.17-.8-5.93A6.3,6.3,0,0,0,582,21.05c-.72-.48-1.4-.93-1.51-1.87a2.7,2.7,0,0,1,.79-2c.15-.21.31-.42.47-.67C583.2,14.3,584,10.92,583,9.61c-.15-.09-1.12-.51-5.3-.76-.21,1.05-.39,2-.51,2.6-.26,1.38-.39,2.26-.47,2.84-.13,1-.18,1.28-.59,1.61-.7.54-1.42.3-2.26,0A8.2,8.2,0,0,0,571.12,15.4ZM583,9.62Z"/><path class="cls-1" d="M544.72,54.59a7.06,7.06,0,0,1-4.34-1.18,3.79,3.79,0,0,1-1.78-2.93c0-1.75,1.51-2.86,2.09-3.28.84-.6,1.66-1.25,2.46-1.88a45.81,45.81,0,0,1,4.5-3.26A41.85,41.85,0,0,0,554,37.45a9.58,9.58,0,0,0,1.58-1.76c.67-.87,1.76-2.31,4.24-5.25a45,45,0,0,0,3.57-5.81h-.1a2.87,2.87,0,0,1-2.73-1.23c-.79-1.46.26-3,1.27-4.49a12.37,12.37,0,0,1,2.7-3,10.81,10.81,0,0,1,6.55-2.39,10,10,0,0,1,3.4.62l.35.11,0-.2c.08-.6.2-1.5.47-2.93.13-.68.33-1.68.56-2.8l.07-.2.33-.77.9-.41.24,0c6.1.33,6.69,1,7,1.41,1.9,2.29.5,6.75-1.1,9.18-.19.29-.37.54-.54.76a3.59,3.59,0,0,0-.43.66,3.59,3.59,0,0,0,.68.52,8,8,0,0,1,2,1.75c1.87,2.4,1.44,5.5,1.19,7.35-.28,2-1.6,7.22-4.38,7.22h-.15a2.45,2.45,0,0,1-2-1.5,23,23,0,0,0-1.3,2,35.23,35.23,0,0,1-3.59,5c-2.51,2.83-5,4.27-8.42,6.26a50.86,50.86,0,0,1-9.8,4.3C552.71,53.19,548.23,54.59,544.72,54.59Zm18.73-32.85a3,3,0,0,1,2.51,1l.18.29.17.39c.28.6.79,1.74-4.19,8.81l-.07.09c-2.47,2.93-3.53,4.32-4.16,5.15a12.49,12.49,0,0,1-1.95,2.16,44.93,44.93,0,0,1-6.77,4.93,45.47,45.47,0,0,0-4.23,3.06c-.82.65-1.68,1.33-2.55,1.95s-.89.84-.89.9,0,.22.61.65c1.65,1.24,6.21.56,13.57-2A49.26,49.26,0,0,0,565,45c3.2-1.86,5.51-3.2,7.7-5.68a32.46,32.46,0,0,0,3.3-4.62c1.38-2.22,2.47-4,4.34-3.59A2.59,2.59,0,0,1,582,32.42a12.24,12.24,0,0,0,1.36-4.24c.23-1.67.51-3.75-.6-5.18a5.11,5.11,0,0,0-1.33-1.11,3.61,3.61,0,0,1-2-2.59,3.63,3.63,0,0,1,1-2.74c.14-.19.29-.39.44-.62,1.29-2,1.81-4.55,1.41-5.52a20.54,20.54,0,0,0-3.81-.51c-.14.68-.25,1.27-.34,1.72-.25,1.35-.38,2.22-.46,2.79-.14,1.06-.23,1.69-1,2.27a3.15,3.15,0,0,1-3.19.18,7,7,0,0,0-2.44-.47h0a7.88,7.88,0,0,0-4.79,1.78,9.07,9.07,0,0,0-2.07,2.35C564,20.85,563.68,21.34,563.45,21.74Z"/><path class="cls-1" d="M565.19,23.85l-.74-.49a1.81,1.81,0,0,1,.45-.5,2.4,2.4,0,0,1,1.52-.46l.5,0,.23-.05a7.5,7.5,0,0,1,2-.2V23a6.84,6.84,0,0,0-1.79.17,1.86,1.86,0,0,1-.34.07l-.55,0a1.58,1.58,0,0,0-1,.26A1.31,1.31,0,0,0,565.19,23.85Z"/><path class="cls-1" d="M565.52,25.17l-.88-.49-1.58-1,.55-.84a3.25,3.25,0,0,1,.66-.72,3.31,3.31,0,0,1,2.09-.68l.44,0,.11,0a8.35,8.35,0,0,1,2.24-.23h1V24h-1a5.68,5.68,0,0,0-1.55.15,4.46,4.46,0,0,1-.46.08c-.21,0-.41,0-.6.05a2.37,2.37,0,0,0-.46.05Z"/><path class="cls-1" d="M580.13,33.08l-.48-.75a.39.39,0,0,0-.09.08,1.09,1.09,0,0,0,.09-.21,2,2,0,0,1,.16-.33c.09-.14.06-.33,0-.71,0-.15,0-.31-.07-.5a3.2,3.2,0,0,1,0-.9.33.33,0,0,0,0-.22c-.07-.26-.2-.37-.46-.6a6.17,6.17,0,0,1-1-1.05,3.88,3.88,0,0,1-.41-.7l0-.07c-.59-.34-2.08.48-3,1.43l-.14.14-.18.18c-1,.83-2.62,1.28-3.54.61-.65-.47-.69-1.32-.78-3,0-.5,0-.88,0-1.19A2.25,2.25,0,0,0,570,24a1.34,1.34,0,0,1-.09-.24c-.15-.47-.31-.72-.71-.72v-.9a1.66,1.66,0,0,1,1.56,1.35.94.94,0,0,0,0,.09,3,3,0,0,1,.32,1.71c0,.3,0,.68,0,1.15.06,1.33.1,2.13.41,2.35.48.35,1.68.07,2.43-.57l.1-.11.18-.17c1-1,2.95-2.24,4.11-1.56a.91.91,0,0,1,.41.46,2.56,2.56,0,0,0,.33.56,4.73,4.73,0,0,0,.83.9,2,2,0,0,1,.73,1,1.1,1.1,0,0,1,0,.62,2.39,2.39,0,0,0,0,.65c0,.17,0,.32.07.46a1.81,1.81,0,0,1-.13,1.31,2.16,2.16,0,0,0-.09.2A1.08,1.08,0,0,1,580.13,33.08Z"/><path class="cls-1" d="M579.83,34.46l-1-1.59.68-.44-.83-.47a.41.41,0,0,0,.05-.09l0-.05a2.55,2.55,0,0,1,.13-.29c0-.06,0-.13,0-.21s-.05-.35-.07-.56a3.9,3.9,0,0,1,0-1l-.12-.09a7,7,0,0,1-1.11-1.21c-.1-.14-.18-.27-.25-.38a5.44,5.44,0,0,0-1.74,1.16l-.1.11a3.28,3.28,0,0,1-.26.25c-1.29,1.11-3.43,1.66-4.79.67-1-.75-1.09-1.89-1.19-3.78,0-.5,0-.9,0-1.21,0-.69,0-.71-.09-.83a2.15,2.15,0,0,1-.18-.44v0h-.74v-2.9h1a2.57,2.57,0,0,1,2.51,2,4,4,0,0,1,.4,2.11c0,.3,0,.65,0,1.1s.07,1.2.12,1.55a2.3,2.3,0,0,0,1.08-.48l.22-.24c1.15-1.12,3.56-2.73,5.33-1.71a1.92,1.92,0,0,1,.8.9,1.82,1.82,0,0,0,.24.4,3.61,3.61,0,0,0,.68.74,2.87,2.87,0,0,1,1,1.52,2.07,2.07,0,0,1,0,1.06,1,1,0,0,0,0,.37c0,.15,0,.28,0,.4a2.69,2.69,0,0,1-.26,2v.05a2,2,0,0,1-.74,1Zm0-1.83.34.54a.74.74,0,0,0,.26-.29h0l0,.07,0,0-.24.15Zm-1-1Z"/><path class="cls-1" d="M477.15,53.7a6.22,6.22,0,0,1-3.74-1A3,3,0,0,1,472,50.58c0-1.24,1.17-2.09,1.67-2.46.85-.61,1.69-1.27,2.5-1.91a44,44,0,0,1,4.4-3.18,43.09,43.09,0,0,0,6.5-4.73,10.56,10.56,0,0,0,1.7-1.9c.65-.85,1.74-2.27,4.21-5.2,2-2.85,4.1-6.31,4-7l-.13-.28c-.21-.21-.68-.21-1.14-.22-.66,0-1.49,0-1.86-.71-.5-.92.29-2.09,1.21-3.45a11.34,11.34,0,0,1,2.49-2.79,9.77,9.77,0,0,1,5.94-2.18h0a9,9,0,0,1,3.05.57c.82.27,1.13.35,1.42.12.12-.09.14-.14.26-1,.08-.59.21-1.49.47-2.89.13-.68.33-1.66.56-2.78l.18-.42.32-.14c3.66.19,5.89.57,6.29,1,1.49,1.79.28,5.79-1.16,8-.18.27-.35.5-.5.71-.46.62-.68.94-.63,1.38s.43.77,1.13,1.23a7.18,7.18,0,0,1,1.77,1.53c1.61,2.07,1.23,4.8,1,6.61-.3,2.24-1.61,6.35-3.38,6.35h-.07c-.67,0-1-.61-1.23-1.07s-.38-.68-.62-.73C511.8,33,511,34.3,510,35.83a34,34,0,0,1-3.49,4.89c-2.39,2.7-4.81,4.11-8.16,6.06A50.62,50.62,0,0,1,488.75,51C484.69,52.4,480.4,53.7,477.15,53.7Zm26.4-38.19h0a8.81,8.81,0,0,0-5.39,2,10,10,0,0,0-2.29,2.58c-.67,1-1.42,2.08-1.18,2.52.12.22.51.24,1.09.25a2.21,2.21,0,0,1,1.86.59l.05.09.17.37c.49,1.07-2.35,5.36-4.09,7.83l0,0c-2.47,2.93-3.55,4.34-4.19,5.19a12.27,12.27,0,0,1-1.82,2,43.84,43.84,0,0,1-6.64,4.82,44.25,44.25,0,0,0-4.31,3.13c-.82.64-1.66,1.3-2.52,1.92-.4.29-1.32,1-1.31,1.72s.77,1.26,1,1.44c2.91,2.18,11.33-.75,14.5-1.85A49.82,49.82,0,0,0,497.93,46c3.27-1.91,5.64-3.29,7.94-5.88a33.52,33.52,0,0,0,3.4-4.77c1.27-2,2.11-3.38,3.29-3.13a1.91,1.91,0,0,1,1.23,1.17c.2.36.34.6.5.61h0c.76,0,2.1-2.68,2.5-5.58.24-1.76.57-4.17-.81-5.93a6.1,6.1,0,0,0-1.56-1.34c-.72-.48-1.4-.93-1.51-1.87a2.7,2.7,0,0,1,.79-2c.15-.21.31-.42.47-.67,1.44-2.19,2.27-5.57,1.26-6.89-.16-.08-1.13-.5-5.3-.75-.22,1-.4,2-.52,2.6-.26,1.37-.38,2.26-.46,2.84-.14,1-.18,1.28-.6,1.61-.69.54-1.42.3-2.25,0A8,8,0,0,0,503.55,15.51Zm11.92-5.78Z"/><path class="cls-1" d="M477.15,54.7a7.06,7.06,0,0,1-4.34-1.18A3.78,3.78,0,0,1,471,50.59c0-1.75,1.51-2.86,2.09-3.28.83-.6,1.66-1.25,2.46-1.88a45.81,45.81,0,0,1,4.5-3.26,41.63,41.63,0,0,0,6.35-4.61A10,10,0,0,0,488,35.8c.66-.87,1.76-2.3,4.24-5.25a43.47,43.47,0,0,0,3.56-5.81h-.09A2.86,2.86,0,0,1,493,23.51c-.79-1.46.25-3,1.26-4.49a12.59,12.59,0,0,1,2.7-3,10.84,10.84,0,0,1,6.56-2.39,10,10,0,0,1,3.39.62l.35.11,0-.2c.09-.61.21-1.52.48-2.93.13-.69.33-1.67.56-2.8l.06-.2.34-.77.89-.41.25,0c6.1.33,6.69,1,7,1.41,1.9,2.29.5,6.75-1.1,9.18-.18.28-.36.52-.52.74a3.92,3.92,0,0,0-.44.68,3.29,3.29,0,0,0,.68.52,8.3,8.3,0,0,1,2,1.75c1.86,2.39,1.44,5.5,1.18,7.35-.27,2-1.59,7.22-4.37,7.22h-.16a2.47,2.47,0,0,1-2-1.5c-.38.49-.91,1.34-1.3,2a35.23,35.23,0,0,1-3.59,5c-2.5,2.83-5,4.27-8.41,6.26a51.13,51.13,0,0,1-9.8,4.3C485.15,53.3,480.66,54.7,477.15,54.7Zm18.74-32.85a3,3,0,0,1,2.51,1l.17.29.18.39c.27.6.79,1.74-4.19,8.8l-.08.1c-2.46,2.92-3.52,4.32-4.16,5.15a12.41,12.41,0,0,1-1.94,2.16,44.11,44.11,0,0,1-6.79,4.93,46.56,46.56,0,0,0-4.21,3.06c-.85.67-1.69,1.33-2.55,1.95s-.89.84-.9.9,0,.22.62.65c1.64,1.23,6.21.56,13.57-2a48.93,48.93,0,0,0,9.3-4.07c3.2-1.86,5.51-3.2,7.7-5.68a32.5,32.5,0,0,0,3.3-4.63c1.38-2.21,2.47-4,4.34-3.58a2.51,2.51,0,0,1,1.69,1.28,12,12,0,0,0,1.37-4.24c.22-1.67.51-3.75-.61-5.18A5.07,5.07,0,0,0,513.89,22a3.62,3.62,0,0,1-2-2.59,3.71,3.71,0,0,1,1-2.74c.15-.19.29-.39.44-.62,1.3-2,1.82-4.55,1.42-5.52A20.54,20.54,0,0,0,511,10c-.14.68-.26,1.27-.34,1.72-.26,1.34-.38,2.21-.46,2.78-.15,1.07-.24,1.7-1,2.28A3.15,3.15,0,0,1,506,17a7,7,0,0,0-2.45-.48h0a7.93,7.93,0,0,0-4.78,1.79,9.32,9.32,0,0,0-2.08,2.35C496.45,21,496.12,21.45,495.89,21.85Zm.45,2.93Zm-.33-.55Z"/><path class="cls-1" d="M497.63,24l-.75-.49a2.22,2.22,0,0,1,.45-.51,2.49,2.49,0,0,1,1.52-.45l.5,0,.23,0a7.63,7.63,0,0,1,2-.2v.89a6.62,6.62,0,0,0-1.78.18,2.29,2.29,0,0,1-.34.07l-.56,0a1.6,1.6,0,0,0-1,.26A1.56,1.56,0,0,0,497.63,24Z"/><path class="cls-1" d="M498,25.28l-.88-.49-1.58-1,.55-.83a2.92,2.92,0,0,1,.66-.74,3.34,3.34,0,0,1,2.09-.67l.44,0,.11,0a8.25,8.25,0,0,1,2.23-.23h1v2.9h-1a6.46,6.46,0,0,0-1.55.14,2.49,2.49,0,0,1-.46.09c-.22,0-.42,0-.62,0a2.44,2.44,0,0,0-.44.05Z"/><path class="cls-1" d="M512.57,33.19l-.49-.75a.39.39,0,0,0-.09.08s.07-.15.1-.21a3.52,3.52,0,0,1,.15-.33c.09-.14.07-.33,0-.71,0-.15,0-.32-.07-.5a2.84,2.84,0,0,1,0-.9.33.33,0,0,0,0-.22,1.1,1.1,0,0,0-.46-.6,6.21,6.21,0,0,1-1-1.05,4.17,4.17,0,0,1-.42-.7.16.16,0,0,0,0-.07c-.59-.34-2.07.48-3,1.43l-.14.14c-.06.06-.09.1-.18.18-1,.83-2.63,1.28-3.54.61-.65-.47-.7-1.32-.78-3,0-.5,0-.88,0-1.19a2.25,2.25,0,0,0-.21-1.3,1.33,1.33,0,0,1-.1-.24c-.15-.47-.31-.73-.71-.73v-.89a1.64,1.64,0,0,1,1.56,1.34s0,.08,0,.1a3.15,3.15,0,0,1,.32,1.71c0,.3,0,.68,0,1.15.07,1.33.11,2.13.42,2.35.48.35,1.68.07,2.42-.57l.11-.11.17-.17c1-1,3-2.24,4.12-1.56a.88.88,0,0,1,.4.46,3.35,3.35,0,0,0,.34.56,4.73,4.73,0,0,0,.83.9,2,2,0,0,1,.73,1,1.32,1.32,0,0,1,0,.62,2,2,0,0,0,0,.65c0,.17,0,.32.06.46a1.81,1.81,0,0,1-.12,1.31,1,1,0,0,0-.09.2A1.08,1.08,0,0,1,512.57,33.19Z"/><path class="cls-1" d="M512.27,34.58l-1-1.6.71-.46-.8-.54,0-.05.12-.29q0-.09,0-.21c0-.17-.05-.35-.08-.56a4.46,4.46,0,0,1,0-1l-.11-.09A7.45,7.45,0,0,1,510,28.59a4.05,4.05,0,0,1-.25-.38A5.33,5.33,0,0,0,508,29.37l-.1.1a3.43,3.43,0,0,1-.27.26c-1.29,1.11-3.42,1.66-4.78.67-1-.75-1.1-1.89-1.19-3.78,0-.5,0-.9,0-1.21,0-.69,0-.71-.08-.83a1.86,1.86,0,0,1-.18-.44v0h-.75v-2.9h1a2.55,2.55,0,0,1,2.51,2,4.15,4.15,0,0,1,.41,2.12c0,.3,0,.65,0,1.1s.06,1.23.12,1.58a2.67,2.67,0,0,0,1.07-.51l.23-.24c1.15-1.12,3.55-2.73,5.32-1.71a1.9,1.9,0,0,1,.81.9,1.82,1.82,0,0,0,.24.4,3.88,3.88,0,0,0,.68.74,2.93,2.93,0,0,1,1,1.52,2.16,2.16,0,0,1,0,1.06,1.35,1.35,0,0,0,0,.37c0,.14,0,.28.06.4a2.74,2.74,0,0,1-.26,2l0,.05a2,2,0,0,1-.73,1Zm.3-1.39.06.09a1,1,0,0,0,.18-.18l0,0Zm-1.27-1.45Zm-6.61-3.49Z"/><path class="cls-1" d="M412.74,53A6.23,6.23,0,0,1,409,52a3,3,0,0,1-1.37-2.14c0-1.23,1.17-2.09,1.68-2.46.84-.61,1.68-1.27,2.49-1.91a45.2,45.2,0,0,1,4.4-3.18,42.59,42.59,0,0,0,6.5-4.73,10.29,10.29,0,0,0,1.71-1.9c.65-.85,1.73-2.27,4.2-5.2,2-2.85,4.1-6.31,4-7l-.13-.28a1.91,1.91,0,0,0-1.14-.22c-.66,0-1.49,0-1.86-.71-.5-.92.3-2.09,1.22-3.45a11.07,11.07,0,0,1,2.48-2.79,9.79,9.79,0,0,1,5.94-2.18h0a9.07,9.07,0,0,1,3.05.57c.81.27,1.13.35,1.42.12.11-.09.13-.13.26-1,.08-.59.2-1.49.47-2.88.12-.68.32-1.67.55-2.79l.18-.41.33-.15c3.65.19,5.88.57,6.29,1.05,1.49,1.8.28,5.8-1.17,8-.17.26-.35.5-.5.7-.46.62-.68.94-.62,1.38s.42.78,1.12,1.24a6.78,6.78,0,0,1,1.77,1.53c1.61,2.06,1.23,4.79,1,6.6-.31,2.24-1.61,6.36-3.39,6.36h-.07c-.67,0-1-.61-1.23-1.07s-.38-.68-.62-.72c-.58-.12-1.4,1.2-2.35,2.72A34.81,34.81,0,0,1,442.13,40c-2.4,2.71-4.82,4.11-8.17,6.06a50,50,0,0,1-9.63,4.21C420.28,51.7,416,53,412.74,53Zm26.4-38.19h0a8.82,8.82,0,0,0-5.4,2,10.17,10.17,0,0,0-2.29,2.58c-.66,1-1.41,2.08-1.17,2.53.11.21.5.23,1.09.24a2.22,2.22,0,0,1,1.85.59l.06.09s.16.37.17.37c.48,1.07-2.36,5.37-4.09,7.83l0,0c-2.46,2.93-3.54,4.34-4.19,5.19a11.84,11.84,0,0,1-1.82,2,43.89,43.89,0,0,1-6.63,4.82,44.38,44.38,0,0,0-4.32,3.13c-.81.64-1.66,1.31-2.52,1.93-.39.28-1.32,1-1.3,1.72s.76,1.25,1,1.43c2.91,2.18,11.34-.75,14.51-1.85a49.76,49.76,0,0,0,9.47-4.14c3.28-1.91,5.65-3.29,7.95-5.88a34.6,34.6,0,0,0,3.4-4.77c1.26-2,2.1-3.37,3.29-3.13a1.94,1.94,0,0,1,1.23,1.17c.19.36.33.6.49.61h0c.76,0,2.1-2.68,2.5-5.58.24-1.76.57-4.17-.81-5.93A6.1,6.1,0,0,0,450,20.46c-.72-.48-1.4-.93-1.51-1.87a2.7,2.7,0,0,1,.79-2c.15-.21.31-.42.47-.67C451.21,13.71,452,10.33,451,9c-.15-.09-1.13-.51-5.3-.76-.21,1.05-.39,2-.51,2.6-.26,1.38-.39,2.26-.47,2.84-.13,1-.18,1.28-.59,1.61-.7.54-1.42.3-2.26,0A8.2,8.2,0,0,0,439.14,14.81ZM451.05,9Z"/><path class="cls-1" d="M412.74,54a7.07,7.07,0,0,1-4.35-1.18,3.78,3.78,0,0,1-1.77-2.93c0-1.75,1.51-2.86,2.09-3.28.82-.59,1.63-1.23,2.42-1.85a48.2,48.2,0,0,1,4.54-3.29A41.85,41.85,0,0,0,422,36.86a9.61,9.61,0,0,0,1.58-1.76c.66-.86,1.75-2.3,4.24-5.25A45,45,0,0,0,431.41,24h-.1a2.86,2.86,0,0,1-2.73-1.23c-.79-1.46.26-3,1.27-4.49a12.37,12.37,0,0,1,2.7-3,10.79,10.79,0,0,1,6.55-2.39,10.23,10.23,0,0,1,3.4.62l.35.11a.81.81,0,0,1,0-.2c.08-.61.21-1.52.47-2.93.13-.68.33-1.67.56-2.8l.07-.2.33-.76.89-.42.25,0c6.1.33,6.69,1,7,1.41,1.91,2.29.51,6.75-1.09,9.19q-.28.42-.54.75a3.59,3.59,0,0,0-.43.66,3.29,3.29,0,0,0,.68.52,8,8,0,0,1,2,1.75c1.87,2.4,1.44,5.5,1.19,7.35-.28,2-1.6,7.23-4.38,7.23h-.11a2.47,2.47,0,0,1-2-1.49,21.28,21.28,0,0,0-1.3,1.95,35.65,35.65,0,0,1-3.6,5c-2.5,2.82-5,4.26-8.4,6.25a51.13,51.13,0,0,1-9.8,4.3C420.73,52.6,416.25,54,412.74,54Zm18.73-32.85a3,3,0,0,1,2.51,1l.18.29s.19.42.19.43c.25.56.77,1.7-4.21,8.77l-.07.1c-2.47,2.92-3.53,4.31-4.17,5.14A12,12,0,0,1,424,39,45.14,45.14,0,0,1,417.18,44a43.87,43.87,0,0,0-4.2,3c-.86.68-1.71,1.34-2.57,2s-.89.83-.89.89,0,.23.61.65c1.65,1.24,6.21.56,13.57-2A48.62,48.62,0,0,0,433,44.44c3.19-1.86,5.5-3.2,7.7-5.67a33.92,33.92,0,0,0,3.3-4.63c1.38-2.22,2.47-4,4.34-3.59A2.54,2.54,0,0,1,450,31.83a12,12,0,0,0,1.37-4.24c.23-1.67.51-3.75-.6-5.18a5,5,0,0,0-1.33-1.11,3.56,3.56,0,0,1-2-2.59,3.63,3.63,0,0,1,1-2.74c.14-.19.29-.39.44-.62,1.29-2,1.81-4.55,1.41-5.52a20.54,20.54,0,0,0-3.81-.51c-.14.68-.26,1.27-.34,1.73-.26,1.36-.38,2.22-.46,2.79-.14,1.05-.23,1.68-1,2.26a3.12,3.12,0,0,1-3.19.18,7.18,7.18,0,0,0-2.44-.47h0a7.88,7.88,0,0,0-4.79,1.78A9.09,9.09,0,0,0,432.25,20C432,20.26,431.7,20.75,431.47,21.15Z"/><path class="cls-1" d="M433.21,23.26l-.75-.49a2,2,0,0,1,.46-.5,2.4,2.4,0,0,1,1.52-.46l.49,0a1.14,1.14,0,0,0,.24-.05,7.5,7.5,0,0,1,2-.2v.9a6.84,6.84,0,0,0-1.79.17,2.05,2.05,0,0,1-.34.07c-.2,0-.38,0-.55.05a1.53,1.53,0,0,0-1,.26A1.08,1.08,0,0,0,433.21,23.26Z"/><path class="cls-1" d="M433.54,24.59l-.88-.49-1.58-1.05.55-.83a3.1,3.1,0,0,1,.66-.73,3.36,3.36,0,0,1,2.09-.68c.17,0,.3,0,.43,0l.12,0a8.82,8.82,0,0,1,2.24-.23h1v2.9h-1a5.68,5.68,0,0,0-1.55.15l-.46.09-.62,0a4.09,4.09,0,0,0-.45.05Z"/><path class="cls-1" d="M448.15,32.49l-.48-.75a.23.23,0,0,0-.09.08s.06-.14.09-.21a2,2,0,0,1,.16-.33c.08-.14.06-.33,0-.7,0-.16-.05-.32-.07-.51a2.84,2.84,0,0,1,0-.9.41.41,0,0,0,0-.22,1.2,1.2,0,0,0-.46-.6,5.46,5.46,0,0,1-1-1.05,3.92,3.92,0,0,1-.41-.69l0-.08c-.59-.34-2.08.48-3,1.43l-.14.14a1.51,1.51,0,0,1-.18.18c-1,.83-2.63,1.28-3.54.62-.65-.48-.69-1.33-.78-3,0-.5,0-.88,0-1.19a2.19,2.19,0,0,0-.21-1.29c0-.08-.06-.15-.1-.25-.14-.47-.3-.72-.7-.72v-.9a1.66,1.66,0,0,1,1.56,1.35.46.46,0,0,0,0,.09,3,3,0,0,1,.32,1.71c0,.31,0,.68,0,1.16.07,1.32.11,2.12.42,2.34.48.35,1.68.07,2.43-.57l.1-.1.17-.18c1-1,3-2.24,4.12-1.56a1,1,0,0,1,.41.46,2.34,2.34,0,0,0,.33.56,4.73,4.73,0,0,0,.83.9,2,2,0,0,1,.73,1,1.1,1.1,0,0,1,0,.62,2,2,0,0,0,0,.65c0,.17,0,.32.07.46a1.81,1.81,0,0,1-.13,1.31s-.06.14-.09.2A1.08,1.08,0,0,1,448.15,32.49Z"/><path class="cls-1" d="M447.85,33.88l-1-1.6.71-.46-.81-.53v-.05c.05-.11.09-.21.14-.3s0-.13,0-.21,0-.35-.07-.56a3.9,3.9,0,0,1,0-1l-.12-.09a7.45,7.45,0,0,1-1.11-1.21c-.1-.14-.18-.27-.25-.38a5.62,5.62,0,0,0-1.74,1.16l-.1.11a2.31,2.31,0,0,1-.27.26c-1.28,1.1-3.42,1.65-4.78.66-1-.75-1.09-1.89-1.19-3.78,0-.51,0-.91,0-1.23,0-.67,0-.69-.08-.81a2.35,2.35,0,0,1-.18-.43v0h-.74v-2.9h1a2.57,2.57,0,0,1,2.51,2,4,4,0,0,1,.4,2.11c0,.29,0,.65,0,1.11s.07,1.22.12,1.57a2.67,2.67,0,0,0,1.07-.51l.24-.24c1.14-1.11,3.55-2.73,5.32-1.7a1.87,1.87,0,0,1,.8.9,2.46,2.46,0,0,0,.24.4,4.12,4.12,0,0,0,.68.73,3,3,0,0,1,1,1.52,2.19,2.19,0,0,1,0,1.06.82.82,0,0,0,0,.37c0,.14,0,.27.05.39a2.71,2.71,0,0,1-.26,2l0,0a1.94,1.94,0,0,1-.73,1Zm.3-1.39.06.09a.69.69,0,0,0,.19-.19l0,0ZM447,30.76h0Z"/><path class="cls-1" d="M342.74,53A6.23,6.23,0,0,1,339,52a3,3,0,0,1-1.37-2.14c0-1.23,1.17-2.09,1.68-2.46.84-.61,1.68-1.27,2.49-1.91a45.2,45.2,0,0,1,4.4-3.18,42.59,42.59,0,0,0,6.5-4.73,10.29,10.29,0,0,0,1.71-1.9c.65-.85,1.73-2.27,4.2-5.2,2-2.85,4.1-6.31,4-7l-.13-.28a1.91,1.91,0,0,0-1.14-.22c-.66,0-1.49,0-1.86-.71-.5-.92.3-2.09,1.22-3.45a11.07,11.07,0,0,1,2.48-2.79,9.79,9.79,0,0,1,5.94-2.18h0a9.07,9.07,0,0,1,3.05.57c.81.27,1.13.35,1.42.12.11-.09.13-.13.26-1,.08-.59.2-1.49.47-2.88.12-.68.32-1.67.55-2.79l.18-.41.33-.15c3.65.19,5.88.57,6.29,1.05,1.49,1.8.28,5.8-1.17,8-.17.26-.35.5-.5.7-.46.62-.68.94-.62,1.38s.42.78,1.12,1.24a6.78,6.78,0,0,1,1.77,1.53c1.61,2.06,1.23,4.79,1,6.6-.31,2.24-1.61,6.36-3.39,6.36h-.07c-.67,0-1-.61-1.23-1.07s-.38-.68-.62-.72c-.58-.12-1.4,1.2-2.35,2.72A34.81,34.81,0,0,1,372.13,40c-2.4,2.71-4.82,4.11-8.17,6.06a50,50,0,0,1-9.63,4.21C350.28,51.7,346,53,342.74,53Zm26.4-38.19h0a8.82,8.82,0,0,0-5.4,2,10.17,10.17,0,0,0-2.29,2.58c-.66,1-1.41,2.08-1.17,2.53.11.21.5.23,1.09.24a2.22,2.22,0,0,1,1.85.59l.06.09s.16.37.17.37c.48,1.07-2.36,5.37-4.09,7.83l0,0c-2.46,2.93-3.54,4.34-4.19,5.19a11.84,11.84,0,0,1-1.82,2,43.89,43.89,0,0,1-6.63,4.82,44.38,44.38,0,0,0-4.32,3.13c-.81.64-1.66,1.31-2.52,1.93-.39.28-1.32,1-1.3,1.72s.76,1.25,1,1.43c2.91,2.18,11.34-.75,14.51-1.85a49.76,49.76,0,0,0,9.47-4.14c3.28-1.91,5.65-3.29,7.95-5.88a34.6,34.6,0,0,0,3.4-4.77c1.26-2,2.1-3.37,3.29-3.13a1.94,1.94,0,0,1,1.23,1.17c.19.36.33.6.49.61h0c.76,0,2.1-2.68,2.5-5.58.24-1.76.57-4.17-.81-5.93A6.1,6.1,0,0,0,380,20.46c-.72-.48-1.4-.93-1.51-1.87a2.7,2.7,0,0,1,.79-2c.15-.21.31-.42.47-.67C381.21,13.71,382,10.33,381,9c-.15-.09-1.13-.51-5.3-.76-.21,1.05-.39,2-.51,2.6-.26,1.38-.39,2.26-.47,2.84-.13,1-.18,1.28-.59,1.61-.7.54-1.42.3-2.26,0A8.2,8.2,0,0,0,369.14,14.81ZM381.05,9Z"/><path class="cls-1" d="M342.74,54a7.07,7.07,0,0,1-4.35-1.18,3.78,3.78,0,0,1-1.77-2.93c0-1.75,1.51-2.86,2.09-3.28.82-.59,1.63-1.23,2.42-1.85a48.2,48.2,0,0,1,4.54-3.29A41.85,41.85,0,0,0,352,36.86a9.61,9.61,0,0,0,1.58-1.76c.66-.86,1.75-2.3,4.24-5.25A45,45,0,0,0,361.41,24h-.1a2.86,2.86,0,0,1-2.73-1.23c-.79-1.46.26-3,1.27-4.49a12.37,12.37,0,0,1,2.7-3,10.79,10.79,0,0,1,6.55-2.39,10.23,10.23,0,0,1,3.4.62l.35.11a.81.81,0,0,1,0-.2c.08-.61.21-1.52.47-2.93.13-.68.33-1.67.56-2.8l.07-.2.33-.76.89-.42.25,0c6.1.33,6.69,1,7,1.41,1.91,2.29.51,6.75-1.09,9.19q-.28.42-.54.75a3.59,3.59,0,0,0-.43.66,3.29,3.29,0,0,0,.68.52,8,8,0,0,1,2,1.75c1.87,2.4,1.44,5.5,1.19,7.35-.28,2-1.6,7.23-4.38,7.23h-.11a2.47,2.47,0,0,1-2-1.49,21.28,21.28,0,0,0-1.3,1.95,35.65,35.65,0,0,1-3.6,5c-2.5,2.82-5,4.26-8.4,6.25a51.13,51.13,0,0,1-9.8,4.3C350.73,52.6,346.25,54,342.74,54Zm18.73-32.85a3,3,0,0,1,2.51,1l.18.29s.19.42.19.43c.25.56.77,1.7-4.21,8.77l-.07.1c-2.47,2.92-3.53,4.31-4.17,5.14A12,12,0,0,1,354,39,45.14,45.14,0,0,1,347.18,44a43.87,43.87,0,0,0-4.2,3c-.86.68-1.71,1.34-2.57,2s-.89.83-.89.89,0,.23.61.65c1.65,1.24,6.21.56,13.57-2A48.62,48.62,0,0,0,363,44.44c3.19-1.86,5.5-3.2,7.7-5.67a33.92,33.92,0,0,0,3.3-4.63c1.38-2.22,2.47-4,4.34-3.59A2.54,2.54,0,0,1,380,31.83a12,12,0,0,0,1.37-4.24c.23-1.67.51-3.75-.6-5.18a5,5,0,0,0-1.33-1.11,3.56,3.56,0,0,1-2-2.59,3.63,3.63,0,0,1,1-2.74c.14-.19.29-.39.44-.62,1.29-2,1.81-4.55,1.41-5.52a20.54,20.54,0,0,0-3.81-.51c-.14.68-.26,1.27-.34,1.73-.26,1.36-.38,2.22-.46,2.79-.14,1.05-.23,1.68-1,2.26a3.13,3.13,0,0,1-3.19.18,7.18,7.18,0,0,0-2.44-.47h0a7.88,7.88,0,0,0-4.79,1.78A9.09,9.09,0,0,0,362.25,20C362,20.26,361.7,20.75,361.47,21.15Z"/><path class="cls-1" d="M363.21,23.26l-.75-.49a2,2,0,0,1,.46-.5,2.4,2.4,0,0,1,1.52-.46l.49,0a1.14,1.14,0,0,0,.24-.05,7.5,7.5,0,0,1,2-.2v.9a6.84,6.84,0,0,0-1.79.17,2.05,2.05,0,0,1-.34.07c-.2,0-.38,0-.55.05a1.53,1.53,0,0,0-1,.26A1.08,1.08,0,0,0,363.21,23.26Z"/><path class="cls-1" d="M363.54,24.59l-.88-.49-1.58-1.05.55-.83a3.1,3.1,0,0,1,.66-.73,3.36,3.36,0,0,1,2.09-.68c.17,0,.3,0,.43,0l.12,0a8.82,8.82,0,0,1,2.24-.23h1v2.9h-1a5.68,5.68,0,0,0-1.55.15l-.46.09-.62,0a4.09,4.09,0,0,0-.45.05Z"/><path class="cls-1" d="M378.15,32.49l-.48-.75a.23.23,0,0,0-.09.08s.06-.14.09-.21a2,2,0,0,1,.16-.33c.08-.14.06-.33,0-.7,0-.16-.05-.32-.07-.51a2.84,2.84,0,0,1,0-.9.41.41,0,0,0,0-.22,1.2,1.2,0,0,0-.46-.6,5.46,5.46,0,0,1-1-1.05,3.92,3.92,0,0,1-.41-.69l0-.08c-.59-.34-2.08.48-3,1.43l-.14.14a1.51,1.51,0,0,1-.18.18c-1,.83-2.63,1.28-3.54.62-.65-.48-.69-1.33-.78-3,0-.5,0-.88,0-1.19a2.19,2.19,0,0,0-.21-1.29c0-.08-.06-.15-.1-.25-.14-.47-.3-.72-.7-.72v-.9a1.66,1.66,0,0,1,1.56,1.35.46.46,0,0,0,0,.09,3,3,0,0,1,.32,1.71c0,.31,0,.68,0,1.16.07,1.32.11,2.12.42,2.34.48.35,1.68.07,2.43-.57l.1-.1.17-.18c1-1,3-2.24,4.12-1.56a1,1,0,0,1,.41.46,2.34,2.34,0,0,0,.33.56,4.73,4.73,0,0,0,.83.9,2,2,0,0,1,.73,1,1.1,1.1,0,0,1,0,.62,2,2,0,0,0,0,.65c0,.17,0,.32.07.46a1.81,1.81,0,0,1-.13,1.31s-.06.14-.09.2A1.08,1.08,0,0,1,378.15,32.49Z"/><path class="cls-1" d="M377.85,33.88l-1-1.6.71-.46-.81-.53v-.05c.05-.11.09-.21.14-.3s0-.13,0-.21,0-.35-.07-.56a3.9,3.9,0,0,1,0-1l-.12-.09a7.45,7.45,0,0,1-1.11-1.21c-.1-.14-.18-.27-.25-.38a5.62,5.62,0,0,0-1.74,1.16l-.1.11a2.31,2.31,0,0,1-.27.26c-1.28,1.1-3.42,1.65-4.78.66-1-.75-1.09-1.89-1.19-3.78,0-.51,0-.91,0-1.23,0-.67,0-.69-.08-.81a2.35,2.35,0,0,1-.18-.43v0h-.74v-2.9h1a2.57,2.57,0,0,1,2.51,2,4,4,0,0,1,.4,2.11c0,.29,0,.65,0,1.11s.07,1.22.12,1.57a2.67,2.67,0,0,0,1.07-.51l.24-.24c1.14-1.11,3.55-2.73,5.32-1.7a1.87,1.87,0,0,1,.8.9,2.46,2.46,0,0,0,.24.4,4.12,4.12,0,0,0,.68.73,3,3,0,0,1,1,1.52,2.19,2.19,0,0,1,0,1.06.82.82,0,0,0,0,.37c0,.14,0,.27.05.39a2.71,2.71,0,0,1-.26,2l0,0a1.94,1.94,0,0,1-.73,1Zm.3-1.39.06.09a.69.69,0,0,0,.19-.19l0,0ZM377,30.76h0Z"/><path class="cls-1" d="M272.74,53A6.23,6.23,0,0,1,269,52a3,3,0,0,1-1.37-2.14c0-1.23,1.17-2.09,1.68-2.46.84-.61,1.68-1.27,2.49-1.91a45.2,45.2,0,0,1,4.4-3.18,42.59,42.59,0,0,0,6.5-4.73,10.29,10.29,0,0,0,1.71-1.9c.65-.85,1.73-2.27,4.2-5.2,2-2.85,4.1-6.31,4-7l-.13-.28a1.91,1.91,0,0,0-1.14-.22c-.66,0-1.49,0-1.86-.71-.5-.92.3-2.09,1.22-3.45a11.07,11.07,0,0,1,2.48-2.79,9.79,9.79,0,0,1,5.94-2.18h0a9.07,9.07,0,0,1,3.05.57c.81.27,1.13.35,1.42.12.11-.09.13-.13.26-1,.08-.59.2-1.49.47-2.88.12-.68.32-1.67.55-2.79l.18-.41.33-.15c3.65.19,5.88.57,6.29,1.05,1.49,1.8.28,5.8-1.17,8-.17.26-.35.5-.5.7-.46.62-.68.94-.62,1.38s.42.78,1.12,1.24a6.78,6.78,0,0,1,1.77,1.53c1.61,2.06,1.23,4.79,1,6.6-.31,2.24-1.61,6.36-3.39,6.36h-.07c-.67,0-1-.61-1.23-1.07s-.38-.68-.62-.72c-.58-.12-1.4,1.2-2.35,2.72A34.81,34.81,0,0,1,302.13,40c-2.4,2.71-4.82,4.11-8.17,6.06a50,50,0,0,1-9.63,4.21C280.28,51.7,276,53,272.74,53Zm26.4-38.19h0a8.82,8.82,0,0,0-5.4,2,10.17,10.17,0,0,0-2.29,2.58c-.66,1-1.41,2.08-1.17,2.53.11.21.5.23,1.09.24a2.22,2.22,0,0,1,1.85.59l.06.09s.16.37.17.37c.48,1.07-2.36,5.37-4.09,7.83l0,0c-2.46,2.93-3.54,4.34-4.19,5.19a11.84,11.84,0,0,1-1.82,2,43.89,43.89,0,0,1-6.63,4.82,44.38,44.38,0,0,0-4.32,3.13c-.81.64-1.66,1.31-2.52,1.93-.39.28-1.32,1-1.3,1.72s.76,1.25,1,1.43c2.91,2.18,11.34-.75,14.51-1.85a49.76,49.76,0,0,0,9.47-4.14c3.28-1.91,5.65-3.29,7.95-5.88a34.6,34.6,0,0,0,3.4-4.77c1.26-2,2.1-3.37,3.29-3.13a1.94,1.94,0,0,1,1.23,1.17c.19.36.33.6.49.61h0c.76,0,2.1-2.68,2.5-5.58.24-1.76.57-4.17-.81-5.93A6.1,6.1,0,0,0,310,20.46c-.72-.48-1.4-.93-1.51-1.87a2.7,2.7,0,0,1,.79-2c.15-.21.31-.42.47-.67C311.21,13.71,312,10.33,311,9c-.15-.09-1.13-.51-5.3-.76-.21,1.05-.39,2-.51,2.6-.26,1.38-.39,2.26-.47,2.84-.13,1-.18,1.28-.59,1.61-.7.54-1.42.3-2.26,0A8.2,8.2,0,0,0,299.14,14.81ZM311.05,9Z"/><path class="cls-1" d="M272.74,54a7.07,7.07,0,0,1-4.35-1.18,3.78,3.78,0,0,1-1.77-2.93c0-1.75,1.51-2.86,2.09-3.28.82-.59,1.63-1.23,2.42-1.85a48.2,48.2,0,0,1,4.54-3.29A41.85,41.85,0,0,0,282,36.86a9.61,9.61,0,0,0,1.58-1.76c.66-.86,1.75-2.3,4.24-5.25A45,45,0,0,0,291.41,24h-.1a2.86,2.86,0,0,1-2.73-1.23c-.79-1.46.26-3,1.27-4.49a12.37,12.37,0,0,1,2.7-3,10.79,10.79,0,0,1,6.55-2.39,10.23,10.23,0,0,1,3.4.62l.35.11a.81.81,0,0,1,0-.2c.08-.61.21-1.52.47-2.93.13-.68.33-1.67.56-2.8l.07-.2.33-.76.89-.42.25,0c6.1.33,6.69,1,7,1.41,1.91,2.29.51,6.75-1.09,9.19q-.28.42-.54.75a3.59,3.59,0,0,0-.43.66,3.29,3.29,0,0,0,.68.52,8,8,0,0,1,2,1.75c1.87,2.4,1.44,5.5,1.19,7.35-.28,2-1.6,7.23-4.38,7.23h-.11a2.47,2.47,0,0,1-2-1.49,21.28,21.28,0,0,0-1.3,1.95,35.65,35.65,0,0,1-3.6,5c-2.5,2.82-5,4.26-8.4,6.25a51.13,51.13,0,0,1-9.8,4.3C280.73,52.6,276.25,54,272.74,54Zm18.73-32.85a3,3,0,0,1,2.51,1l.18.29s.19.42.19.43c.25.56.77,1.7-4.21,8.77l-.07.1c-2.47,2.92-3.53,4.31-4.17,5.14A12,12,0,0,1,284,39,45.14,45.14,0,0,1,277.18,44a43.87,43.87,0,0,0-4.2,3c-.86.68-1.71,1.34-2.57,2s-.89.83-.89.89,0,.23.61.65c1.65,1.24,6.21.56,13.57-2A48.62,48.62,0,0,0,293,44.44c3.19-1.86,5.5-3.2,7.7-5.67a33.92,33.92,0,0,0,3.3-4.63c1.38-2.22,2.46-4,4.34-3.59A2.54,2.54,0,0,1,310,31.83a12,12,0,0,0,1.37-4.24c.23-1.67.51-3.75-.6-5.18a5,5,0,0,0-1.33-1.11,3.56,3.56,0,0,1-2-2.59,3.63,3.63,0,0,1,1-2.74c.14-.19.29-.39.44-.62,1.29-2,1.81-4.55,1.41-5.52a20.54,20.54,0,0,0-3.81-.51c-.14.68-.26,1.27-.34,1.73-.26,1.36-.38,2.22-.46,2.79-.14,1.05-.23,1.68-1,2.26a3.12,3.12,0,0,1-3.19.18,7.18,7.18,0,0,0-2.44-.47h0a7.88,7.88,0,0,0-4.79,1.78A9.09,9.09,0,0,0,292.25,20C292,20.26,291.7,20.75,291.47,21.15Z"/><path class="cls-1" d="M293.21,23.26l-.75-.49a2,2,0,0,1,.46-.5,2.4,2.4,0,0,1,1.52-.46l.49,0a1.14,1.14,0,0,0,.24-.05,7.5,7.5,0,0,1,2-.2v.9a6.84,6.84,0,0,0-1.79.17,2.05,2.05,0,0,1-.34.07c-.2,0-.38,0-.55.05a1.53,1.53,0,0,0-1,.26A1.08,1.08,0,0,0,293.21,23.26Z"/><path class="cls-1" d="M293.54,24.59l-.88-.49-1.58-1.05.55-.83a3.1,3.1,0,0,1,.66-.73,3.36,3.36,0,0,1,2.09-.68c.17,0,.3,0,.43,0l.12,0a8.82,8.82,0,0,1,2.24-.23h1v2.9h-1a5.68,5.68,0,0,0-1.55.15l-.46.09-.62,0a4.09,4.09,0,0,0-.45.05Z"/><path class="cls-1" d="M308.15,32.49l-.48-.75a.23.23,0,0,0-.09.08s.06-.14.09-.21a2,2,0,0,1,.16-.33c.08-.14.06-.33,0-.7,0-.16-.05-.32-.07-.51a2.84,2.84,0,0,1,0-.9.41.41,0,0,0,0-.22,1.2,1.2,0,0,0-.46-.6,5.46,5.46,0,0,1-1-1.05,3.92,3.92,0,0,1-.41-.69l0-.08c-.59-.34-2.08.48-3,1.43l-.14.14a1.51,1.51,0,0,1-.18.18c-1,.83-2.63,1.28-3.54.62-.65-.48-.69-1.33-.78-3,0-.5,0-.88,0-1.19a2.19,2.19,0,0,0-.21-1.29c0-.08-.06-.15-.1-.25-.14-.47-.3-.72-.7-.72v-.9a1.66,1.66,0,0,1,1.56,1.35.46.46,0,0,0,0,.09,3,3,0,0,1,.32,1.71c0,.31,0,.68,0,1.16.07,1.32.11,2.12.42,2.34.48.35,1.68.07,2.43-.57l.1-.1.17-.18c1-1,3-2.24,4.12-1.56a1,1,0,0,1,.41.46,2.34,2.34,0,0,0,.33.56,4.73,4.73,0,0,0,.83.9,2,2,0,0,1,.73,1,1.1,1.1,0,0,1,0,.62,2,2,0,0,0,0,.65c0,.17,0,.32.07.46a1.81,1.81,0,0,1-.13,1.31s-.06.14-.09.2A1.08,1.08,0,0,1,308.15,32.49Z"/><path class="cls-1" d="M307.85,33.88l-1-1.6.71-.46-.81-.53v-.05c.05-.11.09-.21.14-.3s0-.13,0-.21,0-.35-.07-.56a3.9,3.9,0,0,1,0-1l-.12-.09a7.45,7.45,0,0,1-1.11-1.21c-.1-.14-.18-.27-.25-.38a5.62,5.62,0,0,0-1.74,1.16l-.1.11a2.31,2.31,0,0,1-.27.26c-1.28,1.1-3.42,1.65-4.78.66-1-.75-1.09-1.89-1.19-3.78,0-.51,0-.91,0-1.23,0-.67,0-.69-.08-.81a2.35,2.35,0,0,1-.18-.43v0h-.74v-2.9h1a2.57,2.57,0,0,1,2.51,2,4,4,0,0,1,.4,2.11c0,.29,0,.65,0,1.11s.07,1.22.12,1.57a2.67,2.67,0,0,0,1.07-.51l.24-.24c1.14-1.11,3.55-2.73,5.32-1.7a1.87,1.87,0,0,1,.8.9,2.46,2.46,0,0,0,.24.4,4.12,4.12,0,0,0,.68.73,3,3,0,0,1,1,1.52,2.19,2.19,0,0,1,0,1.06.82.82,0,0,0,0,.37c0,.14,0,.27.05.39a2.71,2.71,0,0,1-.26,2l0,0a1.94,1.94,0,0,1-.73,1Zm.3-1.39.06.09a.69.69,0,0,0,.19-.19l0,0ZM307,30.76h0Z"/><path class="cls-1" d="M206.74,54A6.23,6.23,0,0,1,203,53a3,3,0,0,1-1.37-2.14c0-1.23,1.17-2.09,1.68-2.46.84-.61,1.68-1.27,2.49-1.91a45.2,45.2,0,0,1,4.4-3.18,42.59,42.59,0,0,0,6.5-4.73,10.29,10.29,0,0,0,1.71-1.9c.65-.85,1.73-2.27,4.2-5.2,2-2.85,4.1-6.31,4-7l-.13-.28a1.91,1.91,0,0,0-1.14-.22c-.66,0-1.49,0-1.86-.71-.5-.92.3-2.09,1.22-3.45a11.07,11.07,0,0,1,2.48-2.79,9.79,9.79,0,0,1,5.94-2.18h0a9.07,9.07,0,0,1,3.05.57c.81.27,1.13.35,1.42.12.11-.09.13-.13.26-1,.08-.59.2-1.49.47-2.88.12-.68.32-1.67.55-2.79l.18-.41.33-.15c3.65.19,5.88.57,6.29,1.05,1.49,1.8.28,5.8-1.17,8-.17.26-.35.5-.5.7-.46.62-.68.94-.62,1.38s.42.78,1.12,1.24a6.78,6.78,0,0,1,1.77,1.53c1.61,2.06,1.23,4.79,1,6.6-.31,2.24-1.61,6.36-3.39,6.36h-.07c-.67,0-1-.61-1.23-1.07s-.38-.68-.62-.72c-.58-.12-1.4,1.2-2.35,2.72A34.81,34.81,0,0,1,236.13,41c-2.4,2.71-4.82,4.11-8.17,6.06a50,50,0,0,1-9.63,4.21C214.28,52.7,210,54,206.74,54Zm26.4-38.19h0a8.82,8.82,0,0,0-5.4,2,10.17,10.17,0,0,0-2.29,2.58c-.66,1-1.41,2.08-1.17,2.53.11.21.5.23,1.09.24a2.22,2.22,0,0,1,1.85.59l.06.09s.16.37.17.37c.48,1.07-2.36,5.37-4.09,7.83l0,0c-2.46,2.93-3.54,4.34-4.19,5.19a11.84,11.84,0,0,1-1.82,2,43.89,43.89,0,0,1-6.63,4.82,44.38,44.38,0,0,0-4.32,3.13c-.81.64-1.66,1.31-2.52,1.93-.39.28-1.32,1-1.3,1.72s.76,1.25,1,1.43c2.91,2.18,11.34-.75,14.51-1.85a49.76,49.76,0,0,0,9.47-4.14c3.28-1.91,5.65-3.29,8-5.88a34.6,34.6,0,0,0,3.4-4.77c1.26-2,2.1-3.37,3.29-3.13a1.94,1.94,0,0,1,1.23,1.17c.19.36.33.6.49.61h0c.76,0,2.1-2.68,2.5-5.58.24-1.76.57-4.17-.81-5.93A6.1,6.1,0,0,0,244,21.46c-.72-.48-1.4-.93-1.51-1.87a2.7,2.7,0,0,1,.79-2c.15-.21.31-.42.47-.67C245.21,14.71,246,11.33,245,10c-.15-.09-1.13-.51-5.3-.76-.21,1.05-.39,2-.51,2.6-.26,1.38-.39,2.26-.47,2.84-.13,1-.18,1.28-.59,1.61-.7.54-1.42.3-2.26,0A8.2,8.2,0,0,0,233.14,15.81ZM245.05,10Z"/><path class="cls-1" d="M206.74,55a7.07,7.07,0,0,1-4.35-1.18,3.78,3.78,0,0,1-1.77-2.93c0-1.75,1.51-2.86,2.09-3.28.82-.59,1.63-1.23,2.42-1.85a48.2,48.2,0,0,1,4.54-3.29A41.85,41.85,0,0,0,216,37.86a9.61,9.61,0,0,0,1.58-1.76c.66-.86,1.75-2.3,4.24-5.25A45,45,0,0,0,225.41,25h-.1a2.86,2.86,0,0,1-2.73-1.23c-.79-1.46.26-3,1.27-4.49a12.37,12.37,0,0,1,2.7-3,10.79,10.79,0,0,1,6.55-2.39,10.23,10.23,0,0,1,3.4.62l.35.11a.81.81,0,0,1,0-.2c.08-.61.21-1.52.47-2.93.13-.68.33-1.67.56-2.8l.07-.2.33-.76.89-.42.25,0c6.1.33,6.69,1,7,1.41,1.91,2.29.51,6.75-1.09,9.19q-.29.42-.54.75a3.59,3.59,0,0,0-.43.66,3.29,3.29,0,0,0,.68.52,8,8,0,0,1,2,1.75c1.87,2.4,1.44,5.5,1.19,7.35-.28,2-1.6,7.23-4.38,7.23h-.11a2.47,2.47,0,0,1-2-1.49,21.28,21.28,0,0,0-1.3,1.95,35.65,35.65,0,0,1-3.6,5c-2.5,2.82-5,4.26-8.4,6.25a51.13,51.13,0,0,1-9.8,4.3C214.73,53.6,210.25,55,206.74,55Zm18.73-32.85a3,3,0,0,1,2.51,1l.18.29s.19.42.19.43c.25.56.77,1.7-4.21,8.77l-.07.1c-2.47,2.92-3.53,4.31-4.17,5.14A12,12,0,0,1,218,40,45.14,45.14,0,0,1,211.18,45a43.87,43.87,0,0,0-4.2,3c-.86.68-1.71,1.34-2.57,2s-.89.83-.89.89,0,.23.61.65c1.65,1.24,6.21.56,13.57-2A48.62,48.62,0,0,0,227,45.44c3.19-1.86,5.5-3.2,7.7-5.67a33.92,33.92,0,0,0,3.3-4.63c1.38-2.22,2.47-4,4.34-3.59A2.54,2.54,0,0,1,244,32.83a12,12,0,0,0,1.37-4.24c.23-1.67.51-3.75-.6-5.18a5,5,0,0,0-1.33-1.11,3.56,3.56,0,0,1-1.95-2.59,3.63,3.63,0,0,1,1-2.74c.14-.19.29-.39.44-.62,1.29-2,1.81-4.55,1.41-5.52a20.54,20.54,0,0,0-3.81-.51c-.14.68-.26,1.27-.34,1.73-.26,1.36-.38,2.22-.46,2.79-.14,1.05-.23,1.68-1,2.26a3.13,3.13,0,0,1-3.19.18,7.18,7.18,0,0,0-2.44-.47h0a7.88,7.88,0,0,0-4.79,1.78A9.09,9.09,0,0,0,226.25,21C226,21.26,225.7,21.75,225.47,22.15Z"/><path class="cls-1" d="M227.21,24.26l-.75-.49a2,2,0,0,1,.46-.5,2.4,2.4,0,0,1,1.52-.46l.49,0a1.14,1.14,0,0,0,.24-.05,7.5,7.5,0,0,1,2-.2v.9a6.84,6.84,0,0,0-1.79.17,2.05,2.05,0,0,1-.34.07c-.2,0-.38,0-.55.05a1.53,1.53,0,0,0-1,.26A1.08,1.08,0,0,0,227.21,24.26Z"/><path class="cls-1" d="M227.54,25.59l-.88-.49-1.58-1.05.55-.83a3.1,3.1,0,0,1,.66-.73,3.36,3.36,0,0,1,2.09-.68c.17,0,.3,0,.43,0l.12,0a8.82,8.82,0,0,1,2.24-.23h1v2.9h-1a5.68,5.68,0,0,0-1.55.15l-.46.09-.62,0a4.09,4.09,0,0,0-.45.05Z"/><path class="cls-1" d="M242.15,33.49l-.48-.75a.23.23,0,0,0-.09.08s.06-.14.09-.21a2,2,0,0,1,.16-.33c.08-.14.06-.33,0-.7,0-.16-.05-.32-.07-.51a2.84,2.84,0,0,1,0-.9.41.41,0,0,0,0-.22,1.2,1.2,0,0,0-.46-.6,5.46,5.46,0,0,1-1-1.05,3.92,3.92,0,0,1-.41-.69l0-.08c-.59-.34-2.08.48-3.05,1.43l-.14.14-.18.18c-1,.83-2.63,1.28-3.54.62-.65-.48-.69-1.33-.78-3,0-.5,0-.88,0-1.19a2.19,2.19,0,0,0-.21-1.29c0-.08-.06-.15-.1-.25-.14-.47-.3-.72-.7-.72v-.9a1.66,1.66,0,0,1,1.56,1.35l0,.09a3,3,0,0,1,.32,1.71c0,.31,0,.68,0,1.16.07,1.32.11,2.12.42,2.34.48.35,1.68.07,2.43-.57l.1-.1.17-.18c1-1,3-2.24,4.12-1.56a1,1,0,0,1,.41.46,2.34,2.34,0,0,0,.33.56,4.73,4.73,0,0,0,.83.9,2,2,0,0,1,.73,1,1.1,1.1,0,0,1,0,.62,2,2,0,0,0,0,.65c0,.17,0,.32.07.46a1.81,1.81,0,0,1-.13,1.31s-.06.14-.09.2A1.08,1.08,0,0,1,242.15,33.49Z"/><path class="cls-1" d="M241.85,34.88l-1-1.6.71-.46-.81-.53v0c0-.11.09-.21.14-.3s0-.13,0-.21-.05-.35-.07-.56a3.9,3.9,0,0,1,0-1l-.12-.09a7.45,7.45,0,0,1-1.11-1.21c-.1-.14-.18-.27-.25-.38a5.62,5.62,0,0,0-1.74,1.16l-.1.11a2.31,2.31,0,0,1-.27.26c-1.28,1.1-3.42,1.65-4.78.66-1-.75-1.09-1.89-1.19-3.78,0-.51,0-.91,0-1.23,0-.67,0-.69-.08-.81a2.35,2.35,0,0,1-.18-.43v0h-.74v-2.9h1a2.57,2.57,0,0,1,2.51,2,4,4,0,0,1,.4,2.11c0,.29,0,.65,0,1.11s.07,1.22.12,1.57a2.67,2.67,0,0,0,1.07-.51l.24-.24c1.14-1.11,3.55-2.73,5.32-1.7a1.87,1.87,0,0,1,.8.9,2.46,2.46,0,0,0,.24.4,4.12,4.12,0,0,0,.68.73,3,3,0,0,1,1,1.52,2.19,2.19,0,0,1,.05,1.06.82.82,0,0,0,0,.37c0,.14,0,.27,0,.39a2.71,2.71,0,0,1-.26,2l0,0a1.94,1.94,0,0,1-.73,1Zm.3-1.39.06.09a.69.69,0,0,0,.19-.19l0,0ZM241,31.76h0Z"/><path class="cls-1" d="M142.74,53A6.23,6.23,0,0,1,139,52a3,3,0,0,1-1.37-2.14c0-1.23,1.17-2.09,1.68-2.46.84-.61,1.68-1.27,2.49-1.91a45.2,45.2,0,0,1,4.4-3.18,42.59,42.59,0,0,0,6.5-4.73,10.29,10.29,0,0,0,1.71-1.9c.65-.85,1.73-2.27,4.2-5.2,2-2.85,4.1-6.31,4-7l-.13-.28a1.91,1.91,0,0,0-1.14-.22c-.66,0-1.49,0-1.86-.71-.5-.92.3-2.09,1.22-3.45a11.07,11.07,0,0,1,2.48-2.79,9.79,9.79,0,0,1,5.94-2.18h0a9.07,9.07,0,0,1,3.05.57c.81.27,1.13.35,1.42.12.11-.09.13-.13.26-1,.08-.59.2-1.49.47-2.88.12-.68.32-1.67.55-2.79l.18-.41.33-.15c3.65.19,5.88.57,6.29,1.05,1.49,1.8.28,5.8-1.17,8-.17.26-.35.5-.5.7-.46.62-.68.94-.62,1.38s.42.78,1.12,1.24a6.78,6.78,0,0,1,1.77,1.53c1.61,2.06,1.23,4.79,1,6.6-.31,2.24-1.61,6.36-3.39,6.36h-.07c-.67,0-1-.61-1.23-1.07s-.38-.68-.62-.72c-.58-.12-1.4,1.2-2.35,2.72A34.81,34.81,0,0,1,172.13,40c-2.4,2.71-4.82,4.11-8.17,6.06a50,50,0,0,1-9.63,4.21C150.28,51.7,146,53,142.74,53Zm26.4-38.19h0a8.82,8.82,0,0,0-5.4,2,10.17,10.17,0,0,0-2.29,2.58c-.66,1-1.41,2.08-1.17,2.53.11.21.5.23,1.09.24a2.22,2.22,0,0,1,1.85.59l.06.09s.16.37.17.37c.48,1.07-2.36,5.37-4.09,7.83l0,0c-2.46,2.93-3.54,4.34-4.19,5.19a11.84,11.84,0,0,1-1.82,2,43.89,43.89,0,0,1-6.63,4.82,44.38,44.38,0,0,0-4.32,3.13c-.81.64-1.66,1.31-2.52,1.93-.39.28-1.32,1-1.3,1.72s.76,1.25,1,1.43c2.91,2.18,11.34-.75,14.51-1.85a49.76,49.76,0,0,0,9.47-4.14c3.28-1.91,5.65-3.29,8-5.88a34.6,34.6,0,0,0,3.4-4.77c1.26-2,2.1-3.37,3.29-3.13a1.94,1.94,0,0,1,1.23,1.17c.19.36.33.6.49.61h0c.76,0,2.1-2.68,2.5-5.58.24-1.76.57-4.17-.81-5.93A6.1,6.1,0,0,0,180,20.46c-.72-.48-1.4-.93-1.51-1.87a2.7,2.7,0,0,1,.79-2c.15-.21.31-.42.47-.67C181.21,13.71,182,10.33,181,9c-.15-.09-1.13-.51-5.3-.76-.21,1.05-.39,2-.51,2.6-.26,1.38-.39,2.26-.47,2.84-.13,1-.18,1.28-.59,1.61-.7.54-1.42.3-2.26,0A8.2,8.2,0,0,0,169.14,14.81ZM181.05,9Z"/><path class="cls-1" d="M142.74,54a7.07,7.07,0,0,1-4.35-1.18,3.78,3.78,0,0,1-1.77-2.93c0-1.75,1.51-2.86,2.09-3.28.82-.59,1.63-1.23,2.42-1.85a48.2,48.2,0,0,1,4.54-3.29A41.85,41.85,0,0,0,152,36.86a9.61,9.61,0,0,0,1.58-1.76c.66-.86,1.75-2.3,4.24-5.25A45,45,0,0,0,161.41,24h-.1a2.86,2.86,0,0,1-2.73-1.23c-.79-1.46.26-3,1.27-4.49a12.37,12.37,0,0,1,2.7-3,10.79,10.79,0,0,1,6.55-2.39,10.23,10.23,0,0,1,3.4.62l.35.11a.81.81,0,0,1,0-.2c.08-.61.21-1.52.47-2.93.13-.68.33-1.67.56-2.8l.07-.2.33-.76.89-.42.25,0c6.1.33,6.69,1,7,1.41,1.91,2.29.51,6.75-1.09,9.19q-.29.42-.54.75a3.59,3.59,0,0,0-.43.66,3.29,3.29,0,0,0,.68.52,8,8,0,0,1,2,1.75c1.87,2.4,1.44,5.5,1.19,7.35-.28,2-1.6,7.23-4.38,7.23h-.11a2.47,2.47,0,0,1-2-1.49,21.28,21.28,0,0,0-1.3,1.95,35.65,35.65,0,0,1-3.6,5c-2.5,2.82-5,4.26-8.4,6.25a51.13,51.13,0,0,1-9.8,4.3C150.73,52.6,146.25,54,142.74,54Zm18.73-32.85a3,3,0,0,1,2.51,1l.18.29s.19.42.19.43c.25.56.77,1.7-4.21,8.77l-.07.1c-2.47,2.92-3.53,4.31-4.17,5.14A12,12,0,0,1,154,39,45.14,45.14,0,0,1,147.18,44a43.87,43.87,0,0,0-4.2,3c-.86.68-1.71,1.34-2.57,2s-.89.83-.89.89,0,.23.61.65c1.65,1.24,6.21.56,13.57-2A48.62,48.62,0,0,0,163,44.44c3.19-1.86,5.5-3.2,7.7-5.67a33.92,33.92,0,0,0,3.3-4.63c1.38-2.22,2.47-4,4.34-3.59A2.54,2.54,0,0,1,180,31.83a12,12,0,0,0,1.37-4.24c.23-1.67.51-3.75-.6-5.18a5,5,0,0,0-1.33-1.11,3.56,3.56,0,0,1-1.95-2.59,3.63,3.63,0,0,1,1-2.74c.14-.19.29-.39.44-.62,1.29-2,1.81-4.55,1.41-5.52a20.54,20.54,0,0,0-3.81-.51c-.14.68-.26,1.27-.34,1.73-.26,1.36-.38,2.22-.46,2.79-.14,1.05-.23,1.68-1,2.26a3.12,3.12,0,0,1-3.19.18,7.18,7.18,0,0,0-2.44-.47h0a7.88,7.88,0,0,0-4.79,1.78A9.09,9.09,0,0,0,162.25,20C162,20.26,161.7,20.75,161.47,21.15Z"/><path class="cls-1" d="M163.21,23.26l-.75-.49a2,2,0,0,1,.46-.5,2.4,2.4,0,0,1,1.52-.46l.49,0a1.14,1.14,0,0,0,.24-.05,7.5,7.5,0,0,1,2-.2v.9a6.84,6.84,0,0,0-1.79.17,2.05,2.05,0,0,1-.34.07c-.2,0-.38,0-.55.05a1.53,1.53,0,0,0-1,.26A1.08,1.08,0,0,0,163.21,23.26Z"/><path class="cls-1" d="M163.54,24.59l-.88-.49-1.58-1.05.55-.83a3.1,3.1,0,0,1,.66-.73,3.36,3.36,0,0,1,2.09-.68c.17,0,.3,0,.43,0l.12,0a8.82,8.82,0,0,1,2.24-.23h1v2.9h-1a5.68,5.68,0,0,0-1.55.15l-.46.09-.62,0a4.09,4.09,0,0,0-.45.05Z"/><path class="cls-1" d="M178.15,32.49l-.48-.75a.23.23,0,0,0-.09.08s.06-.14.09-.21a2,2,0,0,1,.16-.33c.08-.14.06-.33,0-.7,0-.16-.05-.32-.07-.51a2.84,2.84,0,0,1,0-.9.41.41,0,0,0,0-.22,1.2,1.2,0,0,0-.46-.6,5.46,5.46,0,0,1-1-1.05,3.92,3.92,0,0,1-.41-.69l0-.08c-.59-.34-2.08.48-3.05,1.43l-.14.14-.18.18c-1,.83-2.63,1.28-3.54.62-.65-.48-.69-1.33-.78-3,0-.5,0-.88,0-1.19a2.19,2.19,0,0,0-.21-1.29c0-.08-.06-.15-.1-.25-.14-.47-.3-.72-.7-.72v-.9a1.66,1.66,0,0,1,1.56,1.35l0,.09a3,3,0,0,1,.32,1.71c0,.31,0,.68,0,1.16.07,1.32.11,2.12.42,2.34.48.35,1.68.07,2.43-.57l.1-.1.17-.18c1-1,3-2.24,4.12-1.56a1,1,0,0,1,.41.46,2.34,2.34,0,0,0,.33.56,4.73,4.73,0,0,0,.83.9,2,2,0,0,1,.73,1,1.1,1.1,0,0,1,0,.62,2,2,0,0,0,0,.65c0,.17,0,.32.07.46a1.81,1.81,0,0,1-.13,1.31s-.06.14-.09.2A1.08,1.08,0,0,1,178.15,32.49Z"/><path class="cls-1" d="M177.85,33.88l-1-1.6.71-.46-.81-.53v-.05c0-.11.09-.21.14-.3s0-.13,0-.21-.05-.35-.07-.56a3.9,3.9,0,0,1,0-1l-.12-.09a7.45,7.45,0,0,1-1.11-1.21c-.1-.14-.18-.27-.25-.38a5.62,5.62,0,0,0-1.74,1.16l-.1.11a2.31,2.31,0,0,1-.27.26c-1.28,1.1-3.42,1.65-4.78.66-1-.75-1.09-1.89-1.19-3.78,0-.51,0-.91,0-1.23,0-.67,0-.69-.08-.81a2.35,2.35,0,0,1-.18-.43v0h-.74v-2.9h1a2.57,2.57,0,0,1,2.51,2,4,4,0,0,1,.4,2.11c0,.29,0,.65,0,1.11s.07,1.22.12,1.57a2.67,2.67,0,0,0,1.07-.51l.24-.24c1.14-1.11,3.55-2.73,5.32-1.7a1.87,1.87,0,0,1,.8.9,2.46,2.46,0,0,0,.24.4,4.12,4.12,0,0,0,.68.73,3,3,0,0,1,1,1.52,2.19,2.19,0,0,1,.05,1.06.82.82,0,0,0,0,.37c0,.14,0,.27,0,.39a2.71,2.71,0,0,1-.26,2l0,0a1.94,1.94,0,0,1-.73,1Zm.3-1.39.06.09a.69.69,0,0,0,.19-.19l0,0ZM177,30.76h0Z"/><path class="cls-1" d="M74.72,53.59a6.18,6.18,0,0,1-3.74-1,3,3,0,0,1-1.38-2.14c0-1.23,1.17-2.09,1.68-2.46.84-.61,1.68-1.27,2.49-1.91a45.2,45.2,0,0,1,4.4-3.18,42.59,42.59,0,0,0,6.5-4.73,10.62,10.62,0,0,0,1.71-1.9c.65-.85,1.73-2.27,4.21-5.2,2-2.85,4.09-6.31,4-7l-.13-.28c-.2-.21-.68-.21-1.14-.22-.66,0-1.48,0-1.86-.71-.5-.92.3-2.09,1.22-3.45a11.27,11.27,0,0,1,2.48-2.79,9.79,9.79,0,0,1,6-2.18h0a9.07,9.07,0,0,1,3,.57c.81.27,1.13.35,1.42.12.11-.09.13-.13.26-1,.08-.59.2-1.49.47-2.89.13-.68.32-1.66.55-2.78l.19-.42.32-.14c3.65.19,5.88.57,6.29,1,1.49,1.79.28,5.8-1.17,8-.17.27-.35.5-.5.71-.46.62-.67.94-.62,1.38s.43.77,1.12,1.24a6.78,6.78,0,0,1,1.77,1.53c1.61,2.06,1.24,4.79,1,6.6-.31,2.24-1.61,6.35-3.39,6.35h-.07c-.66,0-1-.61-1.23-1.07S110.19,33,110,33c-.58-.12-1.4,1.21-2.35,2.73a34.81,34.81,0,0,1-3.49,4.89c-2.4,2.7-4.82,4.11-8.17,6.06a50.62,50.62,0,0,1-9.63,4.21C82.26,52.29,78,53.59,74.72,53.59Zm26.4-38.19h0a8.82,8.82,0,0,0-5.4,2A10.2,10.2,0,0,0,93.4,20c-.66,1-1.41,2.08-1.17,2.52.11.22.5.24,1.09.25a2.21,2.21,0,0,1,1.85.59l.06.09.17.37c.48,1.07-2.36,5.36-4.09,7.83l0,0c-2.46,2.93-3.54,4.34-4.19,5.19a11.43,11.43,0,0,1-1.82,2,43.89,43.89,0,0,1-6.63,4.82,43.07,43.07,0,0,0-4.31,3.13c-.82.64-1.67,1.3-2.53,1.92-.39.29-1.31,1-1.3,1.72s.76,1.26,1,1.44C74.42,54.07,82.85,51.14,86,50a49.76,49.76,0,0,0,9.47-4.14c3.28-1.91,5.65-3.29,8-5.88a33.76,33.76,0,0,0,3.4-4.77c1.26-2,2.1-3.38,3.29-3.13a1.94,1.94,0,0,1,1.23,1.17c.2.36.34.6.5.61h0c.77,0,2.1-2.68,2.5-5.58.24-1.76.57-4.17-.8-5.93A6.3,6.3,0,0,0,112,21.05c-.72-.48-1.4-.93-1.51-1.87a2.7,2.7,0,0,1,.79-2c.15-.21.31-.42.47-.67C113.2,14.3,114,10.92,113,9.61c-.15-.09-1.12-.51-5.3-.76-.21,1.05-.39,2-.51,2.6-.26,1.38-.39,2.26-.47,2.84-.13,1-.18,1.28-.59,1.61-.7.54-1.42.3-2.26,0A8.2,8.2,0,0,0,101.12,15.4ZM113,9.62Z"/><path class="cls-1" d="M74.72,54.59a7.06,7.06,0,0,1-4.34-1.18,3.79,3.79,0,0,1-1.78-2.93c0-1.75,1.51-2.86,2.09-3.28.84-.6,1.66-1.25,2.46-1.88a45.81,45.81,0,0,1,4.5-3.26A41.85,41.85,0,0,0,84,37.45a9.58,9.58,0,0,0,1.58-1.76c.67-.87,1.76-2.31,4.24-5.25a45,45,0,0,0,3.57-5.81h-.1a2.87,2.87,0,0,1-2.73-1.23c-.79-1.46.26-3,1.27-4.49a12.37,12.37,0,0,1,2.7-3,10.81,10.81,0,0,1,6.55-2.39,10,10,0,0,1,3.4.62l.35.11,0-.2c.08-.6.2-1.5.47-2.93.13-.68.33-1.68.56-2.8l.07-.2.33-.77.9-.41.24,0c6.1.33,6.69,1,7,1.41,1.9,2.29.5,6.75-1.1,9.18-.19.29-.37.54-.54.76a3.59,3.59,0,0,0-.43.66,3.59,3.59,0,0,0,.68.52,8,8,0,0,1,2,1.75c1.87,2.4,1.44,5.5,1.19,7.35-.28,2-1.6,7.22-4.38,7.22h-.15a2.45,2.45,0,0,1-2-1.5,23,23,0,0,0-1.3,2,35.23,35.23,0,0,1-3.59,5c-2.51,2.83-5,4.27-8.42,6.26a50.86,50.86,0,0,1-9.8,4.3C82.71,53.19,78.23,54.59,74.72,54.59ZM93.45,21.74a3,3,0,0,1,2.51,1l.18.29.17.39c.28.6.79,1.74-4.19,8.81l-.07.09c-2.47,2.93-3.53,4.32-4.16,5.15a12.49,12.49,0,0,1-2,2.16,44.93,44.93,0,0,1-6.77,4.93,45.47,45.47,0,0,0-4.23,3.06c-.82.65-1.68,1.33-2.55,1.95s-.89.84-.89.9,0,.22.61.65c1.65,1.24,6.21.56,13.57-2A49.26,49.26,0,0,0,95,45c3.2-1.86,5.51-3.2,7.7-5.68a32.46,32.46,0,0,0,3.3-4.62c1.38-2.22,2.47-4,4.34-3.59A2.59,2.59,0,0,1,112,32.42a12.24,12.24,0,0,0,1.36-4.24c.23-1.67.51-3.75-.6-5.18a5.11,5.11,0,0,0-1.33-1.11,3.61,3.61,0,0,1-2-2.59,3.63,3.63,0,0,1,1-2.74c.14-.19.29-.39.44-.62,1.29-2,1.81-4.55,1.41-5.52a20.54,20.54,0,0,0-3.81-.51c-.14.68-.25,1.27-.34,1.72-.25,1.35-.38,2.22-.46,2.79-.14,1.06-.23,1.69-1,2.27a3.15,3.15,0,0,1-3.19.18,7,7,0,0,0-2.44-.47h0a7.88,7.88,0,0,0-4.79,1.78,9.07,9.07,0,0,0-2.07,2.35C94,20.85,93.68,21.34,93.45,21.74Z"/><path class="cls-1" d="M95.19,23.85l-.74-.49a1.81,1.81,0,0,1,.45-.5,2.4,2.4,0,0,1,1.52-.46l.5,0,.23-.05a7.5,7.5,0,0,1,2-.2V23a6.84,6.84,0,0,0-1.79.17,1.86,1.86,0,0,1-.34.07l-.55,0a1.58,1.58,0,0,0-1,.26A1.31,1.31,0,0,0,95.19,23.85Z"/><path class="cls-1" d="M95.52,25.17l-.88-.49-1.58-1,.55-.84a3.25,3.25,0,0,1,.66-.72,3.31,3.31,0,0,1,2.09-.68l.44,0,.11,0a8.35,8.35,0,0,1,2.24-.23h1V24h-1a5.68,5.68,0,0,0-1.55.15,4.46,4.46,0,0,1-.46.08c-.21,0-.41,0-.6.05a2.37,2.37,0,0,0-.46.05Z"/><path class="cls-1" d="M110.13,33.08l-.48-.75a.39.39,0,0,0-.09.08,1.09,1.09,0,0,0,.09-.21,2,2,0,0,1,.16-.33c.09-.14.06-.33,0-.71,0-.15,0-.31-.07-.5a3.2,3.2,0,0,1,0-.9.33.33,0,0,0,0-.22c-.07-.26-.2-.37-.46-.6a6.17,6.17,0,0,1-1-1.05,3.88,3.88,0,0,1-.41-.7l0-.07c-.59-.34-2.08.48-3,1.43l-.14.14-.18.18c-1,.83-2.62,1.28-3.54.61-.65-.47-.69-1.32-.78-3,0-.5,0-.88,0-1.19A2.25,2.25,0,0,0,100,24a1.34,1.34,0,0,1-.09-.24c-.15-.47-.31-.72-.71-.72v-.9a1.66,1.66,0,0,1,1.56,1.35l0,.09a3,3,0,0,1,.32,1.71c0,.3,0,.68,0,1.15.06,1.33.1,2.13.41,2.35.48.35,1.68.07,2.43-.57l.1-.11.18-.17c1-1,3-2.24,4.11-1.56a.91.91,0,0,1,.41.46,2.56,2.56,0,0,0,.33.56,4.73,4.73,0,0,0,.83.9,2,2,0,0,1,.73,1,1.1,1.1,0,0,1,0,.62,2.39,2.39,0,0,0,0,.65c0,.17,0,.32.07.46a1.81,1.81,0,0,1-.13,1.31,2.16,2.16,0,0,0-.09.2A1.08,1.08,0,0,1,110.13,33.08Z"/><path class="cls-1" d="M109.83,34.46l-1-1.59.68-.44-.83-.47a.41.41,0,0,0,0-.09l0-.05a2.55,2.55,0,0,1,.13-.29c0-.06,0-.13,0-.21s0-.35-.07-.56a3.9,3.9,0,0,1,0-1l-.12-.09a7,7,0,0,1-1.11-1.21c-.1-.14-.18-.27-.25-.38a5.44,5.44,0,0,0-1.74,1.16l-.1.11a3.28,3.28,0,0,1-.26.25c-1.29,1.11-3.43,1.66-4.79.67-1-.75-1.09-1.89-1.19-3.78,0-.5,0-.9,0-1.21,0-.69,0-.71-.09-.83A2.15,2.15,0,0,1,98.9,24v0h-.74v-2.9h1a2.57,2.57,0,0,1,2.51,2,4,4,0,0,1,.4,2.11c0,.3,0,.65,0,1.1s.07,1.2.12,1.55a2.3,2.3,0,0,0,1.08-.48l.22-.24c1.15-1.12,3.56-2.73,5.33-1.71a1.92,1.92,0,0,1,.8.9,1.82,1.82,0,0,0,.24.4,3.61,3.61,0,0,0,.68.74,2.87,2.87,0,0,1,1,1.52,2.07,2.07,0,0,1,0,1.06,1,1,0,0,0,0,.37c0,.15,0,.28.05.4a2.69,2.69,0,0,1-.26,2v.05a2,2,0,0,1-.74,1Zm0-1.83.34.54a.74.74,0,0,0,.26-.29h0l0,.07,0,0-.24.15Zm-1-1Z"/><path class="cls-1" d="M7.15,53.7a6.22,6.22,0,0,1-3.74-1A3,3,0,0,1,2,50.58c0-1.24,1.17-2.09,1.67-2.46.85-.61,1.69-1.27,2.5-1.91A44,44,0,0,1,10.61,43a43.09,43.09,0,0,0,6.5-4.73,10.56,10.56,0,0,0,1.7-1.9c.65-.85,1.74-2.27,4.21-5.2,2-2.85,4.1-6.31,4-7L26.88,24c-.21-.21-.68-.21-1.14-.22-.66,0-1.49,0-1.86-.71-.5-.92.29-2.09,1.21-3.45a11.34,11.34,0,0,1,2.49-2.79,9.77,9.77,0,0,1,5.94-2.18h0a9,9,0,0,1,3.05.57c.82.27,1.13.35,1.42.12.12-.09.14-.14.26-1,.08-.59.21-1.49.47-2.89.13-.68.33-1.66.56-2.78l.18-.42.32-.14c3.66.19,5.89.57,6.29,1,1.49,1.79.28,5.79-1.16,8-.18.27-.35.5-.5.71-.46.62-.68.94-.63,1.38s.43.77,1.13,1.23a7.18,7.18,0,0,1,1.77,1.53c1.61,2.07,1.23,4.8,1,6.61-.3,2.24-1.61,6.35-3.38,6.35h-.07c-.67,0-1-.61-1.23-1.07s-.38-.68-.62-.73C41.8,33,41,34.3,40,35.83a34,34,0,0,1-3.49,4.89c-2.39,2.7-4.81,4.11-8.16,6.06A50.62,50.62,0,0,1,18.75,51C14.69,52.4,10.4,53.7,7.15,53.7Zm26.4-38.19h0a8.81,8.81,0,0,0-5.39,2,10,10,0,0,0-2.29,2.58c-.67,1-1.42,2.08-1.18,2.52.12.22.51.24,1.09.25a2.21,2.21,0,0,1,1.86.59l.05.09.17.37c.49,1.07-2.35,5.36-4.09,7.83l0,0c-2.47,2.93-3.55,4.34-4.19,5.19a12.27,12.27,0,0,1-1.82,2,43.84,43.84,0,0,1-6.64,4.82,44.25,44.25,0,0,0-4.31,3.13c-.82.64-1.66,1.3-2.52,1.92-.4.29-1.32,1-1.31,1.72S3.7,51.82,4,52c2.91,2.18,11.33-.75,14.5-1.85A49.82,49.82,0,0,0,27.93,46c3.27-1.91,5.64-3.29,7.94-5.88a33.52,33.52,0,0,0,3.4-4.77c1.27-2,2.11-3.38,3.29-3.13a1.91,1.91,0,0,1,1.23,1.17c.2.36.34.6.5.61h0c.76,0,2.1-2.68,2.5-5.58.24-1.76.57-4.17-.81-5.93a6.1,6.1,0,0,0-1.56-1.34c-.72-.48-1.4-.93-1.51-1.87a2.7,2.7,0,0,1,.79-2c.15-.21.31-.42.47-.67,1.44-2.19,2.27-5.57,1.26-6.89-.16-.08-1.13-.5-5.3-.75-.22,1-.4,2-.52,2.6-.26,1.37-.38,2.26-.46,2.84-.14,1-.18,1.28-.6,1.61-.69.54-1.42.3-2.25,0A8,8,0,0,0,33.55,15.51ZM45.47,9.73Z"/><path class="cls-1" d="M7.15,54.7a7.06,7.06,0,0,1-4.34-1.18A3.78,3.78,0,0,1,1,50.59c0-1.75,1.51-2.86,2.09-3.28.83-.6,1.66-1.25,2.46-1.88a45.81,45.81,0,0,1,4.5-3.26,41.63,41.63,0,0,0,6.35-4.61A10,10,0,0,0,18,35.8c.66-.87,1.76-2.3,4.24-5.25a43.47,43.47,0,0,0,3.56-5.81h-.09A2.86,2.86,0,0,1,23,23.51c-.79-1.46.25-3,1.26-4.49A12.59,12.59,0,0,1,27,16a10.84,10.84,0,0,1,6.56-2.39,10,10,0,0,1,3.39.62l.35.11,0-.2c.09-.61.21-1.52.48-2.93.13-.69.33-1.67.56-2.8l.06-.2.34-.77L39.62,7l.25,0c6.1.33,6.69,1,7,1.41,1.9,2.29.5,6.75-1.1,9.18-.18.28-.36.52-.52.74a3.92,3.92,0,0,0-.44.68,3.29,3.29,0,0,0,.68.52,8.3,8.3,0,0,1,2,1.75c1.86,2.39,1.44,5.5,1.18,7.35-.27,2-1.59,7.22-4.37,7.22h-.16a2.47,2.47,0,0,1-2-1.5c-.38.49-.91,1.34-1.3,2a35.23,35.23,0,0,1-3.59,5c-2.5,2.83-5,4.27-8.41,6.26a51.13,51.13,0,0,1-9.8,4.3C15.15,53.3,10.66,54.7,7.15,54.7ZM25.89,21.85a3,3,0,0,1,2.51,1l.17.29.18.39c.27.6.79,1.74-4.19,8.8l-.08.1C22,35.32,21,36.72,20.32,37.55a12.41,12.41,0,0,1-1.94,2.16,44.11,44.11,0,0,1-6.79,4.93A46.56,46.56,0,0,0,7.38,47.7c-.85.67-1.69,1.33-2.55,1.95s-.89.84-.9.9,0,.22.62.65c1.64,1.23,6.21.56,13.57-2a48.93,48.93,0,0,0,9.3-4.07c3.2-1.86,5.51-3.2,7.7-5.68a32.5,32.5,0,0,0,3.3-4.63c1.38-2.21,2.47-4,4.34-3.58a2.51,2.51,0,0,1,1.69,1.28,12,12,0,0,0,1.37-4.24c.22-1.67.51-3.75-.61-5.18A5.07,5.07,0,0,0,43.89,22a3.62,3.62,0,0,1-2-2.59,3.71,3.71,0,0,1,1-2.74c.15-.19.29-.39.44-.62,1.3-2,1.82-4.55,1.42-5.52A20.54,20.54,0,0,0,41,10c-.14.68-.26,1.27-.34,1.72-.26,1.34-.38,2.21-.46,2.78-.15,1.07-.24,1.7-1,2.28A3.15,3.15,0,0,1,36,17a7,7,0,0,0-2.45-.48h0a7.93,7.93,0,0,0-4.78,1.79,9.32,9.32,0,0,0-2.08,2.35C26.45,21,26.12,21.45,25.89,21.85Zm.45,2.93ZM26,24.23Z"/><path class="cls-1" d="M27.63,24l-.75-.49a2.22,2.22,0,0,1,.45-.51,2.49,2.49,0,0,1,1.52-.45l.5,0,.23,0a7.63,7.63,0,0,1,2-.2v.89a6.62,6.62,0,0,0-1.78.18,2.29,2.29,0,0,1-.34.07l-.56,0a1.6,1.6,0,0,0-1,.26A1.56,1.56,0,0,0,27.63,24Z"/><path class="cls-1" d="M28,25.28l-.88-.49-1.58-1,.55-.83a2.92,2.92,0,0,1,.66-.74,3.34,3.34,0,0,1,2.09-.67l.44,0,.11,0a8.25,8.25,0,0,1,2.23-.23h1v2.9h-1a6.46,6.46,0,0,0-1.55.14,2.49,2.49,0,0,1-.46.09c-.22,0-.42,0-.62,0a2.44,2.44,0,0,0-.44.05Z"/><path class="cls-1" d="M42.57,33.19l-.49-.75a.39.39,0,0,0-.09.08s.07-.15.1-.21a3.52,3.52,0,0,1,.15-.33c.09-.14.07-.33,0-.71,0-.15,0-.32-.07-.5a2.84,2.84,0,0,1,0-.9.33.33,0,0,0,0-.22,1.1,1.1,0,0,0-.46-.6,6.21,6.21,0,0,1-1-1.05,4.17,4.17,0,0,1-.42-.7.16.16,0,0,0,0-.07c-.59-.34-2.07.48-3,1.43l-.14.14L37,29c-1,.83-2.63,1.28-3.54.61-.65-.47-.7-1.32-.78-3,0-.5,0-.88,0-1.19a2.25,2.25,0,0,0-.21-1.3,1.33,1.33,0,0,1-.1-.24c-.15-.47-.31-.73-.71-.73v-.89a1.64,1.64,0,0,1,1.56,1.34l0,.1a3.15,3.15,0,0,1,.32,1.71c0,.3,0,.68,0,1.15.07,1.33.11,2.13.42,2.35.48.35,1.68.07,2.42-.57a.56.56,0,0,0,.11-.11s.08-.09.17-.17c1-1,3-2.24,4.12-1.56a.88.88,0,0,1,.4.46,3.35,3.35,0,0,0,.34.56,4.73,4.73,0,0,0,.83.9,2,2,0,0,1,.73,1,1.32,1.32,0,0,1,0,.62,2,2,0,0,0,0,.65c0,.17,0,.32.06.46A1.81,1.81,0,0,1,43,32.45a1,1,0,0,0-.09.2A1.08,1.08,0,0,1,42.57,33.19Z"/><path class="cls-1" d="M42.27,34.58l-1-1.6.71-.46-.8-.54,0-.05.12-.29,0-.21c0-.17,0-.35-.08-.56a4.46,4.46,0,0,1,0-1l-.11-.09A7.45,7.45,0,0,1,40,28.59a4.05,4.05,0,0,1-.25-.38A5.33,5.33,0,0,0,38,29.37l-.1.1a3.43,3.43,0,0,1-.27.26c-1.29,1.11-3.42,1.66-4.78.67-1-.75-1.1-1.89-1.19-3.78,0-.5,0-.9,0-1.21,0-.69,0-.71-.08-.83a1.86,1.86,0,0,1-.18-.44v0h-.75v-2.9h1a2.55,2.55,0,0,1,2.51,2,4.15,4.15,0,0,1,.41,2.12c0,.3,0,.65,0,1.1s.06,1.23.12,1.58a2.67,2.67,0,0,0,1.07-.51l.23-.24c1.15-1.12,3.55-2.73,5.32-1.71a1.9,1.9,0,0,1,.81.9,1.82,1.82,0,0,0,.24.4,3.88,3.88,0,0,0,.68.74,2.93,2.93,0,0,1,1,1.52,2.16,2.16,0,0,1,0,1.06,1.35,1.35,0,0,0,0,.37c0,.14,0,.28.06.4a2.74,2.74,0,0,1-.26,2l0,.05a2,2,0,0,1-.73,1Zm.3-1.39.06.09a1,1,0,0,0,.18-.18l-.05,0ZM41.3,31.74Zm-6.61-3.49Z"/></svg>