<svg id="Layer_1" data-name="Layer 1" xmlns="http://www.w3.org/2000/svg" viewBox="0 0 931 60"><defs><style>.cls-1{fill:#6abe84;}</style></defs><title>border_cl</title><rect class="cls-1" x="-2.5" y="4.37" width="935" height="2"/><rect class="cls-1" x="-2.5" y="4.87" width="935" height="1"/><rect class="cls-1" x="-3.5" y="3.87" width="937" height="3"/><rect class="cls-1" x="-2.5" y="51.37" width="936" height="2"/><rect class="cls-1" x="-2.5" y="51.87" width="936" height="1"/><rect class="cls-1" x="-3.5" y="50.87" width="938" height="3"/><path class="cls-1" d="M49.26,52A6.23,6.23,0,0,0,53,51a3,3,0,0,0,1.37-2.14c0-1.23-1.17-2.09-1.68-2.46-.84-.61-1.68-1.27-2.49-1.91a45.2,45.2,0,0,0-4.4-3.18,42.59,42.59,0,0,1-6.5-4.73,10.29,10.29,0,0,1-1.71-1.9c-.65-.85-1.73-2.27-4.2-5.2-2-2.85-4.1-6.31-4-7l.13-.28A1.91,1.91,0,0,1,30.68,22c.66,0,1.49,0,1.86-.71.5-.92-.3-2.09-1.22-3.45a11.07,11.07,0,0,0-2.48-2.79,9.79,9.79,0,0,0-5.94-2.18h0a9.07,9.07,0,0,0-3.05.57c-.81.27-1.13.35-1.42.12-.11-.09-.13-.13-.26-1-.08-.59-.2-1.49-.47-2.88C17.54,9,17.34,8,17.11,6.91l-.18-.41-.33-.15c-3.65.19-5.88.57-6.29,1.05-1.49,1.8-.28,5.8,1.17,8,.17.26.35.5.5.7.46.62.68.94.62,1.38s-.42.78-1.12,1.24a6.78,6.78,0,0,0-1.77,1.53c-1.61,2.06-1.23,4.79-1,6.6.31,2.24,1.61,6.36,3.39,6.36h.07c.67,0,1-.61,1.23-1.07s.38-.68.62-.72c.58-.12,1.4,1.2,2.35,2.72A34.81,34.81,0,0,0,19.87,39c2.4,2.71,4.82,4.11,8.17,6.06a50,50,0,0,0,9.63,4.21C41.72,50.7,46,52,49.26,52ZM22.86,13.81h0a8.82,8.82,0,0,1,5.4,2,10.17,10.17,0,0,1,2.29,2.58c.66,1,1.41,2.08,1.17,2.53-.11.21-.5.23-1.09.24a2.22,2.22,0,0,0-1.85.59l-.06.09s-.16.37-.17.37c-.48,1.07,2.36,5.37,4.09,7.83l0,0c2.46,2.93,3.54,4.34,4.19,5.19a11.84,11.84,0,0,0,1.82,2,43.89,43.89,0,0,0,6.63,4.82,44.38,44.38,0,0,1,4.32,3.13c.81.64,1.66,1.31,2.52,1.93.39.28,1.32,1,1.3,1.72s-.76,1.25-1,1.43c-2.91,2.18-11.34-.75-14.51-1.85a49.76,49.76,0,0,1-9.47-4.14c-3.28-1.91-5.65-3.29-7.95-5.88a34.6,34.6,0,0,1-3.4-4.77c-1.26-2-2.1-3.37-3.29-3.13a1.94,1.94,0,0,0-1.23,1.17c-.19.36-.33.6-.49.61h0c-.76,0-2.1-2.68-2.5-5.58C9.37,25,9,22.56,10.42,20.8A6.1,6.1,0,0,1,12,19.46c.72-.48,1.4-.93,1.51-1.87a2.7,2.7,0,0,0-.79-2c-.15-.21-.31-.42-.47-.67C10.79,12.71,10,9.33,11,8c.15-.09,1.13-.51,5.3-.76.21,1.05.39,2,.51,2.6.26,1.38.39,2.26.47,2.84.13,1,.18,1.28.59,1.61.7.54,1.42.3,2.26,0A8.2,8.2,0,0,1,22.86,13.81ZM11,8Z"/><path class="cls-1" d="M49.26,53c-3.51,0-8-1.4-11.92-2.76A51.11,51.11,0,0,1,27.54,46c-3.43-2-5.91-3.44-8.41-6.26a35.18,35.18,0,0,1-3.6-5,21.28,21.28,0,0,0-1.3-1.95,2.46,2.46,0,0,1-2,1.49h-.13C9.33,34.21,8,29,7.73,27s-.68-5,1.19-7.36a7.83,7.83,0,0,1,2-1.74,3.92,3.92,0,0,0,.69-.52,3.31,3.31,0,0,0-.43-.67q-.25-.33-.54-.75c-1.6-2.44-3-6.9-1.09-9.19.31-.38.9-1.08,7-1.41l.25,0,.89.42.4,1c.23,1.13.43,2.12.56,2.8.27,1.44.4,2.37.47,2.93a2,2,0,0,1,0,.2l.35-.11a10.23,10.23,0,0,1,3.36-.62,10.81,10.81,0,0,1,6.59,2.39,12.16,12.16,0,0,1,2.7,3c1,1.49,2.06,3,1.27,4.49A2.87,2.87,0,0,1,30.69,23h-.1a45.89,45.89,0,0,0,3.62,5.88c2.46,2.91,3.54,4.33,4.19,5.18A9.29,9.29,0,0,0,40,35.86a41.63,41.63,0,0,0,6.35,4.61,47.52,47.52,0,0,1,4.5,3.26c.83.65,1.64,1.29,2.46,1.88.58.42,2.12,1.53,2.09,3.28a3.78,3.78,0,0,1-1.77,2.93A7.07,7.07,0,0,1,49.26,53ZM14.16,29.5c1.57,0,2.58,1.62,3.83,3.63a33.11,33.11,0,0,0,3.3,4.64c2.19,2.47,4.5,3.81,7.7,5.67a48.1,48.1,0,0,0,9.3,4.06c7.37,2.57,11.93,3.24,13.58,2,.57-.42.61-.63.61-.65s-.09-.31-.89-.89-1.72-1.3-2.55-2A43.4,43.4,0,0,0,44.82,43,45.66,45.66,0,0,1,38,38a12.41,12.41,0,0,1-1.94-2.15c-.64-.84-1.71-2.24-4.17-5.15l-.07-.1c-5-7.07-4.47-8.21-4.19-8.82l.35-.67a3,3,0,0,1,2.51-1c-.23-.4-.56-.89-.78-1.2a9.09,9.09,0,0,0-2.07-2.36,7.86,7.86,0,0,0-4.79-1.78l0-.9h0v.9a7.18,7.18,0,0,0-2.44.47,3.12,3.12,0,0,1-3.19-.18c-.74-.58-.83-1.21-1-2.26-.08-.57-.2-1.43-.46-2.79-.08-.46-.2-1.05-.34-1.73a20.88,20.88,0,0,0-3.81.51c-.4,1,.12,3.56,1.41,5.53.15.22.3.42.44.61a3.63,3.63,0,0,1,1,2.74,3.56,3.56,0,0,1-2,2.59,5.14,5.14,0,0,0-1.33,1.11c-1.11,1.43-.83,3.51-.6,5.18A12,12,0,0,0,12,30.83a2.54,2.54,0,0,1,1.68-1.28A2.32,2.32,0,0,1,14.16,29.5Zm15.92-6.42Z"/><path class="cls-1" d="M28.79,22.26l.75-.49a2,2,0,0,0-.46-.5,2.4,2.4,0,0,0-1.52-.46l-.49,0a1.14,1.14,0,0,1-.24-.05,7.5,7.5,0,0,0-2-.2v.9a6.84,6.84,0,0,1,1.79.17,2.05,2.05,0,0,0,.34.07c.2,0,.38,0,.55.05a1.53,1.53,0,0,1,1,.26A1.08,1.08,0,0,1,28.79,22.26Z"/><path class="cls-1" d="M28.5,23.65,28,22.81s0-.06-.05-.06a3.62,3.62,0,0,0-.44-.05l-.62,0a3.43,3.43,0,0,1-.44-.09,6,6,0,0,0-1.57-.15h-1v-2.9h1a8.82,8.82,0,0,1,2.24.23l.12,0,.38,0a3.42,3.42,0,0,1,2.14.68,3.31,3.31,0,0,1,.66.73l.55.83Z"/><path class="cls-1" d="M13.85,31.49l.48-.75a.23.23,0,0,1,.09.08s-.06-.14-.09-.21a2,2,0,0,0-.16-.33c-.08-.14-.06-.33,0-.7,0-.16.05-.32.07-.51a2.84,2.84,0,0,0,0-.9.41.41,0,0,1,0-.22,1.2,1.2,0,0,1,.46-.6,5.46,5.46,0,0,0,1-1.05,3.92,3.92,0,0,0,.41-.69l0-.08c.59-.34,2.08.48,3,1.43l.14.14.18.18c1,.83,2.63,1.28,3.54.62.65-.48.69-1.33.78-3,0-.5,0-.88,0-1.19A2.19,2.19,0,0,1,24,22.39c0-.08.06-.15.1-.25.14-.47.3-.72.7-.72v-.9a1.66,1.66,0,0,0-1.56,1.35.46.46,0,0,1,0,.09,3,3,0,0,0-.32,1.71c0,.31,0,.68,0,1.16-.07,1.32-.11,2.12-.42,2.34-.48.35-1.68.07-2.43-.57l-.1-.1-.17-.18c-1-1-3-2.24-4.12-1.56a1,1,0,0,0-.41.46,2.34,2.34,0,0,1-.33.56,4.73,4.73,0,0,1-.83.9,2,2,0,0,0-.73,1,1.1,1.1,0,0,0,0,.62,2,2,0,0,1,0,.65c0,.17,0,.32-.07.46a1.81,1.81,0,0,0,.13,1.31s.06.14.09.2A1.08,1.08,0,0,0,13.85,31.49Z"/><path class="cls-1" d="M14.15,32.88l-.84-.55a2,2,0,0,1-.73-1l-.05-.12a2.63,2.63,0,0,1-.23-1.94,4,4,0,0,0,0-.4.82.82,0,0,0,0-.37,2.07,2.07,0,0,1,.05-1.06,3,3,0,0,1,1-1.52,3.79,3.79,0,0,0,.69-.73,2.46,2.46,0,0,0,.24-.4,1.9,1.9,0,0,1,.81-.91c1.76-1,4.17.6,5.31,1.71l.2.21a2.4,2.4,0,0,0,1.11.51c.06-.35.09-1,.12-1.54s0-.81,0-1.1a4,4,0,0,1,.41-2.13,2.55,2.55,0,0,1,2.5-2h1v2.9h-.74v0a2.15,2.15,0,0,1-.18.44c-.07.12-.08.14-.08.8,0,.33,0,.73,0,1.24-.1,1.89-.16,3-1.19,3.78-1.36,1-3.5.44-4.78-.66a2.14,2.14,0,0,1-.26-.25l-.11-.12a5.62,5.62,0,0,0-1.74-1.16c-.07.11-.15.24-.25.38a7.45,7.45,0,0,1-1.11,1.21l-.12.1a3.84,3.84,0,0,1,0,1c0,.21-.05.4-.07.56s0,.15,0,.21a1.59,1.59,0,0,1,.12.27l.06.14,0,0-.83.46.68.44ZM15,29.76Zm6.7-3.21Z"/><path class="cls-1" d="M119.26,52A6.23,6.23,0,0,0,123,51a3,3,0,0,0,1.37-2.14c0-1.23-1.17-2.09-1.68-2.46-.84-.61-1.68-1.27-2.49-1.91a45.2,45.2,0,0,0-4.4-3.18,42.59,42.59,0,0,1-6.5-4.73,10.29,10.29,0,0,1-1.71-1.9c-.65-.85-1.73-2.27-4.2-5.2-2-2.85-4.1-6.31-4-7l.13-.28a1.91,1.91,0,0,1,1.14-.22c.66,0,1.49,0,1.86-.71.5-.92-.3-2.09-1.22-3.45a11.07,11.07,0,0,0-2.48-2.79,9.79,9.79,0,0,0-5.94-2.18h0a9.07,9.07,0,0,0-3,.57c-.81.27-1.13.35-1.42.12-.11-.09-.13-.13-.26-1-.08-.59-.2-1.49-.47-2.88C87.54,9,87.34,8,87.11,6.91l-.18-.41-.33-.15c-3.65.19-5.88.57-6.29,1.05-1.49,1.8-.28,5.8,1.17,8,.17.26.35.5.5.7.46.62.68.94.62,1.38s-.42.78-1.12,1.24a6.78,6.78,0,0,0-1.77,1.53c-1.61,2.06-1.23,4.79-1,6.6.31,2.24,1.61,6.36,3.39,6.36h.07c.67,0,1-.61,1.23-1.07s.38-.68.62-.72c.58-.12,1.4,1.2,2.35,2.72A34.81,34.81,0,0,0,89.87,39c2.4,2.71,4.82,4.11,8.17,6.06a50,50,0,0,0,9.63,4.21C111.72,50.7,116,52,119.26,52ZM92.86,13.81h0a8.82,8.82,0,0,1,5.4,2,10.17,10.17,0,0,1,2.29,2.58c.66,1,1.41,2.08,1.17,2.53-.11.21-.5.23-1.09.24a2.22,2.22,0,0,0-1.85.59l-.06.09s-.16.37-.17.37c-.48,1.07,2.36,5.37,4.09,7.83l0,0c2.46,2.93,3.54,4.34,4.19,5.19a11.84,11.84,0,0,0,1.82,2,43.89,43.89,0,0,0,6.63,4.82,44.38,44.38,0,0,1,4.32,3.13c.81.64,1.66,1.31,2.52,1.93.39.28,1.32,1,1.3,1.72s-.76,1.25-1,1.43c-2.91,2.18-11.34-.75-14.51-1.85a49.76,49.76,0,0,1-9.47-4.14c-3.28-1.91-5.65-3.29-7.95-5.88a34.6,34.6,0,0,1-3.4-4.77c-1.26-2-2.1-3.37-3.29-3.13a1.94,1.94,0,0,0-1.23,1.17c-.19.36-.33.6-.49.61h0c-.76,0-2.1-2.68-2.5-5.58-.24-1.76-.57-4.17.81-5.93A6.1,6.1,0,0,1,82,19.46c.72-.48,1.4-.93,1.51-1.87a2.7,2.7,0,0,0-.79-2c-.15-.21-.31-.42-.47-.67C80.79,12.71,80,9.33,81,8c.15-.09,1.13-.51,5.3-.76.21,1.05.39,2,.51,2.6.26,1.38.39,2.26.47,2.84.13,1,.18,1.28.59,1.61.7.54,1.42.3,2.26,0A8.2,8.2,0,0,1,92.86,13.81ZM81,8Z"/><path class="cls-1" d="M119.26,53c-3.51,0-8-1.4-11.92-2.76A51.11,51.11,0,0,1,97.54,46c-3.43-2-5.91-3.44-8.41-6.26a35.18,35.18,0,0,1-3.6-5,21.28,21.28,0,0,0-1.3-1.95,2.46,2.46,0,0,1-2,1.49h-.13C79.33,34.21,78,29,77.73,27s-.68-5,1.19-7.36a7.83,7.83,0,0,1,2-1.74,3.92,3.92,0,0,0,.69-.52,3.31,3.31,0,0,0-.43-.67q-.25-.33-.54-.75c-1.6-2.44-3-6.9-1.09-9.19.31-.38.9-1.08,7-1.41l.25,0,.89.42.4,1c.23,1.13.43,2.12.56,2.8.27,1.44.4,2.37.47,2.93a2,2,0,0,1,0,.2l.35-.11a10.23,10.23,0,0,1,3.36-.62,10.81,10.81,0,0,1,6.59,2.39,12.16,12.16,0,0,1,2.7,3c1,1.49,2.06,3,1.27,4.49A2.87,2.87,0,0,1,100.69,23h-.1a45.89,45.89,0,0,0,3.62,5.88c2.46,2.91,3.54,4.33,4.19,5.18A9.29,9.29,0,0,0,110,35.86a41.63,41.63,0,0,0,6.35,4.61,47.52,47.52,0,0,1,4.5,3.26c.83.65,1.64,1.29,2.46,1.88.58.42,2.12,1.53,2.09,3.28a3.78,3.78,0,0,1-1.77,2.93A7.07,7.07,0,0,1,119.26,53ZM84.16,29.5c1.57,0,2.58,1.62,3.83,3.63a33.11,33.11,0,0,0,3.3,4.64c2.19,2.47,4.5,3.81,7.7,5.67a48.1,48.1,0,0,0,9.3,4.06c7.37,2.57,11.93,3.24,13.58,2,.57-.42.61-.63.61-.65s-.09-.31-.89-.89-1.72-1.3-2.55-2A43.4,43.4,0,0,0,114.82,43,45.66,45.66,0,0,1,108,38a12.41,12.41,0,0,1-1.94-2.15c-.64-.84-1.71-2.24-4.17-5.15l-.07-.1c-5-7.07-4.47-8.21-4.19-8.82l.35-.67a3,3,0,0,1,2.51-1c-.23-.4-.56-.89-.78-1.2a9.09,9.09,0,0,0-2.07-2.36,7.86,7.86,0,0,0-4.79-1.78l0-.9h0v.9a7.18,7.18,0,0,0-2.44.47,3.12,3.12,0,0,1-3.19-.18c-.74-.58-.83-1.21-1-2.26-.08-.57-.2-1.43-.46-2.79-.08-.46-.2-1.05-.34-1.73a20.88,20.88,0,0,0-3.81.51c-.4,1,.12,3.56,1.41,5.53.15.22.3.42.44.61a3.63,3.63,0,0,1,1,2.74,3.56,3.56,0,0,1-2,2.59,5.14,5.14,0,0,0-1.33,1.11c-1.11,1.43-.83,3.51-.6,5.18A12,12,0,0,0,82,30.83a2.54,2.54,0,0,1,1.68-1.28A2.32,2.32,0,0,1,84.16,29.5Zm15.92-6.42Z"/><path class="cls-1" d="M98.79,22.26l.75-.49a2,2,0,0,0-.46-.5,2.4,2.4,0,0,0-1.52-.46l-.49,0a1.14,1.14,0,0,1-.24-.05,7.5,7.5,0,0,0-2-.2v.9a6.84,6.84,0,0,1,1.79.17,2.05,2.05,0,0,0,.34.07c.2,0,.38,0,.55.05a1.53,1.53,0,0,1,1,.26A1.08,1.08,0,0,1,98.79,22.26Z"/><path class="cls-1" d="M98.5,23.65,98,22.81s0-.06,0-.06a3.62,3.62,0,0,0-.44-.05l-.62,0a3.43,3.43,0,0,1-.44-.09,6,6,0,0,0-1.57-.15h-1v-2.9h1a8.82,8.82,0,0,1,2.24.23l.12,0,.38,0a3.42,3.42,0,0,1,2.14.68,3.31,3.31,0,0,1,.66.73l.55.83Z"/><path class="cls-1" d="M83.85,31.49l.48-.75a.23.23,0,0,1,.09.08s-.06-.14-.09-.21a2,2,0,0,0-.16-.33c-.08-.14-.06-.33,0-.7,0-.16,0-.32.07-.51a2.84,2.84,0,0,0,0-.9.41.41,0,0,1,0-.22,1.2,1.2,0,0,1,.46-.6,5.46,5.46,0,0,0,1-1.05,3.92,3.92,0,0,0,.41-.69l0-.08c.59-.34,2.08.48,3.05,1.43l.14.14a1.51,1.51,0,0,0,.18.18c1,.83,2.63,1.28,3.54.62.65-.48.69-1.33.78-3,0-.5,0-.88,0-1.19A2.19,2.19,0,0,1,94,22.39c0-.08.06-.15.1-.25.14-.47.3-.72.7-.72v-.9a1.66,1.66,0,0,0-1.56,1.35.46.46,0,0,1,0,.09,3,3,0,0,0-.32,1.71c0,.31,0,.68,0,1.16-.07,1.32-.11,2.12-.42,2.34-.48.35-1.68.07-2.43-.57l-.1-.1-.17-.18c-1-1-3-2.24-4.12-1.56a1,1,0,0,0-.41.46,2.34,2.34,0,0,1-.33.56,4.73,4.73,0,0,1-.83.9,2,2,0,0,0-.73,1,1.1,1.1,0,0,0,0,.62,2,2,0,0,1,0,.65c0,.17,0,.32-.07.46a1.81,1.81,0,0,0,.13,1.31s.06.14.09.2A1.08,1.08,0,0,0,83.85,31.49Z"/><path class="cls-1" d="M84.15,32.88l-.84-.55a2,2,0,0,1-.73-1l0-.12a2.63,2.63,0,0,1-.23-1.94,4,4,0,0,0,0-.4.82.82,0,0,0,0-.37,2.07,2.07,0,0,1,.05-1.06,3,3,0,0,1,1-1.52,3.79,3.79,0,0,0,.69-.73,2.46,2.46,0,0,0,.24-.4,1.9,1.9,0,0,1,.81-.91c1.76-1,4.17.6,5.31,1.71l.2.21a2.4,2.4,0,0,0,1.11.51c.06-.35.09-1,.12-1.54s0-.81,0-1.1a4,4,0,0,1,.41-2.13,2.55,2.55,0,0,1,2.5-2h1v2.9h-.74v0a2.15,2.15,0,0,1-.18.44c-.07.12-.08.14-.08.8,0,.33,0,.73,0,1.24-.1,1.89-.16,3-1.19,3.78-1.36,1-3.5.44-4.78-.66a2.14,2.14,0,0,1-.26-.25l-.11-.12a5.62,5.62,0,0,0-1.74-1.16c-.07.11-.15.24-.25.38a7.45,7.45,0,0,1-1.11,1.21l-.12.1a3.84,3.84,0,0,1,0,1c0,.21,0,.4-.07.56s0,.15,0,.21a1.59,1.59,0,0,1,.12.27l.06.14,0,0-.83.46.68.44ZM85,29.76Zm6.7-3.21Z"/><path class="cls-1" d="M189.26,52A6.23,6.23,0,0,0,193,51a3,3,0,0,0,1.37-2.14c0-1.23-1.17-2.09-1.68-2.46-.84-.61-1.68-1.27-2.49-1.91a45.2,45.2,0,0,0-4.4-3.18,42.59,42.59,0,0,1-6.5-4.73,10.29,10.29,0,0,1-1.71-1.9c-.65-.85-1.73-2.27-4.2-5.2-2-2.85-4.1-6.31-4-7l.13-.28a1.91,1.91,0,0,1,1.14-.22c.66,0,1.49,0,1.86-.71.5-.92-.3-2.09-1.22-3.45a11.07,11.07,0,0,0-2.48-2.79,9.79,9.79,0,0,0-5.94-2.18h0a9.07,9.07,0,0,0-3.05.57c-.81.27-1.13.35-1.42.12-.11-.09-.13-.13-.26-1-.08-.59-.2-1.49-.47-2.88-.12-.68-.32-1.67-.55-2.79l-.18-.41-.33-.15c-3.65.19-5.88.57-6.29,1.05-1.49,1.8-.28,5.8,1.17,8,.17.26.35.5.5.7.46.62.68.94.62,1.38s-.42.78-1.12,1.24a6.78,6.78,0,0,0-1.77,1.53c-1.61,2.06-1.23,4.79-1,6.6.31,2.24,1.61,6.36,3.39,6.36h.07c.67,0,1-.61,1.23-1.07s.38-.68.62-.72c.58-.12,1.4,1.2,2.35,2.72A34.81,34.81,0,0,0,159.87,39c2.4,2.71,4.82,4.11,8.17,6.06a50,50,0,0,0,9.63,4.21C181.72,50.7,186,52,189.26,52Zm-26.4-38.19h0a8.82,8.82,0,0,1,5.4,2,10.17,10.17,0,0,1,2.29,2.58c.66,1,1.41,2.08,1.17,2.53-.11.21-.5.23-1.09.24a2.22,2.22,0,0,0-1.85.59l-.06.09s-.16.37-.17.37c-.48,1.07,2.36,5.37,4.09,7.83l0,0c2.46,2.93,3.54,4.34,4.19,5.19a11.84,11.84,0,0,0,1.82,2,43.89,43.89,0,0,0,6.63,4.82,44.38,44.38,0,0,1,4.32,3.13c.81.64,1.66,1.31,2.52,1.93.39.28,1.32,1,1.3,1.72s-.76,1.25-1,1.43c-2.91,2.18-11.34-.75-14.51-1.85a49.76,49.76,0,0,1-9.47-4.14c-3.28-1.91-5.65-3.29-8-5.88a34.6,34.6,0,0,1-3.4-4.77c-1.26-2-2.1-3.37-3.29-3.13a1.94,1.94,0,0,0-1.23,1.17c-.19.36-.33.6-.49.61h0c-.76,0-2.1-2.68-2.5-5.58-.24-1.76-.57-4.17.81-5.93A6.1,6.1,0,0,1,152,19.46c.72-.48,1.4-.93,1.51-1.87a2.7,2.7,0,0,0-.79-2c-.15-.21-.31-.42-.47-.67C150.79,12.71,150,9.33,151,8c.15-.09,1.13-.51,5.3-.76.21,1.05.39,2,.51,2.6.26,1.38.39,2.26.47,2.84.13,1,.18,1.28.59,1.61.7.54,1.42.3,2.26,0A8.2,8.2,0,0,1,162.86,13.81ZM151,8Z"/><path class="cls-1" d="M189.26,53c-3.51,0-8-1.4-11.92-2.76a51.11,51.11,0,0,1-9.8-4.29c-3.43-2-5.91-3.44-8.41-6.26a35.18,35.18,0,0,1-3.6-5,21.28,21.28,0,0,0-1.3-1.95,2.46,2.46,0,0,1-2,1.49h-.13c-2.78,0-4.1-5.22-4.38-7.22s-.68-5,1.19-7.36a7.83,7.83,0,0,1,2-1.74,3.92,3.92,0,0,0,.69-.52,3.31,3.31,0,0,0-.43-.67q-.26-.33-.54-.75c-1.6-2.44-3-6.9-1.09-9.19.31-.38.9-1.08,7-1.41l.25,0,.89.42.4,1c.23,1.13.43,2.12.56,2.8.27,1.44.4,2.37.47,2.93a2,2,0,0,1,0,.2l.35-.11a10.23,10.23,0,0,1,3.36-.62,10.81,10.81,0,0,1,6.59,2.39,12.16,12.16,0,0,1,2.7,3c1,1.49,2.06,3,1.27,4.49A2.87,2.87,0,0,1,170.69,23h-.1a45.89,45.89,0,0,0,3.62,5.88c2.46,2.91,3.54,4.33,4.19,5.18A9.29,9.29,0,0,0,180,35.86a41.63,41.63,0,0,0,6.35,4.61,47.52,47.52,0,0,1,4.5,3.26c.83.65,1.64,1.29,2.46,1.88.58.42,2.12,1.53,2.09,3.28a3.78,3.78,0,0,1-1.77,2.93A7.07,7.07,0,0,1,189.26,53Zm-35.1-23.5c1.57,0,2.58,1.62,3.83,3.63a33.11,33.11,0,0,0,3.3,4.64c2.19,2.47,4.5,3.81,7.7,5.67a48.1,48.1,0,0,0,9.3,4.06c7.37,2.57,11.93,3.24,13.58,2,.57-.42.61-.63.61-.65s-.09-.31-.89-.89-1.72-1.3-2.55-2A43.4,43.4,0,0,0,184.82,43,45.66,45.66,0,0,1,178,38a12.41,12.41,0,0,1-1.94-2.15c-.64-.84-1.71-2.24-4.17-5.15l-.07-.1c-5-7.07-4.47-8.21-4.19-8.82l.35-.67a3,3,0,0,1,2.51-1c-.23-.4-.56-.89-.78-1.2a9.09,9.09,0,0,0-2.07-2.36,7.86,7.86,0,0,0-4.79-1.78l0-.9h0v.9a7.18,7.18,0,0,0-2.44.47,3.12,3.12,0,0,1-3.19-.18c-.74-.58-.83-1.21-1-2.26-.08-.57-.2-1.43-.46-2.79-.08-.46-.2-1.05-.34-1.73a20.88,20.88,0,0,0-3.81.51c-.4,1,.12,3.56,1.41,5.53.15.22.3.42.44.61a3.63,3.63,0,0,1,1,2.74,3.56,3.56,0,0,1-1.95,2.59,5.14,5.14,0,0,0-1.33,1.11c-1.11,1.43-.83,3.51-.6,5.18A12,12,0,0,0,152,30.83a2.54,2.54,0,0,1,1.68-1.28A2.32,2.32,0,0,1,154.16,29.5Zm15.92-6.42Z"/><path class="cls-1" d="M168.79,22.26l.75-.49a2,2,0,0,0-.46-.5,2.4,2.4,0,0,0-1.52-.46l-.49,0a1.14,1.14,0,0,1-.24-.05,7.5,7.5,0,0,0-2-.2v.9a6.84,6.84,0,0,1,1.79.17,2.05,2.05,0,0,0,.34.07c.2,0,.38,0,.55.05a1.53,1.53,0,0,1,1,.26A1.08,1.08,0,0,1,168.79,22.26Z"/><path class="cls-1" d="M168.5,23.65l-.55-.84s0-.06,0-.06a3.62,3.62,0,0,0-.44-.05l-.62,0a3.43,3.43,0,0,1-.44-.09,6,6,0,0,0-1.57-.15h-1v-2.9h1a8.82,8.82,0,0,1,2.24.23l.12,0,.38,0a3.42,3.42,0,0,1,2.14.68,3.31,3.31,0,0,1,.66.73l.55.83Z"/><path class="cls-1" d="M153.85,31.49l.48-.75a.23.23,0,0,1,.09.08s-.06-.14-.09-.21a2,2,0,0,0-.16-.33c-.08-.14-.06-.33,0-.7,0-.16.05-.32.07-.51a2.84,2.84,0,0,0,0-.9.41.41,0,0,1,0-.22,1.2,1.2,0,0,1,.46-.6,5.46,5.46,0,0,0,1-1.05,3.92,3.92,0,0,0,.41-.69l0-.08c.59-.34,2.08.48,3.05,1.43l.14.14.18.18c1,.83,2.63,1.28,3.54.62.65-.48.69-1.33.78-3,0-.5,0-.88,0-1.19a2.19,2.19,0,0,1,.21-1.29c0-.08.06-.15.1-.25.14-.47.3-.72.7-.72v-.9a1.66,1.66,0,0,0-1.56,1.35l0,.09a3,3,0,0,0-.32,1.71c0,.31,0,.68,0,1.16-.07,1.32-.11,2.12-.42,2.34-.48.35-1.68.07-2.43-.57l-.1-.1-.17-.18c-1-1-3-2.24-4.12-1.56a1,1,0,0,0-.41.46,2.34,2.34,0,0,1-.33.56,4.73,4.73,0,0,1-.83.9,2,2,0,0,0-.73,1,1.1,1.1,0,0,0,0,.62,2,2,0,0,1,0,.65c0,.17,0,.32-.07.46a1.81,1.81,0,0,0,.13,1.31s.06.14.09.2A1.08,1.08,0,0,0,153.85,31.49Z"/><path class="cls-1" d="M154.15,32.88l-.84-.55a2,2,0,0,1-.73-1l-.05-.12a2.63,2.63,0,0,1-.23-1.94,4,4,0,0,0,0-.4.82.82,0,0,0,0-.37,2.07,2.07,0,0,1,.05-1.06,3,3,0,0,1,1-1.52,3.79,3.79,0,0,0,.69-.73,2.46,2.46,0,0,0,.24-.4,1.9,1.9,0,0,1,.81-.91c1.76-1,4.17.6,5.31,1.71l.2.21a2.4,2.4,0,0,0,1.11.51c.06-.35.09-1,.12-1.54s0-.81,0-1.1a4,4,0,0,1,.41-2.13,2.55,2.55,0,0,1,2.5-2h1v2.9h-.74v0a2.15,2.15,0,0,1-.18.44c-.07.12-.08.14-.08.8,0,.33,0,.73,0,1.24-.1,1.89-.16,3-1.19,3.78-1.36,1-3.5.44-4.78-.66a2.14,2.14,0,0,1-.26-.25l-.11-.12a5.62,5.62,0,0,0-1.74-1.16c-.07.11-.15.24-.25.38a7.45,7.45,0,0,1-1.11,1.21l-.12.1a3.84,3.84,0,0,1,0,1c0,.21,0,.4-.07.56s0,.15,0,.21a1.59,1.59,0,0,1,.12.27l.06.14,0,0-.83.46.68.44Zm.88-3.12Zm6.7-3.21Z"/><path class="cls-1" d="M255.26,53A6.23,6.23,0,0,0,259,52a3,3,0,0,0,1.37-2.14c0-1.23-1.17-2.09-1.68-2.46-.84-.61-1.68-1.27-2.49-1.91a45.2,45.2,0,0,0-4.4-3.18,42.59,42.59,0,0,1-6.5-4.73,10.29,10.29,0,0,1-1.71-1.9c-.65-.85-1.73-2.27-4.2-5.2-2-2.85-4.1-6.31-4-7l.13-.28a1.91,1.91,0,0,1,1.14-.22c.66,0,1.49,0,1.86-.71.5-.92-.3-2.09-1.22-3.45a11.07,11.07,0,0,0-2.48-2.79,9.79,9.79,0,0,0-5.94-2.18h0a9.07,9.07,0,0,0-3.05.57c-.81.27-1.13.35-1.42.12-.11-.09-.13-.13-.26-1-.08-.59-.2-1.49-.47-2.88-.12-.68-.32-1.67-.55-2.79l-.18-.41-.33-.15c-3.65.19-5.88.57-6.29,1.05-1.49,1.8-.28,5.8,1.17,8,.17.26.35.5.5.7.46.62.68.94.62,1.38s-.42.78-1.12,1.24a6.78,6.78,0,0,0-1.77,1.53c-1.61,2.06-1.23,4.79-1,6.6.31,2.24,1.61,6.36,3.39,6.36h.07c.67,0,1-.61,1.23-1.07s.38-.68.62-.72c.58-.12,1.4,1.2,2.35,2.72A34.81,34.81,0,0,0,225.87,40c2.4,2.71,4.82,4.11,8.17,6.06a50,50,0,0,0,9.63,4.21C247.72,51.7,252,53,255.26,53Zm-26.4-38.19h0a8.82,8.82,0,0,1,5.4,2,10.17,10.17,0,0,1,2.29,2.58c.66,1,1.41,2.08,1.17,2.53-.11.21-.5.23-1.09.24a2.22,2.22,0,0,0-1.85.59l-.06.09s-.16.37-.17.37c-.48,1.07,2.36,5.37,4.09,7.83l0,0c2.46,2.93,3.54,4.34,4.19,5.19a11.84,11.84,0,0,0,1.82,2,43.89,43.89,0,0,0,6.63,4.82,44.38,44.38,0,0,1,4.32,3.13c.81.64,1.66,1.31,2.52,1.93.39.28,1.32,1,1.3,1.72s-.76,1.25-1,1.43c-2.91,2.18-11.34-.75-14.51-1.85a49.76,49.76,0,0,1-9.47-4.14c-3.28-1.91-5.65-3.29-8-5.88a34.6,34.6,0,0,1-3.4-4.77c-1.26-2-2.1-3.37-3.29-3.13a1.94,1.94,0,0,0-1.23,1.17c-.19.36-.33.6-.49.61h0c-.76,0-2.1-2.68-2.5-5.58-.24-1.76-.57-4.17.81-5.93A6.1,6.1,0,0,1,218,20.46c.72-.48,1.4-.93,1.51-1.87a2.7,2.7,0,0,0-.79-2c-.15-.21-.31-.42-.47-.67C216.79,13.71,216,10.33,217,9c.15-.09,1.13-.51,5.3-.76.21,1.05.39,2,.51,2.6.26,1.38.39,2.26.47,2.84.13,1,.18,1.28.59,1.61.7.54,1.42.3,2.26,0A8.2,8.2,0,0,1,228.86,14.81ZM217,9Z"/><path class="cls-1" d="M255.26,54c-3.51,0-8-1.4-11.92-2.76a51.11,51.11,0,0,1-9.8-4.29c-3.43-2-5.91-3.44-8.41-6.26a35.18,35.18,0,0,1-3.6-5,21.28,21.28,0,0,0-1.3-1.95,2.46,2.46,0,0,1-2,1.49h-.13c-2.78,0-4.1-5.22-4.38-7.22s-.68-5,1.19-7.36a7.83,7.83,0,0,1,2-1.74,3.92,3.92,0,0,0,.69-.52,3.31,3.31,0,0,0-.43-.67q-.26-.33-.54-.75c-1.6-2.44-3-6.9-1.09-9.19.31-.38.9-1.08,7-1.41l.25,0,.89.42.4,1c.23,1.13.43,2.12.56,2.8.27,1.44.4,2.37.47,2.93a2,2,0,0,1,0,.2l.35-.11a10.23,10.23,0,0,1,3.36-.62,10.81,10.81,0,0,1,6.59,2.39,12.16,12.16,0,0,1,2.7,3c1,1.49,2.06,3,1.27,4.49A2.87,2.87,0,0,1,236.69,24h-.1a45.89,45.89,0,0,0,3.62,5.88c2.46,2.91,3.54,4.33,4.19,5.18A9.29,9.29,0,0,0,246,36.86a41.63,41.63,0,0,0,6.35,4.61,47.52,47.52,0,0,1,4.5,3.26c.83.65,1.64,1.29,2.46,1.88.58.42,2.12,1.53,2.09,3.28a3.78,3.78,0,0,1-1.77,2.93A7.07,7.07,0,0,1,255.26,54Zm-35.1-23.5c1.57,0,2.58,1.62,3.83,3.63a33.11,33.11,0,0,0,3.3,4.64c2.19,2.47,4.5,3.81,7.7,5.67a48.1,48.1,0,0,0,9.3,4.06c7.37,2.56,11.93,3.24,13.58,2,.57-.42.61-.63.61-.65s-.09-.31-.89-.89-1.72-1.3-2.55-2A43.4,43.4,0,0,0,250.82,44,45.66,45.66,0,0,1,244,39a12.41,12.41,0,0,1-1.94-2.15c-.64-.84-1.71-2.24-4.17-5.15l-.07-.1c-5-7.07-4.47-8.21-4.19-8.82l.35-.67a3,3,0,0,1,2.51-1c-.23-.4-.56-.89-.78-1.2a9.09,9.09,0,0,0-2.07-2.36,7.86,7.86,0,0,0-4.79-1.78l0-.9h0v.9a7.18,7.18,0,0,0-2.44.47,3.12,3.12,0,0,1-3.19-.18c-.74-.58-.83-1.21-1-2.26-.08-.57-.2-1.43-.46-2.79-.08-.46-.2-1.05-.34-1.73a20.88,20.88,0,0,0-3.81.51c-.4,1,.12,3.56,1.41,5.53.15.22.3.42.44.61a3.63,3.63,0,0,1,1,2.74,3.56,3.56,0,0,1-1.95,2.59,5.14,5.14,0,0,0-1.33,1.11c-1.11,1.43-.83,3.51-.6,5.18A12,12,0,0,0,218,31.83a2.54,2.54,0,0,1,1.68-1.28A2.32,2.32,0,0,1,220.16,30.5Zm15.92-6.42Z"/><path class="cls-1" d="M234.79,23.26l.75-.49a2,2,0,0,0-.46-.5,2.4,2.4,0,0,0-1.52-.46l-.49,0a1.14,1.14,0,0,1-.24-.05,7.5,7.5,0,0,0-2-.2v.9a6.84,6.84,0,0,1,1.79.17,2.05,2.05,0,0,0,.34.07c.2,0,.38,0,.55.05a1.53,1.53,0,0,1,1,.26A1.08,1.08,0,0,1,234.79,23.26Z"/><path class="cls-1" d="M234.5,24.65l-.55-.84s0-.06,0-.06a3.62,3.62,0,0,0-.44-.05l-.62,0a3.43,3.43,0,0,1-.44-.09,6,6,0,0,0-1.57-.15h-1v-2.9h1a8.82,8.82,0,0,1,2.24.23l.12,0,.38,0a3.42,3.42,0,0,1,2.14.68,3.31,3.31,0,0,1,.66.73l.55.83Z"/><path class="cls-1" d="M219.85,32.49l.48-.75a.23.23,0,0,1,.09.08s-.06-.14-.09-.21a2,2,0,0,0-.16-.33c-.08-.14-.06-.33,0-.7,0-.16.05-.32.07-.51a2.84,2.84,0,0,0,0-.9.41.41,0,0,1,0-.22,1.2,1.2,0,0,1,.46-.6,5.46,5.46,0,0,0,1-1.05,3.92,3.92,0,0,0,.41-.69l0-.08c.59-.34,2.08.48,3.05,1.43l.14.14.18.18c1,.83,2.63,1.28,3.54.62.65-.48.69-1.33.78-3,0-.5,0-.88,0-1.19a2.19,2.19,0,0,1,.21-1.29c0-.08.06-.15.1-.25.14-.47.3-.72.7-.72v-.9a1.66,1.66,0,0,0-1.56,1.35l0,.09a3,3,0,0,0-.32,1.71c0,.31,0,.68,0,1.16-.07,1.32-.11,2.12-.42,2.34-.48.35-1.68.07-2.43-.57l-.1-.1-.17-.18c-1-1-3-2.24-4.12-1.56a1,1,0,0,0-.41.46,2.34,2.34,0,0,1-.33.56,4.73,4.73,0,0,1-.83.9,2,2,0,0,0-.73,1,1.1,1.1,0,0,0,0,.62,2,2,0,0,1,0,.65c0,.17,0,.32-.07.46a1.81,1.81,0,0,0,.13,1.31s.06.14.09.2A1.08,1.08,0,0,0,219.85,32.49Z"/><path class="cls-1" d="M220.15,33.88l-.84-.55a2,2,0,0,1-.73-1l-.05-.12a2.63,2.63,0,0,1-.23-1.94,4,4,0,0,0,0-.4.82.82,0,0,0,0-.37,2.07,2.07,0,0,1,.05-1.06,3,3,0,0,1,1-1.52,3.79,3.79,0,0,0,.69-.73,2.46,2.46,0,0,0,.24-.4,1.9,1.9,0,0,1,.81-.91c1.76-1,4.17.6,5.31,1.71l.2.21a2.4,2.4,0,0,0,1.11.51c.06-.35.09-1,.12-1.54s0-.81,0-1.1a4,4,0,0,1,.41-2.13,2.55,2.55,0,0,1,2.5-2h1v2.9h-.74v0a2.15,2.15,0,0,1-.18.44c-.07.12-.08.14-.08.8,0,.33,0,.73,0,1.24-.1,1.89-.16,3-1.19,3.78-1.36,1-3.5.44-4.78-.66a2.14,2.14,0,0,1-.26-.25l-.11-.12a5.62,5.62,0,0,0-1.74-1.16c-.07.11-.15.24-.25.38a7.45,7.45,0,0,1-1.11,1.21l-.12.1a3.84,3.84,0,0,1,0,1c0,.21,0,.4-.07.56s0,.15,0,.21a1.59,1.59,0,0,1,.12.27l.06.14,0,0-.83.46.68.44Zm.88-3.12Zm6.7-3.21Z"/><path class="cls-1" d="M319.26,52A6.23,6.23,0,0,0,323,51a3,3,0,0,0,1.37-2.14c0-1.23-1.17-2.09-1.68-2.46-.84-.61-1.68-1.27-2.49-1.91a45.2,45.2,0,0,0-4.4-3.18,42.59,42.59,0,0,1-6.5-4.73,10.29,10.29,0,0,1-1.71-1.9c-.65-.85-1.73-2.27-4.2-5.2-2-2.85-4.1-6.31-4-7l.13-.28a1.91,1.91,0,0,1,1.14-.22c.66,0,1.49,0,1.86-.71.5-.92-.3-2.09-1.22-3.45a11.07,11.07,0,0,0-2.48-2.79,9.79,9.79,0,0,0-5.94-2.18h0a9.07,9.07,0,0,0-3.05.57c-.81.27-1.13.35-1.42.12-.11-.09-.13-.13-.26-1-.08-.59-.2-1.49-.47-2.88-.12-.68-.32-1.67-.55-2.79l-.18-.41-.33-.15c-3.65.19-5.88.57-6.29,1.05-1.49,1.8-.28,5.8,1.17,8,.17.26.35.5.5.7.46.62.68.94.62,1.38s-.42.78-1.12,1.24a6.78,6.78,0,0,0-1.77,1.53c-1.61,2.06-1.23,4.79-1,6.6.31,2.24,1.61,6.36,3.39,6.36h.07c.67,0,1-.61,1.23-1.07s.38-.68.62-.72c.58-.12,1.4,1.2,2.35,2.72A34.81,34.81,0,0,0,289.87,39c2.4,2.71,4.82,4.11,8.17,6.06a50,50,0,0,0,9.63,4.21C311.72,50.7,316,52,319.26,52Zm-26.4-38.19h0a8.82,8.82,0,0,1,5.4,2,10.17,10.17,0,0,1,2.29,2.58c.66,1,1.41,2.08,1.17,2.53-.11.21-.5.23-1.09.24a2.22,2.22,0,0,0-1.85.59l-.06.09s-.16.37-.17.37c-.48,1.07,2.36,5.37,4.09,7.83l0,0c2.46,2.93,3.54,4.34,4.19,5.19a11.84,11.84,0,0,0,1.82,2,43.89,43.89,0,0,0,6.63,4.82,44.38,44.38,0,0,1,4.32,3.13c.81.64,1.66,1.31,2.52,1.93.39.28,1.32,1,1.3,1.72s-.76,1.25-1,1.43c-2.91,2.18-11.34-.75-14.51-1.85a49.76,49.76,0,0,1-9.47-4.14c-3.28-1.91-5.65-3.29-7.95-5.88a34.6,34.6,0,0,1-3.4-4.77c-1.26-2-2.1-3.37-3.29-3.13a1.94,1.94,0,0,0-1.23,1.17c-.19.36-.33.6-.49.61h0c-.76,0-2.1-2.68-2.5-5.58-.24-1.76-.57-4.17.81-5.93A6.1,6.1,0,0,1,282,19.46c.72-.48,1.4-.93,1.51-1.87a2.7,2.7,0,0,0-.79-2c-.15-.21-.31-.42-.47-.67C280.79,12.71,280,9.33,281,8c.15-.09,1.13-.51,5.3-.76.21,1.05.39,2,.51,2.6.26,1.38.39,2.26.47,2.84.13,1,.18,1.28.59,1.61.7.54,1.42.3,2.26,0A8.2,8.2,0,0,1,292.86,13.81ZM281,8Z"/><path class="cls-1" d="M319.26,53c-3.51,0-8-1.4-11.92-2.76a51.11,51.11,0,0,1-9.8-4.29c-3.43-2-5.91-3.44-8.41-6.26a35.18,35.18,0,0,1-3.6-5,21.28,21.28,0,0,0-1.3-1.95,2.46,2.46,0,0,1-2,1.49h-.13c-2.78,0-4.1-5.22-4.38-7.22s-.68-5,1.19-7.36a7.83,7.83,0,0,1,2-1.74,3.92,3.92,0,0,0,.69-.52,3.31,3.31,0,0,0-.43-.67q-.26-.33-.54-.75c-1.6-2.44-3-6.9-1.09-9.19.31-.38.9-1.08,7-1.41l.25,0,.89.42.4,1c.23,1.13.43,2.12.56,2.8.27,1.44.4,2.37.47,2.93a2,2,0,0,1,0,.2l.35-.11a10.23,10.23,0,0,1,3.36-.62,10.81,10.81,0,0,1,6.59,2.39,12.16,12.16,0,0,1,2.7,3c1,1.49,2.06,3,1.27,4.49A2.87,2.87,0,0,1,300.69,23h-.1a45.89,45.89,0,0,0,3.62,5.88c2.46,2.91,3.54,4.33,4.19,5.18A9.29,9.29,0,0,0,310,35.86a41.63,41.63,0,0,0,6.35,4.61,47.52,47.52,0,0,1,4.5,3.26c.83.65,1.64,1.29,2.46,1.88.58.42,2.12,1.53,2.09,3.28a3.78,3.78,0,0,1-1.77,2.93A7.07,7.07,0,0,1,319.26,53Zm-35.1-23.5c1.57,0,2.58,1.62,3.83,3.63a33.11,33.11,0,0,0,3.3,4.64c2.19,2.47,4.5,3.81,7.7,5.67a48.1,48.1,0,0,0,9.3,4.06c7.37,2.57,11.93,3.24,13.58,2,.57-.42.61-.63.61-.65s-.09-.31-.89-.89-1.72-1.3-2.55-2A43.4,43.4,0,0,0,314.82,43,45.66,45.66,0,0,1,308,38a12.41,12.41,0,0,1-1.94-2.15c-.64-.84-1.71-2.24-4.17-5.15l-.07-.1c-5-7.07-4.47-8.21-4.19-8.82l.35-.67a3,3,0,0,1,2.51-1c-.23-.4-.56-.89-.78-1.2a9.09,9.09,0,0,0-2.07-2.36,7.86,7.86,0,0,0-4.79-1.78l0-.9h0v.9a7.18,7.18,0,0,0-2.44.47,3.12,3.12,0,0,1-3.19-.18c-.74-.58-.83-1.21-1-2.26-.08-.57-.2-1.43-.46-2.79-.08-.46-.2-1.05-.34-1.73a20.88,20.88,0,0,0-3.81.51c-.4,1,.12,3.56,1.41,5.53.15.22.3.42.44.61a3.63,3.63,0,0,1,1,2.74,3.56,3.56,0,0,1-2,2.59,5.14,5.14,0,0,0-1.33,1.11c-1.11,1.43-.83,3.51-.6,5.18A12,12,0,0,0,282,30.83a2.54,2.54,0,0,1,1.68-1.28A2.32,2.32,0,0,1,284.16,29.5Zm15.92-6.42Z"/><path class="cls-1" d="M298.79,22.26l.75-.49a2,2,0,0,0-.46-.5,2.4,2.4,0,0,0-1.52-.46l-.49,0a1.14,1.14,0,0,1-.24-.05,7.5,7.5,0,0,0-2-.2v.9a6.84,6.84,0,0,1,1.79.17,2.05,2.05,0,0,0,.34.07c.2,0,.38,0,.55.05a1.53,1.53,0,0,1,1,.26A1.08,1.08,0,0,1,298.79,22.26Z"/><path class="cls-1" d="M298.5,23.65l-.55-.84s0-.06-.05-.06a3.62,3.62,0,0,0-.44-.05l-.62,0a3.43,3.43,0,0,1-.44-.09,6,6,0,0,0-1.57-.15h-1v-2.9h1a8.82,8.82,0,0,1,2.24.23l.12,0,.38,0a3.42,3.42,0,0,1,2.14.68,3.31,3.31,0,0,1,.66.73l.55.83Z"/><path class="cls-1" d="M283.85,31.49l.48-.75a.23.23,0,0,1,.09.08s-.06-.14-.09-.21a2,2,0,0,0-.16-.33c-.08-.14-.06-.33,0-.7,0-.16.05-.32.07-.51a2.84,2.84,0,0,0,0-.9.41.41,0,0,1,0-.22,1.2,1.2,0,0,1,.46-.6,5.46,5.46,0,0,0,1-1.05,3.92,3.92,0,0,0,.41-.69l0-.08c.59-.34,2.08.48,3,1.43l.14.14a1.51,1.51,0,0,0,.18.18c1,.83,2.63,1.28,3.54.62.65-.48.69-1.33.78-3,0-.5,0-.88,0-1.19a2.19,2.19,0,0,1,.21-1.29c0-.08.06-.15.1-.25.14-.47.3-.72.7-.72v-.9a1.66,1.66,0,0,0-1.56,1.35.46.46,0,0,1,0,.09,3,3,0,0,0-.32,1.71c0,.31,0,.68,0,1.16-.07,1.32-.11,2.12-.42,2.34-.48.35-1.68.07-2.43-.57l-.1-.1-.17-.18c-1-1-3-2.24-4.12-1.56a1,1,0,0,0-.41.46,2.34,2.34,0,0,1-.33.56,4.73,4.73,0,0,1-.83.9,2,2,0,0,0-.73,1,1.1,1.1,0,0,0,0,.62,2,2,0,0,1,0,.65c0,.17,0,.32-.07.46a1.81,1.81,0,0,0,.13,1.31s.06.14.09.2A1.08,1.08,0,0,0,283.85,31.49Z"/><path class="cls-1" d="M284.15,32.88l-.84-.55a2,2,0,0,1-.73-1l-.05-.12a2.63,2.63,0,0,1-.23-1.94,4,4,0,0,0,.05-.4.82.82,0,0,0,0-.37,2.07,2.07,0,0,1,0-1.06,3,3,0,0,1,1-1.52,3.79,3.79,0,0,0,.69-.73,2.46,2.46,0,0,0,.24-.4,1.9,1.9,0,0,1,.81-.91c1.76-1,4.17.6,5.31,1.71l.2.21a2.4,2.4,0,0,0,1.11.51c.06-.35.09-1,.12-1.54s0-.81,0-1.1a4,4,0,0,1,.41-2.13,2.55,2.55,0,0,1,2.5-2h1v2.9h-.74v0a2.15,2.15,0,0,1-.18.44c-.07.12-.08.14-.08.8,0,.33,0,.73,0,1.24-.1,1.89-.16,3-1.19,3.78-1.36,1-3.5.44-4.78-.66a2.14,2.14,0,0,1-.26-.25l-.11-.12a5.62,5.62,0,0,0-1.74-1.16c-.07.11-.15.24-.25.38a7.45,7.45,0,0,1-1.11,1.21l-.12.1a3.84,3.84,0,0,1,0,1c0,.21-.05.4-.07.56s0,.15,0,.21a1.59,1.59,0,0,1,.12.27l.06.14,0,0-.83.46.68.44Zm.88-3.12Zm6.7-3.21Z"/><path class="cls-1" d="M387.28,52.59a6.18,6.18,0,0,0,3.74-1,3,3,0,0,0,1.38-2.14c0-1.23-1.17-2.09-1.68-2.46-.84-.61-1.68-1.27-2.49-1.91a45.2,45.2,0,0,0-4.4-3.18,42.59,42.59,0,0,1-6.5-4.73,10.62,10.62,0,0,1-1.71-1.9c-.65-.85-1.73-2.27-4.21-5.2-2-2.85-4.09-6.31-4-7l.13-.28c.2-.21.68-.21,1.14-.22.66,0,1.48,0,1.86-.71.5-.92-.3-2.09-1.22-3.45a11.27,11.27,0,0,0-2.48-2.79,9.79,9.79,0,0,0-5.95-2.18h0a9.07,9.07,0,0,0-3.05.57c-.81.27-1.13.35-1.42.12-.11-.09-.13-.13-.26-1-.08-.59-.2-1.49-.47-2.89-.13-.68-.32-1.66-.55-2.78l-.19-.42-.32-.14c-3.65.19-5.88.57-6.29,1-1.49,1.79-.28,5.8,1.17,8,.17.27.35.5.5.71.46.62.67.94.62,1.38s-.43.77-1.12,1.24a6.78,6.78,0,0,0-1.77,1.53c-1.61,2.06-1.24,4.79-1,6.6.31,2.24,1.61,6.35,3.39,6.35h.07c.66,0,1-.61,1.23-1.07s.38-.68.62-.73c.58-.12,1.4,1.21,2.35,2.73a34.81,34.81,0,0,0,3.49,4.89c2.4,2.7,4.82,4.11,8.17,6.06a50.62,50.62,0,0,0,9.63,4.21C379.74,51.29,384,52.59,387.28,52.59ZM360.88,14.4h0a8.82,8.82,0,0,1,5.4,2A10.2,10.2,0,0,1,368.6,19c.66,1,1.41,2.08,1.17,2.52-.11.22-.5.24-1.09.25a2.21,2.21,0,0,0-1.85.59l-.06.09-.17.37c-.48,1.07,2.36,5.36,4.09,7.83l0,0c2.46,2.93,3.54,4.34,4.19,5.19a11.43,11.43,0,0,0,1.82,2,43.89,43.89,0,0,0,6.63,4.82,43.07,43.07,0,0,1,4.31,3.13c.82.64,1.67,1.3,2.53,1.92.39.29,1.31,1,1.3,1.72s-.76,1.26-1,1.44c-2.91,2.18-11.34-.75-14.51-1.85a49.76,49.76,0,0,1-9.47-4.14c-3.28-1.91-5.65-3.29-7.95-5.88a33.76,33.76,0,0,1-3.4-4.77c-1.26-2-2.1-3.38-3.29-3.13a1.94,1.94,0,0,0-1.23,1.17c-.2.36-.34.6-.5.61h0c-.77,0-2.1-2.68-2.5-5.58-.24-1.76-.57-4.17.8-5.93A6.3,6.3,0,0,1,350,20.05c.72-.48,1.4-.93,1.51-1.87a2.7,2.7,0,0,0-.79-2c-.15-.21-.31-.42-.47-.67C348.8,13.3,348,9.92,349,8.61c.15-.09,1.12-.51,5.3-.76.21,1.05.39,2,.51,2.6.26,1.38.39,2.26.47,2.84.13,1,.18,1.28.59,1.61.7.54,1.42.3,2.26,0A8.2,8.2,0,0,1,360.88,14.4ZM349,8.62Z"/><path class="cls-1" d="M387.28,53.59c-3.51,0-8-1.4-11.92-2.76a50.6,50.6,0,0,1-9.8-4.3c-3.43-2-5.91-3.43-8.42-6.26a35.83,35.83,0,0,1-3.58-5c-.39-.63-.92-1.49-1.31-2a2.47,2.47,0,0,1-2,1.5h-.12c-2.78,0-4.1-5.21-4.38-7.22-.25-1.85-.68-4.95,1.19-7.35a8,8,0,0,1,2-1.75,3.29,3.29,0,0,0,.68-.52,3.59,3.59,0,0,0-.43-.66c-.17-.22-.35-.47-.54-.76-1.6-2.43-3-6.89-1.09-9.18.31-.38.9-1.08,7-1.41l.25,0,.89.41.4,1c.23,1.12.43,2.12.56,2.8.27,1.44.4,2.37.47,2.93l0,.2.35-.11a10,10,0,0,1,3.36-.62,10.83,10.83,0,0,1,6.59,2.39,12.37,12.37,0,0,1,2.7,3c1,1.49,2.06,3,1.27,4.49a2.86,2.86,0,0,1-2.73,1.23h-.1a45.89,45.89,0,0,0,3.62,5.88c2.44,2.88,3.53,4.32,4.19,5.18A9.58,9.58,0,0,0,378,36.45a41.9,41.9,0,0,0,6.34,4.61,44.8,44.8,0,0,1,4.51,3.26c.8.63,1.62,1.28,2.46,1.88.58.42,2.11,1.53,2.09,3.28a3.79,3.79,0,0,1-1.78,2.93A7.06,7.06,0,0,1,387.28,53.59ZM352.17,30.08c1.58,0,2.59,1.63,3.84,3.64a32.5,32.5,0,0,0,3.3,4.63c2.19,2.48,4.5,3.82,7.7,5.68a48.94,48.94,0,0,0,9.29,4.06c7.37,2.56,11.94,3.24,13.59,2,.58-.43.61-.65.61-.66s-.09-.31-.89-.89-1.73-1.3-2.55-1.95a48.15,48.15,0,0,0-4.22-3.06,44.09,44.09,0,0,1-6.78-4.93,12.41,12.41,0,0,1-1.94-2.15c-.64-.84-1.71-2.24-4.17-5.16l-.07-.1c-5-7.06-4.47-8.2-4.19-8.81h0l.17-.38.18-.29a3,3,0,0,1,2.51-1c-.23-.4-.56-.88-.77-1.2a9.18,9.18,0,0,0-2.08-2.36,7.88,7.88,0,0,0-4.79-1.78l0-.9h0v.9a7.2,7.2,0,0,0-2.44.46,3.12,3.12,0,0,1-3.19-.17c-.74-.58-.83-1.21-1-2.26-.08-.57-.2-1.43-.46-2.8-.08-.45-.2-1-.34-1.72a19.91,19.91,0,0,0-3.81.51c-.4,1,.12,3.56,1.41,5.52.14.22.28.4.41.58a3.68,3.68,0,0,1,1,2.78,3.55,3.55,0,0,1-1.95,2.58A5.36,5.36,0,0,0,349.22,22c-1.11,1.43-.83,3.51-.6,5.17A12.23,12.23,0,0,0,350,31.42a2.59,2.59,0,0,1,1.69-1.28A2.2,2.2,0,0,1,352.17,30.08Zm15.93-6.41Z"/><path class="cls-1" d="M366.81,22.85l.74-.49a1.81,1.81,0,0,0-.45-.5,2.4,2.4,0,0,0-1.52-.46l-.5,0-.23-.05a7.5,7.5,0,0,0-2-.2V22a6.84,6.84,0,0,1,1.79.17,1.86,1.86,0,0,0,.34.07l.55,0a1.58,1.58,0,0,1,1,.26A1.31,1.31,0,0,1,366.81,22.85Z"/><path class="cls-1" d="M366.53,24.23,366,23.4s-.05-.06-.05-.07a3.94,3.94,0,0,0-.44,0c-.21,0-.41,0-.62-.05a2.26,2.26,0,0,1-.44-.08,6,6,0,0,0-1.57-.15h-1v-2.9h1a8.35,8.35,0,0,1,2.24.23l.12,0,.41,0a3.37,3.37,0,0,1,2.11.68,3.1,3.1,0,0,1,.66.73l.55.83Z"/><path class="cls-1" d="M351.87,32.08l.48-.75a.39.39,0,0,1,.09.08,1.09,1.09,0,0,1-.09-.21,2,2,0,0,0-.16-.33c-.09-.14-.06-.33,0-.71,0-.15.05-.31.07-.5a3.2,3.2,0,0,0,0-.9.33.33,0,0,1,0-.22c.07-.26.2-.37.46-.6a6.17,6.17,0,0,0,1-1.05,3.88,3.88,0,0,0,.41-.7l0-.07c.59-.34,2.08.48,3.05,1.43l.14.14a1.51,1.51,0,0,0,.18.18c1,.83,2.62,1.28,3.54.61.65-.47.69-1.32.78-3,0-.5,0-.88,0-1.19a2.25,2.25,0,0,1,.21-1.3,1.34,1.34,0,0,0,.09-.24c.15-.47.31-.72.71-.72v-.9a1.66,1.66,0,0,0-1.56,1.35l0,.09a3,3,0,0,0-.32,1.71c0,.3,0,.68,0,1.15-.06,1.33-.1,2.13-.41,2.35-.48.35-1.68.07-2.43-.57l-.1-.11-.18-.17c-1-1-3-2.24-4.11-1.56a.91.91,0,0,0-.41.46,2.56,2.56,0,0,1-.33.56,4.73,4.73,0,0,1-.83.9,2,2,0,0,0-.73,1,1.1,1.1,0,0,0,0,.62,2.39,2.39,0,0,1,0,.65c0,.17,0,.32-.07.46a1.81,1.81,0,0,0,.13,1.31,2.16,2.16,0,0,1,.09.2A1.08,1.08,0,0,0,351.87,32.08Z"/><path class="cls-1" d="M352.17,33.46l-.84-.54a1.88,1.88,0,0,1-.73-1l-.06-.12a2.64,2.64,0,0,1-.22-1.93c0-.12,0-.25.05-.41a1,1,0,0,0,0-.36,2.19,2.19,0,0,1,.05-1.06,2.93,2.93,0,0,1,1-1.52,3.8,3.8,0,0,0,.68-.73,2.46,2.46,0,0,0,.24-.4,1.87,1.87,0,0,1,.81-.91c1.76-1,4.17.59,5.31,1.71.11.1.16.16.21.21a2.29,2.29,0,0,0,1.1.51c.05-.35.09-1,.12-1.55s0-.81,0-1.1a4,4,0,0,1,.41-2.13,2.55,2.55,0,0,1,2.5-2h1V23h-.74v0a2.15,2.15,0,0,1-.18.44c-.07.12-.08.14-.09.8,0,.33,0,.73,0,1.24-.1,1.89-.16,3-1.19,3.78-1.36,1-3.5.44-4.78-.67a2.37,2.37,0,0,1-.27-.25l-.1-.11a5.44,5.44,0,0,0-1.74-1.16c-.07.11-.15.24-.25.38a7,7,0,0,1-1.12,1.21l-.11.1a3.84,3.84,0,0,1,0,1c0,.21-.05.39-.07.56s0,.15,0,.21a2.55,2.55,0,0,1,.13.29l.05.12-.73.54.6.39Zm.36-2.11Z"/><path class="cls-1" d="M454.85,52.7a6.22,6.22,0,0,0,3.74-1A3,3,0,0,0,460,49.58c0-1.24-1.17-2.09-1.67-2.46-.85-.61-1.69-1.27-2.5-1.91a44,44,0,0,0-4.4-3.18,43.09,43.09,0,0,1-6.5-4.73,10.56,10.56,0,0,1-1.7-1.9c-.65-.85-1.74-2.27-4.21-5.2-2-2.85-4.1-6.31-4-7l.13-.28c.21-.21.68-.21,1.14-.22.66,0,1.49,0,1.86-.71.5-.92-.29-2.09-1.21-3.45a11.34,11.34,0,0,0-2.49-2.79,9.77,9.77,0,0,0-5.94-2.18h0a9,9,0,0,0-3.05.57c-.82.27-1.13.35-1.42.12-.12-.09-.14-.14-.26-1-.08-.59-.21-1.49-.47-2.89-.13-.68-.33-1.66-.56-2.78l-.18-.42-.32-.14c-3.66.19-5.89.57-6.29,1-1.49,1.79-.28,5.79,1.16,8,.18.27.35.5.5.71.46.62.68.94.63,1.38s-.43.77-1.13,1.23a7.18,7.18,0,0,0-1.77,1.53c-1.61,2.07-1.23,4.8-1,6.61.3,2.24,1.61,6.35,3.38,6.35h.07c.67,0,1-.61,1.23-1.07s.38-.68.62-.73c.59-.12,1.41,1.2,2.36,2.73a34,34,0,0,0,3.49,4.89c2.39,2.7,4.81,4.11,8.16,6.06A50.62,50.62,0,0,0,443.25,50C447.31,51.4,451.6,52.7,454.85,52.7Zm-26.4-38.19h0a8.81,8.81,0,0,1,5.39,2,10,10,0,0,1,2.29,2.58c.67,1,1.42,2.08,1.18,2.52-.12.22-.51.24-1.09.25a2.21,2.21,0,0,0-1.86.59l-.05.09-.17.37c-.49,1.07,2.35,5.36,4.09,7.83l0,0c2.47,2.93,3.55,4.34,4.19,5.19a12.27,12.27,0,0,0,1.82,2,43.84,43.84,0,0,0,6.64,4.82,44.25,44.25,0,0,1,4.31,3.13c.82.64,1.66,1.3,2.52,1.92.4.29,1.32,1,1.31,1.72s-.77,1.26-1,1.44c-2.91,2.18-11.33-.75-14.5-1.85A49.82,49.82,0,0,1,434.07,45c-3.27-1.91-5.64-3.29-7.94-5.88a33.52,33.52,0,0,1-3.4-4.77c-1.27-2-2.11-3.38-3.29-3.13a1.91,1.91,0,0,0-1.23,1.17c-.2.36-.34.6-.5.61h0c-.76,0-2.1-2.68-2.5-5.58-.24-1.76-.57-4.17.81-5.93a6.1,6.1,0,0,1,1.56-1.34c.72-.48,1.4-.93,1.51-1.87a2.7,2.7,0,0,0-.79-2c-.15-.21-.31-.42-.47-.67-1.44-2.19-2.27-5.57-1.26-6.89.16-.08,1.13-.5,5.3-.75.22,1,.4,2,.52,2.6.26,1.37.38,2.26.46,2.84.14,1,.18,1.28.6,1.61.69.54,1.42.3,2.25,0A8,8,0,0,1,428.45,14.51ZM416.53,8.73Z"/><path class="cls-1" d="M454.85,53.7c-3.51,0-8-1.4-11.93-2.76a50.86,50.86,0,0,1-9.8-4.3c-3.43-2-5.91-3.43-8.41-6.26a35,35,0,0,1-3.58-5c-.4-.63-.93-1.49-1.31-2a2.47,2.47,0,0,1-2,1.5h-.13c-2.78,0-4.1-5.21-4.37-7.22-.26-1.85-.68-4.95,1.18-7.35a8.3,8.3,0,0,1,2-1.75,3.71,3.71,0,0,0,.69-.52,4.14,4.14,0,0,0-.44-.66c-.16-.23-.35-.47-.53-.76-1.61-2.43-3-6.89-1.1-9.18.31-.38.9-1.08,7-1.41l.25,0,.89.41.4,1c.23,1.13.43,2.11.56,2.8.27,1.44.4,2.37.48,2.93l0,.2.34-.11a10,10,0,0,1,3.37-.62A10.85,10.85,0,0,1,435,15a12.49,12.49,0,0,1,2.69,3c1,1.5,2.06,3,1.27,4.5a2.85,2.85,0,0,1-2.72,1.23h-.1a44.73,44.73,0,0,0,3.62,5.88c2.42,2.87,3.52,4.31,4.17,5.17a10.11,10.11,0,0,0,1.59,1.77,42.58,42.58,0,0,0,6.35,4.61,45.81,45.81,0,0,1,4.5,3.26c.8.63,1.63,1.28,2.46,1.88.58.42,2.12,1.53,2.09,3.28a3.75,3.75,0,0,1-1.77,2.93A7.06,7.06,0,0,1,454.85,53.7ZM419.74,30.19c1.57,0,2.59,1.63,3.84,3.64a32.5,32.5,0,0,0,3.3,4.63c2.19,2.48,4.5,3.82,7.7,5.68a48.4,48.4,0,0,0,9.29,4.06c7.37,2.56,11.94,3.23,13.58,2,.57-.43.61-.63.62-.66s-.09-.31-.89-.88-1.73-1.31-2.55-1.95a44.58,44.58,0,0,0-4.23-3.07,44.66,44.66,0,0,1-6.78-4.93,12.1,12.1,0,0,1-1.94-2.16c-.64-.83-1.7-2.23-4.16-5.15l-.08-.1c-5-7.06-4.46-8.2-4.19-8.81h0l.17-.38.18-.29a3,3,0,0,1,2.5-1c-.23-.4-.56-.89-.77-1.2a9.18,9.18,0,0,0-2.08-2.36,7.94,7.94,0,0,0-4.79-1.79l0-.89h0v.89A7.25,7.25,0,0,0,426,16a3.12,3.12,0,0,1-3.19-.17c-.73-.58-.82-1.21-1-2.26-.08-.57-.2-1.43-.45-2.8L421,9a19.91,19.91,0,0,0-3.81.51c-.39,1,.13,3.56,1.42,5.52.14.21.27.4.41.58a3.75,3.75,0,0,1,1,2.78,3.56,3.56,0,0,1-2,2.58,5.32,5.32,0,0,0-1.32,1.12c-1.12,1.43-.83,3.51-.61,5.17a12,12,0,0,0,1.37,4.25,2.53,2.53,0,0,1,1.69-1.28A2.2,2.2,0,0,1,419.74,30.19Zm15.92-6.41Z"/><path class="cls-1" d="M434.37,23l.75-.49a2.22,2.22,0,0,0-.45-.51,2.49,2.49,0,0,0-1.52-.45l-.5,0-.23,0a7.63,7.63,0,0,0-2-.2v.89a6.62,6.62,0,0,1,1.78.18,2.29,2.29,0,0,0,.34.07l.56,0a1.6,1.6,0,0,1,1,.26A1.56,1.56,0,0,1,434.37,23Z"/><path class="cls-1" d="M434.09,24.34l-.55-.83-.06-.07a3.72,3.72,0,0,0-.44,0c-.19,0-.4,0-.62,0a3.25,3.25,0,0,1-.43-.08,6.08,6.08,0,0,0-1.57-.15h-1v-2.9h1a8.25,8.25,0,0,1,2.23.23l.12,0,.42,0a3.29,3.29,0,0,1,2.1.68,2.88,2.88,0,0,1,.66.73l.55.83Z"/><path class="cls-1" d="M419.43,32.19l.49-.75a.39.39,0,0,1,.09.08s-.07-.15-.1-.21a3.52,3.52,0,0,0-.15-.33c-.09-.14-.07-.33,0-.71,0-.15.05-.32.07-.5a2.84,2.84,0,0,0,0-.9.33.33,0,0,1,0-.22,1.1,1.1,0,0,1,.46-.6,6.21,6.21,0,0,0,1-1.05,4.17,4.17,0,0,0,.42-.7.16.16,0,0,1,0-.07c.59-.34,2.07.48,3,1.43l.14.14c.06.06.09.1.18.18,1,.83,2.63,1.28,3.54.61.65-.47.7-1.32.78-3,0-.5,0-.88,0-1.19a2.25,2.25,0,0,1,.21-1.3,1.33,1.33,0,0,0,.1-.24c.15-.47.31-.73.71-.73v-.89a1.64,1.64,0,0,0-1.56,1.34s0,.08,0,.1a3.15,3.15,0,0,0-.32,1.71c0,.3,0,.68,0,1.15-.07,1.33-.11,2.13-.42,2.35-.48.35-1.68.07-2.42-.57l-.11-.11-.17-.17c-1-1-3-2.24-4.12-1.56a.88.88,0,0,0-.4.46,3.35,3.35,0,0,1-.34.56,4.73,4.73,0,0,1-.83.9,2,2,0,0,0-.73,1,1.32,1.32,0,0,0,0,.62,2,2,0,0,1,0,.65c0,.17,0,.32-.06.46a1.81,1.81,0,0,0,.12,1.31,1,1,0,0,1,.09.2A1.08,1.08,0,0,0,419.43,32.19Z"/><path class="cls-1" d="M423,34.18l-2.73-1.41-.52.8-.84-.54a2,2,0,0,1-.73-1l-.05-.11a2.68,2.68,0,0,1-.23-1.94c0-.12,0-.26.06-.4a1.35,1.35,0,0,0,0-.37,2,2,0,0,1,0-1.06,2.93,2.93,0,0,1,1-1.52,4.24,4.24,0,0,0,.68-.74,2.12,2.12,0,0,0,.24-.39,1.92,1.92,0,0,1,.81-.91c1.76-1,4.17.59,5.32,1.71l.2.21a2.32,2.32,0,0,0,1.11.51c.05-.35.08-1,.11-1.55s0-.81,0-1.1a4.18,4.18,0,0,1,.41-2.13,2.55,2.55,0,0,1,2.51-2h1v2.9h-.75v0a2.41,2.41,0,0,1-.18.44c-.07.12-.08.14-.08.8,0,.33,0,.73,0,1.24-.09,1.89-.15,3-1.19,3.78-1.36,1-3.5.44-4.78-.67a3.28,3.28,0,0,1-.26-.25l-.1-.11a5.46,5.46,0,0,0-1.75-1.16,4.05,4.05,0,0,1-.25.38,6.5,6.5,0,0,1-1.11,1.2l-.11.1a4.49,4.49,0,0,1,0,1c0,.21-.05.39-.08.56s0,.15,0,.21l.12.29.06.12Zm-2.28-3.44Zm6.61-3.49Z"/><path class="cls-1" d="M519.26,52A6.23,6.23,0,0,0,523,51a3,3,0,0,0,1.37-2.14c0-1.23-1.17-2.09-1.68-2.46-.84-.61-1.68-1.27-2.49-1.91a45.2,45.2,0,0,0-4.4-3.18,42.59,42.59,0,0,1-6.5-4.73,10.29,10.29,0,0,1-1.71-1.9c-.65-.85-1.73-2.27-4.2-5.2-2-2.85-4.1-6.31-4-7l.13-.28a1.91,1.91,0,0,1,1.14-.22c.66,0,1.49,0,1.86-.71.5-.92-.3-2.09-1.22-3.45a11.07,11.07,0,0,0-2.48-2.79,9.79,9.79,0,0,0-5.94-2.18h0a9.07,9.07,0,0,0-3.05.57c-.81.27-1.13.35-1.42.12-.11-.09-.13-.13-.26-1-.08-.59-.2-1.49-.47-2.88-.12-.68-.32-1.67-.55-2.79l-.18-.41-.33-.15c-3.65.19-5.88.57-6.29,1.05-1.49,1.8-.28,5.8,1.17,8,.17.26.35.5.5.7.46.62.68.94.62,1.38s-.42.78-1.12,1.24a6.78,6.78,0,0,0-1.77,1.53c-1.61,2.06-1.23,4.79-1,6.6.31,2.24,1.61,6.36,3.39,6.36h.07c.67,0,1-.61,1.23-1.07s.38-.68.62-.72c.58-.12,1.4,1.2,2.35,2.72A34.81,34.81,0,0,0,489.87,39c2.4,2.71,4.82,4.11,8.17,6.06a50,50,0,0,0,9.63,4.21C511.72,50.7,516,52,519.26,52Zm-26.4-38.19h0a8.82,8.82,0,0,1,5.4,2,10.17,10.17,0,0,1,2.29,2.58c.66,1,1.41,2.08,1.17,2.53-.11.21-.5.23-1.09.24a2.22,2.22,0,0,0-1.85.59l-.06.09s-.16.37-.17.37c-.48,1.07,2.36,5.37,4.09,7.83l0,0c2.46,2.93,3.54,4.34,4.19,5.19a11.84,11.84,0,0,0,1.82,2,43.89,43.89,0,0,0,6.63,4.82,44.38,44.38,0,0,1,4.32,3.13c.81.64,1.66,1.31,2.52,1.93.39.28,1.32,1,1.3,1.72s-.76,1.25-1,1.43c-2.91,2.18-11.34-.75-14.51-1.85a49.76,49.76,0,0,1-9.47-4.14c-3.28-1.91-5.65-3.29-7.95-5.88a34.6,34.6,0,0,1-3.4-4.77c-1.26-2-2.1-3.37-3.29-3.13a1.94,1.94,0,0,0-1.23,1.17c-.19.36-.33.6-.49.61h0c-.76,0-2.1-2.68-2.5-5.58-.24-1.76-.57-4.17.81-5.93A6.1,6.1,0,0,1,482,19.46c.72-.48,1.4-.93,1.51-1.87a2.7,2.7,0,0,0-.79-2c-.15-.21-.31-.42-.47-.67C480.79,12.71,480,9.33,481,8c.15-.09,1.13-.51,5.3-.76.21,1.05.39,2,.51,2.6.26,1.38.39,2.26.47,2.84.13,1,.18,1.28.59,1.61.7.54,1.42.3,2.26,0A8.2,8.2,0,0,1,492.86,13.81ZM481,8Z"/><path class="cls-1" d="M519.26,53c-3.51,0-8-1.4-11.92-2.76a51.11,51.11,0,0,1-9.8-4.29c-3.43-2-5.91-3.44-8.41-6.26a35.18,35.18,0,0,1-3.6-5,21.28,21.28,0,0,0-1.3-1.95,2.46,2.46,0,0,1-2,1.49h-.13c-2.78,0-4.1-5.22-4.38-7.22s-.68-5,1.19-7.36a7.83,7.83,0,0,1,2-1.74,3.92,3.92,0,0,0,.69-.52,3.31,3.31,0,0,0-.43-.67q-.26-.33-.54-.75c-1.6-2.44-3-6.9-1.09-9.19.31-.38.9-1.08,7-1.41l.25,0,.89.42.4,1c.23,1.13.43,2.12.56,2.8.27,1.44.4,2.37.47,2.93a2,2,0,0,1,0,.2l.35-.11a10.23,10.23,0,0,1,3.36-.62,10.81,10.81,0,0,1,6.59,2.39,12.16,12.16,0,0,1,2.7,3c1,1.49,2.06,3,1.27,4.49A2.87,2.87,0,0,1,500.69,23h-.1a45.89,45.89,0,0,0,3.62,5.88c2.46,2.91,3.54,4.33,4.19,5.18A9.29,9.29,0,0,0,510,35.86a41.63,41.63,0,0,0,6.35,4.61,47.52,47.52,0,0,1,4.5,3.26c.83.65,1.64,1.29,2.46,1.88.58.42,2.12,1.53,2.09,3.28a3.78,3.78,0,0,1-1.77,2.93A7.07,7.07,0,0,1,519.26,53Zm-35.1-23.5c1.57,0,2.58,1.62,3.83,3.63a33.11,33.11,0,0,0,3.3,4.64c2.19,2.47,4.5,3.81,7.7,5.67a48.1,48.1,0,0,0,9.3,4.06c7.37,2.57,11.93,3.24,13.58,2,.57-.42.61-.63.61-.65s-.09-.31-.89-.89-1.72-1.3-2.55-2A43.4,43.4,0,0,0,514.82,43,45.66,45.66,0,0,1,508,38a12.41,12.41,0,0,1-1.94-2.15c-.64-.84-1.71-2.24-4.17-5.15l-.07-.1c-5-7.07-4.47-8.21-4.19-8.82l.35-.67a3,3,0,0,1,2.51-1c-.23-.4-.56-.89-.78-1.2a9.09,9.09,0,0,0-2.07-2.36,7.86,7.86,0,0,0-4.79-1.78l0-.9h0v.9a7.18,7.18,0,0,0-2.44.47,3.12,3.12,0,0,1-3.19-.18c-.74-.58-.83-1.21-1-2.26-.08-.57-.2-1.43-.46-2.79-.08-.46-.2-1.05-.34-1.73a20.88,20.88,0,0,0-3.81.51c-.4,1,.12,3.56,1.41,5.53.15.22.3.42.44.61a3.63,3.63,0,0,1,1,2.74,3.56,3.56,0,0,1-2,2.59,5.14,5.14,0,0,0-1.33,1.11c-1.11,1.43-.83,3.51-.6,5.18A12,12,0,0,0,482,30.83a2.54,2.54,0,0,1,1.68-1.28A2.32,2.32,0,0,1,484.16,29.5Zm15.92-6.42Z"/><path class="cls-1" d="M498.79,22.26l.75-.49a2,2,0,0,0-.46-.5,2.4,2.4,0,0,0-1.52-.46l-.49,0a1.14,1.14,0,0,1-.24-.05,7.5,7.5,0,0,0-2-.2v.9a6.84,6.84,0,0,1,1.79.17,2.05,2.05,0,0,0,.34.07c.2,0,.38,0,.55.05a1.53,1.53,0,0,1,1,.26A1.08,1.08,0,0,1,498.79,22.26Z"/><path class="cls-1" d="M498.5,23.65l-.55-.84s0-.06-.05-.06a3.62,3.62,0,0,0-.44-.05l-.62,0a3.43,3.43,0,0,1-.44-.09,6,6,0,0,0-1.57-.15h-1v-2.9h1a8.82,8.82,0,0,1,2.24.23l.12,0,.38,0a3.42,3.42,0,0,1,2.14.68,3.31,3.31,0,0,1,.66.73l.55.83Z"/><path class="cls-1" d="M483.85,31.49l.48-.75a.23.23,0,0,1,.09.08s-.06-.14-.09-.21a2,2,0,0,0-.16-.33c-.08-.14-.06-.33,0-.7,0-.16.05-.32.07-.51a2.84,2.84,0,0,0,0-.9.41.41,0,0,1,0-.22,1.2,1.2,0,0,1,.46-.6,5.46,5.46,0,0,0,1-1.05,3.92,3.92,0,0,0,.41-.69l0-.08c.59-.34,2.08.48,3,1.43l.14.14a1.51,1.51,0,0,0,.18.18c1,.83,2.63,1.28,3.54.62.65-.48.69-1.33.78-3,0-.5,0-.88,0-1.19a2.19,2.19,0,0,1,.21-1.29c0-.08.06-.15.1-.25.14-.47.3-.72.7-.72v-.9a1.66,1.66,0,0,0-1.56,1.35.46.46,0,0,1,0,.09,3,3,0,0,0-.32,1.71c0,.31,0,.68,0,1.16-.07,1.32-.11,2.12-.42,2.34-.48.35-1.68.07-2.43-.57l-.1-.1-.17-.18c-1-1-3-2.24-4.12-1.56a1,1,0,0,0-.41.46,2.34,2.34,0,0,1-.33.56,4.73,4.73,0,0,1-.83.9,2,2,0,0,0-.73,1,1.1,1.1,0,0,0,0,.62,2,2,0,0,1,0,.65c0,.17,0,.32-.07.46a1.81,1.81,0,0,0,.13,1.31s.06.14.09.2A1.08,1.08,0,0,0,483.85,31.49Z"/><path class="cls-1" d="M484.15,32.88l-.84-.55a2,2,0,0,1-.73-1l-.05-.12a2.63,2.63,0,0,1-.23-1.94,4,4,0,0,0,.05-.4.82.82,0,0,0,0-.37,2.07,2.07,0,0,1,0-1.06,3,3,0,0,1,1-1.52,3.79,3.79,0,0,0,.69-.73,2.46,2.46,0,0,0,.24-.4,1.9,1.9,0,0,1,.81-.91c1.76-1,4.17.6,5.31,1.71l.2.21a2.4,2.4,0,0,0,1.11.51c.06-.35.09-1,.12-1.54s0-.81,0-1.1a4,4,0,0,1,.41-2.13,2.55,2.55,0,0,1,2.5-2h1v2.9h-.74v0a2.15,2.15,0,0,1-.18.44c-.07.12-.08.14-.08.8,0,.33,0,.73,0,1.24-.1,1.89-.16,3-1.19,3.78-1.36,1-3.5.44-4.78-.66a2.14,2.14,0,0,1-.26-.25l-.11-.12a5.62,5.62,0,0,0-1.74-1.16c-.07.11-.15.24-.25.38a7.45,7.45,0,0,1-1.11,1.21l-.12.1a3.84,3.84,0,0,1,0,1c0,.21-.05.4-.07.56s0,.15,0,.21a1.59,1.59,0,0,1,.12.27l.06.14,0,0-.83.46.68.44Zm.88-3.12Zm6.7-3.21Z"/><path class="cls-1" d="M589.26,52A6.23,6.23,0,0,0,593,51a3,3,0,0,0,1.37-2.14c0-1.23-1.17-2.09-1.68-2.46-.84-.61-1.68-1.27-2.49-1.91a45.2,45.2,0,0,0-4.4-3.18,42.59,42.59,0,0,1-6.5-4.73,10.29,10.29,0,0,1-1.71-1.9c-.65-.85-1.73-2.27-4.2-5.2-2-2.85-4.1-6.31-4-7l.13-.28a1.91,1.91,0,0,1,1.14-.22c.66,0,1.49,0,1.86-.71.5-.92-.3-2.09-1.22-3.45a11.07,11.07,0,0,0-2.48-2.79,9.79,9.79,0,0,0-5.94-2.18h0a9.07,9.07,0,0,0-3.05.57c-.81.27-1.13.35-1.42.12-.11-.09-.13-.13-.26-1-.08-.59-.2-1.49-.47-2.88-.12-.68-.32-1.67-.55-2.79l-.18-.41-.33-.15c-3.65.19-5.88.57-6.29,1.05-1.49,1.8-.28,5.8,1.17,8,.17.26.35.5.5.7.46.62.68.94.62,1.38s-.42.78-1.12,1.24a6.78,6.78,0,0,0-1.77,1.53c-1.61,2.06-1.23,4.79-1,6.6.31,2.24,1.61,6.36,3.39,6.36h.07c.67,0,1-.61,1.23-1.07s.38-.68.62-.72c.58-.12,1.4,1.2,2.35,2.72A34.81,34.81,0,0,0,559.87,39c2.4,2.71,4.82,4.11,8.17,6.06a50,50,0,0,0,9.63,4.21C581.72,50.7,586,52,589.26,52Zm-26.4-38.19h0a8.82,8.82,0,0,1,5.4,2,10.17,10.17,0,0,1,2.29,2.58c.66,1,1.41,2.08,1.17,2.53-.11.21-.5.23-1.09.24a2.22,2.22,0,0,0-1.85.59l-.06.09s-.16.37-.17.37c-.48,1.07,2.36,5.37,4.09,7.83l0,0c2.46,2.93,3.54,4.34,4.19,5.19a11.84,11.84,0,0,0,1.82,2,43.89,43.89,0,0,0,6.63,4.82,44.38,44.38,0,0,1,4.32,3.13c.81.64,1.66,1.31,2.52,1.93.39.28,1.32,1,1.3,1.72s-.76,1.25-1,1.43c-2.91,2.18-11.34-.75-14.51-1.85a49.76,49.76,0,0,1-9.47-4.14c-3.28-1.91-5.65-3.29-8-5.88a34.6,34.6,0,0,1-3.4-4.77c-1.26-2-2.1-3.37-3.29-3.13a1.94,1.94,0,0,0-1.23,1.17c-.19.36-.33.6-.49.61h0c-.76,0-2.1-2.68-2.5-5.58-.24-1.76-.57-4.17.81-5.93A6.1,6.1,0,0,1,552,19.46c.72-.48,1.4-.93,1.51-1.87a2.7,2.7,0,0,0-.79-2c-.15-.21-.31-.42-.47-.67C550.79,12.71,550,9.33,551,8c.15-.09,1.13-.51,5.3-.76.21,1.05.39,2,.51,2.6.26,1.38.39,2.26.47,2.84.13,1,.18,1.28.59,1.61.7.54,1.42.3,2.26,0A8.2,8.2,0,0,1,562.86,13.81ZM551,8Z"/><path class="cls-1" d="M589.26,53c-3.51,0-8-1.4-11.92-2.76a51.11,51.11,0,0,1-9.8-4.29c-3.43-2-5.91-3.44-8.41-6.26a35.18,35.18,0,0,1-3.6-5,21.28,21.28,0,0,0-1.3-1.95,2.46,2.46,0,0,1-2,1.49h-.13c-2.78,0-4.1-5.22-4.38-7.22s-.68-5,1.19-7.36a7.83,7.83,0,0,1,2-1.74,3.92,3.92,0,0,0,.69-.52,3.31,3.31,0,0,0-.43-.67q-.25-.33-.54-.75c-1.6-2.44-3-6.9-1.09-9.19.31-.38.9-1.08,7-1.41l.25,0,.89.42.4,1c.23,1.13.43,2.12.56,2.8.27,1.44.4,2.37.47,2.93a2,2,0,0,1,0,.2l.35-.11a10.23,10.23,0,0,1,3.36-.62,10.81,10.81,0,0,1,6.59,2.39,12.16,12.16,0,0,1,2.7,3c1,1.49,2.06,3,1.27,4.49A2.87,2.87,0,0,1,570.69,23h-.1a45.89,45.89,0,0,0,3.62,5.88c2.46,2.91,3.54,4.33,4.19,5.18A9.29,9.29,0,0,0,580,35.86a41.63,41.63,0,0,0,6.35,4.61,47.52,47.52,0,0,1,4.5,3.26c.83.65,1.64,1.29,2.46,1.88.58.42,2.12,1.53,2.09,3.28a3.78,3.78,0,0,1-1.77,2.93A7.07,7.07,0,0,1,589.26,53Zm-35.1-23.5c1.57,0,2.58,1.62,3.83,3.63a33.11,33.11,0,0,0,3.3,4.64c2.19,2.47,4.5,3.81,7.7,5.67a48.1,48.1,0,0,0,9.3,4.06c7.37,2.57,11.93,3.24,13.58,2,.57-.42.61-.63.61-.65s-.09-.31-.89-.89-1.72-1.3-2.55-2A43.4,43.4,0,0,0,584.82,43,45.66,45.66,0,0,1,578,38a12.41,12.41,0,0,1-1.94-2.15c-.64-.84-1.71-2.24-4.17-5.15l-.07-.1c-5-7.07-4.47-8.21-4.19-8.82l.35-.67a3,3,0,0,1,2.51-1c-.23-.4-.56-.89-.78-1.2a9.09,9.09,0,0,0-2.07-2.36,7.86,7.86,0,0,0-4.79-1.78l0-.9h0v.9a7.18,7.18,0,0,0-2.44.47,3.12,3.12,0,0,1-3.19-.18c-.74-.58-.83-1.21-1-2.26-.08-.57-.2-1.43-.46-2.79-.08-.46-.2-1.05-.34-1.73a20.88,20.88,0,0,0-3.81.51c-.4,1,.12,3.56,1.41,5.53.15.22.3.42.44.61a3.63,3.63,0,0,1,1,2.74,3.56,3.56,0,0,1-2,2.59,5.14,5.14,0,0,0-1.33,1.11c-1.11,1.43-.83,3.51-.6,5.18A12,12,0,0,0,552,30.83a2.54,2.54,0,0,1,1.68-1.28A2.32,2.32,0,0,1,554.16,29.5Zm15.92-6.42Z"/><path class="cls-1" d="M568.79,22.26l.75-.49a2,2,0,0,0-.46-.5,2.4,2.4,0,0,0-1.52-.46l-.49,0a1.14,1.14,0,0,1-.24-.05,7.5,7.5,0,0,0-2-.2v.9a6.84,6.84,0,0,1,1.79.17,2.05,2.05,0,0,0,.34.07c.2,0,.38,0,.55.05a1.53,1.53,0,0,1,1,.26A1.08,1.08,0,0,1,568.79,22.26Z"/><path class="cls-1" d="M568.5,23.65l-.55-.84s0-.06-.05-.06a3.62,3.62,0,0,0-.44-.05l-.62,0a3.43,3.43,0,0,1-.44-.09,6,6,0,0,0-1.57-.15h-1v-2.9h1a8.82,8.82,0,0,1,2.24.23l.12,0,.38,0a3.42,3.42,0,0,1,2.14.68,3.31,3.31,0,0,1,.66.73l.55.83Z"/><path class="cls-1" d="M553.85,31.49l.48-.75a.23.23,0,0,1,.09.08s-.06-.14-.09-.21a2,2,0,0,0-.16-.33c-.08-.14-.06-.33,0-.7,0-.16.05-.32.07-.51a2.84,2.84,0,0,0,0-.9.41.41,0,0,1,0-.22,1.2,1.2,0,0,1,.46-.6,5.46,5.46,0,0,0,1-1.05,3.92,3.92,0,0,0,.41-.69l0-.08c.59-.34,2.08.48,3,1.43l.14.14.18.18c1,.83,2.63,1.28,3.54.62.65-.48.69-1.33.78-3,0-.5,0-.88,0-1.19a2.19,2.19,0,0,1,.21-1.29c0-.08.06-.15.1-.25.14-.47.3-.72.7-.72v-.9a1.66,1.66,0,0,0-1.56,1.35.46.46,0,0,1,0,.09,3,3,0,0,0-.32,1.71c0,.31,0,.68,0,1.16-.07,1.32-.11,2.12-.42,2.34-.48.35-1.68.07-2.43-.57l-.1-.1-.17-.18c-1-1-3-2.24-4.12-1.56a1,1,0,0,0-.41.46,2.34,2.34,0,0,1-.33.56,4.73,4.73,0,0,1-.83.9,2,2,0,0,0-.73,1,1.1,1.1,0,0,0,0,.62,2,2,0,0,1,0,.65c0,.17,0,.32-.07.46a1.81,1.81,0,0,0,.13,1.31s.06.14.09.2A1.08,1.08,0,0,0,553.85,31.49Z"/><path class="cls-1" d="M554.15,32.88l-.84-.55a2,2,0,0,1-.73-1l-.05-.12a2.63,2.63,0,0,1-.23-1.94,4,4,0,0,0,.05-.4.82.82,0,0,0,0-.37,2.07,2.07,0,0,1,0-1.06,3,3,0,0,1,1-1.52,3.79,3.79,0,0,0,.69-.73,2.46,2.46,0,0,0,.24-.4,1.9,1.9,0,0,1,.81-.91c1.76-1,4.17.6,5.31,1.71l.2.21a2.4,2.4,0,0,0,1.11.51c.06-.35.09-1,.12-1.54s0-.81,0-1.1a4,4,0,0,1,.41-2.13,2.55,2.55,0,0,1,2.5-2h1v2.9h-.74v0a2.15,2.15,0,0,1-.18.44c-.07.12-.08.14-.08.8,0,.33,0,.73,0,1.24-.1,1.89-.16,3-1.19,3.78-1.36,1-3.5.44-4.78-.66a2.14,2.14,0,0,1-.26-.25l-.11-.12a5.62,5.62,0,0,0-1.74-1.16c-.07.11-.15.24-.25.38a7.45,7.45,0,0,1-1.11,1.21l-.12.1a3.84,3.84,0,0,1,0,1c0,.21-.05.4-.07.56s0,.15,0,.21a1.59,1.59,0,0,1,.12.27l.06.14,0,0-.83.46.68.44Zm.88-3.12Zm6.7-3.21Z"/><path class="cls-1" d="M659.26,52A6.23,6.23,0,0,0,663,51a3,3,0,0,0,1.37-2.14c0-1.23-1.17-2.09-1.68-2.46-.84-.61-1.68-1.27-2.49-1.91a45.2,45.2,0,0,0-4.4-3.18,42.59,42.59,0,0,1-6.5-4.73,10.29,10.29,0,0,1-1.71-1.9c-.65-.85-1.73-2.27-4.2-5.2-2-2.85-4.1-6.31-4-7l.13-.28a1.91,1.91,0,0,1,1.14-.22c.66,0,1.49,0,1.86-.71.5-.92-.3-2.09-1.22-3.45a11.07,11.07,0,0,0-2.48-2.79,9.79,9.79,0,0,0-5.94-2.18h0a9.07,9.07,0,0,0-3.05.57c-.81.27-1.13.35-1.42.12-.11-.09-.13-.13-.26-1-.08-.59-.2-1.49-.47-2.88-.12-.68-.32-1.67-.55-2.79l-.18-.41-.33-.15c-3.65.19-5.88.57-6.29,1.05-1.49,1.8-.28,5.8,1.17,8,.17.26.35.5.5.7.46.62.68.94.62,1.38s-.42.78-1.12,1.24a6.78,6.78,0,0,0-1.77,1.53c-1.61,2.06-1.23,4.79-1,6.6.31,2.24,1.61,6.36,3.39,6.36h.07c.67,0,1-.61,1.23-1.07s.38-.68.62-.72c.58-.12,1.4,1.2,2.35,2.72A34.81,34.81,0,0,0,629.87,39c2.4,2.71,4.82,4.11,8.17,6.06a50,50,0,0,0,9.63,4.21C651.72,50.7,656,52,659.26,52Zm-26.4-38.19h0a8.82,8.82,0,0,1,5.4,2,10.17,10.17,0,0,1,2.29,2.58c.66,1,1.41,2.08,1.17,2.53-.11.21-.5.23-1.09.24a2.22,2.22,0,0,0-1.85.59l-.06.09s-.16.37-.17.37c-.48,1.07,2.36,5.37,4.09,7.83l0,0c2.46,2.93,3.54,4.34,4.19,5.19a11.84,11.84,0,0,0,1.82,2,43.89,43.89,0,0,0,6.63,4.82,44.38,44.38,0,0,1,4.32,3.13c.81.64,1.66,1.31,2.52,1.93.39.28,1.32,1,1.3,1.72s-.76,1.25-1,1.43c-2.91,2.18-11.34-.75-14.51-1.85a49.76,49.76,0,0,1-9.47-4.14c-3.28-1.91-5.65-3.29-8-5.88a34.6,34.6,0,0,1-3.4-4.77c-1.26-2-2.1-3.37-3.29-3.13a1.94,1.94,0,0,0-1.23,1.17c-.19.36-.33.6-.49.61h0c-.76,0-2.1-2.68-2.5-5.58-.24-1.76-.57-4.17.81-5.93A6.1,6.1,0,0,1,622,19.46c.72-.48,1.4-.93,1.51-1.87a2.7,2.7,0,0,0-.79-2c-.15-.21-.31-.42-.47-.67C620.79,12.71,620,9.33,621,8c.15-.09,1.13-.51,5.3-.76.21,1.05.39,2,.51,2.6.26,1.38.39,2.26.47,2.84.13,1,.18,1.28.59,1.61.7.54,1.42.3,2.26,0A8.2,8.2,0,0,1,632.86,13.81ZM621,8Z"/><path class="cls-1" d="M659.26,53c-3.51,0-8-1.4-11.92-2.76a51.11,51.11,0,0,1-9.8-4.29c-3.43-2-5.91-3.44-8.41-6.26a35.18,35.18,0,0,1-3.6-5,21.28,21.28,0,0,0-1.3-1.95,2.46,2.46,0,0,1-2,1.49h-.13c-2.78,0-4.1-5.22-4.38-7.22s-.68-5,1.19-7.36a7.83,7.83,0,0,1,2-1.74,3.92,3.92,0,0,0,.69-.52,3.31,3.31,0,0,0-.43-.67q-.25-.33-.54-.75c-1.6-2.44-3-6.9-1.09-9.19.31-.38.9-1.08,7-1.41l.25,0,.89.42.4,1c.23,1.13.43,2.12.56,2.8.27,1.44.4,2.37.47,2.93a2,2,0,0,1,0,.2l.35-.11a10.23,10.23,0,0,1,3.36-.62,10.81,10.81,0,0,1,6.59,2.39,12.16,12.16,0,0,1,2.7,3c1,1.49,2.06,3,1.27,4.49A2.87,2.87,0,0,1,640.69,23h-.1a45.89,45.89,0,0,0,3.62,5.88c2.46,2.91,3.54,4.33,4.19,5.18A9.29,9.29,0,0,0,650,35.86a41.63,41.63,0,0,0,6.35,4.61,47.52,47.52,0,0,1,4.5,3.26c.83.65,1.64,1.29,2.46,1.88.58.42,2.12,1.53,2.09,3.28a3.78,3.78,0,0,1-1.77,2.93A7.07,7.07,0,0,1,659.26,53Zm-35.1-23.5c1.57,0,2.58,1.62,3.83,3.63a33.11,33.11,0,0,0,3.3,4.64c2.19,2.47,4.5,3.81,7.7,5.67a48.1,48.1,0,0,0,9.3,4.06c7.37,2.57,11.93,3.24,13.58,2,.57-.42.61-.63.61-.65s-.09-.31-.89-.89-1.72-1.3-2.55-2A43.4,43.4,0,0,0,654.82,43,45.66,45.66,0,0,1,648,38a12.41,12.41,0,0,1-1.94-2.15c-.64-.84-1.71-2.24-4.17-5.15l-.07-.1c-5-7.07-4.47-8.21-4.19-8.82l.35-.67a3,3,0,0,1,2.51-1c-.23-.4-.56-.89-.78-1.2a9.09,9.09,0,0,0-2.07-2.36,7.86,7.86,0,0,0-4.79-1.78l0-.9h0v.9a7.18,7.18,0,0,0-2.44.47,3.12,3.12,0,0,1-3.19-.18c-.74-.58-.83-1.21-1-2.26-.08-.57-.2-1.43-.46-2.79-.08-.46-.2-1.05-.34-1.73a20.88,20.88,0,0,0-3.81.51c-.4,1,.12,3.56,1.41,5.53.15.22.3.42.44.61a3.63,3.63,0,0,1,1,2.74,3.56,3.56,0,0,1-2,2.59,5.14,5.14,0,0,0-1.33,1.11c-1.11,1.43-.83,3.51-.6,5.18A12,12,0,0,0,622,30.83a2.54,2.54,0,0,1,1.68-1.28A2.32,2.32,0,0,1,624.16,29.5Zm15.92-6.42Z"/><path class="cls-1" d="M638.79,22.26l.75-.49a2,2,0,0,0-.46-.5,2.4,2.4,0,0,0-1.52-.46l-.49,0a1.14,1.14,0,0,1-.24-.05,7.5,7.5,0,0,0-2-.2v.9a6.84,6.84,0,0,1,1.79.17,2.05,2.05,0,0,0,.34.07c.2,0,.38,0,.55.05a1.53,1.53,0,0,1,1,.26A1.08,1.08,0,0,1,638.79,22.26Z"/><path class="cls-1" d="M638.5,23.65l-.55-.84s0-.06-.05-.06a3.62,3.62,0,0,0-.44-.05l-.62,0a3.43,3.43,0,0,1-.44-.09,6,6,0,0,0-1.57-.15h-1v-2.9h1a8.82,8.82,0,0,1,2.24.23l.12,0,.38,0a3.42,3.42,0,0,1,2.14.68,3.31,3.31,0,0,1,.66.73l.55.83Z"/><path class="cls-1" d="M623.85,31.49l.48-.75a.23.23,0,0,1,.09.08s-.06-.14-.09-.21a2,2,0,0,0-.16-.33c-.08-.14-.06-.33,0-.7,0-.16.05-.32.07-.51a2.84,2.84,0,0,0,0-.9.41.41,0,0,1,0-.22,1.2,1.2,0,0,1,.46-.6,5.46,5.46,0,0,0,1-1.05,3.92,3.92,0,0,0,.41-.69l0-.08c.59-.34,2.08.48,3,1.43l.14.14.18.18c1,.83,2.63,1.28,3.54.62.65-.48.69-1.33.78-3,0-.5,0-.88,0-1.19a2.19,2.19,0,0,1,.21-1.29c0-.08.06-.15.1-.25.14-.47.3-.72.7-.72v-.9a1.66,1.66,0,0,0-1.56,1.35.46.46,0,0,1,0,.09,3,3,0,0,0-.32,1.71c0,.31,0,.68,0,1.16-.07,1.32-.11,2.12-.42,2.34-.48.35-1.68.07-2.43-.57l-.1-.1-.17-.18c-1-1-3-2.24-4.12-1.56a1,1,0,0,0-.41.46,2.34,2.34,0,0,1-.33.56,4.73,4.73,0,0,1-.83.9,2,2,0,0,0-.73,1,1.1,1.1,0,0,0,0,.62,2,2,0,0,1,0,.65c0,.17,0,.32-.07.46a1.81,1.81,0,0,0,.13,1.31s.06.14.09.2A1.08,1.08,0,0,0,623.85,31.49Z"/><path class="cls-1" d="M624.15,32.88l-.84-.55a2,2,0,0,1-.73-1l-.05-.12a2.63,2.63,0,0,1-.23-1.94,4,4,0,0,0,.05-.4.82.82,0,0,0,0-.37,2.07,2.07,0,0,1,0-1.06,3,3,0,0,1,1-1.52,3.79,3.79,0,0,0,.69-.73,2.46,2.46,0,0,0,.24-.4,1.9,1.9,0,0,1,.81-.91c1.76-1,4.17.6,5.31,1.71l.2.21a2.4,2.4,0,0,0,1.11.51c.06-.35.09-1,.12-1.54s0-.81,0-1.1a4,4,0,0,1,.41-2.13,2.55,2.55,0,0,1,2.5-2h1v2.9h-.74v0a2.15,2.15,0,0,1-.18.44c-.07.12-.08.14-.08.8,0,.33,0,.73,0,1.24-.1,1.89-.16,3-1.19,3.78-1.36,1-3.5.44-4.78-.66a2.14,2.14,0,0,1-.26-.25l-.11-.12a5.62,5.62,0,0,0-1.74-1.16c-.07.11-.15.24-.25.38a7.45,7.45,0,0,1-1.11,1.21l-.12.1a3.84,3.84,0,0,1,0,1c0,.21-.05.4-.07.56s0,.15,0,.21a1.59,1.59,0,0,1,.12.27l.06.14,0,0-.83.46.68.44Zm.88-3.12Zm6.7-3.21Z"/><path class="cls-1" d="M725.26,53A6.23,6.23,0,0,0,729,52a3,3,0,0,0,1.37-2.14c0-1.23-1.17-2.09-1.68-2.46-.84-.61-1.68-1.27-2.49-1.91a45.2,45.2,0,0,0-4.4-3.18,42.59,42.59,0,0,1-6.5-4.73,10.29,10.29,0,0,1-1.71-1.9c-.65-.85-1.73-2.27-4.2-5.2-2-2.85-4.1-6.31-4-7l.13-.28a1.91,1.91,0,0,1,1.14-.22c.66,0,1.49,0,1.86-.71.5-.92-.3-2.09-1.22-3.45a11.07,11.07,0,0,0-2.48-2.79,9.79,9.79,0,0,0-5.94-2.18h0a9.07,9.07,0,0,0-3.05.57c-.81.27-1.13.35-1.42.12-.11-.09-.13-.13-.26-1-.08-.59-.2-1.49-.47-2.88-.12-.68-.32-1.67-.55-2.79l-.18-.41-.33-.15c-3.65.19-5.88.57-6.29,1.05-1.49,1.8-.28,5.8,1.17,8,.17.26.35.5.5.7.46.62.68.94.62,1.38s-.42.78-1.12,1.24a6.78,6.78,0,0,0-1.77,1.53c-1.61,2.06-1.23,4.79-1,6.6.31,2.24,1.61,6.36,3.39,6.36h.07c.67,0,1-.61,1.23-1.07s.38-.68.62-.72c.58-.12,1.4,1.2,2.35,2.72A34.81,34.81,0,0,0,695.87,40c2.4,2.71,4.82,4.11,8.17,6.06a50,50,0,0,0,9.63,4.21C717.72,51.7,722,53,725.26,53Zm-26.4-38.19h0a8.82,8.82,0,0,1,5.4,2,10.17,10.17,0,0,1,2.29,2.58c.66,1,1.41,2.08,1.17,2.53-.11.21-.5.23-1.09.24a2.22,2.22,0,0,0-1.85.59l-.06.09s-.16.37-.17.37c-.48,1.07,2.36,5.37,4.09,7.83l0,0c2.46,2.93,3.54,4.34,4.19,5.19a11.84,11.84,0,0,0,1.82,2,43.89,43.89,0,0,0,6.63,4.82,44.38,44.38,0,0,1,4.32,3.13c.81.64,1.66,1.31,2.52,1.93.39.28,1.32,1,1.3,1.72s-.76,1.25-1,1.43c-2.91,2.18-11.34-.75-14.51-1.85a49.76,49.76,0,0,1-9.47-4.14c-3.28-1.91-5.65-3.29-8-5.88a34.6,34.6,0,0,1-3.4-4.77c-1.26-2-2.1-3.37-3.29-3.13a1.94,1.94,0,0,0-1.23,1.17c-.19.36-.33.6-.49.61h0c-.76,0-2.1-2.68-2.5-5.58-.24-1.76-.57-4.17.81-5.93A6.1,6.1,0,0,1,688,20.46c.72-.48,1.4-.93,1.51-1.87a2.7,2.7,0,0,0-.79-2c-.15-.21-.31-.42-.47-.67C686.79,13.71,686,10.33,687,9c.15-.09,1.13-.51,5.3-.76.21,1.05.39,2,.51,2.6.26,1.38.39,2.26.47,2.84.13,1,.18,1.28.59,1.61.7.54,1.42.3,2.26,0A8.2,8.2,0,0,1,698.86,14.81ZM687,9Z"/><path class="cls-1" d="M725.26,54c-3.51,0-8-1.4-11.92-2.76a51.11,51.11,0,0,1-9.8-4.29c-3.43-2-5.91-3.44-8.41-6.26a35.18,35.18,0,0,1-3.6-5,21.28,21.28,0,0,0-1.3-1.95,2.46,2.46,0,0,1-2,1.49h-.13c-2.78,0-4.1-5.22-4.38-7.22s-.68-5,1.19-7.36a7.83,7.83,0,0,1,2-1.74,3.92,3.92,0,0,0,.69-.52,3.31,3.31,0,0,0-.43-.67q-.25-.33-.54-.75c-1.6-2.44-3-6.9-1.09-9.19.31-.38.9-1.08,7-1.41l.25,0,.89.42.4,1c.23,1.13.43,2.12.56,2.8.27,1.44.4,2.37.47,2.93a2,2,0,0,1,0,.2l.35-.11a10.23,10.23,0,0,1,3.36-.62,10.81,10.81,0,0,1,6.59,2.39,12.16,12.16,0,0,1,2.7,3c1,1.49,2.06,3,1.27,4.49A2.87,2.87,0,0,1,706.69,24h-.1a45.89,45.89,0,0,0,3.62,5.88c2.46,2.91,3.54,4.33,4.19,5.18A9.29,9.29,0,0,0,716,36.86a41.63,41.63,0,0,0,6.35,4.61,47.52,47.52,0,0,1,4.5,3.26c.83.65,1.64,1.29,2.46,1.88.58.42,2.12,1.53,2.09,3.28a3.78,3.78,0,0,1-1.77,2.93A7.07,7.07,0,0,1,725.26,54Zm-35.1-23.5c1.57,0,2.58,1.62,3.83,3.63a33.11,33.11,0,0,0,3.3,4.64c2.19,2.47,4.5,3.81,7.7,5.67a48.1,48.1,0,0,0,9.3,4.06c7.37,2.56,11.93,3.24,13.58,2,.57-.42.61-.63.61-.65s-.09-.31-.89-.89-1.72-1.3-2.55-2A43.4,43.4,0,0,0,720.82,44,45.66,45.66,0,0,1,714,39a12.41,12.41,0,0,1-1.94-2.15c-.64-.84-1.71-2.24-4.17-5.15l-.07-.1c-5-7.07-4.47-8.21-4.19-8.82l.35-.67a3,3,0,0,1,2.51-1c-.23-.4-.56-.89-.78-1.2a9.09,9.09,0,0,0-2.07-2.36,7.86,7.86,0,0,0-4.79-1.78l0-.9h0v.9a7.18,7.18,0,0,0-2.44.47,3.12,3.12,0,0,1-3.19-.18c-.74-.58-.83-1.21-1-2.26-.08-.57-.2-1.43-.46-2.79-.08-.46-.2-1.05-.34-1.73a20.88,20.88,0,0,0-3.81.51c-.4,1,.12,3.56,1.41,5.53.15.22.3.42.44.61a3.63,3.63,0,0,1,1,2.74,3.56,3.56,0,0,1-2,2.59,5.14,5.14,0,0,0-1.33,1.11c-1.11,1.43-.83,3.51-.6,5.18A12,12,0,0,0,688,31.83a2.54,2.54,0,0,1,1.68-1.28A2.32,2.32,0,0,1,690.16,30.5Zm15.92-6.42Z"/><path class="cls-1" d="M704.79,23.26l.75-.49a2,2,0,0,0-.46-.5,2.4,2.4,0,0,0-1.52-.46l-.49,0a1.14,1.14,0,0,1-.24-.05,7.5,7.5,0,0,0-2-.2v.9a6.84,6.84,0,0,1,1.79.17,2.05,2.05,0,0,0,.34.07c.2,0,.38,0,.55.05a1.53,1.53,0,0,1,1,.26A1.08,1.08,0,0,1,704.79,23.26Z"/><path class="cls-1" d="M704.5,24.65l-.55-.84s0-.06-.05-.06a3.62,3.62,0,0,0-.44-.05l-.62,0a3.43,3.43,0,0,1-.44-.09,6,6,0,0,0-1.57-.15h-1v-2.9h1a8.82,8.82,0,0,1,2.24.23l.12,0,.38,0a3.42,3.42,0,0,1,2.14.68,3.31,3.31,0,0,1,.66.73l.55.83Z"/><path class="cls-1" d="M689.85,32.49l.48-.75a.23.23,0,0,1,.09.08s-.06-.14-.09-.21a2,2,0,0,0-.16-.33c-.08-.14-.06-.33,0-.7,0-.16.05-.32.07-.51a2.84,2.84,0,0,0,0-.9.41.41,0,0,1,0-.22,1.2,1.2,0,0,1,.46-.6,5.46,5.46,0,0,0,1-1.05,3.92,3.92,0,0,0,.41-.69l0-.08c.59-.34,2.08.48,3,1.43l.14.14.18.18c1,.83,2.63,1.28,3.54.62.65-.48.69-1.33.78-3,0-.5,0-.88,0-1.19a2.19,2.19,0,0,1,.21-1.29c0-.08.06-.15.1-.25.14-.47.3-.72.7-.72v-.9a1.66,1.66,0,0,0-1.56,1.35.46.46,0,0,1,0,.09,3,3,0,0,0-.32,1.71c0,.31,0,.68,0,1.16-.07,1.32-.11,2.12-.42,2.34-.48.35-1.68.07-2.43-.57l-.1-.1-.17-.18c-1-1-3-2.24-4.12-1.56a1,1,0,0,0-.41.46,2.34,2.34,0,0,1-.33.56,4.73,4.73,0,0,1-.83.9,2,2,0,0,0-.73,1,1.1,1.1,0,0,0,0,.62,2,2,0,0,1,0,.65c0,.17,0,.32-.07.46a1.81,1.81,0,0,0,.13,1.31s.06.14.09.2A1.08,1.08,0,0,0,689.85,32.49Z"/><path class="cls-1" d="M690.15,33.88l-.84-.55a2,2,0,0,1-.73-1l-.05-.12a2.63,2.63,0,0,1-.23-1.94,4,4,0,0,0,.05-.4.82.82,0,0,0,0-.37,2.07,2.07,0,0,1,0-1.06,3,3,0,0,1,1-1.52,3.79,3.79,0,0,0,.69-.73,2.46,2.46,0,0,0,.24-.4,1.9,1.9,0,0,1,.81-.91c1.76-1,4.17.6,5.31,1.71l.2.21a2.4,2.4,0,0,0,1.11.51c.06-.35.09-1,.12-1.54s0-.81,0-1.1a4,4,0,0,1,.41-2.13,2.55,2.55,0,0,1,2.5-2h1v2.9h-.74v0a2.15,2.15,0,0,1-.18.44c-.07.12-.08.14-.08.8,0,.33,0,.73,0,1.24-.1,1.89-.16,3-1.19,3.78-1.36,1-3.5.44-4.78-.66a2.14,2.14,0,0,1-.26-.25l-.11-.12a5.62,5.62,0,0,0-1.74-1.16c-.07.11-.15.24-.25.38a7.45,7.45,0,0,1-1.11,1.21l-.12.1a3.84,3.84,0,0,1,0,1c0,.21-.05.4-.07.56s0,.15,0,.21a1.59,1.59,0,0,1,.12.27l.06.14,0,0-.83.46.68.44Zm.88-3.12Zm6.7-3.21Z"/><path class="cls-1" d="M789.26,52A6.23,6.23,0,0,0,793,51a3,3,0,0,0,1.37-2.14c0-1.23-1.17-2.09-1.68-2.46-.84-.61-1.68-1.27-2.49-1.91a45.2,45.2,0,0,0-4.4-3.18,42.59,42.59,0,0,1-6.5-4.73,10.29,10.29,0,0,1-1.71-1.9c-.65-.85-1.73-2.27-4.2-5.2-2-2.85-4.1-6.31-4-7l.13-.28a1.91,1.91,0,0,1,1.14-.22c.66,0,1.49,0,1.86-.71.5-.92-.3-2.09-1.22-3.45a11.07,11.07,0,0,0-2.48-2.79,9.79,9.79,0,0,0-5.94-2.18h0a9.07,9.07,0,0,0-3.05.57c-.81.27-1.13.35-1.42.12-.11-.09-.13-.13-.26-1-.08-.59-.2-1.49-.47-2.88-.12-.68-.32-1.67-.55-2.79l-.18-.41-.33-.15c-3.65.19-5.88.57-6.29,1.05-1.49,1.8-.28,5.8,1.17,8,.17.26.35.5.5.7.46.62.68.94.62,1.38s-.42.78-1.12,1.24a6.78,6.78,0,0,0-1.77,1.53c-1.61,2.06-1.23,4.79-1,6.6.31,2.24,1.61,6.36,3.39,6.36h.07c.67,0,1-.61,1.23-1.07s.38-.68.62-.72c.58-.12,1.4,1.2,2.35,2.72A34.81,34.81,0,0,0,759.87,39c2.4,2.71,4.82,4.11,8.17,6.06a50,50,0,0,0,9.63,4.21C781.72,50.7,786,52,789.26,52Zm-26.4-38.19h0a8.82,8.82,0,0,1,5.4,2,10.17,10.17,0,0,1,2.29,2.58c.66,1,1.41,2.08,1.17,2.53-.11.21-.5.23-1.09.24a2.22,2.22,0,0,0-1.85.59l-.06.09s-.16.37-.17.37c-.48,1.07,2.36,5.37,4.09,7.83l0,0c2.46,2.93,3.54,4.34,4.19,5.19a11.84,11.84,0,0,0,1.82,2,43.89,43.89,0,0,0,6.63,4.82,44.38,44.38,0,0,1,4.32,3.13c.81.64,1.66,1.31,2.52,1.93.39.28,1.32,1,1.3,1.72s-.76,1.25-1,1.43c-2.91,2.18-11.34-.75-14.51-1.85a49.76,49.76,0,0,1-9.47-4.14c-3.28-1.91-5.65-3.29-8-5.88a34.6,34.6,0,0,1-3.4-4.77c-1.26-2-2.1-3.37-3.29-3.13a1.94,1.94,0,0,0-1.23,1.17c-.19.36-.33.6-.49.61h0c-.76,0-2.1-2.68-2.5-5.58-.24-1.76-.57-4.17.81-5.93A6.1,6.1,0,0,1,752,19.46c.72-.48,1.4-.93,1.51-1.87a2.7,2.7,0,0,0-.79-2c-.15-.21-.31-.42-.47-.67C750.79,12.71,750,9.33,751,8c.15-.09,1.13-.51,5.3-.76.21,1.05.39,2,.51,2.6.26,1.38.39,2.26.47,2.84.13,1,.18,1.28.59,1.61.7.54,1.42.3,2.26,0A8.2,8.2,0,0,1,762.86,13.81ZM751,8Z"/><path class="cls-1" d="M789.26,53c-3.51,0-8-1.4-11.92-2.76a51.11,51.11,0,0,1-9.8-4.29c-3.43-2-5.91-3.44-8.41-6.26a35.18,35.18,0,0,1-3.6-5,21.28,21.28,0,0,0-1.3-1.95,2.46,2.46,0,0,1-2,1.49h-.13c-2.78,0-4.1-5.22-4.38-7.22s-.68-5,1.19-7.36a7.83,7.83,0,0,1,2-1.74,3.92,3.92,0,0,0,.69-.52,3.31,3.31,0,0,0-.43-.67q-.25-.33-.54-.75c-1.6-2.44-3-6.9-1.09-9.19.31-.38.9-1.08,7-1.41l.25,0,.89.42.4,1c.23,1.13.43,2.12.56,2.8.27,1.44.4,2.37.47,2.93a2,2,0,0,1,0,.2l.35-.11a10.23,10.23,0,0,1,3.36-.62,10.81,10.81,0,0,1,6.59,2.39,12.16,12.16,0,0,1,2.7,3c1,1.49,2.06,3,1.27,4.49A2.87,2.87,0,0,1,770.69,23h-.1a45.89,45.89,0,0,0,3.62,5.88c2.46,2.91,3.54,4.33,4.19,5.18A9.29,9.29,0,0,0,780,35.86a41.63,41.63,0,0,0,6.35,4.61,47.52,47.52,0,0,1,4.5,3.26c.83.65,1.64,1.29,2.46,1.88.58.42,2.12,1.53,2.09,3.28a3.78,3.78,0,0,1-1.77,2.93A7.07,7.07,0,0,1,789.26,53Zm-35.1-23.5c1.57,0,2.58,1.62,3.83,3.63a33.11,33.11,0,0,0,3.3,4.64c2.19,2.47,4.5,3.81,7.7,5.67a48.1,48.1,0,0,0,9.3,4.06c7.37,2.57,11.93,3.24,13.58,2,.57-.42.61-.63.61-.65s-.09-.31-.89-.89-1.72-1.3-2.55-2A43.4,43.4,0,0,0,784.82,43,45.66,45.66,0,0,1,778,38a12.41,12.41,0,0,1-1.94-2.15c-.64-.84-1.71-2.24-4.17-5.15l-.07-.1c-5-7.07-4.47-8.21-4.19-8.82l.35-.67a3,3,0,0,1,2.51-1c-.23-.4-.56-.89-.78-1.2a9.09,9.09,0,0,0-2.07-2.36,7.86,7.86,0,0,0-4.79-1.78l0-.9h0v.9a7.18,7.18,0,0,0-2.44.47,3.12,3.12,0,0,1-3.19-.18c-.74-.58-.83-1.21-1-2.26-.08-.57-.2-1.43-.46-2.79-.08-.46-.2-1.05-.34-1.73a20.88,20.88,0,0,0-3.81.51c-.4,1,.12,3.56,1.41,5.53.15.22.3.42.44.61a3.63,3.63,0,0,1,1,2.74,3.56,3.56,0,0,1-2,2.59,5.14,5.14,0,0,0-1.33,1.11c-1.11,1.43-.83,3.51-.6,5.18A12,12,0,0,0,752,30.83a2.54,2.54,0,0,1,1.68-1.28A2.32,2.32,0,0,1,754.16,29.5Zm15.92-6.42Z"/><path class="cls-1" d="M768.79,22.26l.75-.49a2,2,0,0,0-.46-.5,2.4,2.4,0,0,0-1.52-.46l-.49,0a1.14,1.14,0,0,1-.24-.05,7.5,7.5,0,0,0-2-.2v.9a6.84,6.84,0,0,1,1.79.17,2.05,2.05,0,0,0,.34.07c.2,0,.38,0,.55.05a1.53,1.53,0,0,1,1,.26A1.08,1.08,0,0,1,768.79,22.26Z"/><path class="cls-1" d="M768.5,23.65l-.55-.84s0-.06-.05-.06a3.62,3.62,0,0,0-.44-.05l-.62,0a3.43,3.43,0,0,1-.44-.09,6,6,0,0,0-1.57-.15h-1v-2.9h1a8.82,8.82,0,0,1,2.24.23l.12,0,.38,0a3.42,3.42,0,0,1,2.14.68,3.31,3.31,0,0,1,.66.73l.55.83Z"/><path class="cls-1" d="M753.85,31.49l.48-.75a.23.23,0,0,1,.09.08s-.06-.14-.09-.21a2,2,0,0,0-.16-.33c-.08-.14-.06-.33,0-.7,0-.16.05-.32.07-.51a2.84,2.84,0,0,0,0-.9.41.41,0,0,1,0-.22,1.2,1.2,0,0,1,.46-.6,5.46,5.46,0,0,0,1-1.05,3.92,3.92,0,0,0,.41-.69l0-.08c.59-.34,2.08.48,3,1.43l.14.14.18.18c1,.83,2.63,1.28,3.54.62.65-.48.69-1.33.78-3,0-.5,0-.88,0-1.19a2.19,2.19,0,0,1,.21-1.29c0-.08.06-.15.1-.25.14-.47.3-.72.7-.72v-.9a1.66,1.66,0,0,0-1.56,1.35.46.46,0,0,1,0,.09,3,3,0,0,0-.32,1.71c0,.31,0,.68,0,1.16-.07,1.32-.11,2.12-.42,2.34-.48.35-1.68.07-2.43-.57l-.1-.1-.17-.18c-1-1-3-2.24-4.12-1.56a1,1,0,0,0-.41.46,2.34,2.34,0,0,1-.33.56,4.73,4.73,0,0,1-.83.9,2,2,0,0,0-.73,1,1.1,1.1,0,0,0,0,.62,2,2,0,0,1,0,.65c0,.17,0,.32-.07.46a1.81,1.81,0,0,0,.13,1.31s.06.14.09.2A1.08,1.08,0,0,0,753.85,31.49Z"/><path class="cls-1" d="M754.15,32.88l-.84-.55a2,2,0,0,1-.73-1l-.05-.12a2.63,2.63,0,0,1-.23-1.94,4,4,0,0,0,.05-.4.82.82,0,0,0,0-.37,2.07,2.07,0,0,1,0-1.06,3,3,0,0,1,1-1.52,3.79,3.79,0,0,0,.69-.73,2.46,2.46,0,0,0,.24-.4,1.9,1.9,0,0,1,.81-.91c1.76-1,4.17.6,5.31,1.71l.2.21a2.4,2.4,0,0,0,1.11.51c.06-.35.09-1,.12-1.54s0-.81,0-1.1a4,4,0,0,1,.41-2.13,2.55,2.55,0,0,1,2.5-2h1v2.9h-.74v0a2.15,2.15,0,0,1-.18.44c-.07.12-.08.14-.08.8,0,.33,0,.73,0,1.24-.1,1.89-.16,3-1.19,3.78-1.36,1-3.5.44-4.78-.66a2.14,2.14,0,0,1-.26-.25l-.11-.12a5.62,5.62,0,0,0-1.74-1.16c-.07.11-.15.24-.25.38a7.45,7.45,0,0,1-1.11,1.21l-.12.1a3.84,3.84,0,0,1,0,1c0,.21-.05.4-.07.56s0,.15,0,.21a1.59,1.59,0,0,1,.12.27l.06.14,0,0-.83.46.68.44Zm.88-3.12Zm6.7-3.21Z"/><path class="cls-1" d="M857.28,52.59a6.18,6.18,0,0,0,3.74-1,3,3,0,0,0,1.38-2.14c0-1.23-1.17-2.09-1.68-2.46-.84-.61-1.68-1.27-2.49-1.91a45.2,45.2,0,0,0-4.4-3.18,42.59,42.59,0,0,1-6.5-4.73,10.62,10.62,0,0,1-1.71-1.9c-.65-.85-1.73-2.27-4.21-5.2-2-2.85-4.09-6.31-4-7l.13-.28c.2-.21.68-.21,1.14-.22.66,0,1.48,0,1.86-.71.5-.92-.3-2.09-1.22-3.45a11.27,11.27,0,0,0-2.48-2.79,9.79,9.79,0,0,0-6-2.18h0a9.07,9.07,0,0,0-3,.57c-.81.27-1.13.35-1.42.12-.11-.09-.13-.13-.26-1-.08-.59-.2-1.49-.47-2.89-.13-.68-.32-1.66-.55-2.78l-.19-.42-.32-.14c-3.65.19-5.88.57-6.29,1-1.49,1.79-.28,5.8,1.17,8,.17.27.35.5.5.71.46.62.67.94.62,1.38s-.43.77-1.12,1.24a6.78,6.78,0,0,0-1.77,1.53c-1.61,2.06-1.24,4.79-1,6.6.31,2.24,1.61,6.35,3.39,6.35h.07c.66,0,1-.61,1.23-1.07s.38-.68.62-.73c.58-.12,1.4,1.21,2.35,2.73a34.81,34.81,0,0,0,3.49,4.89c2.4,2.7,4.82,4.11,8.17,6.06a50.62,50.62,0,0,0,9.63,4.21C849.74,51.29,854,52.59,857.28,52.59ZM830.88,14.4h0a8.82,8.82,0,0,1,5.4,2A10.2,10.2,0,0,1,838.6,19c.66,1,1.41,2.08,1.17,2.52-.11.22-.5.24-1.09.25a2.21,2.21,0,0,0-1.85.59l-.06.09-.17.37c-.48,1.07,2.36,5.36,4.09,7.83l0,0c2.46,2.93,3.54,4.34,4.19,5.19a11.43,11.43,0,0,0,1.82,2,43.89,43.89,0,0,0,6.63,4.82,43.07,43.07,0,0,1,4.31,3.13c.82.64,1.67,1.3,2.53,1.92.39.29,1.31,1,1.3,1.72s-.76,1.26-1,1.44c-2.91,2.18-11.34-.75-14.51-1.85a49.76,49.76,0,0,1-9.47-4.14c-3.28-1.91-5.65-3.29-8-5.88a33.76,33.76,0,0,1-3.4-4.77c-1.26-2-2.1-3.38-3.29-3.13a1.94,1.94,0,0,0-1.23,1.17c-.2.36-.34.6-.5.61h0c-.77,0-2.1-2.68-2.5-5.58-.24-1.76-.57-4.17.8-5.93A6.3,6.3,0,0,1,820,20.05c.72-.48,1.4-.93,1.51-1.87a2.7,2.7,0,0,0-.79-2c-.15-.21-.31-.42-.47-.67C818.8,13.3,818,9.92,819,8.61c.15-.09,1.12-.51,5.3-.76.21,1.05.39,2,.51,2.6.26,1.38.39,2.26.47,2.84.13,1,.18,1.28.59,1.61.7.54,1.42.3,2.26,0A8.2,8.2,0,0,1,830.88,14.4ZM819,8.62Z"/><path class="cls-1" d="M857.28,53.59c-3.51,0-8-1.4-11.92-2.76a50.6,50.6,0,0,1-9.8-4.3c-3.43-2-5.91-3.43-8.42-6.26a35.83,35.83,0,0,1-3.58-5c-.39-.63-.92-1.49-1.31-2a2.47,2.47,0,0,1-2,1.5h-.12c-2.78,0-4.1-5.21-4.38-7.22-.25-1.85-.68-4.95,1.19-7.35a8,8,0,0,1,2-1.75,3.29,3.29,0,0,0,.68-.52,3.59,3.59,0,0,0-.43-.66c-.17-.22-.35-.47-.54-.76-1.6-2.43-3-6.89-1.09-9.18.31-.38.9-1.08,7-1.41l.25,0,.89.41.4,1c.23,1.12.43,2.12.56,2.8.27,1.44.4,2.37.47,2.93l0,.2.35-.11a10,10,0,0,1,3.36-.62,10.83,10.83,0,0,1,6.59,2.39,12.37,12.37,0,0,1,2.7,3c1,1.49,2.06,3,1.27,4.49a2.86,2.86,0,0,1-2.73,1.23h-.1a45.89,45.89,0,0,0,3.62,5.88c2.44,2.88,3.53,4.32,4.19,5.18A9.58,9.58,0,0,0,848,36.45a41.9,41.9,0,0,0,6.34,4.61,44.8,44.8,0,0,1,4.51,3.26c.8.63,1.62,1.28,2.46,1.88.58.42,2.11,1.53,2.09,3.28a3.79,3.79,0,0,1-1.78,2.93A7.06,7.06,0,0,1,857.28,53.59ZM822.17,30.08c1.58,0,2.59,1.63,3.84,3.64a32.5,32.5,0,0,0,3.3,4.63c2.19,2.48,4.5,3.82,7.7,5.68a48.94,48.94,0,0,0,9.29,4.06c7.37,2.56,11.94,3.24,13.59,2,.58-.43.61-.65.61-.66s-.09-.31-.89-.89-1.73-1.3-2.55-1.95a48.15,48.15,0,0,0-4.22-3.06,44.09,44.09,0,0,1-6.78-4.93,12.41,12.41,0,0,1-1.94-2.15c-.64-.84-1.71-2.24-4.17-5.16l-.07-.1c-5-7.06-4.47-8.2-4.19-8.81h0l.17-.38.18-.29a3,3,0,0,1,2.51-1c-.23-.4-.56-.88-.77-1.2a9.18,9.18,0,0,0-2.08-2.36,7.88,7.88,0,0,0-4.79-1.78l0-.9h0v.9a7.2,7.2,0,0,0-2.44.46,3.12,3.12,0,0,1-3.19-.17c-.74-.58-.83-1.21-1-2.26-.08-.57-.2-1.43-.46-2.8-.08-.45-.2-1-.34-1.72a19.91,19.91,0,0,0-3.81.51c-.4,1,.12,3.56,1.41,5.52.14.22.28.4.41.58a3.68,3.68,0,0,1,1,2.78,3.55,3.55,0,0,1-2,2.58A5.36,5.36,0,0,0,819.22,22c-1.11,1.43-.83,3.51-.6,5.17A12.23,12.23,0,0,0,820,31.42a2.59,2.59,0,0,1,1.69-1.28A2.2,2.2,0,0,1,822.17,30.08Zm15.93-6.41Z"/><path class="cls-1" d="M836.81,22.85l.74-.49a1.81,1.81,0,0,0-.45-.5,2.4,2.4,0,0,0-1.52-.46l-.5,0-.23-.05a7.5,7.5,0,0,0-2-.2V22a6.84,6.84,0,0,1,1.79.17,1.86,1.86,0,0,0,.34.07l.55,0a1.58,1.58,0,0,1,1,.26A1.31,1.31,0,0,1,836.81,22.85Z"/><path class="cls-1" d="M836.53,24.23,836,23.4s-.05-.06-.05-.07a3.94,3.94,0,0,0-.44,0c-.21,0-.41,0-.62-.05a2.26,2.26,0,0,1-.44-.08,6,6,0,0,0-1.57-.15h-1v-2.9h1a8.35,8.35,0,0,1,2.24.23l.12,0,.41,0a3.37,3.37,0,0,1,2.11.68,3.1,3.1,0,0,1,.66.73l.55.83Z"/><path class="cls-1" d="M821.87,32.08l.48-.75a.39.39,0,0,1,.09.08,1.09,1.09,0,0,1-.09-.21,2,2,0,0,0-.16-.33c-.09-.14-.06-.33,0-.71,0-.15,0-.31.07-.5a3.2,3.2,0,0,0,0-.9.33.33,0,0,1,0-.22c.07-.26.2-.37.46-.6a6.17,6.17,0,0,0,1-1.05,3.88,3.88,0,0,0,.41-.7l0-.07c.59-.34,2.08.48,3,1.43l.14.14.18.18c1,.83,2.62,1.28,3.54.61.65-.47.69-1.32.78-3,0-.5,0-.88,0-1.19a2.25,2.25,0,0,1,.21-1.3,1.34,1.34,0,0,0,.09-.24c.15-.47.31-.72.71-.72v-.9a1.66,1.66,0,0,0-1.56,1.35.94.94,0,0,1,0,.09,3,3,0,0,0-.32,1.71c0,.3,0,.68,0,1.15-.06,1.33-.1,2.13-.41,2.35-.48.35-1.68.07-2.43-.57l-.1-.11-.18-.17c-1-1-2.95-2.24-4.11-1.56a.91.91,0,0,0-.41.46,2.56,2.56,0,0,1-.33.56,4.73,4.73,0,0,1-.83.9,2,2,0,0,0-.73,1,1.1,1.1,0,0,0,0,.62,2.39,2.39,0,0,1,0,.65c0,.17,0,.32-.07.46a1.81,1.81,0,0,0,.13,1.31,2.16,2.16,0,0,1,.09.2A1.08,1.08,0,0,0,821.87,32.08Z"/><path class="cls-1" d="M822.17,33.46l-.84-.54a1.88,1.88,0,0,1-.73-1l-.06-.12a2.64,2.64,0,0,1-.22-1.93c0-.12,0-.25,0-.41a1,1,0,0,0,0-.36,2.19,2.19,0,0,1,0-1.06,2.93,2.93,0,0,1,1-1.52,3.8,3.8,0,0,0,.68-.73,2.46,2.46,0,0,0,.24-.4,1.87,1.87,0,0,1,.81-.91c1.76-1,4.17.59,5.31,1.71l.21.21a2.29,2.29,0,0,0,1.1.51c.05-.35.09-1,.12-1.55s0-.81,0-1.1a4,4,0,0,1,.41-2.13,2.55,2.55,0,0,1,2.5-2h1V23h-.74v0a2.15,2.15,0,0,1-.18.44c-.07.12-.08.14-.09.8,0,.33,0,.73,0,1.24-.1,1.89-.16,3-1.19,3.78-1.36,1-3.5.44-4.78-.67a2.37,2.37,0,0,1-.27-.25l-.1-.11a5.44,5.44,0,0,0-1.74-1.16c-.07.11-.15.24-.25.38a7,7,0,0,1-1.12,1.21l-.11.1a3.84,3.84,0,0,1,0,1c0,.21,0,.39-.07.56s0,.15,0,.21a2.55,2.55,0,0,1,.13.29l.05.12-.73.54.6.39Zm.36-2.11Z"/><path class="cls-1" d="M924.85,52.7a6.22,6.22,0,0,0,3.74-1A3,3,0,0,0,930,49.58c0-1.24-1.17-2.09-1.67-2.46-.85-.61-1.69-1.27-2.5-1.91a44,44,0,0,0-4.4-3.18,43.09,43.09,0,0,1-6.5-4.73,10.56,10.56,0,0,1-1.7-1.9c-.65-.85-1.74-2.27-4.21-5.2-2-2.85-4.1-6.31-4-7l.13-.28c.21-.21.68-.21,1.14-.22.66,0,1.49,0,1.86-.71.5-.92-.29-2.09-1.21-3.45a11.34,11.34,0,0,0-2.49-2.79,9.77,9.77,0,0,0-5.94-2.18h0a9,9,0,0,0-3.05.57c-.82.27-1.13.35-1.42.12-.12-.09-.14-.14-.26-1-.08-.59-.21-1.49-.47-2.89-.13-.68-.33-1.66-.56-2.78l-.18-.42-.32-.14c-3.66.19-5.89.57-6.29,1-1.49,1.79-.28,5.79,1.16,8,.18.27.35.5.5.71.46.62.68.94.63,1.38s-.43.77-1.13,1.23a7.18,7.18,0,0,0-1.77,1.53c-1.61,2.07-1.23,4.8-1,6.61.3,2.24,1.61,6.35,3.38,6.35h.07c.67,0,1-.61,1.23-1.07s.38-.68.62-.73c.59-.12,1.41,1.2,2.36,2.73a34,34,0,0,0,3.49,4.89c2.39,2.7,4.81,4.11,8.16,6.06A50.62,50.62,0,0,0,913.25,50C917.31,51.4,921.6,52.7,924.85,52.7Zm-26.4-38.19h0a8.81,8.81,0,0,1,5.39,2,10,10,0,0,1,2.29,2.58c.67,1,1.42,2.08,1.18,2.52-.12.22-.51.24-1.09.25a2.21,2.21,0,0,0-1.86.59l0,.09-.17.37c-.49,1.07,2.35,5.36,4.09,7.83l0,0c2.47,2.93,3.55,4.34,4.19,5.19a12.27,12.27,0,0,0,1.82,2,43.84,43.84,0,0,0,6.64,4.82,44.25,44.25,0,0,1,4.31,3.13c.82.64,1.66,1.3,2.52,1.92.4.29,1.32,1,1.31,1.72s-.77,1.26-1,1.44c-2.91,2.18-11.33-.75-14.5-1.85A49.82,49.82,0,0,1,904.07,45c-3.27-1.91-5.64-3.29-7.94-5.88a33.52,33.52,0,0,1-3.4-4.77c-1.27-2-2.11-3.38-3.29-3.13a1.91,1.91,0,0,0-1.23,1.17c-.2.36-.34.6-.5.61h0c-.76,0-2.1-2.68-2.5-5.58-.24-1.76-.57-4.17.81-5.93a6.1,6.1,0,0,1,1.56-1.34c.72-.48,1.4-.93,1.51-1.87a2.7,2.7,0,0,0-.79-2c-.15-.21-.31-.42-.47-.67-1.44-2.19-2.27-5.57-1.26-6.89.16-.08,1.13-.5,5.3-.75.22,1,.4,2,.52,2.6.26,1.37.38,2.26.46,2.84.14,1,.18,1.28.6,1.61.69.54,1.42.3,2.25,0A8,8,0,0,1,898.45,14.51ZM886.53,8.73Z"/><path class="cls-1" d="M924.85,53.7c-3.51,0-8-1.4-11.93-2.76a50.86,50.86,0,0,1-9.8-4.3c-3.43-2-5.91-3.43-8.41-6.26a35,35,0,0,1-3.58-5c-.4-.63-.93-1.49-1.31-2a2.47,2.47,0,0,1-2,1.5h-.13c-2.78,0-4.1-5.21-4.37-7.22-.26-1.85-.68-4.95,1.18-7.35a8.3,8.3,0,0,1,2-1.75,3.71,3.71,0,0,0,.69-.52,4.14,4.14,0,0,0-.44-.66c-.16-.23-.35-.47-.53-.76-1.61-2.43-3-6.89-1.1-9.18.31-.38.9-1.08,7-1.41l.25,0,.89.41.4,1c.23,1.13.43,2.11.56,2.8.27,1.44.4,2.37.48,2.93l0,.2.34-.11a10,10,0,0,1,3.37-.62A10.85,10.85,0,0,1,905,15a12.49,12.49,0,0,1,2.69,3c1,1.5,2.06,3,1.27,4.5a2.85,2.85,0,0,1-2.72,1.23h-.1a44.73,44.73,0,0,0,3.62,5.88c2.42,2.87,3.52,4.31,4.17,5.17a10.11,10.11,0,0,0,1.59,1.77,42.58,42.58,0,0,0,6.35,4.61,45.81,45.81,0,0,1,4.5,3.26c.8.63,1.63,1.28,2.46,1.88.58.42,2.12,1.53,2.09,3.28a3.75,3.75,0,0,1-1.77,2.93A7.06,7.06,0,0,1,924.85,53.7ZM889.74,30.19c1.57,0,2.59,1.63,3.84,3.64a32.5,32.5,0,0,0,3.3,4.63c2.19,2.48,4.5,3.82,7.7,5.68a48.4,48.4,0,0,0,9.29,4.06c7.37,2.56,11.94,3.23,13.58,2,.57-.43.61-.63.62-.66s-.09-.31-.89-.88-1.73-1.31-2.55-1.95a44.58,44.58,0,0,0-4.23-3.07,44.66,44.66,0,0,1-6.78-4.93,12.1,12.1,0,0,1-1.94-2.16c-.64-.83-1.7-2.23-4.16-5.15l-.08-.1c-5-7.06-4.46-8.2-4.19-8.81h0l.17-.38.18-.29a3,3,0,0,1,2.5-1c-.23-.4-.56-.89-.77-1.2a9.18,9.18,0,0,0-2.08-2.36,7.94,7.94,0,0,0-4.79-1.79l0-.89h0v.89A7.25,7.25,0,0,0,896,16a3.12,3.12,0,0,1-3.19-.17c-.73-.58-.82-1.21-1-2.26-.08-.57-.2-1.43-.45-2.8L891,9a19.91,19.91,0,0,0-3.81.51c-.39,1,.13,3.56,1.42,5.52.14.21.27.4.41.58a3.75,3.75,0,0,1,1,2.78,3.56,3.56,0,0,1-2,2.58,5.32,5.32,0,0,0-1.32,1.12c-1.12,1.43-.83,3.51-.61,5.17a12,12,0,0,0,1.37,4.25,2.53,2.53,0,0,1,1.69-1.28A2.2,2.2,0,0,1,889.74,30.19Zm15.92-6.41Z"/><path class="cls-1" d="M904.37,23l.75-.49a2.22,2.22,0,0,0-.45-.51,2.49,2.49,0,0,0-1.52-.45l-.5,0-.23,0a7.63,7.63,0,0,0-2-.2v.89a6.62,6.62,0,0,1,1.78.18,2.29,2.29,0,0,0,.34.07l.56,0a1.6,1.6,0,0,1,1,.26A1.56,1.56,0,0,1,904.37,23Z"/><path class="cls-1" d="M904.09,24.34l-.55-.83-.06-.07a3.72,3.72,0,0,0-.44,0c-.19,0-.4,0-.62,0a3.25,3.25,0,0,1-.43-.08,6.08,6.08,0,0,0-1.57-.15h-1v-2.9h1a8.25,8.25,0,0,1,2.23.23l.12,0c.14,0,.28,0,.42,0a3.29,3.29,0,0,1,2.1.68,2.88,2.88,0,0,1,.66.73l.55.83Z"/><path class="cls-1" d="M889.43,32.19l.49-.75a.39.39,0,0,1,.09.08s-.07-.15-.1-.21a3.52,3.52,0,0,0-.15-.33c-.09-.14-.07-.33,0-.71,0-.15,0-.32.07-.5a2.84,2.84,0,0,0,0-.9.33.33,0,0,1,0-.22,1.1,1.1,0,0,1,.46-.6,6.21,6.21,0,0,0,1-1.05,4.17,4.17,0,0,0,.42-.7.16.16,0,0,1,0-.07c.59-.34,2.07.48,3,1.43l.14.14.18.18c1,.83,2.63,1.28,3.54.61.65-.47.7-1.32.78-3,0-.5,0-.88,0-1.19a2.25,2.25,0,0,1,.21-1.3,1.33,1.33,0,0,0,.1-.24c.15-.47.31-.73.71-.73v-.89a1.64,1.64,0,0,0-1.56,1.34l0,.1a3.15,3.15,0,0,0-.32,1.71c0,.3,0,.68,0,1.15-.07,1.33-.11,2.13-.42,2.35-.48.35-1.68.07-2.42-.57a.56.56,0,0,1-.11-.11s-.08-.09-.17-.17c-1-1-3-2.24-4.12-1.56a.88.88,0,0,0-.4.46,3.35,3.35,0,0,1-.34.56,4.73,4.73,0,0,1-.83.9,2,2,0,0,0-.73,1,1.32,1.32,0,0,0,0,.62,2,2,0,0,1,0,.65c0,.17,0,.32-.06.46a1.81,1.81,0,0,0,.12,1.31,1,1,0,0,1,.09.2A1.08,1.08,0,0,0,889.43,32.19Z"/><path class="cls-1" d="M893,34.18l-2.73-1.41-.52.8-.84-.54a2,2,0,0,1-.73-1l0-.11a2.68,2.68,0,0,1-.23-1.94c0-.12,0-.26.06-.4a1.35,1.35,0,0,0,0-.37,2,2,0,0,1,0-1.06,2.93,2.93,0,0,1,1-1.52,4.24,4.24,0,0,0,.68-.74,2.12,2.12,0,0,0,.24-.39,1.92,1.92,0,0,1,.81-.91c1.76-1,4.17.59,5.32,1.71l.2.21a2.32,2.32,0,0,0,1.11.51c0-.35.08-1,.11-1.55s0-.81,0-1.1a4.18,4.18,0,0,1,.41-2.13,2.55,2.55,0,0,1,2.51-2h1v2.9h-.75v0a2.41,2.41,0,0,1-.18.44c-.07.12-.08.14-.08.8,0,.33,0,.73,0,1.24-.09,1.89-.15,3-1.19,3.78-1.36,1-3.5.44-4.78-.67a3.28,3.28,0,0,1-.26-.25l-.1-.11a5.46,5.46,0,0,0-1.75-1.16,4.05,4.05,0,0,1-.25.38,6.5,6.5,0,0,1-1.11,1.2l-.11.1a4.49,4.49,0,0,1,0,1c0,.21-.05.39-.08.56s0,.15,0,.21l.12.29.06.12Zm-2.28-3.44Zm6.61-3.49Z"/></svg>