<svg id="Layer_1" data-name="Layer 1" xmlns="http://www.w3.org/2000/svg" viewBox="0 0 931 60"><defs><style>.cls-1{fill:#6abe84;}</style></defs><title>border_tl</title><path class="cls-1" d="M869.14,53c-1.06,0-2-.24-2.41-1.07C866,50.29,868,47.29,873,42.43,883.46,32.32,900.64,25.09,912.15,26c4.47.34,7.77,1.86,9.8,4.53h0a26,26,0,0,1,3.94,9.07c.68,2.87,1.7,7.19-.07,9.73-1.9,2.72-5.87,2.13-9.06,1.64l-.68-.1c-14.79-2.15-36.16.27-44.18,1.78A15.89,15.89,0,0,1,869.14,53Zm41.13-26.06c-11,0-27,7-36.57,16.26-6.19,6-6.31,7.8-6.07,8.31.4.86,3.1.35,4,.18l.1,0c8.08-1.51,29.59-3.95,44.51-1.78l.69.11c2.91.44,6.55,1,8.09-1.23s.55-6.23-.08-8.92a25.08,25.08,0,0,0-3.77-8.7c-1.85-2.43-4.9-3.83-9.08-4.14C911.49,26.91,910.89,26.89,910.27,26.89Z"/><path class="cls-1" d="M869.14,54c-1.69,0-2.81-.56-3.32-1.64-1-2.12.89-5.19,6.49-10.6C882.94,31.43,900.47,24.08,912.22,25c4.77.36,8.31,2,10.52,4.93a26.88,26.88,0,0,1,4.13,9.44c.71,3,1.79,7.63-.23,10.53-2.25,3.23-6.75,2.56-10,2.06l-.68-.1c-14.66-2.13-35.87.27-43.85,1.77A16.18,16.18,0,0,1,869.14,54Zm-.54-3a9.29,9.29,0,0,0,2.83-.26l.1,0c8.13-1.53,29.79-4,44.84-1.79l.68.11c2.65.4,5.94.89,7.12-.81s.33-5.76-.22-8.12a24.42,24.42,0,0,0-3.59-8.33c-1.68-2.19-4.49-3.45-8.36-3.75-.55,0-1.13-.06-1.73-.06-10.85,0-26.61,7-35.88,16C869.65,48.45,868.77,50.33,868.6,50.92Z"/><path class="cls-1" d="M867.76,49.85a.5.5,0,0,1-.49-.39c-.74-3.44-.57-5.63.52-6.69a3,3,0,0,1,2.28-.67,3.24,3.24,0,0,0,2.38-.68,7.89,7.89,0,0,0,1.79-2.93,15.13,15.13,0,0,0,.72-2,2.74,2.74,0,0,1,1-1.76,2,2,0,0,1,1.58-.22,11.06,11.06,0,0,0,1.79.14c1.52,0,2.26,0,2.8-.36a2.7,2.7,0,0,0,1-1.75,3.52,3.52,0,0,1,1.32-2.24c1.31-.91,3.28-.68,4.58-.53a5.83,5.83,0,0,1,.58.08c.45.07.52.07.64,0,.32-.2.41-.62.52-1.29a3.74,3.74,0,0,1,.94-2.2,3.38,3.38,0,0,1,3.2-.56,2.7,2.7,0,0,1,1.32.91c.22.25.33.36.57.41s.71-.15,1.89-1.09c.5-.39,1.13-.89,1.94-1.49,1.64-1.21,2.06-1.41,2.59-1.43a2.8,2.8,0,0,1,1.93.77,1.89,1.89,0,0,0,1.19.56c.57,0,.93-.28,1.44-.77a2.7,2.7,0,0,1,2-1,2.8,2.8,0,0,1,2,1.22,2.31,2.31,0,0,0,1.47,1,2.21,2.21,0,0,0,1.58-.62,2.52,2.52,0,0,1,1.91-.71c1.39.19,2.54,1.9,3.49,5.24a.49.49,0,0,1-.34.62.5.5,0,0,1-.62-.34c-1.08-3.77-2.13-4.46-2.67-4.53-.38-.06-.7.16-1.18.52a3.15,3.15,0,0,1-2.27.81,3.25,3.25,0,0,1-2.12-1.32c-.47-.54-.79-.87-1.32-.89s-.83.26-1.31.72a2.59,2.59,0,0,1-3.94.27,1.71,1.71,0,0,0-1.27-.55c-.22,0-.5.1-2,1.24-.81.59-1.43,1.08-1.92,1.47-1.32,1-1.86,1.47-2.73,1.28a1.93,1.93,0,0,1-1.09-.73,1.88,1.88,0,0,0-.88-.62,2.4,2.4,0,0,0-2.2.33,2.84,2.84,0,0,0-.65,1.65,2.63,2.63,0,0,1-1,2,1.69,1.69,0,0,1-1.32.14l-.54-.07c-1.15-.13-2.9-.33-3.9.36a2.64,2.64,0,0,0-.93,1.68,3.56,3.56,0,0,1-1.39,2.32c-.79.53-1.73.53-3.36.53a12.46,12.46,0,0,1-1.93-.15c-.56-.07-.67-.08-.88.06s-.39.47-.6,1.21a16.5,16.5,0,0,1-.76,2.13,8.75,8.75,0,0,1-2.07,3.29,4.18,4.18,0,0,1-3,.92c-.75,0-1.2,0-1.58.39-.8.78-.89,2.77-.24,5.76a.51.51,0,0,1-.39.59Z"/><path class="cls-1" d="M867.76,50.85a1.52,1.52,0,0,1-1.47-1.18c-.83-3.86-.57-6.28.81-7.62a3.93,3.93,0,0,1,3-.95,2.24,2.24,0,0,0,1.73-.45,7.18,7.18,0,0,0,1.53-2.57A13.18,13.18,0,0,0,874,36.2a3.67,3.67,0,0,1,1.41-2.3,2.91,2.91,0,0,1,2.29-.39,7.61,7.61,0,0,0,1.66.13,5.61,5.61,0,0,0,2.22-.19c.29-.2.39-.48.58-1.18a4.51,4.51,0,0,1,1.72-2.81c1.62-1.11,3.81-.86,5.27-.7l.55.08c0-.16.07-.36.09-.48A4.64,4.64,0,0,1,891,25.62a4.36,4.36,0,0,1,4.19-.8A3.73,3.73,0,0,1,897,26l0,0c.26-.17.72-.53,1.08-.81s1.13-.9,2-1.51c1.63-1.21,2.28-1.59,3.14-1.63a3.89,3.89,0,0,1,2.59,1c.35.28.46.35.61.35s.26-.06.7-.49a3.59,3.59,0,0,1,2.76-1.28,3.76,3.76,0,0,1,2.76,1.56c.41.46.59.64.83.67s.4-.09.86-.43a3.5,3.5,0,0,1,2.65-.9c1.86.25,3.23,2.14,4.33,6a1.51,1.51,0,0,1-1,1.85,1.46,1.46,0,0,1-1.14-.12,1.52,1.52,0,0,1-.72-.91c-1-3.49-1.85-3.81-1.86-3.81l-.44.33a4.07,4.07,0,0,1-3,1,4.17,4.17,0,0,1-2.76-1.66c-.38-.42-.52-.55-.62-.55s-.39.26-.58.44a3.75,3.75,0,0,1-2.9,1.33,3.84,3.84,0,0,1-2.34-1c-.41-.33-.48-.35-.59-.34a13.15,13.15,0,0,0-1.51,1c-.78.57-1.38,1.05-1.85,1.42-1.43,1.13-2.26,1.79-3.6,1.5a2.81,2.81,0,0,1-1.63-1,.87.87,0,0,0-.44-.33c-.27-.08-.92-.17-1.2.1a2.35,2.35,0,0,0-.36,1.11,3.48,3.48,0,0,1-1.43,2.63,2.6,2.6,0,0,1-2,.29l-.51-.07c-.95-.11-2.53-.29-3.22.19-.26.18-.35.45-.53,1.12a4.54,4.54,0,0,1-1.8,2.89c-1,.7-2.18.7-3.9.7a13.76,13.76,0,0,1-2.07-.15l-.23,0c0,.14-.12.41-.17.58a16.74,16.74,0,0,1-.81,2.27A9.57,9.57,0,0,1,873.74,43a5.22,5.22,0,0,1-3.66,1.15c-.62,0-.81,0-.89.11s-.81.91,0,4.83a1.5,1.5,0,0,1-1.14,1.78Zm52.53-22.07Z"/><ellipse class="cls-1" cx="889.84" cy="39.36" rx="1.37" ry="1.58"/><path class="cls-1" d="M889.84,41.94a2.59,2.59,0,1,1,2.37-2.58A2.48,2.48,0,0,1,889.84,41.94Zm0-3.16c-.18,0-.37.25-.37.58s.19.58.37.58.37-.25.37-.58S890,38.78,889.84,38.78Z"/><path class="cls-1" d="M882.13,19.31h-.07a2.41,2.41,0,0,1-1.59-.68c-.6-.73,0-1.53.34-2,.7-.91,1.21-1.54,1.57-2,.51-.62.72-.88.69-1a8.51,8.51,0,0,0-2.36-1.62c-.57-.34-1-.58-1.4-.77-.79-.41-1.27-.66-1.41-1.23-.26-1.11,1.23-2,2.37-2.53a.5.5,0,1,1,.44.9c-1.92.93-1.84,1.39-1.83,1.4s.43.33.89.57.86.45,1.45.8c1.89,1.11,2.67,1.57,2.83,2.26s-.13.9-.89,1.83c-.36.44-.87,1.06-1.55,1.95-.15.2-.47.61-.37.72a1.7,1.7,0,0,0,1,.33.5.5,0,0,1-.06,1Z"/><path class="cls-1" d="M882.13,20.31l-.24,0a3.29,3.29,0,0,1-2.19-1c-1.11-1.33,0-2.74.32-3.2.7-.92,1.22-1.56,1.59-2,0-.05.09-.11.14-.17-.44-.28-1.06-.65-1.53-.92s-1-.56-1.36-.75c-.91-.47-1.69-.88-1.93-1.89-.48-2,2-3.21,2.91-3.66a1.5,1.5,0,0,1,2,.69,1.48,1.48,0,0,1,.07,1.15,1.51,1.51,0,0,1-.77.86q-.37.18-.63.33c.36.19.76.4,1.22.67,2.09,1.24,3,1.8,3.3,2.91s-.27,1.67-1.1,2.68c-.29.36-.68.84-1.19,1.49a1.6,1.6,0,0,1,.58.46,1.5,1.5,0,0,1-1.19,2.41Zm-.07-1Z"/><path class="cls-1" d="M888.56,19.33h-.08a2.38,2.38,0,0,1-1.57-.72c-.57-.74.08-1.53.43-1.95.74-.9,1.27-1.52,1.66-1.95.54-.62.75-.87.74-1a8.31,8.31,0,0,0-2.28-1.66c-.56-.35-1-.6-1.37-.79-.78-.43-1.25-.69-1.36-1.27-.21-1.11,1.31-1.94,2.48-2.48a.51.51,0,0,1,.66.25.52.52,0,0,1-.25.67c-2,.89-1.91,1.37-1.91,1.37s.43.34.87.58.83.46,1.41.82c1.84,1.15,2.61,1.63,2.73,2.33s-.17.89-1,1.81c-.38.43-.91,1-1.64,1.92-.13.16-.49.6-.41.71s.21.22.94.34a.5.5,0,0,1-.08,1Z"/><path class="cls-1" d="M888.56,20.33h-.22a3.36,3.36,0,0,1-2.22-1.1c-1-1.37.07-2.74.44-3.2.75-.91,1.3-1.53,1.69-2l.15-.17c-.42-.29-1-.66-1.47-.94s-1-.58-1.32-.77c-.86-.47-1.66-.91-1.86-1.95-.39-2,2.1-3.15,3-3.58A1.5,1.5,0,1,1,888,9.37c-.27.12-.49.23-.67.33.33.18.71.4,1.16.68,2.05,1.28,3,1.86,3.19,3S891.37,15,890.5,16c-.31.36-.73.83-1.26,1.48a1.5,1.5,0,0,1-.68,2.83ZM887.2,7.54h0Z"/><path class="cls-1" d="M895.24,19.33h-.08a2.36,2.36,0,0,1-1.57-.72c-.57-.74.08-1.53.42-1.95.74-.9,1.28-1.52,1.67-2,.53-.61.75-.86.73-1,0-.27-1.13-1-2.27-1.66-.56-.35-1-.6-1.37-.79-.78-.43-1.25-.69-1.36-1.27-.22-1.11,1.31-1.94,2.47-2.48a.51.51,0,0,1,.42.92c-2,.89-1.91,1.37-1.91,1.37s.43.34.86.58.84.46,1.42.82c1.84,1.15,2.6,1.63,2.73,2.33s-.17.89-1,1.8c-.38.44-.91,1-1.64,1.93-.14.16-.49.6-.41.71s.21.22.93.34a.5.5,0,0,1-.07,1Z"/><path class="cls-1" d="M895.24,20.33H895a3.31,3.31,0,0,1-2.21-1.1c-1.06-1.37.07-2.74.44-3.2.74-.9,1.28-1.51,1.67-2l.17-.19c-.43-.29-1-.66-1.47-.94s-1-.57-1.31-.76c-.87-.48-1.67-.92-1.87-2-.39-2,2.1-3.15,3-3.58a1.51,1.51,0,0,1,2,.75,1.48,1.48,0,0,1,0,1.15,1.53,1.53,0,0,1-.78.84c-.27.12-.5.23-.68.33.33.18.72.4,1.17.68,2,1.28,3,1.86,3.18,3s-.33,1.65-1.2,2.63c-.31.36-.72.83-1.26,1.48a1.5,1.5,0,0,1-.68,2.83ZM893.88,7.54h0Z"/><ellipse class="cls-1" cx="908.86" cy="33.07" rx="1.68" ry="1.42"/><path class="cls-1" d="M908.86,35.49a2.43,2.43,0,1,1,2.69-2.42A2.56,2.56,0,0,1,908.86,35.49Zm0-2.84c-.38,0-.68.23-.68.42s.3.42.68.42.69-.23.69-.42S909.25,32.65,908.86,32.65Z"/><ellipse class="cls-1" cx="914.91" cy="41.77" rx="1.94" ry="1.74"/><path class="cls-1" d="M914.91,44.51a2.75,2.75,0,1,1,2.94-2.74A2.85,2.85,0,0,1,914.91,44.51Zm0-3.48a.76.76,0,1,0,.94.74A.87.87,0,0,0,914.91,41Z"/><ellipse class="cls-1" cx="901.05" cy="40.36" rx="1.62" ry="1.87"/><path class="cls-1" d="M901.05,43.22a2.88,2.88,0,1,1,2.62-2.86A2.75,2.75,0,0,1,901.05,43.22Zm0-3.73c-.33,0-.62.41-.62.87s.28.86.62.86.62-.39.62-.86S901.38,39.49,901.05,39.49Z"/><rect class="cls-1" x="-1.5" y="5.37" width="935" height="2"/><rect class="cls-1" x="-1.5" y="5.87" width="935" height="1"/><rect class="cls-1" x="-2.5" y="4.87" width="937" height="3"/><rect class="cls-1" x="-1.5" y="52.37" width="936" height="2"/><rect class="cls-1" x="-1.5" y="52.87" width="936" height="1"/><rect class="cls-1" x="-2.5" y="51.87" width="938" height="3"/><path class="cls-1" d="M798.14,53c-1.06,0-2-.24-2.41-1.07C795,50.29,797,47.29,802,42.43,812.46,32.32,829.65,25.09,841.15,26c4.47.34,7.77,1.86,9.8,4.53h0a26,26,0,0,1,3.94,9.07c.68,2.87,1.7,7.19-.07,9.73-1.9,2.72-5.87,2.13-9.06,1.64l-.68-.1c-14.79-2.15-36.16.27-44.18,1.78A15.89,15.89,0,0,1,798.14,53Zm41.13-26.06c-11,0-27,7-36.57,16.26-6.19,6-6.31,7.8-6.07,8.31.4.86,3.1.35,4,.18l.1,0c8.08-1.51,29.59-3.95,44.51-1.78l.69.11c2.91.44,6.55,1,8.09-1.23s.55-6.23-.08-8.92a25.08,25.08,0,0,0-3.77-8.7c-1.85-2.43-4.9-3.83-9.08-4.14C840.49,26.91,839.89,26.89,839.27,26.89Z"/><path class="cls-1" d="M798.14,54c-1.69,0-2.81-.56-3.32-1.64-1-2.12.89-5.19,6.49-10.6C811.94,31.43,829.46,24.08,841.22,25c4.77.36,8.31,2,10.52,4.93a26.88,26.88,0,0,1,4.13,9.44c.71,3,1.79,7.63-.23,10.53-2.26,3.23-6.75,2.56-10,2.06l-.68-.1c-14.66-2.13-35.87.27-43.85,1.77A16.18,16.18,0,0,1,798.14,54Zm-.54-3a9.29,9.29,0,0,0,2.83-.26l.1,0c8.13-1.53,29.79-4,44.84-1.79l.68.11c2.65.4,5.94.89,7.12-.81s.33-5.76-.22-8.12a24.42,24.42,0,0,0-3.59-8.33c-1.68-2.19-4.49-3.45-8.36-3.75-.55,0-1.13-.06-1.73-.06-10.85,0-26.61,7-35.88,16C798.65,48.45,797.77,50.33,797.6,50.92Z"/><path class="cls-1" d="M796.76,49.85a.5.5,0,0,1-.49-.39c-.74-3.44-.57-5.63.52-6.69a3,3,0,0,1,2.28-.67,3.24,3.24,0,0,0,2.38-.68,7.89,7.89,0,0,0,1.79-2.93,15.13,15.13,0,0,0,.72-2,2.74,2.74,0,0,1,1-1.76,2,2,0,0,1,1.58-.22,11.06,11.06,0,0,0,1.79.14c1.52,0,2.26,0,2.8-.36a2.7,2.7,0,0,0,1-1.75,3.52,3.52,0,0,1,1.32-2.24c1.31-.91,3.28-.68,4.58-.53a5.83,5.83,0,0,1,.58.08c.45.07.52.07.64,0,.32-.2.41-.62.52-1.29a3.74,3.74,0,0,1,.94-2.2,3.38,3.38,0,0,1,3.2-.56,2.7,2.7,0,0,1,1.32.91c.22.25.33.36.57.41s.71-.15,1.89-1.09c.5-.39,1.13-.89,1.94-1.49,1.64-1.21,2.06-1.41,2.59-1.43a2.8,2.8,0,0,1,1.93.77,1.89,1.89,0,0,0,1.19.56c.57,0,.93-.28,1.44-.77a2.7,2.7,0,0,1,2-1,2.8,2.8,0,0,1,2,1.22,2.31,2.31,0,0,0,1.47,1,2.23,2.23,0,0,0,1.58-.62,2.52,2.52,0,0,1,1.91-.71c1.39.19,2.54,1.9,3.49,5.24a.49.49,0,0,1-.34.62.5.5,0,0,1-.62-.34c-1.08-3.77-2.13-4.46-2.67-4.53-.38-.06-.7.16-1.18.52a3.15,3.15,0,0,1-2.27.81,3.25,3.25,0,0,1-2.12-1.32c-.47-.54-.79-.87-1.32-.89s-.83.26-1.31.72a2.77,2.77,0,0,1-2.16,1.05,2.81,2.81,0,0,1-1.78-.78,1.71,1.71,0,0,0-1.27-.55c-.22,0-.5.1-2,1.24-.81.59-1.43,1.08-1.92,1.47-1.32,1-1.86,1.47-2.73,1.28a1.93,1.93,0,0,1-1.09-.73,1.88,1.88,0,0,0-.88-.62,2.4,2.4,0,0,0-2.2.33,2.84,2.84,0,0,0-.65,1.65,2.63,2.63,0,0,1-1,2,1.69,1.69,0,0,1-1.32.14l-.54-.07c-1.16-.13-2.9-.33-3.9.36a2.64,2.64,0,0,0-.93,1.68,3.56,3.56,0,0,1-1.39,2.32c-.79.53-1.73.53-3.36.53a12.46,12.46,0,0,1-1.93-.15c-.56-.07-.67-.08-.88.06s-.39.47-.6,1.21a16.5,16.5,0,0,1-.76,2.13,8.75,8.75,0,0,1-2.07,3.29,4.18,4.18,0,0,1-3,.92c-.75,0-1.2,0-1.58.39-.8.78-.89,2.77-.24,5.76a.51.51,0,0,1-.39.59Z"/><path class="cls-1" d="M796.76,50.85a1.52,1.52,0,0,1-1.47-1.18c-.83-3.86-.57-6.28.81-7.62a3.93,3.93,0,0,1,3-.95,2.24,2.24,0,0,0,1.73-.45,7.18,7.18,0,0,0,1.53-2.57A13.18,13.18,0,0,0,803,36.2a3.67,3.67,0,0,1,1.41-2.3,2.91,2.91,0,0,1,2.29-.39,9.87,9.87,0,0,0,1.64.13h0a5.61,5.61,0,0,0,2.22-.19c.29-.2.39-.48.58-1.18a4.51,4.51,0,0,1,1.72-2.81c1.62-1.12,3.81-.87,5.27-.7l.55.08c0-.16.07-.36.09-.48A4.64,4.64,0,0,1,820,25.62a4.36,4.36,0,0,1,4.19-.8A3.73,3.73,0,0,1,826,26l0,0c.26-.17.72-.53,1.08-.81s1.13-.9,2-1.51c1.63-1.21,2.28-1.59,3.14-1.63a3.85,3.85,0,0,1,2.59,1c.35.28.46.35.61.35s.25-.05.7-.49a3.62,3.62,0,0,1,2.76-1.28,3.76,3.76,0,0,1,2.76,1.56c.41.46.59.64.83.67s.4-.09.87-.44a3.49,3.49,0,0,1,2.64-.89c1.86.25,3.23,2.14,4.33,6a1.51,1.51,0,0,1-1,1.85,1.46,1.46,0,0,1-1.14-.12,1.52,1.52,0,0,1-.72-.91c-1-3.49-1.85-3.81-1.86-3.81l-.44.33a4.05,4.05,0,0,1-3,1,4.17,4.17,0,0,1-2.76-1.66c-.38-.42-.52-.55-.62-.55s-.45.33-.58.44a3.7,3.7,0,0,1-2.9,1.33,3.84,3.84,0,0,1-2.34-1c-.41-.32-.46-.35-.59-.34a13.15,13.15,0,0,0-1.51,1c-.78.57-1.38,1.05-1.85,1.42-1.43,1.13-2.27,1.79-3.6,1.5a2.81,2.81,0,0,1-1.63-1,.87.87,0,0,0-.44-.33c-.27-.08-.92-.17-1.2.1a2.35,2.35,0,0,0-.36,1.11,3.48,3.48,0,0,1-1.43,2.63,2.6,2.6,0,0,1-2,.29l-.51-.07c-.95-.11-2.53-.29-3.22.19-.26.18-.35.45-.53,1.12a4.54,4.54,0,0,1-1.8,2.89c-1,.7-2.18.7-3.9.7a13.76,13.76,0,0,1-2.07-.15l-.23,0c0,.13-.12.4-.17.57a16.74,16.74,0,0,1-.81,2.27A9.57,9.57,0,0,1,802.74,43a5.22,5.22,0,0,1-3.66,1.15c-.62,0-.81,0-.89.11s-.81.91,0,4.83a1.5,1.5,0,0,1-1.14,1.78Zm52.53-22.07Z"/><ellipse class="cls-1" cx="818.84" cy="39.36" rx="1.37" ry="1.58"/><path class="cls-1" d="M818.84,41.94a2.59,2.59,0,1,1,2.37-2.58A2.48,2.48,0,0,1,818.84,41.94Zm0-3.16c-.18,0-.37.25-.37.58s.19.58.37.58.37-.25.37-.58S819,38.78,818.84,38.78Z"/><path class="cls-1" d="M811.13,19.31h-.07a2.41,2.41,0,0,1-1.59-.68c-.6-.73,0-1.53.34-2,.7-.91,1.21-1.54,1.57-2,.51-.62.72-.88.69-1a8.51,8.51,0,0,0-2.36-1.62c-.57-.34-1-.58-1.4-.77-.79-.41-1.27-.66-1.41-1.23-.26-1.11,1.23-2,2.37-2.53a.5.5,0,1,1,.44.9c-1.92.93-1.84,1.39-1.83,1.4s.43.33.89.57.86.45,1.45.8c1.89,1.11,2.67,1.57,2.83,2.26s-.13.9-.89,1.83c-.36.44-.87,1.06-1.55,1.95-.15.2-.47.61-.37.72a1.7,1.7,0,0,0,1,.33.5.5,0,0,1-.06,1Z"/><path class="cls-1" d="M811.13,20.31l-.24,0a3.29,3.29,0,0,1-2.19-1c-1.11-1.33,0-2.74.32-3.2.7-.92,1.22-1.56,1.59-2,0-.05.09-.11.14-.17-.44-.28-1.06-.65-1.53-.92s-1-.56-1.36-.75c-.91-.47-1.69-.88-1.93-1.89-.48-2,2-3.21,2.91-3.66a1.5,1.5,0,0,1,2,.69,1.48,1.48,0,0,1,.07,1.15,1.51,1.51,0,0,1-.77.86q-.37.18-.63.33c.36.19.76.4,1.22.67,2.09,1.24,3,1.8,3.3,2.91s-.27,1.67-1.1,2.68c-.29.36-.68.84-1.19,1.49a1.6,1.6,0,0,1,.58.46,1.5,1.5,0,0,1-1.19,2.41Zm-.07-1Z"/><path class="cls-1" d="M817.56,19.33h-.08a2.38,2.38,0,0,1-1.57-.72c-.57-.74.08-1.53.43-1.95.74-.9,1.27-1.52,1.66-1.95.54-.62.75-.87.74-1a8.31,8.31,0,0,0-2.28-1.66c-.56-.35-1-.6-1.37-.79-.78-.43-1.25-.69-1.36-1.27-.21-1.11,1.31-1.94,2.48-2.48a.51.51,0,0,1,.66.25.52.52,0,0,1-.25.67c-2,.89-1.91,1.37-1.91,1.37s.43.34.87.58.83.46,1.41.82c1.84,1.15,2.61,1.63,2.73,2.33s-.17.89-1,1.81c-.38.43-.91,1-1.64,1.92-.13.16-.49.6-.41.71s.21.22.94.34a.5.5,0,0,1-.08,1Z"/><path class="cls-1" d="M817.56,20.33h-.22a3.36,3.36,0,0,1-2.22-1.1c-1-1.37.07-2.74.44-3.2.75-.91,1.3-1.53,1.69-2l.15-.17c-.42-.29-1-.66-1.47-.94s-1-.58-1.32-.77c-.86-.47-1.66-.91-1.86-1.95-.39-2,2.1-3.15,3-3.58A1.5,1.5,0,1,1,817,9.37c-.27.12-.49.23-.67.33.33.18.71.4,1.16.68,2.05,1.28,3,1.86,3.19,3S820.37,15,819.5,16c-.31.36-.73.83-1.26,1.48a1.5,1.5,0,0,1-.68,2.83ZM816.2,7.54h0Z"/><path class="cls-1" d="M824.24,19.33h-.08a2.36,2.36,0,0,1-1.57-.72c-.57-.74.08-1.53.42-1.95.74-.9,1.28-1.52,1.67-2,.53-.61.75-.86.73-1,0-.27-1.13-1-2.27-1.66-.56-.35-1-.6-1.37-.79-.78-.43-1.25-.69-1.36-1.27-.22-1.11,1.31-1.94,2.47-2.48a.51.51,0,0,1,.42.92c-2,.89-1.91,1.37-1.91,1.37s.43.34.86.58.84.46,1.42.82c1.84,1.15,2.6,1.63,2.73,2.33s-.17.89-1,1.8c-.38.44-.91,1-1.64,1.93-.14.16-.49.6-.41.71s.21.22.93.34a.5.5,0,0,1-.07,1Z"/><path class="cls-1" d="M824.24,20.33H824a3.31,3.31,0,0,1-2.21-1.1c-1.06-1.37.07-2.74.44-3.2.74-.9,1.28-1.51,1.67-2l.17-.19c-.43-.29-1-.66-1.47-.94s-1-.57-1.31-.76c-.87-.48-1.67-.92-1.87-2-.39-2,2.1-3.15,3-3.58a1.5,1.5,0,0,1,2,.75,1.48,1.48,0,0,1,0,1.15,1.53,1.53,0,0,1-.78.84c-.27.12-.5.23-.68.33.33.18.72.4,1.17.68,2,1.28,3,1.86,3.18,3s-.33,1.65-1.2,2.63c-.31.36-.72.83-1.26,1.48a1.5,1.5,0,0,1-.68,2.83ZM822.88,7.54h0Z"/><ellipse class="cls-1" cx="837.86" cy="33.07" rx="1.68" ry="1.42"/><path class="cls-1" d="M837.86,35.49a2.43,2.43,0,1,1,2.69-2.42A2.56,2.56,0,0,1,837.86,35.49Zm0-2.84c-.38,0-.68.23-.68.42s.3.42.68.42.69-.23.69-.42S838.25,32.65,837.86,32.65Z"/><ellipse class="cls-1" cx="843.91" cy="41.77" rx="1.94" ry="1.74"/><path class="cls-1" d="M843.91,44.51a2.75,2.75,0,1,1,2.94-2.74A2.85,2.85,0,0,1,843.91,44.51Zm0-3.48a.76.76,0,1,0,.94.74A.87.87,0,0,0,843.91,41Z"/><ellipse class="cls-1" cx="830.05" cy="40.36" rx="1.62" ry="1.87"/><path class="cls-1" d="M830.05,43.22a2.88,2.88,0,1,1,2.62-2.86A2.75,2.75,0,0,1,830.05,43.22Zm0-3.73c-.33,0-.62.41-.62.87s.28.86.62.86.62-.39.62-.86S830.38,39.49,830.05,39.49Z"/><path class="cls-1" d="M726.14,53c-1.06,0-2-.24-2.41-1.07C723,50.29,725,47.29,730,42.43,740.46,32.32,757.64,25.09,769.15,26c4.47.34,7.77,1.86,9.8,4.53h0a26,26,0,0,1,3.94,9.07c.68,2.87,1.7,7.19-.07,9.73-1.9,2.72-5.87,2.13-9.06,1.64l-.68-.1c-14.8-2.15-36.16.27-44.18,1.78A15.89,15.89,0,0,1,726.14,53Zm41.13-26.06c-11,0-27,7-36.57,16.26-6.19,6-6.31,7.8-6.07,8.31.4.86,3.1.35,4,.18l.1,0c8.08-1.51,29.59-3.95,44.51-1.78l.69.11c2.91.44,6.55,1,8.09-1.23s.55-6.23-.08-8.92a25.08,25.08,0,0,0-3.77-8.7c-1.85-2.43-4.9-3.83-9.08-4.14C768.49,26.91,767.89,26.89,767.27,26.89Z"/><path class="cls-1" d="M726.14,54c-1.69,0-2.81-.56-3.32-1.64-1-2.12.89-5.19,6.49-10.6C739.94,31.43,757.47,24.08,769.22,25c4.77.36,8.31,2,10.52,4.93a26.88,26.88,0,0,1,4.13,9.44c.71,3,1.79,7.63-.23,10.53-2.26,3.23-6.75,2.56-10,2.06l-.68-.1c-14.66-2.13-35.87.27-43.85,1.77A16.18,16.18,0,0,1,726.14,54Zm-.54-3a9.29,9.29,0,0,0,2.83-.26l.1,0c8.13-1.53,29.79-4,44.84-1.79l.68.11c2.65.4,5.94.89,7.12-.81s.33-5.76-.22-8.12a24.42,24.42,0,0,0-3.59-8.33c-1.68-2.19-4.49-3.45-8.36-3.75-.55,0-1.13-.06-1.73-.06-10.85,0-26.61,7-35.88,16C726.65,48.45,725.77,50.33,725.6,50.92Z"/><path class="cls-1" d="M724.76,49.85a.5.5,0,0,1-.49-.39c-.74-3.44-.57-5.63.52-6.69a3,3,0,0,1,2.28-.67,3.24,3.24,0,0,0,2.38-.68,7.89,7.89,0,0,0,1.79-2.93,15.13,15.13,0,0,0,.72-2,2.74,2.74,0,0,1,1-1.76,2,2,0,0,1,1.58-.22,11.06,11.06,0,0,0,1.79.14c1.52,0,2.26,0,2.8-.36a2.7,2.7,0,0,0,1-1.75,3.52,3.52,0,0,1,1.32-2.24c1.31-.91,3.28-.68,4.58-.53a5.83,5.83,0,0,1,.58.08c.45.07.52.07.64,0,.32-.2.41-.62.52-1.29a3.74,3.74,0,0,1,.94-2.2,3.38,3.38,0,0,1,3.2-.56,2.7,2.7,0,0,1,1.32.91c.22.25.33.36.57.41s.71-.15,1.89-1.09c.5-.39,1.13-.89,1.94-1.49,1.64-1.21,2.06-1.41,2.59-1.43a2.78,2.78,0,0,1,1.93.77,1.89,1.89,0,0,0,1.19.56c.57,0,.93-.28,1.44-.77a2.7,2.7,0,0,1,2-1,2.8,2.8,0,0,1,2,1.22,2.31,2.31,0,0,0,1.47,1,2.21,2.21,0,0,0,1.58-.62,2.52,2.52,0,0,1,1.91-.71c1.39.19,2.54,1.9,3.49,5.24a.49.49,0,0,1-.34.62.5.5,0,0,1-.62-.34c-1.08-3.77-2.13-4.46-2.67-4.53-.38-.06-.7.16-1.18.52a3.15,3.15,0,0,1-2.27.81,3.25,3.25,0,0,1-2.12-1.32c-.47-.54-.79-.87-1.32-.89s-.83.26-1.31.72a2.77,2.77,0,0,1-2.16,1.05,2.81,2.81,0,0,1-1.78-.78,1.71,1.71,0,0,0-1.27-.55c-.22,0-.5.1-2,1.24-.81.59-1.43,1.08-1.92,1.47-1.32,1-1.86,1.47-2.73,1.28a1.93,1.93,0,0,1-1.09-.73,1.88,1.88,0,0,0-.88-.62,2.4,2.4,0,0,0-2.2.33,2.84,2.84,0,0,0-.65,1.65,2.63,2.63,0,0,1-1,2,1.69,1.69,0,0,1-1.32.14l-.54-.07c-1.15-.13-2.9-.33-3.9.36a2.64,2.64,0,0,0-.93,1.68,3.56,3.56,0,0,1-1.39,2.32c-.79.53-1.73.53-3.36.53a12.46,12.46,0,0,1-1.93-.15c-.56-.07-.67-.08-.88.06s-.39.47-.6,1.21a16.5,16.5,0,0,1-.76,2.13,8.75,8.75,0,0,1-2.07,3.29,4.18,4.18,0,0,1-3,.92c-.75,0-1.2,0-1.58.39-.8.78-.89,2.77-.24,5.76a.51.51,0,0,1-.39.59Z"/><path class="cls-1" d="M724.76,50.85a1.52,1.52,0,0,1-1.47-1.18c-.83-3.86-.57-6.28.81-7.62a3.93,3.93,0,0,1,3-.95,2.24,2.24,0,0,0,1.73-.45,7.18,7.18,0,0,0,1.53-2.57A13.18,13.18,0,0,0,731,36.2a3.67,3.67,0,0,1,1.41-2.3,2.91,2.91,0,0,1,2.29-.39,9.87,9.87,0,0,0,1.64.13,6.33,6.33,0,0,0,2.24-.19c.29-.2.39-.48.58-1.18a4.51,4.51,0,0,1,1.72-2.81c1.62-1.11,3.81-.86,5.27-.7l.55.08c0-.16.07-.36.09-.48A4.64,4.64,0,0,1,748,25.62a4.36,4.36,0,0,1,4.19-.8A3.73,3.73,0,0,1,754,26l0,0c.26-.17.72-.53,1.08-.81s1.13-.9,2-1.51c1.63-1.21,2.28-1.59,3.14-1.63a3.92,3.92,0,0,1,2.59,1c.35.28.46.35.61.35s.26-.06.7-.49a3.4,3.4,0,0,1,5.52.28c.41.46.59.64.83.67s.4-.09.87-.44a3.53,3.53,0,0,1,2.64-.89c1.86.25,3.23,2.14,4.33,6a1.51,1.51,0,0,1-1,1.85,1.46,1.46,0,0,1-1.14-.12,1.52,1.52,0,0,1-.72-.91c-1-3.49-1.85-3.81-1.86-3.81l-.44.33a4.07,4.07,0,0,1-3,1,4.17,4.17,0,0,1-2.76-1.66c-.38-.42-.52-.55-.62-.55a2.28,2.28,0,0,0-.58.44,3.75,3.75,0,0,1-2.9,1.33,3.84,3.84,0,0,1-2.34-1c-.41-.32-.46-.35-.59-.34a13.15,13.15,0,0,0-1.51,1c-.78.57-1.38,1.05-1.85,1.42-1.43,1.13-2.27,1.79-3.6,1.5a2.81,2.81,0,0,1-1.63-1,.87.87,0,0,0-.44-.33c-.27-.08-.92-.17-1.2.1a2.35,2.35,0,0,0-.36,1.11,3.48,3.48,0,0,1-1.43,2.63,2.6,2.6,0,0,1-2,.29l-.51-.07c-.95-.11-2.53-.29-3.22.19-.26.18-.35.45-.53,1.12a4.54,4.54,0,0,1-1.8,2.89c-1,.7-2.18.7-3.9.7a13.76,13.76,0,0,1-2.07-.15l-.23,0c0,.14-.12.41-.17.58a16.74,16.74,0,0,1-.81,2.27A9.57,9.57,0,0,1,730.74,43a5.22,5.22,0,0,1-3.66,1.15c-.62,0-.81,0-.89.11s-.81.91,0,4.83a1.5,1.5,0,0,1-1.14,1.78Zm52.53-22.07Z"/><ellipse class="cls-1" cx="746.84" cy="39.36" rx="1.37" ry="1.58"/><path class="cls-1" d="M746.84,41.94a2.59,2.59,0,1,1,2.37-2.58A2.48,2.48,0,0,1,746.84,41.94Zm0-3.16c-.18,0-.37.25-.37.58s.19.58.37.58.37-.25.37-.58S747,38.78,746.84,38.78Z"/><path class="cls-1" d="M739.13,19.31h-.07a2.41,2.41,0,0,1-1.59-.68c-.6-.73,0-1.53.34-2,.7-.91,1.21-1.54,1.57-2,.51-.62.72-.88.69-1a8.51,8.51,0,0,0-2.36-1.62c-.57-.34-1-.58-1.4-.77-.79-.41-1.27-.66-1.41-1.23-.26-1.11,1.23-2,2.37-2.53a.5.5,0,1,1,.44.9c-1.92.93-1.84,1.39-1.83,1.4s.43.33.89.57.86.45,1.45.8c1.89,1.11,2.67,1.57,2.83,2.26s-.13.9-.89,1.83c-.36.44-.87,1.06-1.55,1.95-.15.2-.47.61-.37.72a1.7,1.7,0,0,0,1,.33.5.5,0,0,1-.06,1Z"/><path class="cls-1" d="M739.13,20.31l-.24,0a3.29,3.29,0,0,1-2.19-1c-1.11-1.33,0-2.74.32-3.2.7-.92,1.22-1.56,1.59-2,0-.05.09-.11.14-.17-.44-.28-1.06-.65-1.53-.92s-1-.56-1.36-.75c-.91-.47-1.69-.88-1.93-1.89-.48-2,2-3.21,2.91-3.66a1.5,1.5,0,0,1,2,.69,1.48,1.48,0,0,1,.07,1.15,1.51,1.51,0,0,1-.77.86q-.37.18-.63.33c.36.19.76.4,1.22.67,2.09,1.24,3,1.8,3.3,2.91s-.27,1.67-1.1,2.68c-.29.36-.68.84-1.19,1.49a1.6,1.6,0,0,1,.58.46,1.5,1.5,0,0,1-1.19,2.41Zm-.07-1Z"/><path class="cls-1" d="M745.56,19.33h-.08a2.38,2.38,0,0,1-1.57-.72c-.57-.74.08-1.53.43-1.95.74-.9,1.27-1.52,1.66-1.95.54-.62.75-.87.74-1a8.31,8.31,0,0,0-2.28-1.66c-.56-.35-1-.6-1.37-.79-.78-.43-1.25-.69-1.36-1.27-.21-1.11,1.31-1.94,2.48-2.48a.51.51,0,0,1,.66.25.52.52,0,0,1-.25.67c-2,.89-1.91,1.37-1.91,1.37s.43.34.87.58.83.46,1.41.82c1.84,1.15,2.61,1.63,2.73,2.33s-.17.89-1,1.81c-.38.43-.91,1-1.64,1.92-.13.16-.49.6-.41.71s.21.22.94.34a.5.5,0,0,1-.08,1Z"/><path class="cls-1" d="M745.56,20.33h-.22a3.36,3.36,0,0,1-2.22-1.1c-1-1.37.07-2.74.44-3.2.75-.91,1.3-1.53,1.69-2l.15-.17c-.42-.29-1-.66-1.47-.94s-1-.58-1.32-.77c-.86-.47-1.66-.91-1.86-1.95-.39-2,2.1-3.15,3-3.58A1.5,1.5,0,1,1,745,9.37c-.27.12-.49.23-.67.33.33.18.71.4,1.16.68,2.05,1.28,3,1.86,3.19,3S748.37,15,747.5,16c-.31.36-.73.83-1.26,1.48a1.5,1.5,0,0,1-.68,2.83ZM744.2,7.54h0Z"/><path class="cls-1" d="M752.24,19.33h-.08a2.36,2.36,0,0,1-1.57-.72c-.57-.74.08-1.53.42-1.95.74-.9,1.28-1.52,1.67-2,.53-.61.75-.86.73-1,0-.27-1.13-1-2.27-1.66-.56-.35-1-.6-1.37-.79-.78-.43-1.25-.69-1.36-1.27-.22-1.11,1.31-1.94,2.47-2.48a.51.51,0,0,1,.42.92c-2,.89-1.91,1.37-1.91,1.37s.43.34.86.58.84.46,1.42.82c1.84,1.15,2.6,1.63,2.73,2.33s-.17.89-1,1.8c-.38.44-.91,1-1.64,1.93-.14.16-.49.6-.41.71s.21.22.93.34a.5.5,0,0,1-.07,1Z"/><path class="cls-1" d="M752.24,20.33H752a3.31,3.31,0,0,1-2.21-1.1c-1.06-1.37.07-2.74.44-3.2.74-.9,1.28-1.51,1.67-2l.17-.19c-.43-.29-1-.66-1.47-.94s-1-.57-1.31-.76c-.87-.48-1.67-.92-1.87-2-.39-2,2.1-3.15,3-3.58a1.51,1.51,0,0,1,2,.75,1.48,1.48,0,0,1,0,1.15,1.53,1.53,0,0,1-.78.84c-.27.12-.5.23-.68.33.33.18.72.4,1.17.68,2,1.28,3,1.86,3.18,3s-.33,1.65-1.2,2.63c-.31.36-.72.83-1.26,1.48a1.5,1.5,0,0,1-.68,2.83ZM750.88,7.54h0Z"/><ellipse class="cls-1" cx="767.86" cy="32.07" rx="1.68" ry="1.42"/><path class="cls-1" d="M767.86,34.49a2.43,2.43,0,1,1,2.69-2.42A2.56,2.56,0,0,1,767.86,34.49Zm0-2.84c-.38,0-.68.23-.68.42s.3.42.68.42.69-.23.69-.42S768.25,31.65,767.86,31.65Z"/><ellipse class="cls-1" cx="773.91" cy="40.77" rx="1.94" ry="1.74"/><path class="cls-1" d="M773.91,43.51a2.75,2.75,0,1,1,2.94-2.74A2.85,2.85,0,0,1,773.91,43.51Zm0-3.48a.76.76,0,1,0,.94.74A.87.87,0,0,0,773.91,40Z"/><ellipse class="cls-1" cx="760.05" cy="39.36" rx="1.62" ry="1.87"/><path class="cls-1" d="M760.05,42.22a2.88,2.88,0,1,1,2.62-2.86A2.75,2.75,0,0,1,760.05,42.22Zm0-3.73c-.33,0-.62.41-.62.87s.28.86.62.86.62-.39.62-.86S760.38,38.49,760.05,38.49Z"/><path class="cls-1" d="M655.14,54c-1.06,0-2-.24-2.41-1.07C652,51.29,654,48.29,659,43.43,669.46,33.32,686.65,26.08,698.15,27c4.47.34,7.77,1.86,9.8,4.53h0a26,26,0,0,1,3.94,9.07c.68,2.87,1.7,7.19-.07,9.73-1.9,2.72-5.87,2.13-9.06,1.64l-.68-.1c-14.8-2.15-36.16.27-44.18,1.78A15.89,15.89,0,0,1,655.14,54Zm41.13-26.06c-11,0-27,7-36.57,16.26-6.19,6-6.31,7.8-6.07,8.31.4.86,3.1.35,4,.18l.1,0c8.08-1.51,29.59-3.95,44.51-1.78l.69.11c2.91.44,6.55,1,8.09-1.23s.55-6.23-.08-8.92a25.08,25.08,0,0,0-3.77-8.7c-1.85-2.43-4.9-3.83-9.08-4.14C697.49,27.91,696.89,27.89,696.27,27.89Z"/><path class="cls-1" d="M655.14,55c-1.69,0-2.81-.56-3.32-1.64-1-2.12.89-5.19,6.49-10.6C668.94,32.42,686.48,25.06,698.22,26c4.77.36,8.31,2,10.52,4.93a26.88,26.88,0,0,1,4.13,9.44c.71,3,1.79,7.63-.23,10.53-2.26,3.23-6.75,2.56-10,2.06l-.68-.1c-14.66-2.13-35.87.27-43.85,1.77A16.18,16.18,0,0,1,655.14,55Zm-.54-3a9.29,9.29,0,0,0,2.83-.26l.1,0c8.13-1.53,29.79-4,44.84-1.79l.68.11c2.65.4,5.94.89,7.12-.81s.33-5.76-.22-8.12a24.42,24.42,0,0,0-3.59-8.33c-1.68-2.19-4.49-3.45-8.36-3.75-.55,0-1.13-.06-1.73-.06-10.85,0-26.61,7-35.88,16C655.65,49.45,654.77,51.33,654.6,51.92Z"/><path class="cls-1" d="M653.76,50.85a.5.5,0,0,1-.49-.39c-.74-3.44-.57-5.63.52-6.69a3,3,0,0,1,2.28-.67,3.24,3.24,0,0,0,2.38-.68,7.89,7.89,0,0,0,1.79-2.93,15.13,15.13,0,0,0,.72-2,2.74,2.74,0,0,1,1-1.76,2,2,0,0,1,1.58-.22,11.06,11.06,0,0,0,1.79.14c1.52,0,2.26,0,2.8-.36a2.7,2.7,0,0,0,1-1.75,3.52,3.52,0,0,1,1.32-2.24c1.31-.91,3.28-.68,4.58-.53a5.83,5.83,0,0,1,.58.08c.45.07.52.07.64,0,.32-.2.41-.62.52-1.29a3.74,3.74,0,0,1,.94-2.2,3.38,3.38,0,0,1,3.2-.56,2.7,2.7,0,0,1,1.32.91c.22.25.33.36.57.41s.71-.15,1.89-1.09c.5-.39,1.13-.89,1.94-1.49,1.64-1.21,2.06-1.41,2.59-1.43a2.78,2.78,0,0,1,1.93.77,1.89,1.89,0,0,0,1.19.56c.57,0,.93-.28,1.44-.77a2.7,2.7,0,0,1,2-1,2.8,2.8,0,0,1,2,1.22,2.31,2.31,0,0,0,1.47,1,2.17,2.17,0,0,0,1.58-.62,2.52,2.52,0,0,1,1.91-.71c1.39.19,2.54,1.9,3.49,5.24a.49.49,0,0,1-.34.62.5.5,0,0,1-.62-.34c-1.08-3.77-2.13-4.46-2.67-4.53-.39-.06-.7.16-1.18.52a3.11,3.11,0,0,1-2.27.81,3.25,3.25,0,0,1-2.12-1.32c-.47-.54-.79-.87-1.32-.89s-.83.26-1.31.72a2.59,2.59,0,0,1-3.94.27,1.71,1.71,0,0,0-1.27-.55c-.22,0-.5.1-2,1.24-.81.59-1.43,1.08-1.92,1.47-1.32,1-1.86,1.47-2.73,1.28a1.93,1.93,0,0,1-1.09-.73,1.88,1.88,0,0,0-.88-.62,2.4,2.4,0,0,0-2.2.33,2.84,2.84,0,0,0-.65,1.65,2.63,2.63,0,0,1-1,2,1.69,1.69,0,0,1-1.32.14l-.54-.07c-1.15-.13-2.9-.33-3.9.36a2.64,2.64,0,0,0-.93,1.68,3.56,3.56,0,0,1-1.39,2.32c-.79.53-1.73.53-3.36.53a12.46,12.46,0,0,1-1.93-.15c-.56-.08-.67-.08-.88.06s-.39.47-.6,1.21a16.5,16.5,0,0,1-.76,2.13,8.75,8.75,0,0,1-2.07,3.29,4.18,4.18,0,0,1-3,.92c-.75,0-1.2,0-1.58.39-.8.78-.89,2.77-.24,5.76a.51.51,0,0,1-.39.59Z"/><path class="cls-1" d="M653.76,51.85a1.52,1.52,0,0,1-1.47-1.18c-.83-3.86-.57-6.28.81-7.62a3.93,3.93,0,0,1,3-.95,2.24,2.24,0,0,0,1.73-.45,7.18,7.18,0,0,0,1.53-2.57A13.18,13.18,0,0,0,660,37.2a3.67,3.67,0,0,1,1.41-2.3,2.89,2.89,0,0,1,2.28-.39,10.12,10.12,0,0,0,1.65.13,5.71,5.71,0,0,0,2.24-.19c.29-.2.39-.48.58-1.18a4.51,4.51,0,0,1,1.72-2.81c1.62-1.11,3.81-.87,5.27-.7l.55.08c0-.16.07-.36.09-.48A4.64,4.64,0,0,1,677,26.62a4.36,4.36,0,0,1,4.19-.8A3.73,3.73,0,0,1,683,27l0,0c.25-.16.7-.52,1.08-.81s1.13-.9,2-1.51c1.63-1.21,2.28-1.59,3.14-1.63a3.68,3.68,0,0,1,2.59,1c.35.28.46.35.61.35s.29-.09.7-.49a3.4,3.4,0,0,1,5.52.28c.41.46.59.64.83.67s.37-.07.85-.43a3.52,3.52,0,0,1,2.66-.9c1.86.25,3.23,2.14,4.33,6a1.51,1.51,0,0,1-1,1.85,1.46,1.46,0,0,1-1.14-.12,1.52,1.52,0,0,1-.72-.91c-1-3.49-1.85-3.81-1.86-3.81s-.26.2-.44.34a4.11,4.11,0,0,1-3,1,4.17,4.17,0,0,1-2.76-1.66c-.38-.42-.52-.55-.62-.55a2.4,2.4,0,0,0-.58.44,3.56,3.56,0,0,1-5.24.34c-.41-.32-.47-.35-.58-.34a11.37,11.37,0,0,0-1.52,1c-.78.57-1.38,1.05-1.85,1.42-1.44,1.14-2.28,1.79-3.61,1.5a2.82,2.82,0,0,1-1.62-1,.87.87,0,0,0-.44-.33c-.26-.08-.92-.17-1.2.1a2.35,2.35,0,0,0-.36,1.11,3.48,3.48,0,0,1-1.43,2.63,2.6,2.6,0,0,1-2,.29l-.51-.07c-.89-.1-2.53-.29-3.22.19-.26.18-.35.45-.53,1.12a4.54,4.54,0,0,1-1.8,2.89c-1,.7-2.2.7-3.92.7a13.67,13.67,0,0,1-2.05-.15l-.23,0c0,.14-.12.41-.17.58a16.74,16.74,0,0,1-.81,2.27A9.57,9.57,0,0,1,659.74,44a5.22,5.22,0,0,1-3.66,1.15c-.62,0-.81,0-.89.11s-.81.91,0,4.83a1.5,1.5,0,0,1-1.14,1.78Zm52.53-22.07Z"/><ellipse class="cls-1" cx="675.84" cy="40.36" rx="1.37" ry="1.58"/><path class="cls-1" d="M675.84,42.94a2.59,2.59,0,1,1,2.37-2.58A2.48,2.48,0,0,1,675.84,42.94Zm0-3.16c-.18,0-.37.25-.37.58s.19.58.37.58.37-.25.37-.58S676,39.78,675.84,39.78Z"/><path class="cls-1" d="M668.13,20.31h-.07a2.41,2.41,0,0,1-1.59-.68c-.6-.73,0-1.53.34-2,.7-.91,1.21-1.54,1.57-2,.51-.62.72-.88.69-1a8.51,8.51,0,0,0-2.36-1.62c-.57-.34-1-.58-1.4-.77-.79-.41-1.27-.66-1.41-1.23-.26-1.11,1.23-2,2.37-2.53a.5.5,0,0,1,.44.9c-1.92.93-1.84,1.39-1.83,1.4s.43.33.89.57.86.45,1.45.8c1.89,1.11,2.67,1.57,2.83,2.26s-.13.9-.89,1.83c-.36.44-.87,1.06-1.55,1.95-.15.2-.47.61-.37.72a1.7,1.7,0,0,0,1,.33.5.5,0,0,1-.06,1Z"/><path class="cls-1" d="M668.13,21.31l-.24,0a3.29,3.29,0,0,1-2.19-1c-1.11-1.33,0-2.74.32-3.2.7-.92,1.22-1.56,1.59-2,0-.05.09-.11.14-.17-.44-.28-1.06-.65-1.53-.92s-1-.56-1.36-.75c-.91-.47-1.69-.88-1.93-1.89-.48-2,2-3.21,2.91-3.66a1.5,1.5,0,0,1,2,.69,1.48,1.48,0,0,1,.07,1.15,1.51,1.51,0,0,1-.77.86q-.37.18-.63.33c.36.19.76.4,1.22.67,2.09,1.24,3,1.8,3.3,2.91s-.27,1.67-1.1,2.68c-.29.36-.68.84-1.19,1.49a1.6,1.6,0,0,1,.58.46,1.5,1.5,0,0,1-1.19,2.41Zm-.07-1Z"/><path class="cls-1" d="M674.56,20.33h-.08a2.38,2.38,0,0,1-1.57-.72c-.57-.74.08-1.53.43-1.95.74-.9,1.27-1.52,1.66-1.95.54-.62.75-.87.74-1a8.31,8.31,0,0,0-2.28-1.66c-.56-.35-1-.6-1.37-.79-.78-.43-1.25-.69-1.36-1.27-.21-1.11,1.31-1.94,2.48-2.48a.51.51,0,0,1,.66.25.52.52,0,0,1-.25.67c-2,.89-1.91,1.37-1.91,1.37s.43.34.87.58.83.46,1.41.82c1.84,1.15,2.61,1.63,2.73,2.33s-.17.89-1,1.81c-.38.43-.91,1-1.64,1.92-.13.16-.49.6-.41.71s.21.22.94.34a.5.5,0,0,1-.08,1Z"/><path class="cls-1" d="M674.56,21.33h-.22a3.36,3.36,0,0,1-2.22-1.1c-1-1.37.07-2.74.44-3.2.75-.91,1.3-1.53,1.69-2l.15-.17c-.42-.29-1-.66-1.47-.94s-1-.58-1.32-.77c-.86-.47-1.66-.91-1.86-1.95-.39-2,2.1-3.15,3-3.58A1.5,1.5,0,1,1,674,10.37c-.27.12-.49.23-.67.33.33.18.71.4,1.16.68,2.05,1.28,3,1.86,3.19,3S677.37,16,676.5,17c-.31.36-.73.83-1.26,1.48a1.5,1.5,0,0,1-.68,2.83ZM673.2,8.54h0Z"/><path class="cls-1" d="M681.24,20.33h-.08a2.36,2.36,0,0,1-1.57-.72c-.57-.74.08-1.53.42-1.95.74-.9,1.28-1.52,1.67-2,.53-.61.75-.86.73-1,0-.27-1.13-1-2.27-1.66-.56-.35-1-.6-1.37-.79-.78-.43-1.25-.69-1.36-1.27-.22-1.11,1.31-1.94,2.47-2.48a.51.51,0,0,1,.42.92c-2,.89-1.91,1.37-1.91,1.37s.43.34.86.58.84.46,1.42.82c1.84,1.15,2.6,1.63,2.73,2.33s-.17.89-1,1.8c-.38.44-.91,1-1.64,1.93-.14.16-.49.6-.41.71s.21.22.93.34a.5.5,0,0,1-.07,1Z"/><path class="cls-1" d="M681.24,21.33H681a3.31,3.31,0,0,1-2.21-1.1c-1.06-1.37.07-2.74.44-3.2.74-.9,1.28-1.51,1.67-2l.17-.19c-.43-.29-1-.66-1.47-.94s-1-.57-1.31-.76c-.87-.48-1.67-.92-1.87-2-.39-2,2.1-3.15,3-3.58a1.5,1.5,0,0,1,1.24,2.74c-.27.12-.5.23-.68.33.33.18.72.4,1.17.68,2,1.28,3,1.86,3.18,3s-.33,1.65-1.2,2.63c-.31.36-.72.83-1.26,1.48a1.5,1.5,0,0,1-.68,2.83ZM679.88,8.54h0Z"/><ellipse class="cls-1" cx="694.86" cy="34.07" rx="1.68" ry="1.42"/><path class="cls-1" d="M694.86,36.49a2.43,2.43,0,1,1,2.69-2.42A2.56,2.56,0,0,1,694.86,36.49Zm0-2.84c-.38,0-.68.23-.68.42s.3.42.68.42.69-.23.69-.42S695.25,33.65,694.86,33.65Z"/><ellipse class="cls-1" cx="700.91" cy="42.77" rx="1.94" ry="1.74"/><path class="cls-1" d="M700.91,45.51a2.75,2.75,0,1,1,2.94-2.74A2.85,2.85,0,0,1,700.91,45.51Zm0-3.48a.76.76,0,1,0,.94.74A.87.87,0,0,0,700.91,42Z"/><ellipse class="cls-1" cx="687.05" cy="41.36" rx="1.62" ry="1.87"/><path class="cls-1" d="M687.05,44.22a2.88,2.88,0,1,1,2.62-2.86A2.75,2.75,0,0,1,687.05,44.22Zm0-3.73c-.33,0-.62.41-.62.87s.28.86.62.86.62-.39.62-.86S687.38,40.49,687.05,40.49Z"/><path class="cls-1" d="M579.14,53c-1,0-2-.24-2.41-1.07C576,50.29,578,47.29,583,42.43,593.45,32.32,610.65,25.08,622.15,26c4.47.34,7.77,1.86,9.8,4.53h0a26,26,0,0,1,3.94,9.07c.68,2.87,1.7,7.19-.07,9.73-1.9,2.72-5.87,2.13-9.06,1.64l-.68-.1c-14.79-2.15-36.16.27-44.18,1.78h-.1A14.3,14.3,0,0,1,579.14,53Zm41.13-26.06c-11,0-27,7-36.57,16.26-6.19,6-6.3,7.8-6.07,8.31.4.86,3.1.35,4,.18l.1,0c8.08-1.51,29.59-3.95,44.51-1.78l.69.11c2.91.44,6.55,1,8.09-1.23s.55-6.23-.08-8.92a25.08,25.08,0,0,0-3.77-8.7c-1.85-2.43-4.9-3.83-9.08-4.14C621.49,26.91,620.89,26.89,620.27,26.89Z"/><path class="cls-1" d="M579.14,54c-1.69,0-2.81-.55-3.32-1.64-1-2.12.89-5.19,6.48-10.6C592.94,31.43,610.48,24.08,622.22,25c4.77.36,8.31,2,10.52,4.93a26.88,26.88,0,0,1,4.13,9.44c.71,3,1.79,7.63-.23,10.53-2.26,3.23-6.75,2.56-10,2.06l-.68-.1c-14.66-2.13-35.87.27-43.85,1.77l-.1,0A15.9,15.9,0,0,1,579.14,54Zm-.54-3a9.28,9.28,0,0,0,2.83-.26l.1,0c8.14-1.52,29.8-4,44.84-1.79l.68.11c2.65.4,5.94.89,7.12-.81s.33-5.76-.22-8.12a24.42,24.42,0,0,0-3.59-8.33c-1.68-2.19-4.49-3.45-8.36-3.75-.55,0-1.13-.06-1.73-.06-10.85,0-26.61,7-35.88,16C579.65,48.45,578.77,50.33,578.6,50.92Z"/><path class="cls-1" d="M577.76,49.85a.5.5,0,0,1-.49-.39c-.74-3.44-.57-5.63.53-6.69a3,3,0,0,1,2.27-.67,3.24,3.24,0,0,0,2.38-.68,7.89,7.89,0,0,0,1.79-2.93,15.13,15.13,0,0,0,.72-2,2.69,2.69,0,0,1,1-1.75,2,2,0,0,1,1.58-.23,11.06,11.06,0,0,0,1.79.14c1.5,0,2.26,0,2.8-.36a2.7,2.7,0,0,0,1-1.75,3.52,3.52,0,0,1,1.32-2.24c1.31-.91,3.28-.68,4.58-.53a5.83,5.83,0,0,1,.58.08c.45.07.52.07.64,0,.32-.2.41-.62.53-1.29a3.67,3.67,0,0,1,.93-2.2,3.38,3.38,0,0,1,3.2-.56,2.7,2.7,0,0,1,1.32.91c.22.25.33.36.57.41s.71-.16,1.89-1.09c.5-.39,1.13-.89,1.94-1.49,1.64-1.21,2.06-1.41,2.59-1.43a2.76,2.76,0,0,1,1.93.77,1.89,1.89,0,0,0,1.19.56c.57,0,.93-.28,1.44-.77a2.69,2.69,0,0,1,2-1,2.8,2.8,0,0,1,2,1.22,2.31,2.31,0,0,0,1.47,1,2.23,2.23,0,0,0,1.58-.62,2.52,2.52,0,0,1,1.91-.71c1.39.19,2.54,1.9,3.49,5.24a.49.49,0,0,1-.34.62.5.5,0,0,1-.62-.34c-1.08-3.77-2.13-4.46-2.67-4.53-.38-.06-.7.16-1.18.52a3.15,3.15,0,0,1-2.27.81,3.25,3.25,0,0,1-2.12-1.32c-.47-.54-.79-.87-1.32-.89s-.83.26-1.31.72a2.77,2.77,0,0,1-2.16,1.05,2.81,2.81,0,0,1-1.78-.78,1.7,1.7,0,0,0-1.26-.55c-.23,0-.51.1-2,1.24-.81.59-1.43,1.08-1.92,1.46-1.32,1.05-1.86,1.47-2.73,1.29a1.93,1.93,0,0,1-1.09-.73,1.83,1.83,0,0,0-.88-.62,2.4,2.4,0,0,0-2.2.33,2.84,2.84,0,0,0-.65,1.65,2.63,2.63,0,0,1-1,2,1.69,1.69,0,0,1-1.32.14l-.54-.07c-1.16-.13-2.9-.33-3.9.36a2.64,2.64,0,0,0-.93,1.68,3.56,3.56,0,0,1-1.39,2.32c-.79.53-1.69.52-3.36.53a12.46,12.46,0,0,1-1.93-.15c-.56-.08-.67-.08-.88.06s-.39.47-.6,1.21a16.5,16.5,0,0,1-.76,2.13,8.75,8.75,0,0,1-2.07,3.29,4.16,4.16,0,0,1-3,.92c-.75,0-1.2,0-1.58.39-.8.78-.89,2.77-.24,5.76a.51.51,0,0,1-.39.59Z"/><path class="cls-1" d="M577.76,50.85a1.51,1.51,0,0,1-1.47-1.18c-.83-3.86-.57-6.28.81-7.62a3.93,3.93,0,0,1,3-.95,2.24,2.24,0,0,0,1.73-.45,7.18,7.18,0,0,0,1.53-2.57A13.18,13.18,0,0,0,584,36.2a3.67,3.67,0,0,1,1.41-2.3,2.91,2.91,0,0,1,2.29-.39,9.87,9.87,0,0,0,1.64.13,6.05,6.05,0,0,0,2.25-.19c.28-.2.38-.48.57-1.18a4.51,4.51,0,0,1,1.72-2.81c1.62-1.11,3.81-.87,5.26-.7l.56.08c0-.16.07-.36.09-.48A4.64,4.64,0,0,1,601,25.62a4.3,4.3,0,0,1,4.19-.79A3.66,3.66,0,0,1,607,26l0,0c.25-.16.7-.52,1.08-.81s1.13-.9,2-1.51c1.63-1.21,2.28-1.59,3.14-1.63a3.69,3.69,0,0,1,2.59,1c.35.28.46.35.61.35s.26-.06.7-.49a3.6,3.6,0,0,1,2.76-1.28,3.76,3.76,0,0,1,2.76,1.56c.41.46.59.64.83.67s.4-.09.87-.44a3.49,3.49,0,0,1,2.64-.89c1.86.25,3.23,2.14,4.33,6a1.51,1.51,0,0,1-1,1.85,1.47,1.47,0,0,1-1.14-.12,1.52,1.52,0,0,1-.72-.91c-1-3.49-1.85-3.81-1.86-3.81l-.44.33a4.05,4.05,0,0,1-3,1,4.17,4.17,0,0,1-2.76-1.66c-.38-.42-.52-.55-.62-.55s-.41.28-.58.44a3.75,3.75,0,0,1-2.9,1.33,3.84,3.84,0,0,1-2.34-1c-.41-.32-.47-.35-.59-.34a13.15,13.15,0,0,0-1.51,1c-.76.56-1.35,1-1.83,1.4-1.45,1.15-2.29,1.81-3.62,1.52a2.83,2.83,0,0,1-1.63-1c-.2-.22-.24-.27-.44-.34s-.92-.17-1.2.1a2.34,2.34,0,0,0-.36,1.1,3.48,3.48,0,0,1-1.43,2.64,2.6,2.6,0,0,1-2,.29l-.51-.07c-.95-.11-2.53-.29-3.22.19-.26.18-.35.45-.53,1.12a4.54,4.54,0,0,1-1.8,2.89c-1,.69-2.13.69-3.81.7h-.11a13.67,13.67,0,0,1-2.05-.15l-.22,0a6,6,0,0,0-.18.59,16.81,16.81,0,0,1-.81,2.26A9.65,9.65,0,0,1,583.74,43a5.22,5.22,0,0,1-3.66,1.15c-.62,0-.81,0-.89.11s-.81.91,0,4.83a1.5,1.5,0,0,1-1.15,1.78Zm52.53-22.07Z"/><ellipse class="cls-1" cx="599.84" cy="39.36" rx="1.37" ry="1.58"/><path class="cls-1" d="M599.84,41.94a2.59,2.59,0,1,1,2.37-2.58A2.48,2.48,0,0,1,599.84,41.94Zm0-3.16c-.18,0-.37.25-.37.58s.19.58.37.58.37-.25.37-.58S600,38.78,599.84,38.78Z"/><path class="cls-1" d="M592.13,19.31h-.07a2.41,2.41,0,0,1-1.59-.68c-.6-.73,0-1.53.34-2,.7-.91,1.21-1.54,1.57-2,.51-.62.72-.88.69-1a8.51,8.51,0,0,0-2.36-1.62c-.57-.34-1-.58-1.4-.77-.79-.41-1.27-.66-1.41-1.23-.26-1.11,1.23-2,2.37-2.53a.5.5,0,0,1,.44.9c-1.92.93-1.84,1.39-1.83,1.4s.43.33.89.57.86.45,1.45.8c1.89,1.11,2.67,1.57,2.83,2.26s-.13.9-.89,1.83c-.36.44-.87,1.06-1.55,1.95-.15.2-.47.61-.37.72a1.7,1.7,0,0,0,1,.33.5.5,0,0,1-.06,1Z"/><path class="cls-1" d="M592.13,20.31l-.24,0a3.29,3.29,0,0,1-2.19-1c-1.11-1.33,0-2.74.32-3.2.7-.92,1.22-1.55,1.59-2l.14-.18c-.44-.28-1.07-.65-1.54-.93s-1-.56-1.36-.74c-.9-.47-1.68-.88-1.92-1.89-.49-2,2-3.21,2.91-3.66a1.5,1.5,0,0,1,2.07,1.84,1.48,1.48,0,0,1-.77.86q-.37.18-.63.33c.34.18.75.39,1.22.67,2.09,1.24,3,1.8,3.29,2.91s-.26,1.67-1.09,2.68c-.3.38-.69.85-1.19,1.49a1.6,1.6,0,0,1,.58.46,1.5,1.5,0,0,1-1.19,2.41Zm-.07-1Z"/><path class="cls-1" d="M598.56,19.33h-.08a2.38,2.38,0,0,1-1.57-.72c-.57-.74.08-1.53.43-2,.74-.89,1.28-1.51,1.66-1.95.54-.61.75-.86.74-1a8.53,8.53,0,0,0-2.28-1.66c-.56-.35-1-.6-1.36-.79-.79-.43-1.26-.69-1.37-1.27-.21-1.11,1.31-1.94,2.47-2.48a.51.51,0,0,1,.42.92c-2,.89-1.91,1.37-1.91,1.37s.43.34.87.58.83.46,1.41.82c1.84,1.15,2.61,1.63,2.73,2.33s-.17.89-1,1.8c-.38.44-.91,1-1.64,1.93-.13.16-.49.6-.41.71s.21.22.94.34a.5.5,0,0,1-.08,1Z"/><path class="cls-1" d="M598.56,20.33h-.22a3.36,3.36,0,0,1-2.22-1.1c-1.06-1.37.07-2.75.45-3.2.74-.91,1.29-1.53,1.68-2l.15-.17c-.42-.29-1-.65-1.45-.93s-1-.58-1.33-.77c-.86-.48-1.67-.92-1.87-2-.39-2,2.1-3.15,3-3.58A1.5,1.5,0,1,1,598,9.37c-.27.12-.49.23-.67.33.33.18.71.4,1.16.68,2.05,1.28,3,1.87,3.19,3s-.34,1.65-1.2,2.64c-.32.36-.73.83-1.27,1.48a1.5,1.5,0,0,1-.68,2.83Zm.34-6.08Z"/><path class="cls-1" d="M605.24,19.33h-.08a2.36,2.36,0,0,1-1.57-.72c-.57-.74.08-1.53.43-2,.73-.89,1.27-1.51,1.66-1.95.53-.61.75-.86.73-1,0-.27-1.13-.94-2.27-1.66-.56-.35-1-.6-1.37-.79-.78-.43-1.25-.69-1.36-1.27-.22-1.11,1.31-1.94,2.47-2.48a.51.51,0,0,1,.42.92c-2,.89-1.91,1.37-1.91,1.37s.43.34.86.58.84.46,1.42.82c1.84,1.15,2.6,1.63,2.73,2.33s-.17.89-1,1.8c-.38.44-.91,1-1.64,1.93-.14.16-.49.6-.41.71s.21.22.93.34a.5.5,0,0,1-.07,1Z"/><path class="cls-1" d="M605.24,20.33H605a3.33,3.33,0,0,1-2.21-1.1c-1.06-1.37.07-2.75.44-3.2.75-.91,1.3-1.53,1.69-2l.15-.17c-.42-.29-1-.65-1.45-.93s-1-.58-1.33-.77c-.87-.48-1.68-.92-1.88-2-.38-2,2.11-3.15,3.05-3.58a1.5,1.5,0,0,1,1.24,2.74c-.27.12-.49.23-.68.33.33.18.72.4,1.17.68,2,1.28,3,1.87,3.18,3S608.05,15,607.19,16c-.33.36-.74.83-1.27,1.48a1.5,1.5,0,0,1-.68,2.83Zm.34-6.08Z"/><ellipse class="cls-1" cx="618.86" cy="33.07" rx="1.68" ry="1.42"/><path class="cls-1" d="M618.86,35.49a2.43,2.43,0,1,1,2.69-2.42A2.56,2.56,0,0,1,618.86,35.49Zm0-2.84c-.38,0-.68.23-.68.42s.3.42.68.42.69-.23.69-.42S619.25,32.65,618.86,32.65Z"/><ellipse class="cls-1" cx="624.91" cy="41.77" rx="1.94" ry="1.74"/><path class="cls-1" d="M624.91,44.51a2.75,2.75,0,1,1,2.94-2.74A2.85,2.85,0,0,1,624.91,44.51Zm0-3.48a.76.76,0,1,0,.94.74A.87.87,0,0,0,624.91,41Z"/><ellipse class="cls-1" cx="611.05" cy="40.36" rx="1.62" ry="1.87"/><path class="cls-1" d="M611.05,43.22a2.88,2.88,0,1,1,2.62-2.86A2.75,2.75,0,0,1,611.05,43.22Zm0-3.73c-.34,0-.62.4-.62.87s.28.86.62.86.62-.39.62-.86S611.38,39.49,611.05,39.49Z"/><path class="cls-1" d="M508.14,53c-1.05,0-2-.24-2.41-1.07C505,50.29,507,47.29,512,42.43,522.45,32.32,539.65,25.09,551.15,26c4.47.34,7.76,1.86,9.8,4.53h0a26.14,26.14,0,0,1,3.94,9.07c.68,2.87,1.7,7.19-.07,9.73-1.9,2.72-5.87,2.13-9.06,1.64l-.68-.1c-14.8-2.15-36.16.27-44.18,1.78h-.1A14.3,14.3,0,0,1,508.14,53Zm41.13-26.06c-11,0-27,7-36.57,16.26-6.19,6-6.3,7.8-6.07,8.31.4.86,3.1.35,4,.18l.1,0c8.08-1.51,29.59-3.95,44.51-1.78l.69.11c2.91.43,6.54,1,8.09-1.23s.55-6.24-.08-8.93a25.29,25.29,0,0,0-3.77-8.69h0c-1.85-2.43-4.91-3.83-9.08-4.14C550.49,26.91,549.89,26.89,549.27,26.89Z"/><path class="cls-1" d="M508.14,54c-1.69,0-2.81-.55-3.32-1.64-1-2.12.89-5.19,6.48-10.6C521.94,31.43,539.47,24.07,551.22,25c4.77.36,8.31,2,10.52,4.93a26.88,26.88,0,0,1,4.13,9.44c.71,3,1.79,7.62-.23,10.53-2.26,3.24-6.75,2.56-10,2.06l-.68-.1c-14.66-2.13-35.87.27-43.85,1.77l-.1,0A15.9,15.9,0,0,1,508.14,54Zm-.54-3a9.28,9.28,0,0,0,2.83-.26l.1,0c8.13-1.53,29.79-4,44.84-1.79l.68.11c2.65.39,5.94.89,7.13-.81s.32-5.76-.23-8.12a24.42,24.42,0,0,0-3.59-8.33c-1.67-2.19-4.49-3.45-8.36-3.75-.55,0-1.13-.06-1.73-.06-10.85,0-26.61,7-35.88,16C508.65,48.45,507.77,50.33,507.6,50.92Z"/><path class="cls-1" d="M506.76,49.85a.5.5,0,0,1-.49-.39c-.74-3.44-.57-5.63.53-6.69a3,3,0,0,1,2.27-.67,3.24,3.24,0,0,0,2.38-.68,7.89,7.89,0,0,0,1.79-2.93,15.13,15.13,0,0,0,.72-2,2.69,2.69,0,0,1,1-1.75,2,2,0,0,1,1.58-.23,11.06,11.06,0,0,0,1.79.14c1.5,0,2.26,0,2.8-.36a2.7,2.7,0,0,0,1-1.75,3.52,3.52,0,0,1,1.32-2.24c1.31-.91,3.28-.68,4.58-.53a5.83,5.83,0,0,1,.58.08c.45.07.52.07.64,0,.32-.2.41-.62.53-1.29a3.67,3.67,0,0,1,.93-2.2,3.38,3.38,0,0,1,3.2-.56,2.7,2.7,0,0,1,1.32.91c.22.25.33.36.57.41s.71-.16,1.89-1.09c.5-.39,1.13-.89,1.94-1.49,1.64-1.21,2.06-1.41,2.59-1.43a2.74,2.74,0,0,1,1.93.77,1.89,1.89,0,0,0,1.19.56c.59.06.93-.28,1.44-.77a2.42,2.42,0,0,1,4.07.23,2.33,2.33,0,0,0,1.47,1,2.26,2.26,0,0,0,1.58-.62,2.47,2.47,0,0,1,1.91-.71c1.39.19,2.54,1.9,3.5,5.24a.5.5,0,0,1-1,.28c-1.08-3.77-2.13-4.46-2.67-4.53-.39-.06-.7.16-1.18.52a3.15,3.15,0,0,1-2.27.81,3.25,3.25,0,0,1-2.12-1.32c-.47-.54-.79-.87-1.32-.89s-.83.26-1.31.72a2.59,2.59,0,0,1-3.94.27,1.7,1.7,0,0,0-1.26-.55c-.23,0-.51.1-2,1.24-.81.59-1.43,1.08-1.92,1.46-1.32,1.05-1.86,1.47-2.73,1.29a1.93,1.93,0,0,1-1.09-.73,1.83,1.83,0,0,0-.88-.62,2.4,2.4,0,0,0-2.2.33,2.84,2.84,0,0,0-.65,1.65,2.63,2.63,0,0,1-1,2,1.69,1.69,0,0,1-1.32.14l-.54-.07c-1.16-.13-2.9-.33-3.9.36a2.64,2.64,0,0,0-.93,1.68,3.56,3.56,0,0,1-1.39,2.32c-.79.53-1.7.52-3.36.53a12.46,12.46,0,0,1-1.93-.15c-.56-.08-.67-.08-.88.06s-.39.47-.6,1.21a16.5,16.5,0,0,1-.76,2.13,8.75,8.75,0,0,1-2.07,3.29,4.16,4.16,0,0,1-3,.92c-.75,0-1.2,0-1.58.39-.8.78-.89,2.77-.24,5.76a.51.51,0,0,1-.39.59Z"/><path class="cls-1" d="M506.76,50.85a1.51,1.51,0,0,1-1.47-1.18c-.83-3.86-.57-6.28.81-7.62a3.93,3.93,0,0,1,3-.95,2.24,2.24,0,0,0,1.73-.45,7.18,7.18,0,0,0,1.53-2.57A13.18,13.18,0,0,0,513,36.2a3.67,3.67,0,0,1,1.41-2.3,2.91,2.91,0,0,1,2.29-.39,9.87,9.87,0,0,0,1.64.13,6,6,0,0,0,2.24-.19c.29-.2.39-.48.58-1.18a4.51,4.51,0,0,1,1.72-2.81c1.62-1.11,3.81-.87,5.26-.7l.56.08c0-.16.07-.36.09-.48A4.64,4.64,0,0,1,530,25.62a4.3,4.3,0,0,1,4.19-.79A3.66,3.66,0,0,1,536,26l0,0c.25-.16.7-.52,1.07-.81s1.14-.9,2-1.51c1.63-1.21,2.28-1.59,3.14-1.63a3.76,3.76,0,0,1,2.59,1c.35.28.46.35.61.35s.26-.06.67-.46a3.42,3.42,0,0,1,5.56.25c.4.46.58.64.82.67s.41-.1.87-.44a3.49,3.49,0,0,1,2.65-.89c1.85.25,3.22,2.14,4.32,6a1.51,1.51,0,0,1-1,1.85,1.38,1.38,0,0,1-1.12-.12,1.49,1.49,0,0,1-.74-.91c-1-3.49-1.85-3.81-1.86-3.81l-.44.34a3.78,3.78,0,0,1-5.72-.66c-.37-.42-.52-.55-.62-.55s-.22.1-.58.44a3.72,3.72,0,0,1-2.9,1.33,3.84,3.84,0,0,1-2.34-1c-.42-.33-.47-.35-.59-.34a13.15,13.15,0,0,0-1.51,1c-.76.56-1.35,1-1.83,1.4-1.45,1.15-2.29,1.81-3.62,1.52a2.83,2.83,0,0,1-1.63-1c-.2-.22-.24-.27-.44-.34s-.92-.17-1.2.1a2.34,2.34,0,0,0-.36,1.1,3.48,3.48,0,0,1-1.43,2.64,2.62,2.62,0,0,1-2,.29l-.5-.07c-.95-.11-2.53-.29-3.22.19-.26.18-.35.45-.53,1.12a4.54,4.54,0,0,1-1.8,2.89c-1,.69-2.13.69-3.81.7h-.11a13.67,13.67,0,0,1-2.05-.15l-.22,0a6,6,0,0,0-.18.59,16.81,16.81,0,0,1-.81,2.26A9.65,9.65,0,0,1,512.74,43a5.22,5.22,0,0,1-3.66,1.15c-.62,0-.81,0-.89.11s-.81.91,0,4.83a1.5,1.5,0,0,1-1.15,1.78Z"/><ellipse class="cls-1" cx="528.84" cy="39.36" rx="1.37" ry="1.58"/><path class="cls-1" d="M528.84,41.94a2.59,2.59,0,1,1,2.37-2.58A2.48,2.48,0,0,1,528.84,41.94Zm0-3.16c-.18,0-.37.25-.37.58s.19.58.37.58.37-.25.37-.58S529,38.78,528.84,38.78Z"/><path class="cls-1" d="M521.13,19.31h-.07a2.41,2.41,0,0,1-1.59-.68c-.6-.73,0-1.53.34-2,.7-.91,1.21-1.54,1.57-2,.51-.62.72-.88.69-1a8.51,8.51,0,0,0-2.36-1.62c-.57-.34-1-.58-1.4-.77-.79-.41-1.27-.66-1.41-1.23-.26-1.11,1.23-2,2.37-2.53a.5.5,0,0,1,.44.9c-1.92.93-1.84,1.39-1.83,1.4s.43.33.89.57.86.45,1.45.8c1.89,1.11,2.67,1.57,2.83,2.26s-.13.9-.89,1.83c-.36.44-.87,1.06-1.55,1.95-.15.2-.47.61-.37.72a1.7,1.7,0,0,0,1,.33.5.5,0,0,1-.06,1Z"/><path class="cls-1" d="M521.13,20.31l-.24,0a3.29,3.29,0,0,1-2.19-1c-1.11-1.33,0-2.74.32-3.2.7-.92,1.22-1.55,1.59-2l.14-.18c-.44-.28-1.07-.65-1.54-.93s-1-.56-1.36-.74c-.9-.47-1.68-.88-1.92-1.89-.49-2,2-3.21,2.91-3.66a1.5,1.5,0,0,1,2,.7,1.46,1.46,0,0,1,.07,1.14,1.48,1.48,0,0,1-.77.86q-.37.18-.63.33c.34.18.75.39,1.22.67,2.09,1.24,3,1.8,3.29,2.91s-.26,1.67-1.09,2.68c-.3.38-.69.85-1.19,1.49a1.6,1.6,0,0,1,.58.46,1.5,1.5,0,0,1-1.19,2.41Zm-.07-1Z"/><path class="cls-1" d="M527.56,19.33h-.08a2.38,2.38,0,0,1-1.57-.72c-.57-.74.08-1.53.43-2,.74-.89,1.28-1.51,1.66-1.95.54-.61.75-.86.74-1a8.53,8.53,0,0,0-2.28-1.66c-.56-.35-1-.6-1.36-.79-.79-.43-1.26-.69-1.37-1.27-.21-1.11,1.31-1.94,2.47-2.48a.51.51,0,0,1,.42.92c-2,.89-1.91,1.37-1.91,1.37s.43.34.87.58.83.46,1.41.82c1.84,1.15,2.61,1.63,2.73,2.33s-.17.89-1,1.8c-.38.44-.91,1-1.64,1.93-.13.16-.49.6-.41.71s.21.22.94.34a.5.5,0,0,1-.08,1Z"/><path class="cls-1" d="M527.56,20.33h-.22a3.36,3.36,0,0,1-2.22-1.1c-1.06-1.37.07-2.75.45-3.2.74-.91,1.29-1.53,1.68-2l.15-.17c-.42-.29-1-.65-1.45-.93s-1-.58-1.33-.77c-.86-.48-1.67-.92-1.87-2-.39-2,2.1-3.15,3-3.58A1.5,1.5,0,1,1,527,9.37c-.27.12-.49.23-.67.33.33.18.71.4,1.16.68,2.05,1.28,3,1.87,3.19,3s-.34,1.65-1.2,2.64c-.32.36-.73.83-1.27,1.48a1.5,1.5,0,0,1-.68,2.83Zm.34-6.08Z"/><path class="cls-1" d="M534.24,19.33h-.08a2.36,2.36,0,0,1-1.57-.72c-.57-.74.08-1.53.43-2,.73-.89,1.27-1.51,1.66-1.95.53-.61.75-.86.73-1,0-.27-1.13-.94-2.27-1.66-.56-.35-1-.6-1.37-.79-.78-.43-1.25-.69-1.36-1.27-.22-1.11,1.31-1.94,2.47-2.48a.51.51,0,0,1,.42.92c-2,.89-1.91,1.37-1.91,1.37s.43.34.86.58.84.46,1.42.82c1.84,1.15,2.6,1.63,2.73,2.33s-.17.89-1,1.8c-.38.44-.91,1-1.64,1.93-.14.16-.49.6-.41.71s.21.22.93.34a.5.5,0,0,1-.07,1Z"/><path class="cls-1" d="M534.24,20.33H534a3.33,3.33,0,0,1-2.21-1.1c-1.06-1.37.07-2.75.44-3.2.75-.91,1.3-1.53,1.69-2l.15-.17c-.42-.29-1-.65-1.45-.93s-1-.58-1.33-.77c-.87-.48-1.68-.92-1.88-2-.38-2,2.11-3.15,3.05-3.58a1.48,1.48,0,0,1,1.15,0,1.45,1.45,0,0,1,.83.78,1.48,1.48,0,0,1,0,1.15,1.49,1.49,0,0,1-.78.84c-.27.12-.49.23-.68.33.33.18.72.4,1.17.68,2,1.28,3,1.87,3.18,3S537.05,15,536.19,16c-.33.36-.74.83-1.27,1.48a1.5,1.5,0,0,1-.68,2.83Zm.34-6.08Z"/><ellipse class="cls-1" cx="547.86" cy="33.07" rx="1.68" ry="1.42"/><path class="cls-1" d="M547.86,35.49a2.43,2.43,0,1,1,2.69-2.42A2.56,2.56,0,0,1,547.86,35.49Zm0-2.84c-.38,0-.68.23-.68.42s.3.42.68.42.69-.23.69-.42S548.25,32.65,547.86,32.65Z"/><ellipse class="cls-1" cx="553.91" cy="41.77" rx="1.94" ry="1.74"/><path class="cls-1" d="M553.91,44.51a2.75,2.75,0,1,1,2.94-2.74A2.85,2.85,0,0,1,553.91,44.51Zm0-3.48a.76.76,0,1,0,0,1.48.76.76,0,1,0,0-1.48Z"/><ellipse class="cls-1" cx="540.05" cy="40.36" rx="1.62" ry="1.87"/><path class="cls-1" d="M540.05,43.22a2.88,2.88,0,1,1,2.62-2.86A2.75,2.75,0,0,1,540.05,43.22Zm0-3.73c-.34,0-.62.4-.62.87s.28.86.62.86.62-.39.62-.86S540.38,39.49,540.05,39.49Z"/><path class="cls-1" d="M436.14,53c-1.05,0-2-.24-2.41-1.07C433,50.29,435,47.29,440,42.43,450.45,32.32,467.65,25.09,479.15,26c4.47.34,7.76,1.86,9.8,4.53h0a26.14,26.14,0,0,1,3.94,9.07c.68,2.87,1.7,7.19-.07,9.73-1.9,2.72-5.87,2.13-9.06,1.64l-.68-.1c-14.8-2.15-36.16.27-44.18,1.78h-.1A14.3,14.3,0,0,1,436.14,53Zm41.13-26.06c-11,0-27,7-36.57,16.26-6.19,6-6.3,7.8-6.07,8.31.4.86,3.1.35,4,.18l.1,0c8.08-1.51,29.59-3.95,44.51-1.78l.69.11c2.91.43,6.54,1,8.09-1.23s.55-6.24-.08-8.93a25.29,25.29,0,0,0-3.77-8.69h0c-1.85-2.43-4.91-3.83-9.08-4.14C478.49,26.91,477.89,26.89,477.27,26.89Z"/><path class="cls-1" d="M436.14,54c-1.69,0-2.81-.55-3.32-1.64-1-2.12.89-5.19,6.48-10.6C449.94,31.43,467.46,24.07,479.22,25c4.77.36,8.31,2,10.52,4.93a26.88,26.88,0,0,1,4.13,9.44c.71,3,1.79,7.62-.23,10.53-2.26,3.24-6.75,2.56-10,2.06l-.68-.1c-14.66-2.13-35.87.27-43.85,1.77l-.1,0A15.9,15.9,0,0,1,436.14,54Zm-.54-3a9.26,9.26,0,0,0,2.83-.26l.1,0c8.13-1.53,29.79-4,44.84-1.79l.68.11c2.65.39,5.94.89,7.12-.81s.33-5.76-.22-8.12a24.42,24.42,0,0,0-3.59-8.33c-1.67-2.19-4.49-3.45-8.36-3.75-.55,0-1.13-.06-1.73-.06-10.85,0-26.61,7-35.88,16C436.65,48.45,435.77,50.33,435.6,50.92Z"/><path class="cls-1" d="M434.76,49.85a.5.5,0,0,1-.49-.39c-.74-3.44-.57-5.63.53-6.69a3,3,0,0,1,2.27-.67,3.24,3.24,0,0,0,2.38-.68,7.89,7.89,0,0,0,1.79-2.93,15.13,15.13,0,0,0,.72-2,2.69,2.69,0,0,1,1-1.75,2,2,0,0,1,1.58-.23,11.06,11.06,0,0,0,1.79.14c1.5,0,2.26,0,2.8-.36a2.7,2.7,0,0,0,1-1.75,3.52,3.52,0,0,1,1.32-2.24c1.31-.91,3.28-.68,4.58-.53a5.83,5.83,0,0,1,.58.08c.45.07.52.07.64,0,.32-.2.41-.62.53-1.29a3.67,3.67,0,0,1,.93-2.2,3.38,3.38,0,0,1,3.2-.56,2.7,2.7,0,0,1,1.32.91c.22.25.33.36.57.41s.71-.16,1.89-1.09c.5-.39,1.13-.89,1.94-1.49,1.64-1.21,2.06-1.41,2.59-1.43a2.72,2.72,0,0,1,1.93.77,1.89,1.89,0,0,0,1.19.56c.6.06.93-.28,1.44-.77a2.42,2.42,0,0,1,4.07.23,2.33,2.33,0,0,0,1.47,1,2.24,2.24,0,0,0,1.58-.62,2.48,2.48,0,0,1,1.91-.71c1.39.19,2.54,1.9,3.5,5.24a.5.5,0,0,1-1,.28c-1.08-3.77-2.13-4.46-2.67-4.53s-.7.16-1.18.52a3.17,3.17,0,0,1-2.27.81,3.25,3.25,0,0,1-2.12-1.32c-.47-.54-.79-.87-1.32-.89s-.83.26-1.31.72a2.59,2.59,0,0,1-3.94.27,1.7,1.7,0,0,0-1.26-.55c-.23,0-.51.1-2,1.24-.81.59-1.43,1.08-1.92,1.46-1.32,1.05-1.86,1.47-2.73,1.29a1.93,1.93,0,0,1-1.09-.73,1.83,1.83,0,0,0-.88-.62,2.4,2.4,0,0,0-2.2.33,2.84,2.84,0,0,0-.65,1.65,2.63,2.63,0,0,1-1,2,1.69,1.69,0,0,1-1.32.14l-.54-.07c-1.16-.13-2.9-.33-3.9.36a2.64,2.64,0,0,0-.93,1.68,3.56,3.56,0,0,1-1.39,2.32c-.79.53-1.69.52-3.36.53a12.46,12.46,0,0,1-1.93-.15c-.56-.08-.67-.08-.88.06s-.39.47-.6,1.21a16.5,16.5,0,0,1-.76,2.13,8.75,8.75,0,0,1-2.07,3.29,4.16,4.16,0,0,1-3,.92c-.75,0-1.2,0-1.58.39-.8.78-.89,2.77-.24,5.76a.51.51,0,0,1-.39.59Z"/><path class="cls-1" d="M434.76,50.85a1.51,1.51,0,0,1-1.47-1.18c-.83-3.86-.57-6.28.81-7.62a3.93,3.93,0,0,1,3-.95,2.24,2.24,0,0,0,1.73-.45,7.18,7.18,0,0,0,1.53-2.57A13.18,13.18,0,0,0,441,36.2a3.67,3.67,0,0,1,1.41-2.3,2.91,2.91,0,0,1,2.29-.39,9.87,9.87,0,0,0,1.64.13,6.05,6.05,0,0,0,2.25-.19c.28-.2.38-.48.57-1.18a4.51,4.51,0,0,1,1.72-2.81c1.62-1.11,3.81-.87,5.26-.7l.56.08c0-.16.07-.36.09-.48A4.64,4.64,0,0,1,458,25.62a4.3,4.3,0,0,1,4.19-.79A3.66,3.66,0,0,1,464,26l0,0c.25-.16.7-.52,1.08-.81s1.13-.9,2-1.51c1.63-1.21,2.28-1.59,3.14-1.63a3.69,3.69,0,0,1,2.58,1c.36.29.47.36.62.36s.21,0,.65-.44a3.89,3.89,0,0,1,2.81-1.33,3.8,3.8,0,0,1,2.77,1.56c.4.46.58.64.82.67s.41-.1.87-.44a3.49,3.49,0,0,1,2.65-.89c1.85.25,3.22,2.14,4.32,6a1.51,1.51,0,0,1-1,1.85,1.41,1.41,0,0,1-1.13-.12,1.51,1.51,0,0,1-.73-.91c-1-3.49-1.85-3.81-1.86-3.81l-.44.34a3.78,3.78,0,0,1-5.72-.66c-.37-.42-.52-.55-.62-.55a1.89,1.89,0,0,0-.58.44,3.72,3.72,0,0,1-2.9,1.33,3.84,3.84,0,0,1-2.34-1c-.42-.33-.47-.35-.59-.34a13.15,13.15,0,0,0-1.51,1c-.76.56-1.35,1-1.83,1.4-1.45,1.15-2.29,1.81-3.62,1.52a2.83,2.83,0,0,1-1.63-1c-.2-.22-.24-.27-.44-.34s-.92-.17-1.2.1a2.34,2.34,0,0,0-.36,1.1,3.48,3.48,0,0,1-1.43,2.64,2.62,2.62,0,0,1-2,.29l-.5-.07c-.95-.11-2.53-.29-3.22.19-.26.18-.35.45-.53,1.12a4.54,4.54,0,0,1-1.8,2.89c-1,.69-2.13.69-3.81.7h-.11a13.67,13.67,0,0,1-2.05-.15l-.22,0a6,6,0,0,0-.18.59,16.81,16.81,0,0,1-.81,2.26A9.65,9.65,0,0,1,440.74,43a5.22,5.22,0,0,1-3.66,1.15c-.62,0-.81,0-.89.11s-.81.91,0,4.83a1.5,1.5,0,0,1-1.15,1.78Zm52.53-22.07h0Z"/><ellipse class="cls-1" cx="456.84" cy="39.36" rx="1.37" ry="1.58"/><path class="cls-1" d="M456.84,41.94a2.59,2.59,0,1,1,2.37-2.58A2.48,2.48,0,0,1,456.84,41.94Zm0-3.16c-.18,0-.37.25-.37.58s.19.58.37.58.37-.25.37-.58S457,38.78,456.84,38.78Z"/><path class="cls-1" d="M449.13,19.31h-.07a2.41,2.41,0,0,1-1.59-.68c-.6-.73,0-1.53.34-2,.7-.91,1.21-1.54,1.57-2,.51-.62.72-.88.69-1a8.51,8.51,0,0,0-2.36-1.62c-.57-.34-1-.58-1.4-.77-.79-.41-1.27-.66-1.41-1.23-.26-1.11,1.23-2,2.37-2.53a.5.5,0,0,1,.44.9c-1.92.93-1.84,1.39-1.83,1.4s.43.33.89.57.86.45,1.45.8c1.89,1.11,2.67,1.57,2.83,2.26s-.13.9-.89,1.83c-.36.44-.87,1.06-1.55,1.95-.15.2-.47.61-.37.72a1.7,1.7,0,0,0,.95.33.5.5,0,0,1-.06,1Z"/><path class="cls-1" d="M449.13,20.31l-.24,0a3.29,3.29,0,0,1-2.19-1c-1.11-1.33,0-2.74.32-3.2.7-.92,1.22-1.55,1.59-2l.14-.18c-.44-.28-1.07-.65-1.54-.93s-1-.56-1.36-.74c-.9-.47-1.68-.88-1.92-1.89-.49-2,2-3.21,2.91-3.66a1.5,1.5,0,0,1,2.07,1.84,1.48,1.48,0,0,1-.77.86q-.37.18-.63.33c.34.18.75.39,1.22.67,2.09,1.24,3,1.8,3.29,2.91s-.26,1.67-1.09,2.68c-.3.38-.69.85-1.19,1.49a1.6,1.6,0,0,1,.58.46,1.5,1.5,0,0,1-1.19,2.41Zm-.07-1Z"/><path class="cls-1" d="M455.56,19.33h-.08a2.38,2.38,0,0,1-1.57-.72c-.57-.74.08-1.53.43-2,.74-.89,1.28-1.51,1.66-1.95.54-.61.75-.86.74-1a8.53,8.53,0,0,0-2.28-1.66c-.56-.35-1-.6-1.36-.79-.79-.43-1.26-.69-1.37-1.27-.21-1.11,1.31-1.94,2.47-2.48a.51.51,0,0,1,.42.92c-2,.89-1.91,1.37-1.91,1.37s.43.34.87.58.83.46,1.41.82c1.84,1.15,2.61,1.63,2.73,2.33s-.17.89-1,1.8c-.38.44-.91,1-1.64,1.93-.13.16-.49.6-.41.71s.21.22.94.34a.5.5,0,0,1-.08,1Z"/><path class="cls-1" d="M455.56,20.33h-.22a3.36,3.36,0,0,1-2.22-1.1c-1.06-1.37.07-2.75.45-3.2.74-.91,1.29-1.53,1.68-2l.15-.17c-.42-.29-1-.65-1.45-.93s-1-.58-1.33-.77c-.86-.48-1.67-.92-1.87-2-.39-2,2.1-3.15,3-3.58A1.5,1.5,0,1,1,455,9.37c-.27.12-.49.23-.67.33.33.18.71.4,1.16.68,2.05,1.28,3,1.87,3.19,3s-.34,1.65-1.2,2.64c-.32.36-.73.83-1.27,1.48a1.5,1.5,0,0,1-.68,2.83Zm.34-6.08Z"/><path class="cls-1" d="M462.24,19.33h-.08a2.36,2.36,0,0,1-1.57-.72c-.57-.74.08-1.53.43-2,.73-.89,1.27-1.51,1.66-1.95.53-.61.75-.86.73-1,0-.27-1.13-.94-2.27-1.66-.56-.35-1-.6-1.37-.79-.78-.43-1.25-.69-1.36-1.27-.22-1.11,1.31-1.94,2.47-2.48a.51.51,0,0,1,.42.92c-2,.89-1.91,1.37-1.91,1.37s.43.34.86.58.84.46,1.42.82c1.84,1.15,2.6,1.63,2.73,2.33s-.17.89-1,1.8c-.38.44-.91,1-1.64,1.93-.14.16-.49.6-.41.71s.21.22.93.34a.5.5,0,0,1-.07,1Z"/><path class="cls-1" d="M462.24,20.33H462a3.33,3.33,0,0,1-2.21-1.1c-1.06-1.37.07-2.75.44-3.2.75-.91,1.3-1.53,1.69-2l.15-.17c-.42-.29-1-.65-1.45-.93s-1-.58-1.33-.77c-.87-.48-1.68-.92-1.88-2-.38-2,2.11-3.15,3.05-3.58a1.5,1.5,0,0,1,1.14,0,1.45,1.45,0,0,1,.84.79,1.48,1.48,0,0,1,0,1.15,1.49,1.49,0,0,1-.78.84c-.27.12-.49.23-.68.33.33.18.72.4,1.17.68,2,1.28,3,1.87,3.18,3S465.05,15,464.19,16c-.33.36-.74.83-1.27,1.48a1.5,1.5,0,0,1-.68,2.83Zm.34-6.08Z"/><ellipse class="cls-1" cx="477.86" cy="32.07" rx="1.68" ry="1.42"/><path class="cls-1" d="M477.86,34.49a2.43,2.43,0,1,1,2.69-2.42A2.56,2.56,0,0,1,477.86,34.49Zm0-2.84c-.38,0-.68.23-.68.42s.3.42.68.42.69-.23.69-.42S478.25,31.65,477.86,31.65Z"/><ellipse class="cls-1" cx="483.91" cy="40.77" rx="1.94" ry="1.74"/><path class="cls-1" d="M483.91,43.51a2.75,2.75,0,1,1,2.94-2.74A2.85,2.85,0,0,1,483.91,43.51Zm0-3.48a.76.76,0,1,0,0,1.48.76.76,0,1,0,0-1.48Z"/><ellipse class="cls-1" cx="470.05" cy="39.36" rx="1.62" ry="1.87"/><path class="cls-1" d="M470.05,42.22a2.88,2.88,0,1,1,2.62-2.86A2.75,2.75,0,0,1,470.05,42.22Zm0-3.73c-.34,0-.62.4-.62.87s.28.86.62.86.62-.39.62-.86S470.38,38.49,470.05,38.49Z"/><path class="cls-1" d="M365.14,53c-1.05,0-2-.24-2.41-1.07C362,50.29,364,47.29,369,42.43,379.45,32.32,396.65,25.09,408.15,26c4.47.34,7.76,1.86,9.8,4.53h0a26.14,26.14,0,0,1,3.94,9.07c.68,2.87,1.7,7.19-.07,9.73-1.9,2.72-5.87,2.13-9.06,1.64l-.68-.1c-14.8-2.15-36.16.27-44.18,1.78h-.1A14.3,14.3,0,0,1,365.14,53Zm41.13-26.06c-11,0-27,7-36.57,16.26-6.19,6-6.3,7.8-6.07,8.31.4.86,3.1.35,4,.18l.1,0c8.08-1.51,29.59-3.95,44.51-1.78l.69.11c2.91.43,6.54,1,8.09-1.23s.55-6.24-.08-8.93a25.29,25.29,0,0,0-3.77-8.69h0c-1.85-2.43-4.91-3.83-9.08-4.14C407.49,26.91,406.89,26.89,406.27,26.89Z"/><path class="cls-1" d="M365.14,54c-1.69,0-2.81-.55-3.32-1.64-1-2.12.89-5.19,6.48-10.6C378.94,31.43,396.47,24.06,408.22,25c4.77.36,8.31,2,10.52,4.93a26.88,26.88,0,0,1,4.13,9.44c.71,3,1.79,7.62-.23,10.53-2.26,3.24-6.75,2.56-10,2.06l-.68-.1c-14.66-2.13-35.87.27-43.85,1.77l-.1,0A15.9,15.9,0,0,1,365.14,54Zm-.54-3a9.26,9.26,0,0,0,2.83-.26l.1,0c8.13-1.53,29.8-4,44.84-1.79l.68.11c2.65.39,5.94.89,7.12-.81s.33-5.76-.22-8.12a24.42,24.42,0,0,0-3.59-8.33c-1.67-2.19-4.49-3.45-8.36-3.75-.55,0-1.13-.06-1.73-.06-10.85,0-26.61,7-35.88,16C365.65,48.45,364.77,50.33,364.6,50.92Z"/><path class="cls-1" d="M363.76,49.85a.5.5,0,0,1-.49-.39c-.74-3.44-.57-5.63.53-6.69a3,3,0,0,1,2.27-.67,3.24,3.24,0,0,0,2.38-.68,7.89,7.89,0,0,0,1.79-2.93,15.13,15.13,0,0,0,.72-2,2.69,2.69,0,0,1,1-1.75,2,2,0,0,1,1.58-.23,11.06,11.06,0,0,0,1.79.14c1.5,0,2.26,0,2.8-.36a2.7,2.7,0,0,0,1-1.75,3.52,3.52,0,0,1,1.32-2.24c1.31-.91,3.28-.68,4.58-.53a5.83,5.83,0,0,1,.58.08c.45.07.52.07.64,0,.32-.2.41-.62.53-1.29a3.67,3.67,0,0,1,.93-2.2,3.38,3.38,0,0,1,3.2-.56,2.7,2.7,0,0,1,1.32.91c.22.25.33.36.57.41s.71-.16,1.89-1.09c.5-.39,1.13-.89,1.94-1.49,1.64-1.21,2.06-1.41,2.59-1.43a2.72,2.72,0,0,1,1.93.77,1.89,1.89,0,0,0,1.19.56c.59.06.93-.28,1.44-.77a2.42,2.42,0,0,1,4.07.23,2.33,2.33,0,0,0,1.47,1,2.24,2.24,0,0,0,1.58-.62,2.48,2.48,0,0,1,1.91-.71c1.39.19,2.54,1.9,3.5,5.24a.5.5,0,0,1-1,.28c-1.08-3.77-2.13-4.46-2.67-4.53s-.7.16-1.18.52a3.17,3.17,0,0,1-2.27.81,3.25,3.25,0,0,1-2.12-1.32c-.47-.54-.79-.87-1.32-.89s-.83.26-1.31.72a2.59,2.59,0,0,1-3.94.27,1.7,1.7,0,0,0-1.26-.55c-.23,0-.51.1-2,1.24-.81.59-1.43,1.08-1.92,1.46-1.32,1.05-1.86,1.47-2.73,1.29a1.93,1.93,0,0,1-1.09-.73,1.83,1.83,0,0,0-.88-.62,2.4,2.4,0,0,0-2.2.33,2.84,2.84,0,0,0-.65,1.65,2.63,2.63,0,0,1-1,2,1.69,1.69,0,0,1-1.32.14l-.54-.07c-1.16-.13-2.9-.33-3.9.36a2.64,2.64,0,0,0-.93,1.68,3.56,3.56,0,0,1-1.39,2.32c-.79.53-1.7.52-3.36.53a12.46,12.46,0,0,1-1.93-.15c-.56-.08-.67-.08-.88.06s-.39.47-.6,1.21a16.5,16.5,0,0,1-.76,2.13,8.75,8.75,0,0,1-2.07,3.29,4.16,4.16,0,0,1-3,.92c-.75,0-1.2,0-1.58.39-.8.78-.89,2.77-.24,5.76a.51.51,0,0,1-.39.59Z"/><path class="cls-1" d="M363.76,50.85a1.51,1.51,0,0,1-1.47-1.18c-.83-3.86-.57-6.28.81-7.62a3.93,3.93,0,0,1,3-.95,2.24,2.24,0,0,0,1.73-.45,7.18,7.18,0,0,0,1.53-2.57A13.18,13.18,0,0,0,370,36.2a3.67,3.67,0,0,1,1.41-2.3,2.91,2.91,0,0,1,2.29-.39,9.87,9.87,0,0,0,1.64.13,6,6,0,0,0,2.24-.19c.29-.2.39-.48.58-1.18a4.51,4.51,0,0,1,1.72-2.81c1.62-1.11,3.81-.87,5.26-.7l.56.08c0-.16.07-.36.09-.48A4.64,4.64,0,0,1,387,25.62a4.3,4.3,0,0,1,4.19-.79A3.66,3.66,0,0,1,393,26l0,0c.25-.16.7-.52,1.07-.81s1.14-.9,2-1.51c1.63-1.21,2.28-1.59,3.14-1.63a3.71,3.71,0,0,1,2.57,1c.37.29.48.36.63.36s.24,0,.67-.45a3.94,3.94,0,0,1,2.79-1.32,3.8,3.8,0,0,1,2.77,1.56c.4.46.58.64.82.67s.41-.1.87-.44a3.49,3.49,0,0,1,2.65-.89c1.85.25,3.22,2.14,4.32,6a1.51,1.51,0,0,1-1,1.85,1.41,1.41,0,0,1-1.13-.12,1.51,1.51,0,0,1-.73-.91c-1-3.49-1.85-3.81-1.86-3.81l-.44.34a3.78,3.78,0,0,1-5.72-.66c-.37-.42-.52-.55-.62-.55s-.21.09-.58.44a3.75,3.75,0,0,1-2.9,1.33,3.84,3.84,0,0,1-2.34-1c-.41-.32-.48-.35-.59-.34a13.15,13.15,0,0,0-1.51,1c-.76.56-1.35,1-1.83,1.4-1.45,1.15-2.29,1.81-3.62,1.52a2.83,2.83,0,0,1-1.63-1c-.2-.22-.24-.27-.44-.34s-.92-.17-1.2.1a2.34,2.34,0,0,0-.36,1.1,3.48,3.48,0,0,1-1.43,2.64,2.62,2.62,0,0,1-2,.29l-.5-.07c-.95-.11-2.53-.29-3.22.19-.26.18-.35.45-.53,1.12a4.54,4.54,0,0,1-1.8,2.89c-1,.69-2.13.69-3.81.7h-.11a13.67,13.67,0,0,1-2.05-.15l-.22,0a6,6,0,0,0-.18.59,16.81,16.81,0,0,1-.81,2.26A9.65,9.65,0,0,1,369.74,43a5.22,5.22,0,0,1-3.66,1.15c-.62,0-.81,0-.89.11s-.81.91,0,4.83a1.5,1.5,0,0,1-1.15,1.78Zm52.53-22.07h0Z"/><ellipse class="cls-1" cx="385.84" cy="39.36" rx="1.37" ry="1.58"/><path class="cls-1" d="M385.84,41.94a2.59,2.59,0,1,1,2.37-2.58A2.48,2.48,0,0,1,385.84,41.94Zm0-3.16c-.18,0-.37.25-.37.58s.19.58.37.58.37-.25.37-.58S386,38.78,385.84,38.78Z"/><path class="cls-1" d="M378.13,19.31h-.07a2.41,2.41,0,0,1-1.59-.68c-.6-.73,0-1.53.34-2,.7-.91,1.21-1.54,1.57-2,.51-.62.72-.88.69-1a8.51,8.51,0,0,0-2.36-1.62c-.57-.34-1-.58-1.4-.77-.79-.41-1.27-.66-1.41-1.23-.26-1.11,1.23-2,2.37-2.53a.5.5,0,0,1,.44.9c-1.92.93-1.84,1.39-1.83,1.4s.43.33.89.57.86.45,1.45.8c1.89,1.11,2.67,1.57,2.83,2.26s-.13.9-.89,1.83c-.36.44-.87,1.06-1.55,1.95-.15.2-.47.61-.37.72a1.7,1.7,0,0,0,.95.33.5.5,0,0,1-.06,1Z"/><path class="cls-1" d="M378.13,20.31l-.24,0a3.29,3.29,0,0,1-2.19-1c-1.11-1.33,0-2.74.32-3.2.7-.92,1.22-1.55,1.59-2l.14-.18c-.44-.28-1.07-.65-1.54-.93s-1-.56-1.36-.74c-.9-.47-1.68-.88-1.92-1.89-.49-2,2-3.21,2.91-3.66a1.49,1.49,0,0,1,2,.7,1.46,1.46,0,0,1,.07,1.14,1.48,1.48,0,0,1-.77.86q-.37.18-.63.33c.34.18.75.39,1.22.67,2.09,1.24,3,1.8,3.29,2.91s-.26,1.67-1.09,2.68c-.3.38-.69.85-1.19,1.49a1.6,1.6,0,0,1,.58.46,1.5,1.5,0,0,1-1.19,2.41Zm-.07-1Z"/><path class="cls-1" d="M384.56,19.33h-.08a2.38,2.38,0,0,1-1.57-.72c-.57-.74.08-1.53.43-2,.74-.89,1.28-1.51,1.66-1.95.54-.61.75-.86.74-1a8.53,8.53,0,0,0-2.28-1.66c-.56-.35-1-.6-1.36-.79-.79-.43-1.26-.69-1.37-1.27-.21-1.11,1.31-1.94,2.47-2.48a.51.51,0,0,1,.42.92c-2,.89-1.91,1.37-1.91,1.37s.43.34.87.58.83.46,1.41.82c1.84,1.15,2.61,1.63,2.73,2.33s-.17.89-1,1.8c-.38.44-.91,1-1.64,1.93-.13.16-.49.6-.41.71s.21.22.94.34a.5.5,0,0,1-.08,1Z"/><path class="cls-1" d="M384.56,20.33h-.22a3.36,3.36,0,0,1-2.22-1.1c-1.06-1.37.07-2.75.45-3.2.74-.91,1.29-1.53,1.68-2l.15-.17c-.42-.29-1-.65-1.45-.93s-1-.58-1.33-.77c-.86-.48-1.67-.92-1.87-2-.39-2,2.1-3.15,3-3.58A1.5,1.5,0,1,1,384,9.37c-.27.12-.49.23-.67.33.33.18.71.4,1.16.68,2.05,1.28,3,1.87,3.19,3s-.34,1.65-1.2,2.64c-.32.36-.73.83-1.27,1.48a1.5,1.5,0,0,1-.68,2.83Zm.34-6.08Z"/><path class="cls-1" d="M391.24,19.33h-.08a2.36,2.36,0,0,1-1.57-.72c-.57-.74.08-1.53.43-2,.73-.89,1.27-1.51,1.66-1.95.53-.61.75-.86.73-1,0-.27-1.13-.94-2.27-1.66-.56-.35-1-.6-1.37-.79-.78-.43-1.25-.69-1.36-1.27-.22-1.11,1.31-1.94,2.47-2.48a.51.51,0,0,1,.42.92c-2,.89-1.91,1.37-1.91,1.37s.43.34.86.58.84.46,1.42.82c1.84,1.15,2.6,1.63,2.73,2.33s-.17.89-1,1.8c-.38.44-.91,1-1.64,1.93-.14.16-.49.6-.41.71s.21.22.93.34a.5.5,0,0,1-.07,1Z"/><path class="cls-1" d="M391.24,20.33H391a3.33,3.33,0,0,1-2.21-1.1c-1.06-1.37.07-2.75.44-3.2.75-.91,1.3-1.53,1.69-2l.15-.17c-.42-.29-1-.65-1.45-.93s-1-.58-1.33-.77c-.87-.48-1.68-.92-1.88-2-.38-2,2.11-3.15,3.05-3.58a1.5,1.5,0,0,1,1.14,0,1.45,1.45,0,0,1,.84.79,1.48,1.48,0,0,1,0,1.15,1.49,1.49,0,0,1-.78.84c-.27.12-.49.23-.68.33.33.18.72.4,1.17.68,2,1.28,3,1.87,3.18,3S394.05,15,393.19,16c-.33.36-.74.83-1.27,1.48a1.5,1.5,0,0,1-.68,2.83Zm.34-6.08Z"/><ellipse class="cls-1" cx="404.86" cy="33.07" rx="1.68" ry="1.42"/><path class="cls-1" d="M404.86,35.49a2.43,2.43,0,1,1,2.69-2.42A2.56,2.56,0,0,1,404.86,35.49Zm0-2.84c-.38,0-.68.23-.68.42s.3.42.68.42.69-.23.69-.42S405.25,32.65,404.86,32.65Z"/><ellipse class="cls-1" cx="410.91" cy="41.77" rx="1.94" ry="1.74"/><path class="cls-1" d="M410.91,44.51a2.75,2.75,0,1,1,2.94-2.74A2.85,2.85,0,0,1,410.91,44.51Zm0-3.48a.76.76,0,1,0,0,1.48.76.76,0,1,0,0-1.48Z"/><ellipse class="cls-1" cx="397.05" cy="40.36" rx="1.62" ry="1.87"/><path class="cls-1" d="M397.05,43.22a2.88,2.88,0,1,1,2.62-2.86A2.75,2.75,0,0,1,397.05,43.22Zm0-3.73c-.34,0-.62.4-.62.87s.28.86.62.86.62-.39.62-.86S397.38,39.49,397.05,39.49Z"/><path class="cls-1" d="M218.14,54c-1,0-2-.24-2.41-1.07C215,51.29,217,48.29,222,43.43,232.45,33.32,249.65,26.09,261.15,27c4.47.34,7.76,1.86,9.8,4.53h0a26.14,26.14,0,0,1,3.94,9.07c.68,2.87,1.7,7.19-.07,9.73-1.9,2.72-5.87,2.13-9.06,1.64l-.68-.1c-14.8-2.15-36.16.27-44.18,1.78h-.1A14.3,14.3,0,0,1,218.14,54Zm41.13-26.06c-11,0-27,7-36.57,16.26-6.19,6-6.3,7.8-6.07,8.31.4.86,3.1.35,4,.18l.1,0c8.08-1.51,29.59-3.95,44.51-1.78l.69.11c2.91.43,6.54,1,8.09-1.23s.55-6.24-.08-8.93a25.29,25.29,0,0,0-3.77-8.69h0c-1.85-2.43-4.91-3.83-9.08-4.14C260.49,27.91,259.89,27.89,259.27,27.89Z"/><path class="cls-1" d="M218.14,55c-1.69,0-2.81-.55-3.32-1.64-1-2.12.89-5.19,6.48-10.6C231.94,32.43,249.47,25.07,261.22,26c4.77.36,8.31,2,10.52,4.93a26.88,26.88,0,0,1,4.13,9.44c.71,3,1.79,7.62-.23,10.53-2.26,3.24-6.75,2.56-10,2.06l-.68-.1c-14.65-2.13-35.87.27-43.85,1.77l-.1,0A15.9,15.9,0,0,1,218.14,55Zm-.54-3a9.28,9.28,0,0,0,2.83-.26l.1,0c8.13-1.53,29.8-4,44.84-1.79l.68.11c2.65.39,5.94.89,7.13-.81s.32-5.76-.23-8.12a24.42,24.42,0,0,0-3.59-8.33c-1.67-2.19-4.49-3.45-8.36-3.75-.55,0-1.13-.06-1.73-.06-10.85,0-26.61,7-35.88,16C218.65,49.45,217.77,51.33,217.6,51.92Z"/><path class="cls-1" d="M216.76,50.85a.5.5,0,0,1-.49-.39c-.74-3.44-.57-5.63.53-6.69a3,3,0,0,1,2.27-.67,3.24,3.24,0,0,0,2.38-.68,7.89,7.89,0,0,0,1.79-2.93,15.13,15.13,0,0,0,.72-2,2.69,2.69,0,0,1,1-1.75,2,2,0,0,1,1.58-.23,11.06,11.06,0,0,0,1.79.14c1.51,0,2.26,0,2.8-.36a2.7,2.7,0,0,0,1-1.75,3.52,3.52,0,0,1,1.32-2.24c1.31-.91,3.28-.68,4.58-.53a5.83,5.83,0,0,1,.58.08c.45.07.52.07.64,0,.32-.2.41-.62.53-1.29a3.67,3.67,0,0,1,.93-2.2,3.38,3.38,0,0,1,3.2-.56,2.7,2.7,0,0,1,1.32.91c.22.25.33.36.57.41.39.09.71-.16,1.89-1.09.5-.39,1.13-.89,1.94-1.49,1.64-1.21,2.06-1.41,2.59-1.43a2.78,2.78,0,0,1,1.93.77,1.89,1.89,0,0,0,1.19.56c.59.06.93-.28,1.44-.77a2.72,2.72,0,0,1,2-1,2.78,2.78,0,0,1,2,1.23,2.33,2.33,0,0,0,1.47,1,2.24,2.24,0,0,0,1.58-.62,2.52,2.52,0,0,1,1.91-.71c1.39.19,2.54,1.9,3.5,5.24a.5.5,0,0,1-1,.28c-1.08-3.77-2.13-4.46-2.67-4.53s-.7.16-1.18.52a3.12,3.12,0,0,1-2.27.81,3.25,3.25,0,0,1-2.12-1.32c-.47-.54-.79-.87-1.32-.89s-.83.26-1.31.72a2.87,2.87,0,0,1-2.16,1.05,2.81,2.81,0,0,1-1.78-.78,1.7,1.7,0,0,0-1.26-.55c-.23,0-.51.1-2,1.24-.81.59-1.43,1.08-1.92,1.46-1.32,1.05-1.86,1.47-2.73,1.29a1.93,1.93,0,0,1-1.09-.73,1.83,1.83,0,0,0-.88-.62,2.4,2.4,0,0,0-2.2.33,2.84,2.84,0,0,0-.65,1.65,2.63,2.63,0,0,1-1,2,1.69,1.69,0,0,1-1.32.14l-.54-.07c-1.16-.13-2.9-.33-3.9.36a2.64,2.64,0,0,0-.93,1.68,3.56,3.56,0,0,1-1.39,2.32c-.79.53-1.7.53-3.36.53a12.46,12.46,0,0,1-1.93-.15c-.56-.08-.67-.08-.88.06s-.39.47-.6,1.21a16.5,16.5,0,0,1-.76,2.13,8.75,8.75,0,0,1-2.07,3.29,4.16,4.16,0,0,1-3,.92c-.75,0-1.2,0-1.58.39-.8.78-.89,2.77-.24,5.76a.51.51,0,0,1-.39.59Z"/><path class="cls-1" d="M216.76,51.85a1.51,1.51,0,0,1-1.47-1.18c-.83-3.86-.57-6.28.81-7.62a3.93,3.93,0,0,1,3-.95,2.24,2.24,0,0,0,1.73-.45,7.18,7.18,0,0,0,1.53-2.57A13.18,13.18,0,0,0,223,37.2a3.67,3.67,0,0,1,1.41-2.3,2.92,2.92,0,0,1,2.29-.39,9.87,9.87,0,0,0,1.64.13h.19a5.33,5.33,0,0,0,2-.19c.29-.2.39-.48.58-1.18a4.51,4.51,0,0,1,1.72-2.81c1.62-1.11,3.8-.86,5.25-.7l.57.08c0-.16.07-.36.09-.48A4.64,4.64,0,0,1,240,26.62a4.3,4.3,0,0,1,4.19-.79A3.66,3.66,0,0,1,246,27l0,0c.25-.16.68-.5,1.08-.81s1.13-.9,2-1.51c1.63-1.21,2.28-1.59,3.14-1.63h.07a3.83,3.83,0,0,1,2.52,1c.35.28.46.35.61.35s.26-.06.67-.46a3.75,3.75,0,0,1,2.8-1.31,3.8,3.8,0,0,1,2.76,1.56c.4.46.58.64.82.67s.39-.09.87-.44a3.55,3.55,0,0,1,2.64-.89c1.86.25,3.23,2.14,4.33,6a1.51,1.51,0,0,1-1,1.85,1.44,1.44,0,0,1-1.13-.12,1.51,1.51,0,0,1-.73-.91c-1-3.49-1.85-3.81-1.86-3.81s-.27.21-.44.34a3.78,3.78,0,0,1-5.72-.66c-.37-.42-.52-.55-.62-.55s-.28.16-.58.44a3.56,3.56,0,0,1-5.24.34c-.42-.33-.47-.36-.58-.34a11.37,11.37,0,0,0-1.52,1c-.76.56-1.35,1-1.83,1.4-1.45,1.15-2.29,1.81-3.62,1.52a2.83,2.83,0,0,1-1.63-1c-.2-.22-.24-.27-.44-.34s-.92-.17-1.2.1a2.34,2.34,0,0,0-.36,1.1,3.48,3.48,0,0,1-1.43,2.64,2.6,2.6,0,0,1-2,.29l-.51-.07c-1-.11-2.53-.29-3.22.19-.26.18-.35.45-.53,1.12a4.54,4.54,0,0,1-1.8,2.89c-1.05.7-2.19.7-3.92.7a13.67,13.67,0,0,1-2.05-.15l-.23,0-.17.59a16.81,16.81,0,0,1-.81,2.26A9.65,9.65,0,0,1,222.74,44a5.22,5.22,0,0,1-3.66,1.15c-.62,0-.81,0-.89.11s-.81.91,0,4.83a1.5,1.5,0,0,1-1.15,1.78ZM269.3,29.78Z"/><ellipse class="cls-1" cx="238.84" cy="40.36" rx="1.37" ry="1.58"/><path class="cls-1" d="M238.84,42.94a2.59,2.59,0,1,1,2.37-2.58A2.48,2.48,0,0,1,238.84,42.94Zm0-3.16c-.18,0-.37.25-.37.58s.19.58.37.58.37-.25.37-.58S239,39.78,238.84,39.78Z"/><path class="cls-1" d="M231.13,20.31h-.07a2.41,2.41,0,0,1-1.59-.68c-.6-.73,0-1.53.34-2,.7-.91,1.21-1.54,1.57-2,.51-.62.72-.88.69-1a8.51,8.51,0,0,0-2.36-1.62c-.57-.34-1-.58-1.4-.77-.79-.41-1.27-.66-1.41-1.23-.26-1.11,1.23-2,2.37-2.53a.5.5,0,0,1,.44.9c-1.92.93-1.84,1.39-1.83,1.4s.43.33.89.57.86.45,1.45.8c1.89,1.11,2.67,1.57,2.83,2.26s-.13.9-.89,1.83c-.36.44-.87,1.06-1.55,1.95-.15.2-.47.61-.37.72a1.7,1.7,0,0,0,.95.33.5.5,0,0,1-.06,1Z"/><path class="cls-1" d="M231.13,21.31l-.24,0a3.29,3.29,0,0,1-2.19-1c-1.11-1.33,0-2.74.32-3.2.7-.92,1.22-1.55,1.59-2l.14-.18c-.44-.28-1.07-.65-1.54-.93s-1-.56-1.36-.74c-.9-.47-1.68-.88-1.92-1.89-.49-2,2-3.21,2.91-3.66a1.5,1.5,0,0,1,2,.7,1.46,1.46,0,0,1,.07,1.14,1.48,1.48,0,0,1-.77.86q-.37.18-.63.33c.34.18.75.39,1.22.67,2.09,1.24,3,1.8,3.29,2.91s-.26,1.67-1.09,2.68c-.3.38-.69.85-1.19,1.49a1.6,1.6,0,0,1,.58.46,1.5,1.5,0,0,1-1.19,2.41Zm-.07-1Z"/><path class="cls-1" d="M237.56,20.33h-.08a2.38,2.38,0,0,1-1.57-.72c-.57-.74.08-1.53.43-2,.74-.89,1.28-1.51,1.66-1.95.54-.61.75-.86.74-1a8.53,8.53,0,0,0-2.28-1.66c-.56-.35-1-.6-1.36-.79-.79-.43-1.26-.69-1.37-1.27-.21-1.11,1.31-1.94,2.47-2.48a.51.51,0,1,1,.42.92c-2,.89-1.91,1.37-1.91,1.37s.43.34.87.58.83.46,1.41.82c1.84,1.15,2.61,1.63,2.73,2.33s-.17.89-1,1.8c-.38.44-.91,1-1.64,1.93-.13.16-.49.6-.41.71s.21.22.94.34a.5.5,0,0,1-.08,1Z"/><path class="cls-1" d="M237.56,21.33h-.22a3.36,3.36,0,0,1-2.22-1.1c-1.06-1.37.07-2.75.45-3.2.74-.91,1.29-1.53,1.68-2l.15-.17c-.42-.29-1-.65-1.45-.93s-1-.58-1.33-.77c-.86-.48-1.67-.92-1.87-2-.39-2,2.1-3.15,3-3.58A1.5,1.5,0,1,1,237,10.37c-.27.12-.49.23-.67.33.33.18.71.4,1.16.68,2,1.28,3,1.87,3.19,3s-.34,1.65-1.2,2.64c-.32.36-.73.83-1.27,1.48a1.5,1.5,0,0,1-.68,2.83Z"/><path class="cls-1" d="M244.24,20.33h-.08a2.36,2.36,0,0,1-1.57-.72c-.57-.74.08-1.53.43-2,.73-.89,1.27-1.51,1.66-1.95.53-.61.75-.86.73-1,0-.27-1.13-.94-2.27-1.66-.56-.35-1-.6-1.37-.79-.78-.43-1.25-.69-1.36-1.27-.22-1.11,1.31-1.94,2.47-2.48a.51.51,0,0,1,.42.92c-2,.89-1.91,1.37-1.91,1.37s.43.34.86.58.84.46,1.42.82c1.84,1.15,2.6,1.63,2.73,2.33s-.17.89-1,1.8c-.38.44-.91,1-1.64,1.93-.14.16-.49.6-.41.71s.21.22.93.34a.5.5,0,0,1-.07,1Z"/><path class="cls-1" d="M244.24,21.33H244a3.33,3.33,0,0,1-2.21-1.1c-1.06-1.37.07-2.75.44-3.2.75-.91,1.3-1.53,1.69-2l.15-.17c-.42-.29-1-.65-1.45-.93s-1-.58-1.33-.77c-.87-.48-1.68-.92-1.88-2-.38-2,2.11-3.15,3.05-3.58a1.5,1.5,0,0,1,1.24,2.74c-.27.12-.49.23-.68.33.33.18.72.4,1.17.68,2,1.28,3,1.87,3.18,3S247.05,16,246.19,17c-.33.36-.74.83-1.27,1.48a1.5,1.5,0,0,1-.68,2.83Z"/><ellipse class="cls-1" cx="259.86" cy="33.07" rx="1.68" ry="1.42"/><path class="cls-1" d="M259.86,35.49a2.43,2.43,0,1,1,2.69-2.42A2.56,2.56,0,0,1,259.86,35.49Zm0-2.84c-.38,0-.68.23-.68.42s.3.42.68.42.69-.23.69-.42S260.25,32.65,259.86,32.65Z"/><ellipse class="cls-1" cx="265.91" cy="41.77" rx="1.94" ry="1.74"/><path class="cls-1" d="M265.91,44.51a2.75,2.75,0,1,1,2.94-2.74A2.85,2.85,0,0,1,265.91,44.51Zm0-3.48a.76.76,0,1,0,0,1.48.76.76,0,1,0,0-1.48Z"/><ellipse class="cls-1" cx="252.05" cy="40.36" rx="1.62" ry="1.87"/><path class="cls-1" d="M252.05,43.22a2.88,2.88,0,1,1,2.62-2.86A2.75,2.75,0,0,1,252.05,43.22Zm0-3.73c-.34,0-.62.4-.62.87s.28.86.62.86.62-.39.62-.86S252.38,39.49,252.05,39.49Z"/><path class="cls-1" d="M147.14,53c-1,0-2-.24-2.41-1.07C144,50.29,146,47.29,151,42.43,161.45,32.32,178.65,25.09,190.15,26c4.47.34,7.76,1.86,9.8,4.53h0a26.14,26.14,0,0,1,3.94,9.07c.68,2.87,1.7,7.19-.07,9.73-1.9,2.72-5.87,2.13-9.06,1.64l-.68-.1c-14.8-2.15-36.16.27-44.18,1.78h-.1A14.3,14.3,0,0,1,147.14,53Zm41.13-26.06c-11.05,0-27,7-36.57,16.26-6.19,6-6.3,7.8-6.07,8.31.4.86,3.1.35,4,.18l.1,0c8.08-1.51,29.59-3.95,44.51-1.78l.69.11c2.91.43,6.54,1,8.09-1.23s.55-6.24-.08-8.93a25.29,25.29,0,0,0-3.77-8.69h0c-1.85-2.43-4.91-3.83-9.08-4.14C189.49,26.91,188.89,26.89,188.27,26.89Z"/><path class="cls-1" d="M147.14,54c-1.69,0-2.81-.55-3.32-1.64-1-2.12.89-5.19,6.48-10.6C160.94,31.43,178.46,24.07,190.22,25c4.77.36,8.31,2,10.52,4.93a26.88,26.88,0,0,1,4.13,9.44c.71,3,1.79,7.62-.23,10.53-2.26,3.24-6.75,2.56-10,2.06l-.68-.1c-14.66-2.13-35.87.27-43.85,1.77l-.1,0A15.9,15.9,0,0,1,147.14,54Zm-.54-3a9.29,9.29,0,0,0,2.83-.26l.1,0c8.13-1.53,29.8-4,44.84-1.79l.68.11c2.65.39,5.94.89,7.12-.81s.33-5.76-.22-8.12a24.42,24.42,0,0,0-3.59-8.33c-1.67-2.19-4.49-3.45-8.36-3.75-.55,0-1.13-.06-1.73-.06-10.85,0-26.61,7-35.88,16C147.65,48.45,146.77,50.33,146.6,50.92Z"/><path class="cls-1" d="M145.76,49.85a.5.5,0,0,1-.49-.39c-.74-3.44-.57-5.63.53-6.69a3,3,0,0,1,2.27-.67,3.24,3.24,0,0,0,2.38-.68,7.89,7.89,0,0,0,1.79-2.93,15.13,15.13,0,0,0,.72-2,2.69,2.69,0,0,1,1-1.75,2,2,0,0,1,1.58-.23,11.06,11.06,0,0,0,1.79.14c1.5,0,2.26,0,2.8-.36a2.7,2.7,0,0,0,1-1.75,3.52,3.52,0,0,1,1.32-2.24c1.31-.91,3.28-.68,4.58-.53a5.83,5.83,0,0,1,.58.08c.45.07.52.07.64,0,.32-.2.41-.62.53-1.29a3.67,3.67,0,0,1,.93-2.2,3.38,3.38,0,0,1,3.2-.56,2.7,2.7,0,0,1,1.32.91c.22.25.33.36.57.41.39.08.71-.16,1.89-1.09.5-.39,1.13-.89,1.94-1.49,1.64-1.21,2.06-1.41,2.59-1.43a2.74,2.74,0,0,1,1.93.77,1.89,1.89,0,0,0,1.19.56c.6.06.93-.28,1.44-.77a2.42,2.42,0,0,1,4.07.23,2.33,2.33,0,0,0,1.47,1,2.26,2.26,0,0,0,1.58-.62,2.48,2.48,0,0,1,1.91-.71c1.39.19,2.54,1.9,3.5,5.24a.5.5,0,0,1-1,.28c-1.08-3.77-2.13-4.46-2.67-4.53-.39-.06-.7.16-1.18.52a3.15,3.15,0,0,1-2.27.81,3.25,3.25,0,0,1-2.12-1.32c-.47-.54-.79-.87-1.32-.89s-.83.26-1.31.72a2.59,2.59,0,0,1-3.94.27,1.7,1.7,0,0,0-1.26-.55c-.23,0-.51.1-2,1.24-.81.59-1.43,1.08-1.92,1.46-1.32,1.05-1.86,1.47-2.73,1.29a1.93,1.93,0,0,1-1.09-.73,1.83,1.83,0,0,0-.88-.62,2.4,2.4,0,0,0-2.2.33,2.84,2.84,0,0,0-.65,1.65,2.63,2.63,0,0,1-1,2,1.69,1.69,0,0,1-1.32.14l-.54-.07c-1.16-.13-2.9-.33-3.9.36a2.64,2.64,0,0,0-.93,1.68,3.56,3.56,0,0,1-1.39,2.32c-.79.53-1.69.52-3.36.53a12.46,12.46,0,0,1-1.93-.15c-.56-.08-.67-.08-.88.06s-.39.47-.6,1.21a16.5,16.5,0,0,1-.76,2.13,8.75,8.75,0,0,1-2.07,3.29,4.16,4.16,0,0,1-3,.92c-.75,0-1.2,0-1.58.39-.8.78-.89,2.77-.24,5.76a.51.51,0,0,1-.39.59Z"/><path class="cls-1" d="M145.76,50.85a1.51,1.51,0,0,1-1.47-1.18c-.83-3.86-.57-6.28.81-7.62a3.93,3.93,0,0,1,3-.95,2.24,2.24,0,0,0,1.73-.45,7.18,7.18,0,0,0,1.53-2.57A13.18,13.18,0,0,0,152,36.2a3.67,3.67,0,0,1,1.41-2.3,2.91,2.91,0,0,1,2.29-.39,9.87,9.87,0,0,0,1.64.13,6.05,6.05,0,0,0,2.25-.19c.28-.2.38-.48.57-1.18a4.51,4.51,0,0,1,1.72-2.81c1.62-1.11,3.81-.86,5.26-.7l.56.08c0-.16.07-.36.09-.48A4.64,4.64,0,0,1,169,25.62a4.3,4.3,0,0,1,4.19-.79A3.66,3.66,0,0,1,175,26l0,0c.25-.16.7-.52,1.08-.81s1.13-.9,2-1.51c1.63-1.21,2.28-1.59,3.14-1.63a3.73,3.73,0,0,1,2.58,1c.36.28.47.35.62.35s.23,0,.65-.44a4,4,0,0,1,2.81-1.33,3.8,3.8,0,0,1,2.77,1.56c.4.46.58.64.82.67s.41-.1.87-.44a3.51,3.51,0,0,1,2.65-.89c1.85.25,3.22,2.14,4.32,6a1.51,1.51,0,0,1-1,1.85,1.41,1.41,0,0,1-1.13-.12,1.51,1.51,0,0,1-.73-.91c-1-3.49-1.85-3.81-1.86-3.81l-.44.34a3.78,3.78,0,0,1-5.72-.66c-.37-.42-.52-.55-.62-.55s-.21.09-.58.44a3.78,3.78,0,0,1-2.9,1.33,3.84,3.84,0,0,1-2.34-1c-.41-.32-.47-.35-.59-.34a13.15,13.15,0,0,0-1.51,1c-.76.56-1.35,1-1.83,1.4-1.45,1.15-2.29,1.81-3.62,1.52a2.83,2.83,0,0,1-1.63-1c-.2-.22-.24-.27-.44-.34s-.92-.17-1.2.1a2.34,2.34,0,0,0-.36,1.1,3.48,3.48,0,0,1-1.43,2.64,2.62,2.62,0,0,1-2,.29l-.5-.07c-1-.11-2.53-.29-3.22.19-.26.18-.35.45-.53,1.12a4.54,4.54,0,0,1-1.8,2.89c-1,.69-2.13.69-3.81.7h-.11a13.67,13.67,0,0,1-2.05-.15l-.22,0a6,6,0,0,0-.18.59,16.81,16.81,0,0,1-.81,2.26A9.65,9.65,0,0,1,151.74,43a5.22,5.22,0,0,1-3.66,1.15c-.62,0-.81,0-.89.11s-.81.91,0,4.83a1.5,1.5,0,0,1-1.15,1.78Zm52.53-22.07h0Z"/><ellipse class="cls-1" cx="167.84" cy="39.36" rx="1.37" ry="1.58"/><path class="cls-1" d="M167.84,41.94a2.59,2.59,0,1,1,2.37-2.58A2.48,2.48,0,0,1,167.84,41.94Zm0-3.16c-.18,0-.37.25-.37.58s.19.58.37.58.37-.25.37-.58S168,38.78,167.84,38.78Z"/><path class="cls-1" d="M160.13,19.31h-.07a2.41,2.41,0,0,1-1.59-.68c-.6-.73,0-1.53.34-2,.7-.91,1.21-1.54,1.57-2,.51-.62.72-.88.69-1a8.51,8.51,0,0,0-2.36-1.62c-.57-.34-1-.58-1.4-.77-.79-.41-1.27-.66-1.41-1.23-.26-1.11,1.23-2,2.37-2.53a.5.5,0,1,1,.44.9c-1.92.93-1.84,1.39-1.83,1.4s.43.33.89.57.86.45,1.45.8c1.89,1.11,2.67,1.57,2.83,2.26s-.13.9-.89,1.83c-.36.44-.87,1.06-1.55,1.95-.15.2-.47.61-.37.72a1.7,1.7,0,0,0,.95.33.5.5,0,0,1-.06,1Z"/><path class="cls-1" d="M160.13,20.31l-.24,0a3.29,3.29,0,0,1-2.19-1c-1.11-1.33,0-2.74.32-3.2.7-.92,1.22-1.55,1.59-2l.14-.18c-.44-.28-1.07-.65-1.54-.93s-1-.56-1.36-.74c-.9-.47-1.68-.88-1.92-1.89-.49-2,2-3.21,2.91-3.66a1.5,1.5,0,0,1,2.07,1.84,1.48,1.48,0,0,1-.77.86q-.37.18-.63.33c.34.18.75.39,1.22.67,2.09,1.24,3,1.8,3.29,2.91s-.26,1.67-1.09,2.68c-.3.38-.69.85-1.19,1.49a1.6,1.6,0,0,1,.58.46,1.5,1.5,0,0,1-1.19,2.41Zm-.07-1Z"/><path class="cls-1" d="M166.56,19.33h-.08a2.38,2.38,0,0,1-1.57-.72c-.57-.74.08-1.53.43-2,.74-.89,1.28-1.51,1.66-1.95.54-.61.75-.86.74-1a8.53,8.53,0,0,0-2.28-1.66c-.56-.35-1-.6-1.36-.79-.79-.43-1.26-.69-1.37-1.27-.21-1.11,1.31-1.94,2.47-2.48a.51.51,0,1,1,.42.92c-2,.89-1.91,1.37-1.91,1.37s.43.34.87.58.83.46,1.41.82c1.84,1.15,2.61,1.63,2.73,2.33s-.17.89-1,1.8c-.38.44-.91,1-1.64,1.93-.13.16-.49.6-.41.71s.21.22.94.34a.5.5,0,0,1-.08,1Z"/><path class="cls-1" d="M166.56,20.33h-.22a3.36,3.36,0,0,1-2.22-1.1c-1.06-1.37.07-2.75.45-3.2.74-.91,1.29-1.53,1.68-2l.15-.17c-.42-.29-1-.65-1.45-.93s-1-.58-1.33-.77c-.86-.48-1.67-.92-1.87-2-.39-2,2.1-3.15,3-3.58a1.48,1.48,0,0,1,1.15,0,1.5,1.5,0,0,1,.84.78,1.5,1.5,0,0,1-.75,2c-.27.12-.49.23-.67.33.33.18.71.4,1.16.68,2,1.28,3,1.87,3.19,3s-.34,1.65-1.2,2.64c-.32.36-.73.83-1.27,1.48a1.5,1.5,0,0,1-.68,2.83Zm.34-6.08Z"/><path class="cls-1" d="M173.24,19.33h-.08a2.36,2.36,0,0,1-1.57-.72c-.57-.74.08-1.53.43-2,.73-.89,1.27-1.51,1.66-1.95.53-.61.75-.86.73-1,0-.27-1.13-.94-2.27-1.66-.56-.35-1-.6-1.37-.79-.78-.43-1.25-.69-1.36-1.27-.22-1.11,1.31-1.94,2.47-2.48a.51.51,0,0,1,.42.92c-2,.89-1.91,1.37-1.91,1.37s.43.34.86.58.84.46,1.42.82c1.84,1.15,2.6,1.63,2.73,2.33s-.17.89-1,1.8c-.38.44-.91,1-1.64,1.93-.14.16-.49.6-.41.71s.21.22.93.34a.5.5,0,0,1-.07,1Z"/><path class="cls-1" d="M173.24,20.33H173a3.33,3.33,0,0,1-2.21-1.1c-1.06-1.37.07-2.75.44-3.2.75-.91,1.3-1.53,1.69-2l.15-.17c-.42-.29-1-.65-1.45-.93s-1-.58-1.33-.77c-.87-.48-1.68-.92-1.88-2-.38-2,2.11-3.15,3.05-3.58a1.5,1.5,0,0,1,1.24,2.74c-.27.12-.49.23-.68.33.33.18.72.4,1.17.68,2,1.28,3,1.87,3.18,3S176.05,15,175.19,16c-.33.36-.74.83-1.27,1.48a1.5,1.5,0,0,1-.68,2.83Zm.34-6.08Z"/><ellipse class="cls-1" cx="186.86" cy="33.07" rx="1.68" ry="1.42"/><path class="cls-1" d="M186.86,35.49a2.43,2.43,0,1,1,2.69-2.42A2.56,2.56,0,0,1,186.86,35.49Zm0-2.84c-.38,0-.68.23-.68.42s.3.42.68.42.69-.23.69-.42S187.25,32.65,186.86,32.65Z"/><ellipse class="cls-1" cx="192.91" cy="41.77" rx="1.94" ry="1.74"/><path class="cls-1" d="M192.91,44.51a2.75,2.75,0,1,1,2.94-2.74A2.85,2.85,0,0,1,192.91,44.51Zm0-3.48a.76.76,0,1,0,0,1.48.76.76,0,1,0,0-1.48Z"/><ellipse class="cls-1" cx="179.05" cy="40.36" rx="1.62" ry="1.87"/><path class="cls-1" d="M179.05,43.22a2.88,2.88,0,1,1,2.62-2.86A2.75,2.75,0,0,1,179.05,43.22Zm0-3.73c-.34,0-.62.4-.62.87s.28.86.62.86.62-.39.62-.86S179.38,39.49,179.05,39.49Z"/><path class="cls-1" d="M73.14,53c-1,0-2-.24-2.41-1.07C70,50.29,72,47.29,77,42.43,87.46,32.32,104.65,25.09,116.15,26c4.47.34,7.76,1.86,9.8,4.53h0a26.14,26.14,0,0,1,3.94,9.07c.68,2.87,1.7,7.19-.07,9.73-1.9,2.72-5.87,2.13-9.06,1.64l-.68-.1c-14.8-2.15-36.16.27-44.18,1.78h-.1A14.3,14.3,0,0,1,73.14,53Zm41.13-26.06c-11,0-27,7-36.57,16.26-6.19,6-6.3,7.8-6.07,8.31.4.86,3.1.35,4,.18l.1,0c8.08-1.51,29.59-3.95,44.51-1.78l.69.11c2.91.43,6.54,1,8.09-1.23s.55-6.24-.08-8.93a25.29,25.29,0,0,0-3.77-8.69h0c-1.85-2.43-4.91-3.83-9.08-4.14C115.49,26.91,114.89,26.89,114.27,26.89Z"/><path class="cls-1" d="M73.14,54c-1.69,0-2.81-.55-3.32-1.64-1-2.12.89-5.19,6.48-10.6C86.94,31.43,104.47,24.07,116.22,25c4.77.36,8.31,2,10.52,4.93a26.88,26.88,0,0,1,4.13,9.44c.71,3,1.79,7.62-.23,10.53-2.26,3.24-6.75,2.56-10,2.06l-.68-.1c-14.66-2.13-35.87.27-43.85,1.77l-.1,0A15.9,15.9,0,0,1,73.14,54Zm-.54-3a9.26,9.26,0,0,0,2.83-.26l.1,0c8.13-1.53,29.8-4,44.84-1.79l.68.11c2.65.39,5.94.89,7.12-.81s.33-5.76-.22-8.12a24.42,24.42,0,0,0-3.59-8.33c-1.67-2.19-4.49-3.45-8.36-3.75-.55,0-1.13-.06-1.73-.06-10.85,0-26.61,7-35.88,16C73.65,48.45,72.77,50.33,72.6,50.92Z"/><path class="cls-1" d="M71.76,49.85a.5.5,0,0,1-.49-.39c-.74-3.44-.57-5.63.53-6.69a3,3,0,0,1,2.27-.67,3.24,3.24,0,0,0,2.38-.68,7.89,7.89,0,0,0,1.79-2.93,15.13,15.13,0,0,0,.72-2,2.69,2.69,0,0,1,1-1.75,2,2,0,0,1,1.58-.23,11.06,11.06,0,0,0,1.79.14c1.5,0,2.26,0,2.8-.36a2.7,2.7,0,0,0,1-1.75,3.52,3.52,0,0,1,1.32-2.24c1.31-.91,3.28-.68,4.58-.53a5.83,5.83,0,0,1,.58.08c.45.07.52.07.64,0,.32-.2.41-.62.53-1.29a3.67,3.67,0,0,1,.93-2.2,3.38,3.38,0,0,1,3.2-.56,2.7,2.7,0,0,1,1.32.91c.22.25.33.36.57.41s.71-.16,1.89-1.09c.5-.39,1.13-.89,1.94-1.49,1.64-1.21,2.06-1.41,2.59-1.43a2.74,2.74,0,0,1,1.93.77,1.89,1.89,0,0,0,1.19.56c.59.06.93-.28,1.44-.77a2.42,2.42,0,0,1,4.07.23,2.33,2.33,0,0,0,1.47,1,2.24,2.24,0,0,0,1.58-.62,2.48,2.48,0,0,1,1.91-.71c1.39.19,2.54,1.9,3.5,5.24a.5.5,0,0,1-1,.28c-1.08-3.77-2.13-4.46-2.67-4.53-.39-.06-.7.16-1.18.52a3.17,3.17,0,0,1-2.27.81,3.25,3.25,0,0,1-2.12-1.32c-.47-.54-.79-.87-1.32-.89s-.83.26-1.31.72a2.59,2.59,0,0,1-3.94.27,1.7,1.7,0,0,0-1.26-.55c-.23,0-.51.1-2,1.24-.81.59-1.43,1.08-1.92,1.46-1.32,1.05-1.86,1.47-2.73,1.29a1.93,1.93,0,0,1-1.09-.73,1.83,1.83,0,0,0-.88-.62,2.4,2.4,0,0,0-2.2.33,2.84,2.84,0,0,0-.65,1.65,2.63,2.63,0,0,1-1,2,1.69,1.69,0,0,1-1.32.14l-.54-.07c-1.16-.13-2.9-.33-3.9.36a2.64,2.64,0,0,0-.93,1.68,3.56,3.56,0,0,1-1.39,2.32c-.79.53-1.7.52-3.36.53a12.46,12.46,0,0,1-1.93-.15c-.56-.08-.67-.08-.88.06s-.39.47-.6,1.21a16.5,16.5,0,0,1-.76,2.13,8.75,8.75,0,0,1-2.07,3.29,4.16,4.16,0,0,1-3,.92c-.75,0-1.2,0-1.58.39-.8.78-.89,2.77-.24,5.76a.51.51,0,0,1-.39.59Z"/><path class="cls-1" d="M71.76,50.85a1.51,1.51,0,0,1-1.47-1.18c-.83-3.86-.57-6.28.81-7.62a3.93,3.93,0,0,1,3-.95,2.24,2.24,0,0,0,1.73-.45,7.18,7.18,0,0,0,1.53-2.57A13.18,13.18,0,0,0,78,36.2a3.67,3.67,0,0,1,1.41-2.3,2.91,2.91,0,0,1,2.29-.39,9.87,9.87,0,0,0,1.64.13,6,6,0,0,0,2.24-.19c.29-.2.39-.48.58-1.18a4.51,4.51,0,0,1,1.72-2.81c1.62-1.11,3.81-.87,5.26-.7l.56.08c0-.16.07-.36.09-.48A4.64,4.64,0,0,1,95,25.62a4.3,4.3,0,0,1,4.19-.79A3.66,3.66,0,0,1,101,26l0,0c.25-.16.7-.52,1.08-.81s1.13-.9,2-1.51c1.63-1.21,2.28-1.59,3.14-1.63a3.69,3.69,0,0,1,2.59,1c.35.28.46.35.61.35s.24,0,.67-.46a3.42,3.42,0,0,1,5.56.25c.4.46.58.64.82.67s.41-.1.87-.44a3.51,3.51,0,0,1,2.65-.89c1.85.25,3.22,2.14,4.32,6a1.51,1.51,0,0,1-1,1.85,1.41,1.41,0,0,1-1.13-.12,1.51,1.51,0,0,1-.73-.91c-1-3.49-1.85-3.81-1.86-3.81l-.44.34a3.78,3.78,0,0,1-5.72-.66c-.37-.42-.52-.55-.62-.55s-.17.06-.58.44a3.76,3.76,0,0,1-2.9,1.33,3.84,3.84,0,0,1-2.34-1c-.41-.32-.47-.35-.59-.34a13.15,13.15,0,0,0-1.51,1c-.76.56-1.35,1-1.83,1.4-1.45,1.15-2.29,1.81-3.62,1.52a2.83,2.83,0,0,1-1.63-1c-.2-.22-.24-.27-.44-.34s-.92-.17-1.2.1a2.34,2.34,0,0,0-.36,1.1,3.48,3.48,0,0,1-1.43,2.64,2.6,2.6,0,0,1-2,.29l-.51-.07c-1-.11-2.53-.29-3.22.19-.26.18-.35.45-.53,1.12a4.54,4.54,0,0,1-1.8,2.89c-1,.69-2.13.69-3.81.7h-.11a13.67,13.67,0,0,1-2-.15l-.22,0a6,6,0,0,0-.18.59,16.81,16.81,0,0,1-.81,2.26A9.65,9.65,0,0,1,77.74,43a5.22,5.22,0,0,1-3.66,1.15c-.62,0-.81,0-.89.11s-.81.91,0,4.83a1.5,1.5,0,0,1-1.15,1.78Zm52.53-22.07h0Z"/><ellipse class="cls-1" cx="93.84" cy="39.36" rx="1.37" ry="1.58"/><path class="cls-1" d="M93.84,41.94a2.59,2.59,0,1,1,2.37-2.58A2.48,2.48,0,0,1,93.84,41.94Zm0-3.16c-.18,0-.37.25-.37.58s.19.58.37.58.37-.25.37-.58S94,38.78,93.84,38.78Z"/><path class="cls-1" d="M86.13,19.31h-.07a2.41,2.41,0,0,1-1.59-.68c-.6-.73,0-1.53.34-2,.7-.91,1.21-1.54,1.57-2,.51-.62.72-.88.69-1a8.51,8.51,0,0,0-2.36-1.62c-.57-.34-1-.58-1.4-.77-.79-.41-1.27-.66-1.41-1.23-.26-1.11,1.23-2,2.37-2.53a.5.5,0,0,1,.44.9c-1.92.93-1.84,1.39-1.83,1.4s.43.33.89.57.86.45,1.45.8c1.89,1.11,2.67,1.57,2.83,2.26s-.13.9-.89,1.83c-.36.44-.87,1.06-1.55,1.95-.15.2-.47.61-.37.72a1.7,1.7,0,0,0,1,.33.5.5,0,0,1-.06,1Z"/><path class="cls-1" d="M86.13,20.31l-.24,0a3.29,3.29,0,0,1-2.19-1c-1.11-1.33,0-2.74.32-3.2.7-.92,1.22-1.55,1.59-2l.14-.18c-.44-.28-1.07-.65-1.54-.93s-1-.56-1.36-.74c-.9-.47-1.68-.88-1.92-1.89-.49-2,2-3.21,2.91-3.66A1.5,1.5,0,0,1,85.91,8.5a1.48,1.48,0,0,1-.77.86q-.37.18-.63.33c.34.18.75.39,1.22.67,2.09,1.24,3,1.8,3.29,2.91s-.26,1.67-1.09,2.68c-.3.38-.69.85-1.19,1.49a1.6,1.6,0,0,1,.58.46,1.5,1.5,0,0,1-1.19,2.41Zm-.07-1Z"/><path class="cls-1" d="M92.56,19.33h-.08a2.38,2.38,0,0,1-1.57-.72c-.57-.74.08-1.53.43-2,.74-.89,1.28-1.51,1.66-1.95.54-.61.75-.86.74-1a8.53,8.53,0,0,0-2.28-1.66c-.56-.35-1-.6-1.36-.79-.79-.43-1.26-.69-1.37-1.27C88.52,8.91,90,8.08,91.2,7.54a.51.51,0,0,1,.42.92c-2,.89-1.91,1.37-1.91,1.37s.43.34.87.58.83.46,1.41.82c1.84,1.15,2.61,1.63,2.73,2.33s-.17.89-1,1.8c-.38.44-.91,1-1.64,1.93-.13.16-.49.6-.41.71s.21.22.94.34a.5.5,0,0,1-.08,1Z"/><path class="cls-1" d="M92.56,20.33h-.22a3.36,3.36,0,0,1-2.22-1.1c-1.06-1.37.07-2.75.45-3.2.74-.91,1.29-1.53,1.68-2l.15-.17c-.42-.29-1-.65-1.45-.93s-1-.58-1.33-.77c-.86-.48-1.67-.92-1.87-2-.39-2,2.1-3.15,3-3.58a1.48,1.48,0,0,1,1.15,0,1.5,1.5,0,0,1,.84.78,1.5,1.5,0,0,1-.75,2c-.27.12-.49.23-.67.33.33.18.71.4,1.16.68,2,1.28,3,1.87,3.19,3S95.37,15,94.51,16c-.32.36-.73.83-1.27,1.48a1.5,1.5,0,0,1-.68,2.83Zm.34-6.08Z"/><path class="cls-1" d="M99.24,19.33h-.08a2.36,2.36,0,0,1-1.57-.72c-.57-.74.08-1.53.43-2,.73-.89,1.27-1.51,1.66-1.95.53-.61.75-.86.73-1,0-.27-1.13-.94-2.27-1.66-.56-.35-1-.6-1.37-.79-.78-.43-1.25-.69-1.36-1.27-.22-1.11,1.31-1.94,2.47-2.48a.51.51,0,0,1,.42.92c-2,.89-1.91,1.37-1.91,1.37s.43.34.86.58.84.46,1.42.82c1.84,1.15,2.6,1.63,2.73,2.33s-.17.89-1,1.8c-.38.44-.91,1-1.64,1.93-.14.16-.49.6-.41.71s.21.22.93.34a.5.5,0,0,1-.07,1Z"/><path class="cls-1" d="M99.24,20.33H99a3.33,3.33,0,0,1-2.21-1.1c-1.06-1.37.07-2.75.44-3.2.75-.91,1.3-1.53,1.69-2l.15-.17c-.42-.29-1-.65-1.45-.93s-1-.58-1.33-.77c-.87-.48-1.68-.92-1.88-2-.38-2,2.11-3.15,3-3.58a1.5,1.5,0,0,1,1.24,2.74c-.27.12-.49.23-.68.33.33.18.72.4,1.17.68,2,1.28,3,1.87,3.18,3S102.05,15,101.19,16c-.33.36-.74.83-1.27,1.48a1.5,1.5,0,0,1-.68,2.83Zm.34-6.08Z"/><ellipse class="cls-1" cx="114.86" cy="32.07" rx="1.68" ry="1.42"/><path class="cls-1" d="M114.86,34.49a2.43,2.43,0,1,1,2.69-2.42A2.56,2.56,0,0,1,114.86,34.49Zm0-2.84c-.38,0-.68.23-.68.42s.3.42.68.42.69-.23.69-.42S115.25,31.65,114.86,31.65Z"/><ellipse class="cls-1" cx="120.91" cy="40.77" rx="1.94" ry="1.74"/><path class="cls-1" d="M120.91,43.51a2.75,2.75,0,1,1,2.94-2.74A2.85,2.85,0,0,1,120.91,43.51Zm0-3.48a.76.76,0,1,0,0,1.48.76.76,0,1,0,0-1.48Z"/><ellipse class="cls-1" cx="107.05" cy="39.36" rx="1.62" ry="1.87"/><path class="cls-1" d="M107.05,42.22a2.88,2.88,0,1,1,2.62-2.86A2.75,2.75,0,0,1,107.05,42.22Zm0-3.73c-.34,0-.62.4-.62.87s.28.86.62.86.62-.39.62-.86S107.38,38.49,107.05,38.49Z"/><path class="cls-1" d="M2.14,53c-1,0-2-.24-2.41-1.07C-1,50.29,1,47.29,6,42.43,16.45,32.32,33.65,25.09,45.15,26c4.47.34,7.76,1.86,9.8,4.53h0a26.14,26.14,0,0,1,3.94,9.07c.68,2.87,1.7,7.19-.07,9.73C56.92,52,53,51.42,49.76,50.93l-.68-.1c-14.8-2.15-36.16.27-44.18,1.78H4.8A14.3,14.3,0,0,1,2.14,53ZM43.27,26.89c-11.05,0-27,7-36.57,16.26C.51,49.13.4,51,.63,51.46c.4.86,3.1.35,4,.18l.1,0c8.08-1.51,29.59-3.95,44.51-1.78l.69.11c2.91.43,6.54,1,8.09-1.23s.55-6.24-.08-8.93a25.29,25.29,0,0,0-3.77-8.69h0c-1.85-2.43-4.91-3.83-9.08-4.14C44.49,26.91,43.89,26.89,43.27,26.89Z"/><path class="cls-1" d="M2.14,54C.45,54-.67,53.4-1.18,52.31c-1-2.12.89-5.19,6.48-10.6C15.94,31.43,33.46,24.07,45.22,25c4.77.36,8.31,2,10.52,4.93a26.88,26.88,0,0,1,4.13,9.44c.71,3,1.79,7.62-.23,10.53-2.26,3.24-6.75,2.56-10,2.06l-.68-.1c-14.66-2.13-35.87.27-43.85,1.77l-.1,0A15.9,15.9,0,0,1,2.14,54Zm-.54-3a9.26,9.26,0,0,0,2.83-.26l.1,0c8.13-1.53,29.8-4,44.84-1.79l.68.11c2.65.39,5.94.89,7.12-.81S57.5,42.39,57,40a24.42,24.42,0,0,0-3.59-8.33C51.69,29.51,48.87,28.25,45,28c-.55,0-1.13-.06-1.73-.06-10.85,0-26.61,7-35.88,16C2.65,48.45,1.77,50.33,1.6,50.92Z"/><path class="cls-1" d="M.76,49.85a.5.5,0,0,1-.49-.39C-.47,46-.3,43.83.8,42.77a3,3,0,0,1,2.27-.67,3.24,3.24,0,0,0,2.38-.68,7.89,7.89,0,0,0,1.79-2.93,15.13,15.13,0,0,0,.72-2,2.69,2.69,0,0,1,1-1.75,2,2,0,0,1,1.58-.23,11.06,11.06,0,0,0,1.79.14c1.5,0,2.26,0,2.8-.36a2.7,2.7,0,0,0,1-1.75,3.52,3.52,0,0,1,1.32-2.24c1.31-.91,3.28-.68,4.58-.53a5.83,5.83,0,0,1,.58.08c.45.07.52.07.64,0,.32-.2.41-.62.53-1.29a3.67,3.67,0,0,1,.93-2.2,3.38,3.38,0,0,1,3.2-.56,2.7,2.7,0,0,1,1.32.91c.22.25.33.36.57.41.39.08.71-.16,1.89-1.09.5-.39,1.13-.89,1.94-1.49,1.64-1.21,2.06-1.41,2.59-1.43a2.74,2.74,0,0,1,1.93.77,1.89,1.89,0,0,0,1.19.56c.6.06.93-.28,1.44-.77a2.42,2.42,0,0,1,4.07.23,2.33,2.33,0,0,0,1.47,1,2.24,2.24,0,0,0,1.58-.62,2.48,2.48,0,0,1,1.91-.71c1.39.19,2.54,1.9,3.5,5.24a.5.5,0,0,1-1,.28c-1.08-3.77-2.13-4.46-2.67-4.53-.39-.06-.7.16-1.18.52a3.15,3.15,0,0,1-2.27.81,3.25,3.25,0,0,1-2.12-1.32c-.47-.54-.79-.87-1.32-.89s-.83.26-1.31.72a2.59,2.59,0,0,1-3.94.27,1.7,1.7,0,0,0-1.26-.55c-.23,0-.51.1-2,1.24-.81.59-1.43,1.08-1.92,1.46-1.32,1.05-1.86,1.47-2.73,1.29a1.93,1.93,0,0,1-1.09-.73,1.83,1.83,0,0,0-.88-.62,2.4,2.4,0,0,0-2.2.33,2.84,2.84,0,0,0-.65,1.65,2.63,2.63,0,0,1-1,2,1.69,1.69,0,0,1-1.32.14l-.54-.07c-1.16-.13-2.9-.33-3.9.36a2.64,2.64,0,0,0-.93,1.68,3.56,3.56,0,0,1-1.39,2.32c-.79.53-1.69.52-3.36.53a12.46,12.46,0,0,1-1.93-.15c-.56-.08-.67-.08-.88.06s-.39.47-.6,1.21a16.5,16.5,0,0,1-.76,2.13,8.75,8.75,0,0,1-2.07,3.29,4.16,4.16,0,0,1-3,.92c-.75,0-1.2,0-1.58.39-.8.78-.89,2.77-.24,5.76a.51.51,0,0,1-.39.59Z"/><path class="cls-1" d="M.76,50.85A1.51,1.51,0,0,1-.71,49.67c-.83-3.86-.57-6.28.81-7.62a3.93,3.93,0,0,1,3-.95,2.24,2.24,0,0,0,1.73-.45,7.18,7.18,0,0,0,1.53-2.57A13.18,13.18,0,0,0,7,36.2,3.67,3.67,0,0,1,8.4,33.9a2.91,2.91,0,0,1,2.29-.39,9.87,9.87,0,0,0,1.64.13,6.05,6.05,0,0,0,2.25-.19c.28-.2.38-.48.57-1.18a4.51,4.51,0,0,1,1.72-2.81c1.62-1.11,3.81-.86,5.26-.7l.56.08c0-.16.07-.36.09-.48A4.64,4.64,0,0,1,24,25.62a4.3,4.3,0,0,1,4.19-.79A3.66,3.66,0,0,1,30,26l0,0c.25-.16.7-.52,1.07-.81s1.14-.9,2-1.51c1.63-1.21,2.28-1.59,3.14-1.63a3.76,3.76,0,0,1,2.59,1c.35.28.46.35.61.35s.23,0,.65-.44a3.85,3.85,0,0,1,2.74-1.33h.07a3.8,3.8,0,0,1,2.77,1.56c.4.46.58.64.82.67s.41-.1.87-.44a3.51,3.51,0,0,1,2.65-.89c1.85.25,3.22,2.14,4.32,6a1.51,1.51,0,0,1-1,1.85,1.41,1.41,0,0,1-1.13-.12,1.51,1.51,0,0,1-.73-.91c-1-3.49-1.85-3.81-1.86-3.81l-.44.34a3.78,3.78,0,0,1-5.72-.66c-.37-.42-.52-.55-.62-.55a1.83,1.83,0,0,0-.58.44,3.8,3.8,0,0,1-2.9,1.33,3.84,3.84,0,0,1-2.34-1c-.42-.33-.47-.35-.59-.34a13.15,13.15,0,0,0-1.51,1c-.76.56-1.35,1-1.83,1.4-1.45,1.15-2.29,1.81-3.62,1.52a2.83,2.83,0,0,1-1.63-1c-.2-.22-.24-.27-.44-.34s-.92-.17-1.2.1a2.34,2.34,0,0,0-.36,1.1,3.48,3.48,0,0,1-1.43,2.64,2.62,2.62,0,0,1-2,.29l-.5-.07c-.95-.11-2.53-.29-3.22.19-.26.18-.35.45-.53,1.12a4.54,4.54,0,0,1-1.8,2.89c-1,.69-2.13.69-3.81.7h-.11a13.67,13.67,0,0,1-2.05-.15l-.22,0a6,6,0,0,0-.18.59,16.81,16.81,0,0,1-.81,2.26A9.65,9.65,0,0,1,6.74,43,5.22,5.22,0,0,1,3.08,44.1c-.62,0-.81,0-.89.11s-.81.91,0,4.83a1.5,1.5,0,0,1-1.15,1.78ZM53.29,28.78h0Z"/><ellipse class="cls-1" cx="22.84" cy="39.36" rx="1.37" ry="1.58"/><path class="cls-1" d="M22.84,41.94a2.59,2.59,0,1,1,2.37-2.58A2.48,2.48,0,0,1,22.84,41.94Zm0-3.16c-.18,0-.37.25-.37.58s.19.58.37.58.37-.25.37-.58S23,38.78,22.84,38.78Z"/><path class="cls-1" d="M15.13,19.31h-.07a2.41,2.41,0,0,1-1.59-.68c-.6-.73,0-1.53.34-2,.7-.91,1.21-1.54,1.57-2,.51-.62.72-.88.69-1a8.51,8.51,0,0,0-2.36-1.62c-.57-.34-1-.58-1.4-.77-.79-.41-1.27-.66-1.41-1.23-.26-1.11,1.23-2,2.37-2.53a.5.5,0,1,1,.44.9c-1.92.93-1.84,1.39-1.83,1.4s.43.33.89.57.86.45,1.45.8c1.89,1.11,2.67,1.57,2.83,2.26s-.13.9-.89,1.83c-.36.44-.87,1.06-1.55,1.95-.15.2-.47.61-.37.72a1.7,1.7,0,0,0,.95.33.5.5,0,0,1-.06,1Z"/><path class="cls-1" d="M15.13,20.31l-.24,0a3.29,3.29,0,0,1-2.19-1c-1.11-1.33,0-2.74.32-3.2.7-.92,1.22-1.55,1.59-2l.14-.18c-.44-.28-1.07-.65-1.54-.93s-1-.56-1.36-.74c-.9-.47-1.68-.88-1.92-1.89-.49-2,2-3.21,2.91-3.66A1.5,1.5,0,0,1,14.91,8.5a1.48,1.48,0,0,1-.77.86q-.37.18-.63.33c.34.18.75.39,1.22.67,2.09,1.24,3,1.8,3.29,2.91s-.26,1.67-1.09,2.68c-.3.38-.69.85-1.19,1.49a1.6,1.6,0,0,1,.58.46,1.5,1.5,0,0,1-1.19,2.41Zm-.07-1Z"/><path class="cls-1" d="M21.56,19.33h-.08a2.38,2.38,0,0,1-1.57-.72c-.57-.74.08-1.53.43-2,.74-.89,1.28-1.51,1.66-1.95.54-.61.75-.86.74-1a8.53,8.53,0,0,0-2.28-1.66c-.56-.35-1-.6-1.36-.79-.79-.43-1.26-.69-1.37-1.27C17.52,8.91,19,8.08,20.2,7.54a.51.51,0,1,1,.42.92c-2,.89-1.91,1.37-1.91,1.37s.43.34.87.58.83.46,1.41.82c1.84,1.15,2.61,1.63,2.73,2.33s-.17.89-1,1.8c-.38.44-.91,1-1.64,1.93-.13.16-.49.6-.41.71s.21.22.94.34a.5.5,0,0,1-.08,1Z"/><path class="cls-1" d="M21.56,20.33h-.22a3.36,3.36,0,0,1-2.22-1.1c-1.06-1.37.07-2.75.45-3.2.74-.91,1.29-1.53,1.68-2l.15-.17c-.42-.29-1-.65-1.45-.93s-1-.58-1.33-.77c-.86-.48-1.67-.92-1.87-2-.39-2,2.1-3.15,3-3.58A1.5,1.5,0,1,1,21,9.37c-.27.12-.49.23-.67.33.33.18.71.4,1.16.68,2.05,1.28,3,1.87,3.19,3S24.37,15,23.51,16c-.32.36-.73.83-1.27,1.48a1.5,1.5,0,0,1-.68,2.83Zm.34-6.08Z"/><path class="cls-1" d="M28.24,19.33h-.08a2.36,2.36,0,0,1-1.57-.72c-.57-.74.08-1.53.43-2,.73-.89,1.27-1.51,1.66-1.95.53-.61.75-.86.73-1,0-.27-1.13-.94-2.27-1.66-.56-.35-1-.6-1.37-.79-.78-.43-1.25-.69-1.36-1.27-.22-1.11,1.31-1.94,2.47-2.48a.51.51,0,0,1,.42.92c-2,.89-1.91,1.37-1.91,1.37s.43.34.86.58.84.46,1.42.82c1.84,1.15,2.6,1.63,2.73,2.33s-.17.89-1,1.8c-.38.44-.91,1-1.64,1.93-.14.16-.49.6-.41.71s.21.22.93.34a.5.5,0,0,1-.07,1Z"/><path class="cls-1" d="M28.24,20.33H28a3.33,3.33,0,0,1-2.21-1.1c-1.06-1.37.07-2.75.44-3.2.75-.91,1.3-1.53,1.69-2l.15-.17c-.42-.29-1-.65-1.45-.93s-1-.58-1.33-.77c-.87-.48-1.68-.92-1.88-2-.38-2,2.11-3.15,3-3.58a1.48,1.48,0,0,1,1.15,0,1.45,1.45,0,0,1,.83.78,1.48,1.48,0,0,1,0,1.15,1.49,1.49,0,0,1-.78.84c-.27.12-.49.23-.68.33.33.18.72.4,1.17.68,2,1.28,3,1.87,3.18,3S31.05,15,30.19,16c-.33.36-.74.83-1.27,1.48a1.5,1.5,0,0,1-.68,2.83Zm.34-6.08Z"/><ellipse class="cls-1" cx="41.86" cy="33.07" rx="1.68" ry="1.42"/><path class="cls-1" d="M41.86,35.49a2.43,2.43,0,1,1,2.69-2.42A2.56,2.56,0,0,1,41.86,35.49Zm0-2.84c-.38,0-.68.23-.68.42s.3.42.68.42.69-.23.69-.42S42.25,32.65,41.86,32.65Z"/><ellipse class="cls-1" cx="47.91" cy="41.77" rx="1.94" ry="1.74"/><path class="cls-1" d="M47.91,44.51a2.75,2.75,0,1,1,2.94-2.74A2.85,2.85,0,0,1,47.91,44.51Zm0-3.48a.76.76,0,1,0,0,1.48.76.76,0,1,0,0-1.48Z"/><ellipse class="cls-1" cx="34.05" cy="40.36" rx="1.62" ry="1.87"/><path class="cls-1" d="M34.05,43.22a2.88,2.88,0,1,1,2.62-2.86A2.75,2.75,0,0,1,34.05,43.22Zm0-3.73c-.34,0-.62.4-.62.87s.28.86.62.86.62-.39.62-.86S34.38,39.49,34.05,39.49Z"/><path class="cls-1" d="M289.14,54c-1.05,0-2-.24-2.41-1.07C286,51.29,288,48.29,293,43.43,303.45,33.32,320.65,26.09,332.15,27c4.47.34,7.76,1.86,9.8,4.53h0a26.14,26.14,0,0,1,3.94,9.07c.68,2.87,1.7,7.19-.07,9.73-1.9,2.72-5.87,2.13-9.06,1.64l-.68-.1c-14.8-2.15-36.16.27-44.18,1.78h-.1A14.3,14.3,0,0,1,289.14,54Zm41.13-26.06c-11,0-27,7-36.57,16.26-6.19,6-6.3,7.8-6.07,8.31.4.86,3.1.35,4,.18l.1,0c8.08-1.51,29.59-3.95,44.51-1.78l.69.11c2.91.43,6.54,1,8.09-1.23s.55-6.24-.08-8.93a25.29,25.29,0,0,0-3.77-8.69h0c-1.85-2.43-4.91-3.83-9.08-4.14C331.49,27.91,330.89,27.89,330.27,27.89Z"/><path class="cls-1" d="M289.14,55c-1.69,0-2.81-.55-3.32-1.64-1-2.12.89-5.19,6.48-10.6C302.94,32.43,320.47,25.07,332.22,26c4.77.36,8.31,2,10.52,4.93a26.88,26.88,0,0,1,4.13,9.44c.71,3,1.79,7.62-.23,10.53-2.26,3.24-6.75,2.56-10,2.06l-.68-.1c-14.66-2.13-35.87.27-43.85,1.77l-.1,0A15.9,15.9,0,0,1,289.14,55Zm-.54-3a9.28,9.28,0,0,0,2.83-.26l.1,0c8.13-1.53,29.8-4,44.84-1.79l.68.11c2.66.4,5.94.89,7.13-.81s.32-5.76-.23-8.12a24.42,24.42,0,0,0-3.59-8.33c-1.67-2.19-4.49-3.45-8.36-3.75-.55,0-1.13-.06-1.73-.06-10.85,0-26.61,7-35.88,16C289.65,49.45,288.77,51.33,288.6,51.92Z"/><path class="cls-1" d="M287.76,50.85a.5.5,0,0,1-.49-.39c-.74-3.44-.57-5.63.53-6.69a3,3,0,0,1,2.27-.67,3.24,3.24,0,0,0,2.38-.68,7.89,7.89,0,0,0,1.79-2.93,15.13,15.13,0,0,0,.72-2,2.69,2.69,0,0,1,1-1.75,2,2,0,0,1,1.58-.23,11.06,11.06,0,0,0,1.79.14c1.5,0,2.26,0,2.8-.36a2.7,2.7,0,0,0,1-1.75,3.52,3.52,0,0,1,1.32-2.24c1.31-.91,3.28-.68,4.58-.53a5.83,5.83,0,0,1,.58.08c.45.07.52.07.64,0,.32-.2.41-.62.53-1.29a3.67,3.67,0,0,1,.93-2.2,3.38,3.38,0,0,1,3.2-.56,2.7,2.7,0,0,1,1.32.91c.22.25.33.36.57.41s.71-.16,1.89-1.09c.5-.39,1.13-.89,1.94-1.49,1.64-1.21,2.06-1.41,2.59-1.43a2.76,2.76,0,0,1,1.93.77,1.89,1.89,0,0,0,1.19.56c.6.06.93-.28,1.44-.77a2.72,2.72,0,0,1,2-1,2.78,2.78,0,0,1,2,1.23,2.33,2.33,0,0,0,1.47,1,2.24,2.24,0,0,0,1.58-.62,2.52,2.52,0,0,1,1.91-.71c1.39.19,2.54,1.9,3.5,5.24a.5.5,0,0,1-1,.28c-1.08-3.77-2.13-4.46-2.67-4.53s-.7.16-1.18.52a3.11,3.11,0,0,1-2.27.81,3.25,3.25,0,0,1-2.12-1.32c-.47-.54-.79-.87-1.32-.89s-.83.26-1.31.72a2.87,2.87,0,0,1-2.16,1.05,2.81,2.81,0,0,1-1.78-.78,1.7,1.7,0,0,0-1.26-.55c-.23,0-.51.1-2,1.24-.81.59-1.43,1.08-1.92,1.46-1.32,1.05-1.86,1.47-2.73,1.29a1.93,1.93,0,0,1-1.09-.73,1.83,1.83,0,0,0-.88-.62,2.4,2.4,0,0,0-2.2.33,2.84,2.84,0,0,0-.65,1.65,2.63,2.63,0,0,1-1,2,1.69,1.69,0,0,1-1.32.14l-.54-.07c-1.16-.13-2.9-.33-3.9.36a2.64,2.64,0,0,0-.93,1.68,3.56,3.56,0,0,1-1.39,2.32c-.79.53-1.69.53-3.36.53a12.46,12.46,0,0,1-1.93-.15c-.56-.08-.67-.08-.88.06s-.39.47-.6,1.21a16.5,16.5,0,0,1-.76,2.13,8.75,8.75,0,0,1-2.07,3.29,4.16,4.16,0,0,1-3,.92c-.75,0-1.2,0-1.58.39-.8.78-.89,2.77-.24,5.76a.51.51,0,0,1-.39.59Z"/><path class="cls-1" d="M287.76,51.85a1.51,1.51,0,0,1-1.47-1.18c-.83-3.86-.57-6.28.81-7.62a3.93,3.93,0,0,1,3-.95,2.24,2.24,0,0,0,1.73-.45,7.18,7.18,0,0,0,1.53-2.57A13.18,13.18,0,0,0,294,37.2a3.67,3.67,0,0,1,1.41-2.3,2.91,2.91,0,0,1,2.29-.39,9.87,9.87,0,0,0,1.64.13h.19a5.55,5.55,0,0,0,2.05-.19c.29-.2.39-.48.58-1.18a4.51,4.51,0,0,1,1.72-2.81c1.62-1.11,3.8-.86,5.25-.7l.57.08c0-.16.07-.36.09-.48A4.64,4.64,0,0,1,311,26.62a4.3,4.3,0,0,1,4.19-.79A3.66,3.66,0,0,1,317,27l0,0c.25-.16.68-.5,1.07-.81s1.14-.9,2-1.51c1.63-1.21,2.28-1.59,3.14-1.63a3.75,3.75,0,0,1,2.59,1c.35.28.46.35.61.35s.23,0,.66-.44a3.66,3.66,0,0,1,2.81-1.33,3.8,3.8,0,0,1,2.76,1.56c.4.46.58.64.82.67s.39-.09.87-.44a3.51,3.51,0,0,1,2.64-.89c1.86.25,3.23,2.14,4.33,6a1.51,1.51,0,0,1-1,1.85,1.44,1.44,0,0,1-1.13-.12,1.5,1.5,0,0,1-.73-.91c-1-3.49-1.85-3.81-1.86-3.81s-.27.21-.44.34a4.13,4.13,0,0,1-3,1,4.17,4.17,0,0,1-2.76-1.66c-.37-.42-.52-.55-.62-.55s-.22.1-.58.44a3.56,3.56,0,0,1-5.24.34c-.42-.33-.48-.35-.58-.34a11.37,11.37,0,0,0-1.52,1c-.76.56-1.35,1-1.83,1.4-1.45,1.15-2.29,1.81-3.62,1.52a2.83,2.83,0,0,1-1.63-1c-.2-.22-.24-.27-.44-.34s-.92-.17-1.2.1a2.34,2.34,0,0,0-.36,1.1,3.48,3.48,0,0,1-1.43,2.64,2.6,2.6,0,0,1-2,.29l-.51-.07c-.95-.11-2.53-.29-3.22.19-.26.18-.35.45-.53,1.12a4.54,4.54,0,0,1-1.8,2.89c-1.05.7-2.19.7-3.92.7a13.67,13.67,0,0,1-2.05-.15l-.23,0-.17.59a16.81,16.81,0,0,1-.81,2.26A9.65,9.65,0,0,1,293.74,44a5.22,5.22,0,0,1-3.66,1.15c-.62,0-.81,0-.89.11s-.81.91,0,4.83a1.5,1.5,0,0,1-1.15,1.78ZM340.3,29.78Z"/><ellipse class="cls-1" cx="309.84" cy="40.36" rx="1.37" ry="1.58"/><path class="cls-1" d="M309.84,42.94a2.59,2.59,0,1,1,2.37-2.58A2.48,2.48,0,0,1,309.84,42.94Zm0-3.16c-.18,0-.37.25-.37.58s.19.58.37.58.37-.25.37-.58S310,39.78,309.84,39.78Z"/><path class="cls-1" d="M302.13,20.31h-.07a2.41,2.41,0,0,1-1.59-.68c-.6-.73,0-1.53.34-2,.7-.91,1.21-1.54,1.57-2,.51-.62.72-.88.69-1a8.51,8.51,0,0,0-2.36-1.62c-.57-.34-1-.58-1.4-.77-.79-.41-1.27-.66-1.41-1.23-.26-1.11,1.23-2,2.37-2.53a.5.5,0,0,1,.44.9c-1.92.93-1.84,1.39-1.83,1.4s.43.33.89.57.86.45,1.45.8c1.89,1.11,2.67,1.57,2.83,2.26s-.13.9-.89,1.83c-.36.44-.87,1.06-1.55,1.95-.15.2-.47.61-.37.72a1.7,1.7,0,0,0,.95.33.5.5,0,0,1-.06,1Z"/><path class="cls-1" d="M302.13,21.31l-.24,0a3.29,3.29,0,0,1-2.19-1c-1.11-1.33,0-2.74.32-3.2.7-.92,1.22-1.55,1.59-2l.14-.18c-.44-.28-1.07-.65-1.54-.93s-1-.56-1.36-.74c-.9-.47-1.68-.88-1.92-1.89-.49-2,2-3.21,2.91-3.66a1.5,1.5,0,0,1,2.07,1.84,1.48,1.48,0,0,1-.77.86q-.37.18-.63.33c.34.18.75.39,1.22.67,2.09,1.24,3,1.8,3.29,2.91s-.26,1.67-1.09,2.68c-.3.38-.69.85-1.19,1.49a1.6,1.6,0,0,1,.58.46,1.5,1.5,0,0,1-1.19,2.41Zm-.07-1Z"/><path class="cls-1" d="M308.56,20.33h-.08a2.38,2.38,0,0,1-1.57-.72c-.57-.74.08-1.53.43-2,.74-.89,1.28-1.51,1.66-1.95.54-.61.75-.86.74-1a8.53,8.53,0,0,0-2.28-1.66c-.56-.35-1-.6-1.36-.79-.79-.43-1.26-.69-1.37-1.27-.21-1.11,1.31-1.94,2.47-2.48a.51.51,0,1,1,.42.92c-2,.89-1.91,1.37-1.91,1.37s.43.34.87.58.83.46,1.41.82c1.84,1.15,2.61,1.63,2.73,2.33s-.17.89-1,1.8c-.38.44-.91,1-1.64,1.93-.13.16-.49.6-.41.71s.21.22.94.34a.5.5,0,0,1-.08,1Z"/><path class="cls-1" d="M308.56,21.33h-.22a3.36,3.36,0,0,1-2.22-1.1c-1.06-1.37.07-2.75.45-3.2.74-.91,1.29-1.53,1.68-2l.15-.17c-.42-.29-1-.65-1.45-.93s-1-.58-1.33-.77c-.86-.48-1.67-.92-1.87-2-.39-2,2.1-3.15,3-3.58A1.5,1.5,0,0,1,308,10.37c-.27.12-.49.23-.67.33.33.18.71.4,1.16.68,2.05,1.28,3,1.87,3.19,3s-.34,1.65-1.2,2.64c-.32.36-.73.83-1.27,1.48a1.5,1.5,0,0,1-.68,2.83Z"/><path class="cls-1" d="M315.24,20.33h-.08a2.36,2.36,0,0,1-1.57-.72c-.57-.74.08-1.53.43-2,.73-.89,1.27-1.51,1.66-1.95.53-.61.75-.86.73-1,0-.27-1.13-.94-2.27-1.66-.56-.35-1-.6-1.37-.79-.78-.43-1.25-.69-1.36-1.27-.22-1.11,1.31-1.94,2.47-2.48a.51.51,0,0,1,.42.92c-2,.89-1.91,1.37-1.91,1.37s.43.34.86.58.84.46,1.42.82c1.84,1.15,2.6,1.63,2.73,2.33s-.17.89-1,1.8c-.38.44-.91,1-1.64,1.93-.14.16-.49.6-.41.71s.21.22.93.34a.5.5,0,0,1-.07,1Z"/><path class="cls-1" d="M315.24,21.33H315a3.33,3.33,0,0,1-2.21-1.1c-1.06-1.37.07-2.75.44-3.2.75-.91,1.3-1.53,1.69-2l.15-.17c-.42-.29-1-.65-1.45-.93s-1-.58-1.33-.77c-.87-.48-1.68-.92-1.88-2-.38-2,2.11-3.15,3.05-3.58a1.5,1.5,0,0,1,1.24,2.74c-.27.12-.49.23-.68.33.33.18.72.4,1.17.68,2,1.28,3,1.87,3.18,3S318.05,16,317.19,17c-.33.36-.74.83-1.27,1.48a1.5,1.5,0,0,1-.68,2.83Z"/><ellipse class="cls-1" cx="330.86" cy="33.07" rx="1.68" ry="1.42"/><path class="cls-1" d="M330.86,35.49a2.43,2.43,0,1,1,2.69-2.42A2.56,2.56,0,0,1,330.86,35.49Zm0-2.84c-.38,0-.68.23-.68.42s.3.42.68.42.69-.23.69-.42S331.25,32.65,330.86,32.65Z"/><ellipse class="cls-1" cx="336.91" cy="41.77" rx="1.94" ry="1.74"/><path class="cls-1" d="M336.91,44.51a2.75,2.75,0,1,1,2.94-2.74A2.85,2.85,0,0,1,336.91,44.51Zm0-3.48a.76.76,0,1,0,0,1.48.76.76,0,1,0,0-1.48Z"/><ellipse class="cls-1" cx="323.05" cy="40.36" rx="1.62" ry="1.87"/><path class="cls-1" d="M323.05,43.22a2.88,2.88,0,1,1,2.62-2.86A2.75,2.75,0,0,1,323.05,43.22Zm0-3.73c-.34,0-.62.4-.62.87s.28.86.62.86.62-.39.62-.86S323.38,39.49,323.05,39.49Z"/></svg>