<svg id="Layer_1" data-name="Layer 1" xmlns="http://www.w3.org/2000/svg" viewBox="0 0 862 291"><defs><style>.cls-1{fill:#ffbad1;}</style></defs><title>chili_pink</title><path class="cls-1" d="M48.87,274.48c-8.75,0-16.17-1.64-21.48-5.62-1.93-1.44-7.79-5.83-7.89-12.3-.11-7.08,6.71-12,9.62-14.11,4.86-3.52,9.67-7.3,14.32-11,8-6.32,16.35-12.86,25.29-18.31,6.67-4.06,22.32-13.59,37.32-27.13,4.78-4.32,5.94-5.84,9.81-10.9,3.72-4.89,10-13.05,24.15-29.9,11.51-16.35,23.52-36.24,22.9-40l-.76-1.62c-1.15-1.17-3.88-1.21-6.52-1.25-3.81,0-8.55-.12-10.7-4.08-2.86-5.29,1.7-12,7-19.8,3.18-4.67,7.11-10.46,14.27-16C176.69,54.36,188.5,50,200.32,50h.18A51.82,51.82,0,0,1,218,53.25c4.7,1.57,6.49,2,8.16.7.67-.52.78-.78,1.49-5.88.48-3.4,1.19-8.54,2.71-16.56.73-3.9,1.86-9.56,3.18-16l1.06-2.39,1.85-.85c21,1.13,33.81,3.29,36.12,6.06,8.56,10.29,1.62,33.28-6.69,45.91-1,1.53-2,2.87-2.88,4.06-2.63,3.55-3.88,5.37-3.57,7.93.35,2.92,2.45,4.44,6.43,7.08a39.87,39.87,0,0,1,10.18,8.79c9.24,11.84,7.09,27.54,5.67,37.92-1.77,12.86-9.25,36.51-19.46,36.51h-.38c-3.84-.23-5.63-3.52-7.07-6.17-1.27-2.34-2.2-3.88-3.58-4.16-3.34-.69-8,6.9-13.5,15.67-5.06,8.14-11.35,18.26-20,28.08-13.77,15.52-27.67,23.6-46.91,34.79-21.29,12.38-38.58,18.39-55.3,24.21C92.19,267,67.51,274.48,48.87,274.48ZM200.5,55.12h-.16c-10.68,0-21.4,4-31,11.46-6.52,5.06-10.05,10.25-13.16,14.83-3.8,5.61-8.1,11.94-6.73,14.48.66,1.22,2.91,1.34,6.25,1.39,3.79.06,8.09.12,10.66,3.39l.31.52,1,2.16c2.77,6.13-13.54,30.8-23.51,45l-.13.18c-14.17,16.81-20.37,24.93-24.08,29.79a65.18,65.18,0,0,1-10.45,11.6C94.13,203.73,78.2,213.43,71.4,217.58c-8.67,5.28-16.86,11.72-24.78,17.95-4.69,3.69-9.54,7.51-14.47,11.07-2.28,1.65-7.58,5.48-7.51,9.88.06,3.94,4.4,7.19,5.83,8.26,16.7,12.51,65.09-4.32,83.31-10.65,16.49-5.74,33.55-11.67,54.4-23.79,18.83-11,32.44-18.86,45.65-33.76,8.41-9.49,14.57-19.41,19.53-27.38,7.26-11.68,12.08-19.39,18.9-18,3.82.78,5.62,4.08,7.06,6.74,1.13,2.08,1.94,3.44,2.86,3.5h.1c4.38,0,12.06-15.39,14.34-32.07,1.39-10.1,3.28-23.93-4.62-34.06a35,35,0,0,0-9-7.66c-4.14-2.75-8-5.34-8.69-10.76-.57-4.71,1.8-7.9,4.54-11.61.88-1.18,1.79-2.41,2.72-3.82,8.27-12.58,13-32,7.21-39.55-.88-.48-6.46-2.91-30.42-4.33-1.23,6-2.28,11.24-3,14.92-1.49,7.9-2.2,13-2.67,16.32-.76,5.51-1,7.36-3.42,9.23-4,3.11-8.14,1.72-13,.11A46.9,46.9,0,0,0,200.5,55.12ZM269,21.94Z"/><path class="cls-1" d="M48.86,277.48c-10.07,0-17.69-2-23.27-6.22-2.22-1.66-9-6.71-9.09-14.66C16.37,248,24.07,242.39,27.36,240c4.84-3.49,9.61-7.25,14.23-10.88,8.13-6.39,16.5-13,25.58-18.51,6.61-4,22.08-13.45,36.87-26.8,4.57-4.13,5.6-5.48,9.43-10.49s10-13.08,24.16-29.91c12.21-17.35,21.56-33.68,22.26-37.5l-.08-.19a22.54,22.54,0,0,0-4.23-.31c-4.11-.06-10.3-.15-13.28-5.65-3.74-6.89,1.54-14.67,7.13-22.91C152.72,72,156.81,66,164.34,60.15c11-8.57,23.48-13.12,36-13.17h.2A54.54,54.54,0,0,1,219,50.4c2.76.92,4.41,1.41,5.11,1.29.19-.9.45-2.81.62-4,.48-3.47,1.21-8.65,2.73-16.71.75-4,1.88-9.65,3.2-16l.06-.31,1.64-3.73,3.56-1.64.74,0c33.85,1.83,37.06,5.69,38.26,7.14,9.93,11.93,2,36.58-6.48,49.48-1,1.6-2.07,3-3,4.19-2.51,3.38-3.17,4.49-3,5.8s1.31,2.41,5.11,4.93a42.49,42.49,0,0,1,10.89,9.44c10,12.84,7.76,29.29,6.27,40.17-1.39,10.15-8.5,39.11-22.43,39.11l-.56,0c-5.5-.32-8-5-9.53-7.73a18.85,18.85,0,0,0-1.55-2.53c-2.23,1.14-7.08,8.94-10.33,14.18-5.14,8.26-11.51,18.5-20.37,28.5-14.08,15.88-28.16,24.07-47.64,35.39-21.53,12.52-38.95,18.58-55.8,24.44-21,7.32-47.73,15.71-67.61,15.71h0ZM152.26,94.1a30.87,30.87,0,0,0,3.48.18c4,.06,9.53.14,13,4.54l.2.29.48.83s1,2.17,1,2.23c1.05,2.3,3.88,8.56-23.8,47.86l-.3.38c-14.12,16.76-20.29,24.85-24,29.68a68.44,68.44,0,0,1-10.83,12c-15.56,14-31.66,23.86-38.53,28-8.54,5.2-16.65,11.58-24.49,17.76-4.75,3.73-9.61,7.56-14.57,11.14-1.57,1.13-6.31,4.56-6.27,7.4,0,1.13.84,3.07,4.62,5.91,15.42,11.55,64.42-5.48,80.52-11.08,16.38-5.7,33.29-11.58,53.89-23.56,18.59-10.8,32-18.61,44.91-33.16,8.25-9.29,14.34-19.09,19.23-27,7.64-12.29,13.16-21.18,22.05-19.36,5.19,1.05,7.54,5.38,9.1,8.24.18.35.51.95.82,1.46,2.84-2.61,8.84-14.19,10.87-29,1.31-9.57,3.11-22.67-4-31.81a32.56,32.56,0,0,0-8.26-7c-4.32-2.86-9.21-6.11-10-12.9-.71-5.89,2.25-9.89,5.11-13.75.81-1.09,1.72-2.32,2.62-3.69,7.92-12.05,11.58-29.2,7.74-35.5-1.71-.63-7.9-2.38-26-3.58-1,4.85-1.85,9.16-2.44,12.33-1.48,7.84-2.18,12.86-2.64,16.18-.8,5.7-1.2,8.56-4.56,11.18-5.26,4.09-10.59,2.31-15.74.59a43.61,43.61,0,0,0-14.93-2.85h-.16c-10,0-20.09,3.79-29.16,10.83-6.15,4.77-9.53,9.75-12.51,14.14C156.56,86.19,152.82,91.71,152.26,94.1ZM262,158.43ZM152.19,94.74Z"/><path class="cls-1" d="M166.48,103.67l-4.29-2.83A12.32,12.32,0,0,1,164.78,98c2.85-2.3,5.84-2.46,8.73-2.62.9,0,1.85-.1,2.86-.22a10.41,10.41,0,0,0,1.34-.28,43.14,43.14,0,0,1,11.48-1.16v5.14a38.13,38.13,0,0,0-10.27,1,16.66,16.66,0,0,1-1.94.39c-1.13.13-2.19.19-3.19.25-2.78.15-4.29.28-5.79,1.49A7.11,7.11,0,0,0,166.48,103.67Z"/><path class="cls-1" d="M167.33,107.83l-9.3-6.14,1.65-2.5a15.32,15.32,0,0,1,3.23-3.56c3.59-2.9,7.38-3.1,10.43-3.27.87,0,1.76-.1,2.68-.21a7,7,0,0,0,.85-.18l.12,0a45.63,45.63,0,0,1,12.2-1.25h3v11.14h-3a35.21,35.21,0,0,0-9.56.94,19.54,19.54,0,0,1-2.3.45c-1.22.14-2.36.21-3.37.26-2.61.15-3.36.26-4.08.84a4.38,4.38,0,0,0-.9,1Z"/><path class="cls-1" d="M252.28,156.69l-2.78-4.32a1.82,1.82,0,0,0-.52.48,13.25,13.25,0,0,0,.55-1.23,14.12,14.12,0,0,1,.88-1.86c.51-.82.37-1.9,0-4.07-.14-.88-.29-1.83-.39-2.89a16.5,16.5,0,0,1,.11-5.19,2,2,0,0,0,0-1.25c-.41-1.49-1.11-2.11-2.64-3.46a33.85,33.85,0,0,1-5.53-6,23,23,0,0,1-2.4-4,3.16,3.16,0,0,0-.22-.45c-3.39-1.92-11.93,2.78-17.5,8.22-.41.41-.63.64-.8.83a11.27,11.27,0,0,1-1,1c-5.58,4.8-15.09,7.38-20.33,3.55-3.74-2.72-4-7.62-4.48-17.37-.15-2.86-.15-5.08-.16-6.86,0-3.86,0-5.31-1.22-7.42a7,7,0,0,1-.56-1.42c-.85-2.68-1.75-4.14-4.06-4.14V93.69c6.5,0,8.35,5.81,9,7.72.07.23.13.41.18.55,1.83,3.17,1.83,5.68,1.84,9.84,0,1.72,0,3.87.15,6.61.39,7.61.62,12.2,2.38,13.48,2.76,2,9.67.38,14-3.3a7.18,7.18,0,0,0,.61-.59c.21-.23.47-.52,1-1,5.85-5.71,17-12.83,23.65-9a5.15,5.15,0,0,1,2.31,2.67,18.29,18.29,0,0,0,1.92,3.19,27.6,27.6,0,0,0,4.77,5.15c1.73,1.54,3.38,3,4.19,6a6.9,6.9,0,0,1,.14,3.54,11.43,11.43,0,0,0-.06,3.74c.1,1,.23,1.82.36,2.62.41,2.61.79,5.09-.73,7.55-.1.18-.35.77-.51,1.15C253.7,155,253.25,156.07,252.28,156.69Z"/><path class="cls-1" d="M251.39,160.84,247,154l1.88-1.21-2.41-1.54-.07.12c.11-.2.28-.62.39-.88a15.55,15.55,0,0,1,1-2.11,20.8,20.8,0,0,0-.28-2.23c-.15-1-.3-1.94-.41-3.05a19.33,19.33,0,0,1,.15-6c-.14-.5-.28-.67-1.72-1.94a36.89,36.89,0,0,1-6-6.49,26.63,26.63,0,0,1-2.28-3.69c-2.23.07-8.16,2.82-13.3,7.85-.35.35-.54.55-.69.71a13.42,13.42,0,0,1-1.29,1.24c-6.42,5.54-17.45,8.53-24,3.71-4.89-3.57-5.18-9.28-5.71-19.65-.15-2.9-.15-5.15-.16-6.95,0-3.85,0-4.61-.82-6a9.94,9.94,0,0,1-.82-2,5.17,5.17,0,0,0-.9-2s-.1,0-.3,0h-3V90.69h3c7.19,0,10.4,5.34,11.82,9.81l.07.22c2.07,3.74,2.08,6.83,2.09,11.06,0,1.59,0,3.76.15,6.48.25,4.95.51,10.07,1.24,11.26,1.25.68,6.38,0,10.13-3.21a4.25,4.25,0,0,0,.36-.34c.23-.26.53-.58,1.09-1.13,5.6-5.48,18.51-14.49,27.26-9.4a8.15,8.15,0,0,1,3.52,4,15,15,0,0,0,1.63,2.73,25.21,25.21,0,0,0,4.32,4.65c1.9,1.69,4.05,3.59,5.1,7.41a9.86,9.86,0,0,1,.2,4.88,8.5,8.5,0,0,0,0,2.89c.08.87.21,1.67.33,2.44.45,2.9,1,6.15-1.08,9.54-.1.2-.25.55-.35.8-.69,1.65-1.39,3.34-3.14,4.47Zm-1-7.06.72,1.12h0l-.46-.73h0a.8.8,0,0,0,.13-.16Z"/><path class="cls-1" d="M331.87,275.48c-8.75,0-16.17-1.64-21.48-5.62-1.93-1.44-7.79-5.83-7.89-12.3-.11-7.08,6.71-12,9.62-14.11,4.86-3.52,9.67-7.3,14.32-11,8-6.32,16.35-12.86,25.29-18.31,6.67-4.06,22.32-13.59,37.32-27.13,4.78-4.32,5.94-5.84,9.81-10.9,3.72-4.89,10-13.05,24.15-29.9,11.51-16.35,23.52-36.24,22.9-40l-.76-1.62c-1.15-1.17-3.88-1.21-6.52-1.25-3.81,0-8.55-.12-10.7-4.08-2.86-5.29,1.7-12,7-19.8,3.18-4.67,7.11-10.46,14.27-16C459.69,55.36,471.5,51,483.32,51h.18A51.82,51.82,0,0,1,501,54.25c4.7,1.57,6.49,2,8.16.7.67-.52.78-.78,1.49-5.88.48-3.4,1.19-8.54,2.71-16.56.73-3.9,1.86-9.56,3.18-16l1.06-2.39,1.85-.85c21,1.13,33.81,3.29,36.12,6.06,8.56,10.29,1.62,33.28-6.69,45.91-1,1.53-2,2.87-2.88,4.06-2.63,3.55-3.88,5.37-3.57,7.93.35,2.92,2.45,4.44,6.43,7.08a39.87,39.87,0,0,1,10.18,8.79c9.24,11.84,7.09,27.54,5.67,37.92-1.77,12.86-9.25,36.51-19.46,36.51h-.38c-3.84-.23-5.63-3.52-7.07-6.17-1.27-2.34-2.2-3.88-3.58-4.16-3.34-.69-8.05,6.9-13.5,15.67-5.06,8.14-11.35,18.26-20.05,28.08-13.77,15.52-27.67,23.6-46.91,34.79-21.29,12.38-38.58,18.39-55.3,24.21C375.19,268,350.51,275.48,331.87,275.48ZM483.5,56.12h-.16c-10.68,0-21.4,4-31,11.46-6.52,5.06-10,10.25-13.16,14.83-3.8,5.61-8.1,11.94-6.73,14.48.66,1.22,2.91,1.34,6.25,1.39,3.79.06,8.09.12,10.66,3.39l.31.52,1,2.16c2.77,6.13-13.54,30.8-23.51,45l-.13.18c-14.17,16.81-20.37,24.93-24.08,29.79a65.18,65.18,0,0,1-10.45,11.6c-15.36,13.86-31.29,23.56-38.09,27.71-8.67,5.28-16.86,11.72-24.78,17.95-4.69,3.69-9.54,7.51-14.47,11.07-2.28,1.65-7.58,5.48-7.51,9.88.06,3.94,4.4,7.19,5.83,8.26,16.7,12.51,65.09-4.32,83.31-10.65,16.49-5.74,33.55-11.67,54.4-23.79,18.83-11,32.44-18.86,45.65-33.76,8.41-9.49,14.57-19.41,19.53-27.38,7.26-11.68,12.08-19.39,18.9-18,3.82.78,5.62,4.08,7.06,6.74,1.13,2.08,1.94,3.44,2.86,3.5h.1c4.38,0,12.06-15.39,14.34-32.07,1.39-10.1,3.28-23.93-4.62-34.06a35,35,0,0,0-9-7.66c-4.14-2.75-8-5.34-8.69-10.76-.57-4.71,1.8-7.9,4.54-11.61.88-1.18,1.79-2.41,2.72-3.82,8.27-12.58,13-32,7.21-39.55-.88-.48-6.46-2.91-30.42-4.33-1.23,6-2.28,11.24-3,14.92-1.49,7.9-2.2,13-2.67,16.32-.76,5.51-1,7.36-3.42,9.23-4,3.11-8.14,1.72-13,.11A46.9,46.9,0,0,0,483.5,56.12ZM552,22.94Z"/><path class="cls-1" d="M331.86,278.48c-10.07,0-17.69-2-23.27-6.22-2.22-1.66-9-6.71-9.09-14.66-.13-8.64,7.57-14.21,10.86-16.59,4.84-3.49,9.61-7.25,14.23-10.88,8.13-6.39,16.5-13,25.58-18.51,6.61-4,22.08-13.45,36.87-26.8,4.57-4.13,5.6-5.48,9.43-10.49s10-13.08,24.16-29.91c12.21-17.35,21.56-33.68,22.26-37.5l-.08-.19a22.54,22.54,0,0,0-4.23-.31c-4.11-.06-10.3-.15-13.28-5.65-3.74-6.89,1.54-14.67,7.13-22.91C435.72,73,439.81,67,447.34,61.15c11-8.57,23.48-13.12,36-13.17h.2A54.54,54.54,0,0,1,502,51.4c2.76.92,4.4,1.4,5.11,1.29.19-.9.45-2.81.62-4,.48-3.47,1.21-8.65,2.73-16.71.74-3.93,1.88-9.62,3.2-16l.06-.31,1.64-3.73,3.56-1.64.74,0c33.85,1.83,37.06,5.69,38.26,7.14,9.93,11.93,2,36.58-6.48,49.48-1.06,1.61-2.12,3-3,4.19-2.5,3.38-3.16,4.49-3,5.8s1.31,2.41,5.11,4.93a42.36,42.36,0,0,1,10.89,9.44c10,12.84,7.76,29.29,6.27,40.17-1.39,10.15-8.5,39.11-22.42,39.11l-.57,0c-5.5-.32-8-5-9.53-7.73a18.85,18.85,0,0,0-1.55-2.53c-2.23,1.14-7.08,8.94-10.33,14.18-5.14,8.25-11.5,18.49-20.37,28.5-14.08,15.88-28.16,24.07-47.64,35.39-21.53,12.52-38.95,18.58-55.8,24.44-21.05,7.32-47.73,15.71-67.61,15.71h0ZM435.26,95.1a30.87,30.87,0,0,0,3.48.18c4,.06,9.53.14,13,4.54l.2.29.48.83s1,2.17,1,2.23c1,2.3,3.88,8.56-23.8,47.86l-.3.38c-14.12,16.76-20.29,24.85-24,29.68a68.44,68.44,0,0,1-10.83,12c-15.56,14-31.66,23.86-38.53,28-8.54,5.2-16.65,11.58-24.49,17.76-4.75,3.73-9.61,7.56-14.57,11.14-1.57,1.13-6.31,4.56-6.27,7.4,0,1.13.84,3.07,4.62,5.91,15.42,11.55,64.42-5.48,80.52-11.08,16.38-5.7,33.29-11.58,53.89-23.56,18.59-10.8,32-18.61,44.91-33.16,8.24-9.29,14.33-19.07,19.22-26.94,7.65-12.31,13.16-21.19,22.06-19.38,5.19,1.06,7.54,5.38,9.1,8.24.19.35.51.95.82,1.46,2.84-2.61,8.84-14.19,10.87-29,1.31-9.57,3.11-22.67-4-31.81a32.36,32.36,0,0,0-8.26-7c-4.32-2.86-9.21-6.11-10-12.9-.71-5.89,2.25-9.89,5.11-13.75.85-1.15,1.73-2.33,2.62-3.69,7.92-12.05,11.58-29.2,7.74-35.5-1.71-.63-7.9-2.38-26-3.58-1,4.88-1.85,9.19-2.44,12.33-1.48,7.83-2.18,12.85-2.64,16.18-.8,5.7-1.2,8.56-4.56,11.18-5.26,4.09-10.59,2.31-15.74.59a43.37,43.37,0,0,0-14.93-2.85h-.16c-10,0-20.09,3.79-29.16,10.83-6.15,4.77-9.53,9.75-12.51,14.14C439.56,87.19,435.82,92.71,435.26,95.1ZM545,159.43Z"/><path class="cls-1" d="M449.48,104.67l-4.29-2.83A12.32,12.32,0,0,1,447.78,99c2.85-2.3,5.84-2.46,8.73-2.62.9,0,1.85-.1,2.86-.22a10.41,10.41,0,0,0,1.34-.28,43.14,43.14,0,0,1,11.48-1.16v5.14a38.13,38.13,0,0,0-10.27,1,16.66,16.66,0,0,1-1.94.39c-1.13.13-2.19.19-3.19.25-2.78.15-4.29.28-5.79,1.49A7.11,7.11,0,0,0,449.48,104.67Z"/><path class="cls-1" d="M450.33,108.83l-9.3-6.14,1.65-2.5a15.32,15.32,0,0,1,3.23-3.56c3.59-2.9,7.38-3.1,10.43-3.27.87,0,1.76-.1,2.68-.21a7,7,0,0,0,.85-.18l.12,0a45.63,45.63,0,0,1,12.2-1.25h3v11.14h-3a35.21,35.21,0,0,0-9.56.94,19.54,19.54,0,0,1-2.3.45c-1.22.14-2.36.21-3.37.26-2.61.15-3.36.26-4.08.84a4.38,4.38,0,0,0-.9,1Z"/><path class="cls-1" d="M535.28,157.69l-2.78-4.32a1.82,1.82,0,0,0-.52.48,13.25,13.25,0,0,0,.55-1.23,14.12,14.12,0,0,1,.88-1.86c.51-.82.37-1.9,0-4.07-.14-.88-.29-1.83-.39-2.89a16.5,16.5,0,0,1,.11-5.19,2,2,0,0,0,0-1.25c-.41-1.49-1.11-2.11-2.64-3.46a33.85,33.85,0,0,1-5.53-6,23,23,0,0,1-2.4-4,3.16,3.16,0,0,0-.22-.45c-3.39-1.92-11.93,2.78-17.5,8.22-.41.41-.63.64-.8.83a11.27,11.27,0,0,1-1,1c-5.58,4.8-15.09,7.38-20.33,3.55-3.74-2.72-4-7.62-4.48-17.37-.15-2.86-.15-5.08-.16-6.86,0-3.86,0-5.31-1.22-7.42a7,7,0,0,1-.56-1.42c-.85-2.68-1.75-4.14-4.06-4.14V94.69c6.5,0,8.35,5.81,9,7.72.07.23.13.41.18.55,1.83,3.17,1.83,5.68,1.84,9.84,0,1.72,0,3.87.15,6.61.39,7.61.62,12.2,2.38,13.48,2.76,2,9.67.38,13.95-3.3a7.18,7.18,0,0,0,.61-.59c.21-.23.47-.52,1-1,5.85-5.71,17-12.83,23.65-9a5.15,5.15,0,0,1,2.31,2.67,18.29,18.29,0,0,0,1.92,3.19,27.6,27.6,0,0,0,4.77,5.15c1.73,1.54,3.38,3,4.19,6a6.9,6.9,0,0,1,.14,3.54,11.43,11.43,0,0,0-.06,3.74c.1,1,.23,1.82.36,2.62.41,2.61.79,5.09-.73,7.55-.1.18-.35.77-.51,1.15C536.7,156,536.25,157.07,535.28,157.69Z"/><path class="cls-1" d="M534.38,161.84,530,155l1.86-1.2-2.39-1.55-.07.12c.11-.21.28-.63.39-.9a17.29,17.29,0,0,1,1-2.09,20.8,20.8,0,0,0-.28-2.23c-.16-1-.3-2-.41-3.05a19.33,19.33,0,0,1,.15-6c-.14-.5-.28-.67-1.71-1.94a36.11,36.11,0,0,1-6-6.49,25.67,25.67,0,0,1-2.28-3.69c-2.23.07-8.16,2.82-13.3,7.85-.35.35-.54.55-.69.71a13.09,13.09,0,0,1-1.28,1.24c-6.43,5.54-17.46,8.53-24.06,3.71-4.89-3.57-5.18-9.28-5.71-19.65-.15-2.9-.15-5.15-.16-6.95,0-3.85,0-4.61-.82-6a9.94,9.94,0,0,1-.82-2,5.17,5.17,0,0,0-.9-2s-.1,0-.3,0h-3V91.69h3c7.19,0,10.4,5.34,11.82,9.81l.07.22c2.07,3.74,2.08,6.83,2.09,11.06,0,1.59,0,3.76.15,6.48.25,4.95.51,10.07,1.24,11.26,1.25.68,6.38,0,10.13-3.21a4.25,4.25,0,0,0,.36-.34c.23-.26.53-.58,1.09-1.13,5.6-5.48,18.51-14.49,27.26-9.4a8,8,0,0,1,3.51,4,15,15,0,0,0,1.64,2.73,25.56,25.56,0,0,0,4.32,4.65c1.9,1.68,4,3.58,5.1,7.41a9.86,9.86,0,0,1,.2,4.88,8.67,8.67,0,0,0,0,2.89c.09.88.22,1.68.34,2.46.45,2.88,1,6.13-1.08,9.51-.1.21-.24.56-.35.81-.69,1.65-1.39,3.34-3.14,4.47Zm-.93-7,.67,1.05h0l-.46-.72h0a.44.44,0,0,0,.11-.12Z"/><path class="cls-1" d="M605.53,280c-8.75,0-16.17-1.64-21.49-5.62-1.92-1.45-7.78-5.84-7.88-12.3-.11-7.08,6.7-12,9.62-14.12,4.86-3.51,9.67-7.29,14.32-10.95,8-6.33,16.35-12.87,25.28-18.31,6.68-4.06,22.32-13.59,37.32-27.13,4.79-4.32,5.95-5.85,9.81-10.9,3.73-4.89,10-13.06,24.16-29.9,11.51-16.35,23.52-36.25,22.89-40l-.75-1.63c-1.16-1.16-3.89-1.2-6.53-1.24-3.81-.06-8.54-.12-10.69-4.08-2.87-5.29,1.7-12,7-19.8,3.18-4.68,7.11-10.46,14.27-16,10.51-8.16,22.31-12.5,34.13-12.54h.19a51.82,51.82,0,0,1,17.51,3.27c4.7,1.57,6.49,2,8.16.7.67-.52.78-.78,1.49-5.88.47-3.4,1.19-8.54,2.7-16.56.74-3.91,1.87-9.56,3.19-16l1-2.39,1.86-.86c21,1.14,33.8,3.3,36.11,6.07,8.57,10.29,1.62,33.27-6.68,45.91-1,1.53-2,2.87-2.88,4-2.63,3.55-3.88,5.37-3.57,7.94.34,2.92,2.44,4.44,6.43,7.08a40,40,0,0,1,10.18,8.79c9.24,11.84,7.09,27.53,5.66,37.92-1.76,12.86-9.25,36.51-19.45,36.51h-.38c-3.85-.23-5.64-3.53-7.08-6.18-1.26-2.33-2.2-3.88-3.57-4.16-3.34-.68-8,6.91-13.51,15.68-5,8.14-11.35,18.26-20,28.07-13.76,15.53-27.66,23.61-46.9,34.8-21.29,12.38-38.58,18.39-55.3,24.2C648.84,272.52,624.16,280,605.53,280ZM757.16,60.6H757c-10.67,0-21.39,4-31,11.46-6.52,5.06-10,10.25-13.15,14.83-3.81,5.61-8.11,11.94-6.73,14.48.66,1.22,2.9,1.34,6.25,1.39,3.79,0,8.09.12,10.65,3.39l.32.52,1,2.16c2.78,6.13-13.53,30.8-23.5,45l-.14.18c-14.16,16.81-20.37,24.93-24.07,29.79-4,5.2-5.32,7-10.45,11.59-15.36,13.87-31.29,23.57-38.09,27.72-8.68,5.28-16.86,11.72-24.78,17.95-4.69,3.69-9.54,7.51-14.48,11.07-2.27,1.65-7.57,5.47-7.5,9.87.06,3.95,4.4,7.2,5.83,8.27,16.69,12.51,65.09-4.32,83.31-10.65,16.49-5.74,33.54-11.67,54.4-23.79,18.83-10.95,32.43-18.86,45.65-33.77,8.41-9.49,14.57-19.4,19.53-27.37,7.25-11.68,12.08-19.39,18.89-18,3.83.77,5.63,4.08,7.07,6.74,1.13,2.07,1.94,3.44,2.86,3.49h.1c4.37,0,12-15.39,14.34-32.07,1.38-10.1,3.28-23.93-4.62-34.06a35.15,35.15,0,0,0-9-7.66c-4.14-2.75-8.05-5.34-8.7-10.76-.56-4.71,1.81-7.9,4.55-11.61.88-1.18,1.78-2.41,2.71-3.82,8.28-12.59,13-32,7.22-39.56-.89-.47-6.47-2.9-30.42-4.32-1.24,6-2.28,11.24-3,14.92-1.49,7.9-2.19,13-2.66,16.32-.77,5.5-1,7.36-3.43,9.23-4,3.11-8.14,1.72-12.94.11A47,47,0,0,0,757.16,60.6ZM825.6,27.42Z"/><path class="cls-1" d="M605.51,283c-10.07,0-17.68-2-23.27-6.22-2.21-1.66-9-6.72-9.08-14.66-.14-8.65,7.57-14.21,10.86-16.59,4.83-3.49,9.61-7.25,14.22-10.88,8.14-6.4,16.51-13,25.58-18.51,6.61-4,22.09-13.45,36.87-26.8,4.58-4.13,5.61-5.48,9.43-10.49s10-13.08,24.17-29.92c12.21-17.34,21.56-33.67,22.26-37.5l-.09-.18a22.36,22.36,0,0,0-4.22-.31c-4.11-.06-10.31-.15-13.29-5.65-3.74-6.89,1.55-14.67,7.13-22.91,3.3-4.84,7.38-10.86,14.92-16.71,11-8.57,23.47-13.12,36-13.17h.2a54.65,54.65,0,0,1,18.46,3.42c2.76.92,4.4,1.4,5.1,1.28.19-.9.46-2.8.63-4,.48-3.47,1.2-8.65,2.72-16.71.75-3.93,1.88-9.63,3.2-16l.07-.31L789,16.36l3.57-1.64.74,0c33.84,1.83,37.05,5.69,38.26,7.14,9.92,11.93,2,36.57-6.49,49.48-1,1.58-2,3-2.95,4.16-2.52,3.41-3.18,4.52-3,5.83s1.3,2.41,5.11,4.93a42.52,42.52,0,0,1,10.89,9.44c10,12.84,7.76,29.29,6.27,40.17-1.4,10.15-8.5,39.1-22.43,39.11l-.56,0c-5.51-.32-8-5-9.53-7.73a18.85,18.85,0,0,0-1.55-2.53c-2.24,1.14-7.08,8.94-10.34,14.18-5.14,8.27-11.5,18.5-20.36,28.5-14.08,15.88-28.16,24.07-47.65,35.39-21.52,12.52-38.94,18.58-55.79,24.44-21,7.32-47.74,15.71-67.61,15.71h0ZM708.91,99.58a33.6,33.6,0,0,0,3.49.18c4,.06,9.53.14,13,4.54l.2.29.49.83,1,2.22c1,2.31,3.88,8.57-23.81,47.87l-.29.38c-14.14,16.78-20.3,24.85-24,29.68a68.33,68.33,0,0,1-10.82,12c-15.56,14.05-31.66,23.86-38.54,28-8.53,5.2-16.64,11.58-24.49,17.76-4.73,3.72-9.6,7.55-14.57,11.14-1.56,1.13-6.31,4.56-6.26,7.4,0,1.13.83,3.07,4.62,5.91,15.42,11.55,64.41-5.48,80.51-11.08,16.39-5.7,33.3-11.58,53.9-23.56,18.59-10.8,32-18.61,44.91-33.16,8.23-9.29,14.32-19.08,19.21-26.94,7.65-12.31,13.16-21.19,22.06-19.38,5.2,1.05,7.55,5.38,9.11,8.24.18.35.51.95.82,1.46,2.84-2.61,8.84-14.2,10.87-29,1.31-9.57,3.11-22.67-4-31.81a32.32,32.32,0,0,0-8.25-7c-4.33-2.87-9.22-6.11-10-12.9-.7-5.9,2.26-9.89,5.12-13.75.85-1.15,1.72-2.33,2.62-3.69,7.92-12,11.58-29.2,7.74-35.5-1.72-.63-7.91-2.38-26-3.58-1,4.87-1.84,9.18-2.44,12.33-1.48,7.83-2.18,12.85-2.64,16.17-.79,5.71-1.19,8.57-4.55,11.19-5.26,4.09-10.83,2.23-15.74.59a43.47,43.47,0,0,0-14.93-2.85H757c-10,0-20.08,3.78-29.16,10.83-6.14,4.77-9.52,9.75-12.51,14.14C713.22,91.67,709.47,97.19,708.91,99.58ZM818.7,163.91Z"/><path class="cls-1" d="M723.13,109.15l-4.29-2.83a12.36,12.36,0,0,1,2.6-2.87c2.85-2.3,5.84-2.46,8.72-2.62.9,0,1.85-.1,2.87-.22a11.82,11.82,0,0,0,1.33-.28,43.14,43.14,0,0,1,11.48-1.16v5.14a38.09,38.09,0,0,0-10.26,1,16.41,16.41,0,0,1-2,.39c-1.12.13-2.18.19-3.18.25-2.78.15-4.3.28-5.79,1.49A7.36,7.36,0,0,0,723.13,109.15Z"/><path class="cls-1" d="M724,113.31l-9.3-6.14,1.65-2.5a15.54,15.54,0,0,1,3.22-3.57c3.6-2.89,7.39-3.1,10.43-3.26.87,0,1.76-.1,2.68-.21a7.46,7.46,0,0,0,.86-.18l.12,0a45.59,45.59,0,0,1,12.19-1.25h3v11.14h-3a35.74,35.74,0,0,0-9.55.93,18,18,0,0,1-2.3.46c-1.22.14-2.36.21-3.37.26-2.61.14-3.37.26-4.08.83a4.67,4.67,0,0,0-.9,1Z"/><path class="cls-1" d="M808.94,162.17l-2.79-4.32a1.69,1.69,0,0,0-.51.48,13.25,13.25,0,0,0,.55-1.23,14.12,14.12,0,0,1,.88-1.86c.5-.82.36-1.9,0-4.07-.13-.88-.28-1.83-.39-2.89a16.06,16.06,0,0,1,.12-5.19,2,2,0,0,0,0-1.25c-.41-1.49-1.11-2.11-2.64-3.46a33.82,33.82,0,0,1-5.54-6,23.36,23.36,0,0,1-2.39-4,4.78,4.78,0,0,0-.22-.45c-3.39-1.92-11.94,2.78-17.5,8.22-.41.41-.63.64-.8.83a10.39,10.39,0,0,1-1,1c-5.58,4.8-15.08,7.38-20.33,3.55-3.73-2.72-4-7.62-4.48-17.37-.14-2.86-.15-5.08-.15-6.86,0-3.86,0-5.31-1.22-7.42a7,7,0,0,1-.56-1.42c-.86-2.69-1.76-4.14-4.07-4.14V99.17c6.51,0,8.36,5.81,9,7.72.07.22.13.41.18.55,1.82,3.16,1.83,5.68,1.84,9.84,0,1.72,0,3.87.15,6.61.39,7.61.62,12.2,2.37,13.48,2.77,2,9.68.37,13.95-3.3a7.18,7.18,0,0,0,.61-.59c.21-.23.48-.52,1-1,5.85-5.72,17-12.83,23.65-9a5.14,5.14,0,0,1,2.31,2.66,18,18,0,0,0,1.91,3.2,28.3,28.3,0,0,0,4.77,5.15c1.74,1.54,3.38,3,4.2,6a6.9,6.9,0,0,1,.14,3.54,11.09,11.09,0,0,0-.06,3.73c.1,1,.23,1.83.35,2.63.41,2.61.8,5.08-.72,7.55-.11.18-.35.76-.51,1.15C810.36,160.46,809.91,161.55,808.94,162.17Z"/><path class="cls-1" d="M808,166.32l-4.41-6.84,1.86-1.2-2.39-1.55-.07.12c.11-.21.28-.63.39-.9a18.09,18.09,0,0,1,1-2.1,18.38,18.38,0,0,0-.27-2.22c-.16-1-.3-2-.41-3a19,19,0,0,1,.15-6c-.15-.5-.28-.67-1.72-1.94a36.89,36.89,0,0,1-6-6.49,27.56,27.56,0,0,1-2.29-3.69c-2.22.07-8.15,2.82-13.29,7.85-.36.35-.55.55-.7.71a13.09,13.09,0,0,1-1.28,1.24c-6.43,5.54-17.45,8.53-24.05,3.7-4.9-3.56-5.19-9.27-5.71-19.64-.15-2.91-.16-5.15-.16-7,0-3.84,0-4.6-.83-6a9.54,9.54,0,0,1-.81-2c-.52-1.65-.84-2-.9-2a1.64,1.64,0,0,0-.31,0h-3V96.17h3c7.19,0,10.4,5.33,11.83,9.81l.07.22c2.07,3.74,2.08,6.83,2.09,11.07,0,1.69,0,3.78.15,6.47.25,5,.51,10.06,1.24,11.26,1.24.68,6.37,0,10.13-3.21a2.89,2.89,0,0,0,.35-.34c.24-.26.53-.58,1.09-1.13,5.61-5.48,18.52-14.49,27.27-9.4a8,8,0,0,1,3.51,4,15,15,0,0,0,1.64,2.73,24.88,24.88,0,0,0,4.32,4.65c1.9,1.68,4.05,3.58,5.1,7.41a9.86,9.86,0,0,1,.2,4.88,8.65,8.65,0,0,0,0,2.89c.09.88.22,1.68.34,2.46.45,2.88,1,6.13-1.09,9.51-.09.21-.24.56-.34.81-.69,1.65-1.4,3.34-3.15,4.47Zm-.94-7,.67,1h0l-.47-.72h0a.32.32,0,0,0,.1-.12Zm-45.83-24.25Z"/></svg>