<svg id="Layer_1" data-name="Layer 1" xmlns="http://www.w3.org/2000/svg" viewBox="0 0 188.5 182.48"><defs><style>.cls-1{fill:#9ed7e5;}</style></defs><title>chili_blue</title><path class="cls-1" d="M22.64,180.44c-6.12,0-11.31-1.11-15-3.83-1.34-1-5.44-4-5.51-8.36-.08-4.82,4.69-8.17,6.73-9.6,3.4-2.39,6.76-5,10-7.46a184.2,184.2,0,0,1,17.69-12.45,172.86,172.86,0,0,0,26.1-18.46,41.49,41.49,0,0,0,6.86-7.42c2.61-3.32,7-8.87,16.9-20.33,8-11.12,16.44-24.66,16-27.19l-.53-1.1c-.81-.8-2.71-.82-4.56-.85-2.67,0-6-.08-7.48-2.77-2-3.6,1.19-8.18,4.88-13.48a43.74,43.74,0,0,1,10-10.89,39.91,39.91,0,0,1,23.87-8.53h.13a37.13,37.13,0,0,1,12.25,2.22c3.29,1.07,4.54,1.36,5.71.48.46-.36.54-.54,1-4,.33-2.32.83-5.81,1.89-11.27.52-2.66,1.3-6.5,2.23-10.88l.74-1.62,1.29-.58c14.68.77,23.65,2.23,25.26,4.12,6,7,1.14,22.64-4.67,31.23-.71,1-1.4,2-2,2.76-1.84,2.42-2.72,3.65-2.5,5.4.24,2,1.71,3,4.5,4.82a27.72,27.72,0,0,1,7.12,6c6.46,8.06,5,18.74,4,25.8C184.26,90.92,179,107,171.89,107h-.27c-2.68-.15-3.94-2.4-5-4.2-.88-1.58-1.53-2.64-2.49-2.83-2.34-.46-5.64,4.7-9.45,10.67a136.33,136.33,0,0,1-14,19.1c-9.63,10.56-19.35,16.06-32.81,23.67-14.89,8.42-27,12.51-38.68,16.46C52.94,175.38,35.68,180.44,22.64,180.44ZM128.7,31.21h-.12A36.3,36.3,0,0,0,106.9,39a40.12,40.12,0,0,0-9.2,10.08C95,52.91,92,57.22,93,59c.46.83,2,.91,4.37.94,2.65,0,5.66.08,7.45,2.31l.22.35.69,1.47c1.94,4.17-9.46,21-16.44,30.58l-.09.12c-9.91,11.44-14.25,17-16.84,20.27A45.38,45.38,0,0,1,65,122.88,175.92,175.92,0,0,1,38.4,141.73a179.22,179.22,0,0,0-17.33,12.21c-3.28,2.51-6.68,5.11-10.13,7.53-1.59,1.12-5.29,3.73-5.24,6.72,0,2.69,3.07,4.9,4.07,5.63,11.68,8.51,45.53-2.94,58.27-7.25,11.54-3.9,23.46-7.94,38.05-16.19,13.17-7.45,22.68-12.83,31.93-23a131.86,131.86,0,0,0,13.65-18.62c5.08-7.94,8.46-13.19,13.22-12.24,2.68.52,3.94,2.77,5,4.58.78,1.41,1.35,2.34,2,2.38h.08c3.05,0,8.42-10.47,10-21.81,1-6.87,2.3-16.28-3.23-23.18a24.44,24.44,0,0,0-6.27-5.21c-2.9-1.87-5.63-3.63-6.08-7.31-.4-3.21,1.26-5.38,3.18-7.9.61-.81,1.24-1.64,1.89-2.6,5.79-8.56,9.13-21.79,5.05-26.91-.62-.33-4.52-2-21.28-2.95-.86,4.08-1.59,7.66-2.08,10.16-1,5.37-1.53,8.82-1.86,11.1-.53,3.74-.71,5-2.39,6.28-2.8,2.11-5.7,1.17-9.06.08A33.46,33.46,0,0,0,128.7,31.21ZM176.56,8.64Z"/><path class="cls-1" d="M22.63,182.48c-7,0-12.37-1.38-16.27-4.23-1.55-1.13-6.27-4.57-6.36-10-.09-5.88,5.3-9.67,7.6-11.29,3.38-2.37,6.72-4.93,10-7.4A183.91,183.91,0,0,1,35.44,137a171.23,171.23,0,0,0,25.79-18.23,40.4,40.4,0,0,0,6.59-7.14c2.62-3.34,7-8.9,16.9-20.35,8.54-11.8,15.08-22.91,15.57-25.51l-.06-.13a16.41,16.41,0,0,0-3-.21c-2.88,0-7.21-.1-9.3-3.84-2.61-4.69,1.08-10,5-15.59A45.72,45.72,0,0,1,103.4,34.63c7.73-5.82,16.42-8.92,25.16-9h.13A39.17,39.17,0,0,1,141.61,28a11.75,11.75,0,0,0,3.57.88c.13-.62.31-1.91.43-2.74.34-2.36.84-5.88,1.91-11.37.52-2.69,1.32-6.57,2.24-10.91l0-.21L151,1.12,153.44,0,154,0c23.67,1.24,25.91,3.87,26.76,4.86,6.94,8.11,1.39,24.88-4.54,33.65-.73,1.09-1.45,2-2.08,2.85-1.75,2.31-2.21,3.06-2.1,4s.91,1.64,3.58,3.36a29.28,29.28,0,0,1,7.61,6.42c7,8.73,5.43,19.92,4.39,27.33-1,6.9-6,26.6-15.69,26.6h-.39c-3.85-.22-5.61-3.38-6.67-5.26a13.39,13.39,0,0,0-1.08-1.72c-1.56.77-4.95,6.08-7.23,9.64a137.51,137.51,0,0,1-14.24,19.39c-9.85,10.81-19.7,16.37-33.33,24.08-15,8.52-27.24,12.64-39,16.62-14.72,5-33.39,10.69-47.29,10.69h0ZM95,57.73a23.66,23.66,0,0,0,2.44.12c2.81,0,6.66.1,9.07,3.09l.14.2.34.56.71,1.52c.73,1.56,2.71,5.82-16.65,32.56l-.21.26c-9.87,11.4-14.19,16.9-16.77,20.19a47.11,47.11,0,0,1-7.57,8.16A178.57,178.57,0,0,1,39.5,143.47a176.62,176.62,0,0,0-17.13,12.08c-3.33,2.54-6.72,5.14-10.2,7.58-1.09.77-4.41,3.1-4.38,5,0,.77.59,2.09,3.24,4,10.78,7.86,45.05-3.73,56.31-7.54,11.46-3.87,23.29-7.87,37.69-16,13-7.35,22.4-12.66,31.41-22.56a130.07,130.07,0,0,0,13.45-18.34c5.34-8.37,9.2-14.41,15.42-13.17,3.63.71,5.28,3.66,6.37,5.6.13.24.36.65.57,1,2-1.78,6.19-9.66,7.6-19.73.92-6.51,2.18-15.43-2.8-21.64A22.42,22.42,0,0,0,171.28,55c-3-2-6.45-4.16-7-8.78-.49-4,1.58-6.73,3.58-9.35.56-.75,1.2-1.58,1.83-2.51,5.54-8.2,8.1-19.87,5.42-24.15-1.2-.43-5.53-1.62-18.21-2.44-.69,3.3-1.29,6.23-1.7,8.39-1,5.33-1.53,8.74-1.85,11-.56,3.88-.83,5.83-3.19,7.61-3.67,2.78-7.4,1.57-11,.4a31.22,31.22,0,0,0-10.44-1.94h-.12a34.25,34.25,0,0,0-20.4,7.37,38.53,38.53,0,0,0-8.75,9.62C98,52.35,95.34,56.1,95,57.73Zm76.79,43.76ZM94.9,58.17Z"/><path class="cls-1" d="M104.9,64.24l-3-1.92a8.48,8.48,0,0,1,1.81-2c2-1.56,4.08-1.67,6.1-1.78.63,0,1.3-.07,2-.15a6.41,6.41,0,0,0,.93-.19,31.16,31.16,0,0,1,8-.79V61a27.42,27.42,0,0,0-7.18.69,12.58,12.58,0,0,1-1.36.27c-.79.09-1.53.13-2.23.16-1.94.11-3,.2-4.05,1A5.09,5.09,0,0,0,104.9,64.24Z"/><path class="cls-1" d="M105.5,67.07,99,62.9l1.15-1.71a10.65,10.65,0,0,1,2.26-2.42c2.52-2,5.17-2.11,7.29-2.23.61,0,1.23-.06,1.88-.13.14,0,.34-.07.6-.13l.08,0a32.77,32.77,0,0,1,8.53-.85h2.1V63h-2.1a25.83,25.83,0,0,0-6.68.63,13.55,13.55,0,0,1-1.61.31c-.85.1-1.65.14-2.36.18-1.83.1-2.35.18-2.85.57a3.18,3.18,0,0,0-.63.68Z"/><path class="cls-1" d="M164.91,100.31,163,97.37a1.27,1.27,0,0,0-.36.33c.08-.13.27-.57.39-.84a10.07,10.07,0,0,1,.61-1.27c.36-.55.26-1.29,0-2.77-.1-.59-.2-1.24-.27-2a10.63,10.63,0,0,1,.08-3.53,1.37,1.37,0,0,0,0-.85c-.29-1-.78-1.44-1.85-2.36A23,23,0,0,1,157.68,80,15.07,15.07,0,0,1,156,77.32a1.76,1.76,0,0,0-.16-.31c-2.37-1.31-8.35,1.89-12.24,5.59l-.56.56a5.47,5.47,0,0,1-.72.68c-3.9,3.27-10.55,5-14.22,2.42-2.61-1.85-2.79-5.18-3.13-11.82-.1-1.94-.11-3.45-.11-4.66,0-2.63,0-3.61-.86-5a5.28,5.28,0,0,1-.39-1C123,61.94,122.39,61,120.78,61v-3.5c4.55,0,5.85,3.95,6.27,5.25a3.66,3.66,0,0,0,.13.37c1.27,2.16,1.28,3.87,1.28,6.7,0,1.17,0,2.64.11,4.5.27,5.17.43,8.3,1.66,9.17,1.93,1.37,6.76.25,9.76-2.25a4.27,4.27,0,0,0,.42-.4c.15-.16.34-.35.69-.69,4.09-3.89,11.88-8.73,16.54-6.09a3.53,3.53,0,0,1,1.62,1.81A12.08,12.08,0,0,0,160.6,78a19.4,19.4,0,0,0,3.33,3.5,7.8,7.8,0,0,1,2.94,4A4.7,4.7,0,0,1,167,88a7.59,7.59,0,0,0-.05,2.54c.07.66.17,1.25.25,1.79.29,1.78.56,3.46-.5,5.14a6.8,6.8,0,0,0-.36.78A4.21,4.21,0,0,1,164.91,100.31Z"/><path class="cls-1" d="M164.28,103.13l-3.08-4.65,1.31-.82-1.68-1a.22.22,0,0,0-.05.08c.07-.14.19-.42.27-.6a10,10,0,0,1,.69-1.44c0-.3-.12-1.05-.19-1.51-.11-.66-.21-1.32-.29-2.07a12.66,12.66,0,0,1,.1-4.1c-.1-.34-.19-.46-1.2-1.32A25.42,25.42,0,0,1,156,81.24a20,20,0,0,1-1.6-2.51c-1.56,0-5.7,1.91-9.3,5.33-.25.24-.38.38-.48.49a12.06,12.06,0,0,1-.9.84c-4.5,3.77-12.21,5.8-16.83,2.52-3.42-2.43-3.62-6.31-4-13.36-.1-2-.11-3.51-.11-4.74,0-2.61,0-3.13-.58-4.07a6.7,6.7,0,0,1-.57-1.36C121.26,63.26,121,63,121,63h-2.31V55.41h2.1c5,0,7.27,3.63,8.27,6.67l0,.15c1.45,2.55,1.45,4.65,1.46,7.53,0,1.08,0,2.56.1,4.4.18,3.37.36,6.85.87,7.67.88.46,4.46,0,7.09-2.19.12-.1.17-.16.25-.23s.37-.39.76-.77c3.92-3.72,13-9.86,19.07-6.4A5.62,5.62,0,0,1,161.16,75a9.58,9.58,0,0,0,1.14,1.85,17.68,17.68,0,0,0,3,3.17,9.75,9.75,0,0,1,3.57,5,6.62,6.62,0,0,1,.14,3.32,5.61,5.61,0,0,0,0,2c.06.6.15,1.14.23,1.66.32,2,.68,4.19-.75,6.49-.07.14-.17.38-.25.55a6,6,0,0,1-2.19,3Zm-.69-4.8.5.76h0l-.33-.49h0a.35.35,0,0,0,.09-.11Z"/></svg>