<svg id="Layer_1" data-name="Layer 1" xmlns="http://www.w3.org/2000/svg" xmlns:xlink="http://www.w3.org/1999/xlink" viewBox="0 0 310 310"><defs><style>.cls-1,.cls-2,.cls-4,.cls-5{fill:none;stroke-linecap:round;stroke-miterlimit:10;}.cls-1,.cls-2,.cls-4{stroke:#e80a54;}.cls-1{stroke-width:5px;}.cls-2{stroke-width:3px;}.cls-3{fill:#e80a54;}.cls-4{stroke-width:2px;}.cls-5{stroke:#ffce00;stroke-width:10px;}</style></defs><title>Logo_small</title><path class="cls-1" d="M237.42,148c3.91,5.13,9.27,15.7,12.19,28.08,2.11,8.94,5.2,22,0,29.48-5.85,8.39-19.38,5.64-29.25,4.21-47.43-6.89-116.29,1.13-140.16,5.61-3.8.72-12.79,2.53-14.63-1.4-3-6.35,14.75-23.48,19.5-28.08C128.23,144.19,212.85,115.75,237.42,148Z"/><path class="cls-2" d="M67.4,206.67C64.67,194,66.47,189.1,68.62,187c3.7-3.57,9,.51,14.63-4.21,2.76-2.33,4.24-5.67,6.09-9.82,3-6.71,2.33-9.51,4.88-11.23,2.09-1.43,3.24,0,9.75,0,5.1,0,7.65,0,9.75-1.41,4.89-3.28,2.62-9.4,7.31-12.63,3.65-2.52,9.44-1.86,13.41-1.41,2.75.32,3.63.78,4.87,0,3.26-2,1.42-7.88,4.88-11.23,3.15-3,8.14-1.52,8.53-1.4,3.57,1.15,3.41,3.62,6.09,4.21s4.43-1.78,13.41-8.42c5.19-3.84,6.18-4.16,7.31-4.21,4.44-.2,5.45,4.07,9.75,4.21,5.12.17,6.17-5.79,11-5.62s5.66,6.46,11,7c5,.53,6.95-4.74,11-4.21,2.82.38,6.35,3.58,9.75,15.44"/><ellipse class="cls-3" cx="137.19" cy="175.08" rx="4.33" ry="4.99"/><path class="cls-4" d="M107.65,76c-6.14,3-6.94,5-6.65,6.22.4,1.64,2.75,2.12,8.16,5.31,5.24,3.09,7.85,4.64,8.19,6.16s-1,2.26-7.43,10.64c-1,1.35-2.2,2.93-1.13,4.22.86,1,2.79,1.44,4,1.61"/><path class="cls-4" d="M129.52,76c-6.27,2.86-7.16,4.84-6.92,6.09.32,1.65,2.65,2.17,7.91,5.46,5.1,3.18,7.65,4.78,7.92,6.3s-1.13,2.24-7.92,10.51c-1.09,1.33-2.33,2.89-1.32,4.2.82,1,2.74,1.49,4,1.68"/><path class="cls-4" d="M150.63,76c-6.27,2.86-7.17,4.84-6.93,6.09.32,1.65,2.65,2.17,7.92,5.46,5.09,3.18,7.64,4.78,7.91,6.3s-1.13,2.24-7.91,10.51c-1.1,1.33-2.33,2.89-1.32,4.2.81,1,2.73,1.49,3.95,1.68"/><ellipse class="cls-3" cx="197.33" cy="155.21" rx="5.32" ry="4.48"/><ellipse class="cls-3" cx="216.42" cy="182.72" rx="6.14" ry="5.5"/><ellipse class="cls-3" cx="172.62" cy="178.24" rx="5.12" ry="5.9"/><circle class="cls-5" cx="155.44" cy="153.14" r="121.09"/><image width="332" height="331" transform="translate(-9 -12)" xlink:href="Logo_small1.png"/></svg>