<svg id="Layer_1" data-name="Layer 1" xmlns="http://www.w3.org/2000/svg" xmlns:xlink="http://www.w3.org/1999/xlink" viewBox="0 0 1030 261"><defs><style>.cls-1,.cls-2,.cls-4,.cls-5{fill:none;stroke-linecap:round;stroke-miterlimit:10;}.cls-1,.cls-2,.cls-5{stroke:#e80a54;}.cls-1,.cls-4{stroke-width:5px;}.cls-2{stroke-width:3px;}.cls-3{fill:#e80a54;}.cls-4{stroke:#ffce00;}.cls-5{stroke-width:2px;}</style></defs><title>logo_tekst</title><image width="1037" height="218" transform="translate(0 -12.5)" xlink:href="logo_tekst1.png"/><path class="cls-1" d="M289.06,88.28c2.68,3.52,6.35,10.76,8.35,19.24,1.45,6.13,3.56,15.09,0,20.2-4,5.75-13.28,3.87-20,2.89-32.5-4.72-79.69.78-96.05,3.85-2.6.48-8.76,1.73-10-1-2-4.35,10.1-16.08,13.36-19.24C214.24,85.66,272.22,66.17,289.06,88.28Z"/><path class="cls-2" d="M172.55,128.47c-1.87-8.71-.64-12,.84-13.47,2.53-2.45,6.19.35,10-2.88,1.89-1.6,2.91-3.89,4.18-6.74,2-4.6,1.59-6.51,3.34-7.69,1.43-1,2.22,0,6.68,0,3.49,0,5.24,0,6.68-1,3.35-2.24,1.8-6.44,5-8.65,2.5-1.73,6.47-1.28,9.19-1,1.89.22,2.49.54,3.34,0,2.23-1.39,1-5.4,3.34-7.69,2.16-2.09,5.58-1,5.85-1,2.44.78,2.34,2.48,4.17,2.88s3-1.22,9.19-5.77c3.56-2.63,4.24-2.85,5-2.88,3-.14,3.73,2.78,6.68,2.88,3.51.12,4.23-4,7.52-3.85s3.88,4.43,7.52,4.81c3.42.37,4.76-3.25,7.51-2.88,1.94.25,4.35,2.45,6.68,10.58"/><line class="cls-1" x1="70.81" y1="101.45" x2="141.41" y2="101.83"/><line class="cls-1" x1="310.77" y1="60.84" x2="384.72" y2="61.24"/><line class="cls-1" x1="457.96" y1="60.98" x2="531.9" y2="61.38"/><line class="cls-1" x1="564.53" y1="60.84" x2="638.47" y2="61.24"/><line class="cls-1" x1="671.21" y1="130.5" x2="739.99" y2="130.87"/><line class="cls-1" x1="779" y1="61.51" x2="852.94" y2="61.91"/><line class="cls-1" x1="882.15" y1="60.48" x2="956.09" y2="60.88"/><line class="cls-1" x1="457.76" y1="96.33" x2="533.47" y2="96.74"/><line class="cls-1" x1="459.81" y1="131.64" x2="533.24" y2="132.04"/><line class="cls-1" x1="816.58" y1="91.81" x2="779.6" y2="91.81"/><line class="cls-1" x1="922.03" y1="92.12" x2="885.06" y2="92.12"/><ellipse class="cls-3" cx="220.38" cy="106.82" rx="2.97" ry="3.42"/><path class="cls-4" d="M291.46,31.43l673.29-.61a28.39,28.39,0,0,1,28.39,28.39v77.24a28.39,28.39,0,0,1-28.39,28.39H70.32a28.39,28.39,0,0,1-28.39-28.39V59.21c0-15.68,4.75-27.58,20.43-27.58l113.13-.1"/><path class="cls-5" d="M212.47,24.53c-4.21,2-4.76,3.41-4.56,4.26.27,1.13,1.88,1.45,5.59,3.64s5.38,3.18,5.62,4.22-.71,1.55-5.1,7.29c-.71.93-1.51,2-.77,2.9a4.69,4.69,0,0,0,2.76,1.1"/><path class="cls-5" d="M227.46,24.52c-4.3,1.95-4.91,3.31-4.75,4.17.22,1.13,1.82,1.49,5.43,3.74s5.23,3.27,5.42,4.32-.78,1.54-5.42,7.2c-.75.91-1.6,2-.91,2.88A4.55,4.55,0,0,0,229.94,48"/><path class="cls-5" d="M241.92,24.52c-4.3,1.95-4.91,3.31-4.75,4.17.22,1.13,1.82,1.49,5.43,3.74s5.23,3.27,5.42,4.32-.77,1.54-5.42,7.2c-.75.91-1.6,2-.91,2.88A4.55,4.55,0,0,0,244.4,48"/><line class="cls-1" x1="778.56" y1="61.51" x2="778.19" y2="129.3"/><line class="cls-1" x1="740.97" y1="62.33" x2="740.6" y2="130.12"/><line class="cls-1" x1="671.14" y1="60.8" x2="670.77" y2="129.22"/><line class="cls-1" x1="882.35" y1="60.48" x2="881.98" y2="128.27"/><line class="cls-1" x1="599.6" y1="63.15" x2="599.23" y2="130.93"/><line class="cls-1" x1="346.27" y1="63.15" x2="345.9" y2="130.93"/><line class="cls-1" x1="457.75" y1="61.46" x2="457.57" y2="95.78"/><line class="cls-1" x1="533.75" y1="97.42" x2="533.57" y2="131.73"/><line class="cls-1" x1="143.07" y1="61.27" x2="142.67" y2="134.85"/><line class="cls-1" x1="70.86" y1="60.63" x2="70.46" y2="134.2"/><ellipse class="cls-3" cx="261.58" cy="93.21" rx="3.65" ry="3.07"/><ellipse class="cls-3" cx="274.67" cy="112.06" rx="4.21" ry="3.77"/><ellipse class="cls-3" cx="244.65" cy="108.99" rx="3.51" ry="4.04"/><g id="uL6Wm8.tif"><image id="Layer_0" data-name="Layer 0" width="536" height="38" transform="translate(408 180.5)" xlink:href="logo_tekst2.png"/></g></svg>