<svg id="Layer_1" data-name="Layer 1" xmlns="http://www.w3.org/2000/svg" xmlns:xlink="http://www.w3.org/1999/xlink" viewBox="0 0 1030 180"><defs><style>.cls-1{fill:#e80a54;}.cls-2{fill:#ffce00;}</style></defs><title>logo</title><path class="cls-1" d="M176.41,129.4c-2.75,0-5.38-.69-6.52-3.15-1.94-4.19,2.24-10.78,14-22,23-22,60.76-37.77,86-35.75,10.1.81,17.57,4.33,22.21,10.46h0c2.68,3.55,6.57,11,8.72,20.22,1.49,6.45,3.75,16.19-.47,22.2-4.63,6.6-14.1,5.14-21,4.07l-1.46-.22c-31.54-4.71-78.61.41-95.24,3.47l-.21,0A32.89,32.89,0,0,1,176.41,129.4Zm-2-5.29c.43.26,1.92.63,7.08-.33l.21,0c17.59-3.23,64.42-8.34,96.89-3.5l1.48.23c5.93.91,13.31,2,16.16-2s1-12.62-.31-18.2c-1.84-7.93-5.27-14.92-7.84-18.33h0c-3.74-5-10-7.8-18.62-8.49C245.88,71.57,209,87,187.32,107.82,174.83,119.81,174.4,123.51,174.43,124.11Z"/><path class="cls-1" d="M173.42,121.68a1.49,1.49,0,0,1-1.46-1.19c-1.6-7.61-1.17-12.47,1.32-14.85,1.62-1.56,3.53-1.56,5.22-1.55s3.25,0,4.89-1.37,2.58-3.49,3.79-6.17a30.39,30.39,0,0,0,1.54-4.3c.5-1.7.89-3,2.36-4a4.61,4.61,0,0,1,3.73-.54,23.15,23.15,0,0,0,3.8.3c3.42,0,4.83,0,5.85-.68,1.23-.82,1.56-2,2-3.54.47-1.73,1-3.69,3-5.09,3-2,7.33-1.52,10.22-1.18q.74.09,1.26.18c.95.15,1,.13,1.11,0,.52-.32.71-1.17,1-2.51a8.49,8.49,0,0,1,2.17-5c2.78-2.67,6.9-1.44,7.36-1.29a6.32,6.32,0,0,1,3,2.11c.44.49.61.67,1,.76.62.14,1.22-.28,3.77-2.27,1.09-.85,2.44-1.91,4.22-3.22,3.63-2.66,4.6-3.1,5.85-3.15a6.31,6.31,0,0,1,4.45,1.76,3.78,3.78,0,0,0,2.33,1.15c1.1,0,1.75-.53,2.81-1.54s2.47-2.4,4.73-2.28,3.64,1.6,4.7,2.82,1.72,1.89,2.9,2,1.94-.39,3.12-1.26a6.08,6.08,0,0,1,4.45-1.59c3.25.45,5.75,4.16,7.88,11.69a1.5,1.5,0,1,1-2.89.81c-2.33-8.25-4.55-9.41-5.4-9.53-.68-.09-1.27.32-2.27,1A7.09,7.09,0,0,1,272,70.1c-2.4-.27-3.75-1.8-4.83-3s-1.58-1.75-2.56-1.79-1.55.49-2.54,1.44c-1.15,1.1-2.57,2.48-5,2.38a6.64,6.64,0,0,1-4.09-1.8c-.95-.76-1.5-1.17-2.46-1.11-.38,0-1,.22-4.2,2.57-1.74,1.28-3.07,2.32-4.14,3.16-2.89,2.27-4.21,3.3-6.28,2.83a4.56,4.56,0,0,1-2.59-1.7,3.37,3.37,0,0,0-1.71-1.23s-2.8-.89-4.35.59a6,6,0,0,0-1.3,3.35c-.29,1.63-.63,3.48-2.32,4.53a4.07,4.07,0,0,1-3.16.36c-.32,0-.69-.11-1.14-.16-2.44-.29-6.13-.72-8.17.68-1.08.74-1.41,1.77-1.85,3.4s-1,3.8-3.21,5.25C204.3,91,202.27,91,198.61,91a26.15,26.15,0,0,1-4.23-.33c-1.22-.18-1.31-.16-1.62,0-.55.37-.71.87-1.16,2.38a33.69,33.69,0,0,1-1.68,4.68c-1.32,2.92-2.45,5.44-4.61,7.25a9.48,9.48,0,0,1-6.81,2.07c-1.58,0-2.43,0-3.15.71-.93.9-2.23,3.65-.45,12.08a1.49,1.49,0,0,1-1.16,1.77A1.73,1.73,0,0,1,173.42,121.68Z"/><path class="cls-1" d="M142.38,95.93h0l-70.6-.64a2.52,2.52,0,0,1-2.48-2.53,2.49,2.49,0,0,1,2.51-2.47h0l70.6.64a2.52,2.52,0,0,1,2.48,2.53A2.49,2.49,0,0,1,142.38,95.93Z"/><path class="cls-1" d="M385.83,56.24h0l-73.94-.67a2.5,2.5,0,0,1,0-5h0l73.94.67a2.5,2.5,0,0,1,0,5Z"/><path class="cls-1" d="M533,56.93h0l-73.94-.67a2.52,2.52,0,0,1-2.48-2.53,2.47,2.47,0,0,1,2.52-2.47l73.94.67a2.5,2.5,0,0,1,0,5Z"/><path class="cls-1" d="M639.59,57.19h0l-73.94-.68a2.5,2.5,0,0,1,0-5h0l73.94.68a2.5,2.5,0,0,1,0,5Z"/><path class="cls-1" d="M740.84,127.2h0l-68.77-.63a2.5,2.5,0,0,1,0-5h0l68.77.63a2.5,2.5,0,0,1,0,5Z"/><path class="cls-1" d="M854.05,58.66h0L780.1,58a2.5,2.5,0,0,1,0-5h0l73.94.68a2.5,2.5,0,0,1,0,5Z"/><path class="cls-1" d="M957.21,58h0l-73.94-.67a2.5,2.5,0,0,1,0-5h0l73.94.67a2.5,2.5,0,0,1,0,5Z"/><path class="cls-1" d="M534.46,92.3h0l-75.72-.69a2.5,2.5,0,0,1,0-5l75.71.69a2.5,2.5,0,0,1,0,5Z"/><path class="cls-1" d="M534.1,127.59h0l-73.43-.67a2.5,2.5,0,0,1,0-5h0l73.44.67a2.5,2.5,0,0,1,0,5Z"/><path class="cls-1" d="M817.58,88.42l-37-.13a2.5,2.5,0,1,1,0-5l37,.13a2.5,2.5,0,0,1,0,5Z"/><path class="cls-1" d="M923,89.13l-37-.14a2.5,2.5,0,0,1,0-5l37,.14a2.5,2.5,0,0,1,0,5Z"/><ellipse class="cls-1" cx="221.34" cy="98.72" rx="3.42" ry="2.97" transform="translate(121.8 319.68) rotate(-89.79)"/><path class="cls-2" d="M965.48,162,71.06,158.67a30.92,30.92,0,0,1-30.78-31l.29-77.23c.07-20,7.82-30,23-30l113.13.32h0a2.5,2.5,0,0,1,0,5L63.59,25.44c-7.7,0-17.94,2.53-18,25l-.29,77.23a25.92,25.92,0,0,0,25.79,26L965.5,157a25.91,25.91,0,0,0,26-25.79L991.77,54A25.93,25.93,0,0,0,966,28l-673.29-1.9h0a2.5,2.5,0,0,1,0-5L966,23a30.94,30.94,0,0,1,30.78,31l-.29,77.24A30.91,30.91,0,0,1,965.48,162Z"/><path class="cls-1" d="M217.19,40.82h-.14a5.24,5.24,0,0,1-3.39-1.47c-1.25-1.52.06-3.22.76-4.14,1.52-2,2.62-3.3,3.43-4.28,1.27-1.54,1.56-1.92,1.51-2.17-.13-.62-2.45-2-5.13-3.59-1.24-.74-2.24-1.26-3-1.68-1.7-.89-2.72-1.42-3-2.61-.55-2.36,2.65-4.2,5.11-5.38a1,1,0,0,1,.87,1.81c-4.23,2-4,3.07-4,3.11.07.3.87.72,2,1.3.82.43,1.85,1,3.13,1.73,4.06,2.42,5.74,3.42,6.07,4.88.26,1.22-.29,1.89-1.93,3.88-.8,1-1.89,2.28-3.38,4.22-.51.66-1,1.38-.81,1.65.1.12.55.54,2.13.76a1,1,0,0,1-.14,2Z"/><path class="cls-1" d="M231.12,40.91l-.16,0a5,5,0,0,1-3.34-1.54c-1.19-1.55.2-3.22.94-4.12,1.6-1.94,2.77-3.25,3.61-4.21,1.36-1.53,1.67-1.91,1.62-2.16-.1-.61-2.35-2-4.95-3.66-1.2-.76-2.18-1.3-3-1.73-1.66-.93-2.67-1.49-2.9-2.69-.44-2.35,2.83-4.13,5.33-5.26a1,1,0,1,1,.82,1.83c-4.34,2-4.19,3-4.18,3.06.05.28.87.74,1.9,1.31.81.45,1.81,1,3.05,1.79,4,2.49,5.61,3.53,5.86,5,.22,1.22-.36,1.87-2.09,3.82-.84.95-2,2.25-3.57,4.17-.39.47-1.11,1.34-.89,1.63.09.12.51.53,2.07.78a1,1,0,0,1-.16,2Z"/><path class="cls-1" d="M245.58,41h-.15a5.08,5.08,0,0,1-3.35-1.54c-1.19-1.56.2-3.23.94-4.12,1.61-1.94,2.77-3.26,3.61-4.22,1.36-1.52,1.67-1.91,1.63-2.15-.11-.61-2.36-2-5-3.67-1.2-.75-2.17-1.29-3-1.73-1.66-.92-2.67-1.48-2.9-2.69-.44-2.35,2.83-4.12,5.33-5.25a1,1,0,1,1,.83,1.82c-4.35,2-4.2,3-4.19,3.06.05.28.87.74,1.9,1.31.81.45,1.81,1,3.06,1.79,4,2.5,5.6,3.53,5.86,5,.21,1.22-.37,1.88-2.1,3.83-.84,1-2,2.25-3.57,4.16-.39.47-1.11,1.34-.89,1.63.09.12.52.53,2.07.78a1,1,0,0,1-.16,2Z"/><path class="cls-1" d="M779.06,125.77h0a2.49,2.49,0,0,1-2.47-2.52l.62-67.79A2.49,2.49,0,0,1,779.7,53h0a2.5,2.5,0,0,1,2.48,2.52l-.62,67.78A2.51,2.51,0,0,1,779.06,125.77Z"/><path class="cls-1" d="M741.46,126.45h0a2.5,2.5,0,0,1-2.48-2.52l.62-67.79a2.51,2.51,0,0,1,2.51-2.48h0a2.49,2.49,0,0,1,2.47,2.53L744,124A2.5,2.5,0,0,1,741.46,126.45Z"/><path class="cls-1" d="M671.64,125.29h0a2.5,2.5,0,0,1-2.47-2.53l.62-68.41a2.52,2.52,0,0,1,2.51-2.48h0a2.5,2.5,0,0,1,2.47,2.53l-.62,68.41A2.52,2.52,0,0,1,671.64,125.29Z"/><path class="cls-1" d="M882.85,125.13h0a2.5,2.5,0,0,1-2.47-2.53L881,54.82a2.5,2.5,0,0,1,2.51-2.48h0A2.5,2.5,0,0,1,886,54.86l-.62,67.79A2.52,2.52,0,0,1,882.85,125.13Z"/><path class="cls-1" d="M600.09,126.74h0a2.49,2.49,0,0,1-2.47-2.52l.62-67.79A2.5,2.5,0,0,1,600.73,54h0a2.52,2.52,0,0,1,2.48,2.53l-.62,67.78A2.51,2.51,0,0,1,600.09,126.74Z"/><path class="cls-1" d="M346.76,125.79h0a2.49,2.49,0,0,1-2.48-2.52l.62-67.78A2.49,2.49,0,0,1,347.4,53h0a2.5,2.5,0,0,1,2.48,2.52l-.62,67.79A2.5,2.5,0,0,1,346.76,125.79Z"/><path class="cls-1" d="M458.56,91.05h0a2.49,2.49,0,0,1-2.47-2.52l.31-34.32a2.49,2.49,0,0,1,2.51-2.47h0a2.5,2.5,0,0,1,2.48,2.52l-.31,34.31A2.51,2.51,0,0,1,458.56,91.05Z"/><path class="cls-1" d="M534.42,127.29h0a2.5,2.5,0,0,1-2.48-2.52l.31-34.32a2.5,2.5,0,0,1,5,0l-.31,34.31A2.49,2.49,0,0,1,534.42,127.29Z"/><path class="cls-1" d="M143.52,129h0a2.5,2.5,0,0,1-2.48-2.52l.67-73.58a2.5,2.5,0,0,1,5,0L146,126.47A2.51,2.51,0,0,1,143.52,129Z"/><path class="cls-1" d="M71.31,128h0a2.51,2.51,0,0,1-2.48-2.53l.67-73.57A2.51,2.51,0,0,1,72,49.46h0A2.52,2.52,0,0,1,74.49,52l-.67,73.57A2.51,2.51,0,0,1,71.31,128Z"/><ellipse class="cls-1" cx="262.59" cy="85.26" rx="3.07" ry="3.65" transform="translate(176.36 347.53) rotate(-89.79)"/><ellipse class="cls-1" cx="275.61" cy="104.15" rx="3.77" ry="4.21" transform="translate(170.43 379.38) rotate(-89.79)"/><ellipse class="cls-1" cx="245.6" cy="100.98" rx="4.04" ry="3.51" transform="translate(143.71 346.2) rotate(-89.79)"/><image width="1378" height="204" transform="translate(-166.17 -13.72)" xlink:href="logo1.png"/></svg>