<svg id="Layer_1" data-name="Layer 1" xmlns="http://www.w3.org/2000/svg" viewBox="0 0 966 724"><defs><style>.cls-1{fill:#ffbad1;}.cls-2{fill:#6abe84;stroke:#6abe84;stroke-miterlimit:10;stroke-width:4px;}</style></defs><title>meny</title><rect class="cls-1" x="-2" y="-1" width="969" height="730"/><path class="cls-2" d="M279.92,220.2H252l-5.18-119.63L224.06,220.2H197.5L227.38,77h42l4.4,100.3L322.59,77h42.48l-30,143.17H308.24l28.22-118.75Z"/><path class="cls-2" d="M366.2,220.2,396.08,77H502.23l-5,23.93H420.59l-6.84,32.52h74.13l-5,23.92H408.77l-9,38.87h83.3L478,220.2Z"/><path class="cls-2" d="M616.05,220.2H588.61L549.93,124,529.82,220.2H502.38L532.26,77H559.8l38.77,95.8,20-95.8h27.34Z"/><path class="cls-2" d="M720,220.2H690.61l11.62-55.76L662.77,77h31.35l17.77,40.43q6.36,14.55,8.5,21,3.61-6.35,8.4-13.48L742.36,106l20.22-29h34.18l-65.63,90.14Z"/><path class="cls-2" d="M279.92,420.2H252l-5.18-119.63L224.06,420.2H197.5L227.38,277h42l4.4,100.3L322.59,277h42.48l-30,143.17H308.24l28.22-118.75Z"/><path class="cls-2" d="M366.2,420.2,396.08,277H502.23l-5,23.93H420.59l-6.84,32.52h74.13l-5,23.92H408.77l-9,38.87h83.3L478,420.2Z"/><path class="cls-2" d="M616.05,420.2H588.61L549.93,324,529.82,420.2H502.38L532.26,277H559.8l38.77,95.8,20-95.8h27.34Z"/><path class="cls-2" d="M720,420.2H690.61l11.62-55.76L662.77,277h31.35l17.77,40.43q6.36,14.55,8.5,21,3.61-6.34,8.4-13.48L742.36,306l20.22-29h34.18l-65.63,90.14Z"/><path class="cls-2" d="M279.92,620.2H252l-5.18-119.63L224.06,620.2H197.5L227.38,477h42l4.4,100.3L322.59,477h42.48l-30,143.17H308.24l28.22-118.75Z"/><path class="cls-2" d="M366.2,620.2,396.08,477H502.23l-5,23.93H420.59l-6.84,32.52h74.13l-5,23.92H408.77l-9,38.87h83.3L478,620.2Z"/><path class="cls-2" d="M616.05,620.2H588.61L549.93,524,529.82,620.2H502.38L532.26,477H559.8l38.77,95.8,20-95.8h27.34Z"/><path class="cls-2" d="M720,620.2H690.61l11.62-55.76L662.77,477h31.35l17.77,40.43q6.36,14.55,8.5,21,3.61-6.35,8.4-13.48L742.36,506l20.22-29h34.18l-65.63,90.14Z"/></svg>